<svg width="807" height="851" viewBox="0 0 807 851" fill="none" xmlns="http://www.w3.org/2000/svg">
<path d="M-321.496 104.459C-259.938 48.5523 -185.36 22.0046 -105.23 7.75926C-22.7162 -6.91404 58.3046 0.954117 137.309 26.8442C218.541 53.4695 299.617 80.8248 379.551 111.057C471.621 145.884 558.063 192.111 633.745 255.86C688.122 301.663 737.125 352.693 773.35 414.807C805.038 469.121 811.278 528.173 802.273 588.444C794.543 640.132 760.583 672.783 713.064 692.281C656.313 715.561 598.448 715.947 539.583 702.255C519.879 697.671 500.027 693.568 480.064 690.307C423.032 680.987 377.771 699.068 342.581 746.157C324.008 771.011 302.751 795.011 278.679 814.378C228.198 854.985 169.794 859.028 110.177 838.374C42.857 815.049 -3.72997 768.048 -29.6042 702.248C-41.6258 671.674 -52.4647 639.433 -56.1915 607.061C-63.1902 546.304 -92.1456 508.08 -150.307 487.677C-195.25 471.91 -239.019 451.903 -281.444 430.141C-322.326 409.17 -354.023 376.566 -374.894 335.152C-407.548 270.365 -393.462 182.78 -342.38 126.508C-335.593 119.017 -328.468 111.806 -321.496 104.459Z" fill="#CCEBFF"/>
</svg>
