<svg width="325" height="648" viewBox="0 0 325 648" fill="none" xmlns="http://www.w3.org/2000/svg">
<path d="M-188.941 79.2849C-160.893 36.6865 -126.912 16.4582 -90.4015 5.60381C-52.8051 -5.57661 -15.8889 0.418559 20.1086 20.1458C57.1209 40.4332 94.0625 61.2769 130.483 84.3126C172.434 110.849 211.821 146.073 246.304 194.647C271.08 229.547 293.408 268.43 309.914 315.758C324.352 357.143 327.195 402.139 323.092 448.062C319.57 487.447 304.096 512.326 282.445 527.182C256.587 544.921 230.221 545.215 203.4 534.782C194.422 531.289 185.377 528.163 176.281 525.678C150.295 518.576 129.672 532.354 113.638 568.233C105.176 587.172 95.4905 605.459 84.5225 620.215C61.521 651.156 34.9101 654.237 7.74632 638.499C-22.9275 620.727 -44.1543 584.914 -55.9436 534.777C-61.4211 511.481 -66.3597 486.914 -68.0578 462.248C-71.2467 415.953 -84.4398 386.828 -110.94 371.282C-131.418 359.268 -151.361 344.023 -170.692 327.442C-189.319 311.463 -203.762 286.62 -213.271 255.064C-228.15 205.699 -221.731 138.963 -198.456 96.0855C-195.364 90.3775 -192.118 84.8832 -188.941 79.2849Z" fill="#CCEBFF"/>
</svg>
