<svg width="356" height="713" viewBox="0 0 356 713" fill="none" xmlns="http://www.w3.org/2000/svg">
<path d="M325.61 466.592C304.535 541.277 283.104 595.991 253.711 639.951C210.299 704.886 161.359 724.945 108.218 704.513C75.7563 692.034 47.908 665.464 27.6882 619.868C18.8182 599.863 11.7263 576.677 5.96403 553.145C-2.57473 518.269 -0.190156 480.607 5.9809 443.851C11.1592 413.028 12.3742 381.943 14.3707 350.687C17.0496 308.764 19.3115 266.369 25.0339 225.263C33.5139 164.365 54.3067 114.634 82.2083 74.5727C132.74 2.01568 188.173 -15.9526 247.358 16.3312C276.092 32.0043 300.832 59.1683 321.001 97.5793C349.505 151.86 358.687 218.618 353.822 293.16C349.557 358.509 337.606 420.828 325.61 466.592Z" fill="#FFF5AD"/>
</svg>
