<svg width="780" height="934" viewBox="0 0 780 934" fill="none" xmlns="http://www.w3.org/2000/svg">
<path d="M714.48 611.698C668.228 709.715 621.192 781.522 556.683 839.215C461.405 924.436 353.997 950.761 237.367 923.947C166.122 907.568 105.003 872.699 60.6261 812.858C41.1588 786.604 25.5943 756.173 12.9476 725.29C-5.79264 679.518 -0.559158 630.091 12.9846 581.853C24.3494 541.4 27.016 500.604 31.3978 459.583C37.2773 404.564 42.2414 348.924 54.8006 294.977C73.4119 215.054 119.046 149.786 180.282 97.2101C291.186 1.98596 412.845 -21.5956 542.741 20.7737C605.802 41.3432 660.099 76.9933 704.366 127.404C766.923 198.642 787.075 286.256 776.398 384.085C767.038 469.849 740.81 551.636 714.48 611.698Z" fill="#FFF5AD"/>
</svg>
