<svg width="82" height="142" viewBox="0 0 82 142" fill="none" xmlns="http://www.w3.org/2000/svg">
<path id="Vector" d="M44.3619 139.921C41.4424 137.539 38.5228 135.156 35.129 132.387C36.6178 131.886 37.7037 131.424 38.8356 131.156C62.9527 125.452 78.5773 107.52 80.9391 82.8422C82.4603 66.9466 77.9277 52.5419 70.4001 38.7889C61.8984 23.2562 48.9886 12.64 33.3439 4.99713C25.3266 1.08054 16.7597 0.0327823 7.96013 0.405662C5.66759 0.502761 3.38321 0.78892 0.910813 1.76141C2.18353 2.12024 3.48677 2.87499 4.72463 2.77971C35.1923 0.436434 67.0489 28.8408 74.4037 62.6727C77.2827 75.916 76.0728 88.7898 70.0071 101.049C62.9512 115.308 46.5483 125.805 30.8528 125.824C33.4969 120.865 39.8022 117.977 39.1499 110.766C33.6205 115.71 28.6987 120.107 23.7827 124.51C22.135 125.985 21.616 128.011 23.4065 129.284C29.3842 133.535 35.5739 137.49 41.7404 141.468C42.165 141.742 43.0657 141.278 43.745 141.157C43.9507 140.745 44.1562 140.333 44.3619 139.921Z" fill="#134380"/>
</svg>
