<svg width="80" height="117" viewBox="0 0 80 117" fill="none" xmlns="http://www.w3.org/2000/svg">
<path id="Vector" d="M59.6857 82.635C59.7575 82.5864 59.8572 82.5479 59.8981 82.4872C60.2902 81.9098 60.8189 81.3999 61.3361 80.8809C61.7414 80.474 62.054 80.0306 62.2144 79.5361L62.2248 79.5477C62.1446 79.324 62.1493 79.1087 62.3291 78.9154C62.4406 78.7951 62.5426 78.6609 62.6929 78.5705C63.4877 78.0896 63.8999 77.4191 64.4285 76.805C64.6994 76.4908 64.8639 76.1516 64.8577 75.7742C64.8505 75.3571 65.0575 74.9957 65.3334 74.6404C65.7986 74.0398 66.2612 73.436 66.5471 72.7717C66.62 72.6019 66.7455 72.4321 66.9069 72.2993C67.5138 71.8002 67.862 71.2012 68.2266 70.6032C68.4128 70.2992 68.5482 69.9956 68.5544 69.658C68.5572 69.5043 68.6474 69.3714 68.8342 69.2931C69.3681 69.0679 69.5868 68.7197 69.5757 68.2885C69.5699 68.0524 69.6684 67.8606 69.9004 67.7014C70.1637 67.52 70.293 67.2838 70.4078 67.0416C70.6532 66.5265 70.8797 66.0072 71.24 65.5243C71.4085 65.2981 71.4705 65.0376 71.3821 64.7778C71.1364 64.0436 71.5804 63.4159 71.8814 62.7654C71.9016 62.7238 72.0502 62.6897 72.1348 62.694C72.317 62.703 72.4491 62.6586 72.4943 62.5447C72.6722 62.0911 72.842 61.6343 72.9993 61.176C73.0471 61.0363 72.9987 60.8699 73.0769 60.7435C73.673 59.7698 73.6189 58.6708 74.1261 57.6799C74.3523 57.237 74.5375 56.789 74.8472 56.3674C75.2979 55.7557 75.5871 55.1065 75.4752 54.3758C75.4198 54.0139 75.6245 53.6678 75.806 53.3284C76.2235 52.5497 76.4915 51.7362 76.7854 50.9285C76.8383 50.7807 76.7692 50.6426 76.627 50.5186C76.5185 50.4231 76.5165 50.3145 76.5839 50.2108C76.6268 50.1452 76.6765 50.0811 76.7399 50.0254C77.2251 49.5968 77.316 49.1118 77.0914 48.5802C77.0112 48.3895 77.0286 48.2035 77.2608 48.0864C77.5833 47.9262 77.7132 47.7072 77.723 47.4364C77.7258 47.3631 77.7443 47.2881 77.7313 47.2166C77.6803 46.9572 78.0472 46.6328 77.4551 46.4506C77.4083 46.4362 77.3887 46.3104 77.412 46.247C77.5051 46.0027 77.5723 45.7433 77.7408 45.5263C77.9456 45.2607 78.1458 45.0349 77.8195 44.7313C77.7456 44.662 77.7747 44.5129 77.8154 44.4151C77.9323 44.1391 78.0276 43.8465 78.2294 43.6026C78.6402 43.1059 78.7648 42.5784 78.5498 42.0226C78.4017 41.6386 78.4318 41.3024 78.7124 40.9732C78.7897 40.8823 78.8615 40.777 78.879 40.6714C79.0138 39.8388 79.1726 39.0076 79.0451 38.1599C78.7055 37.5869 78.8038 36.9981 78.8727 36.4172C78.9209 36.0164 78.9376 35.6191 78.9103 35.2146C78.8653 34.5187 78.8994 33.8219 78.8979 33.125C78.8975 32.9271 79.0347 32.7941 79.2254 32.6586C79.5174 32.452 79.5052 32.1657 79.247 31.9603C79.0174 31.7772 78.8986 31.599 78.8849 31.373C78.8611 30.9693 78.8428 30.5656 78.8224 30.1626C78.8154 30.0146 78.8225 29.8593 78.9863 29.7586C79.2395 29.6027 79.3225 29.4076 79.3061 29.1744C79.2517 28.4407 79.2046 27.7073 79.1484 26.9732C79.1252 26.6765 79.0145 26.3972 78.8311 26.1215C78.3641 25.425 78.2781 24.7094 78.5643 23.9778C78.6321 23.8069 78.6618 23.6183 78.6447 23.4391C78.6013 22.9994 78.5336 22.5595 78.4462 22.1218C78.3511 21.6469 78.2136 21.1795 77.8398 20.7545C77.5768 20.457 77.5293 20.1272 77.6912 19.7993C77.82 19.5404 77.7725 19.2911 77.5661 19.059C77.3322 18.7971 77.2871 18.5179 77.2327 18.2196C77.1405 17.7136 76.9563 17.2174 76.9606 16.6999C76.9615 16.4943 76.773 16.2834 76.6595 16.0774C76.5078 15.8021 76.2939 15.5367 76.1977 15.2541C75.5514 13.3436 74.5371 11.5093 73.674 9.64401C73.5273 9.32767 73.3727 9.01221 73.2181 8.69675C72.5322 7.29318 71.7071 5.92846 70.718 4.61289C70.5707 4.41645 70.4223 4.21317 70.2232 4.04341C69.5461 3.46494 69.0515 2.80978 68.5039 2.17446C68.0672 1.66676 67.5536 1.19203 67.0673 0.704944C66.6712 0.307869 66.1171 0.143348 65.47 0.118985C65.153 0.331842 64.8579 0.527174 64.5682 0.727681C64.2888 0.921243 64.2012 1.17078 64.3304 1.43178C64.4681 1.70919 64.6407 1.98382 64.8449 2.24044C65.8281 3.47158 66.7179 4.73466 67.5469 6.01848C67.896 6.55806 68.285 7.08676 68.6191 7.63092C69.563 9.16462 70.3292 10.7444 71.0622 12.3273C71.8955 14.1213 72.6554 15.9344 73.1444 17.7874C73.3935 18.7307 73.5723 19.6808 73.7809 20.627C73.8761 21.0638 73.9516 21.5027 74.0642 21.9381C74.293 22.8096 74.5065 23.6817 74.5523 24.5652C74.5598 24.712 74.5842 24.8586 74.6126 25.0047C74.996 26.8684 75.2037 28.7351 75.1086 30.6082C75.0955 30.8638 75.1249 31.121 75.1374 31.3783C75.1481 31.6353 75.2009 31.8951 75.1683 32.1477C74.9991 33.4976 75.1633 34.8587 75.1109 36.2122C75.0409 38.0078 74.818 39.7916 74.5769 41.574C74.4733 42.337 74.3493 43.0995 74.2258 43.8608C74.1854 44.1143 74.147 44.3721 74.0543 44.6153C73.756 45.3916 73.6242 46.188 73.5456 46.9923C73.4958 47.5061 73.3531 48.0033 73.1987 48.5017C73.0448 48.999 72.9332 49.503 72.8021 50.0041C72.7471 50.2187 72.714 50.4395 72.6313 50.6479C72.2549 51.5928 71.9747 52.5553 71.7278 53.5238C71.6002 54.0256 71.4399 54.5201 71.0929 54.9743C70.9498 55.16 70.8592 55.3838 70.8386 55.5969C70.7742 56.2658 70.4707 56.88 70.1292 57.4858C69.9382 57.8257 69.8217 58.1717 69.7643 58.5388C69.713 58.8624 69.597 59.1835 69.4748 59.4965C69.2011 60.1966 68.9049 60.8916 68.6144 61.5866C68.5557 61.7252 68.5089 61.8717 68.4159 61.9974C67.7494 62.9026 67.4529 63.9062 67.0359 64.8777C66.7806 65.4697 66.52 66.0514 66.0781 66.5886C65.8509 66.8637 65.7049 67.1846 65.5992 67.4987C65.4642 67.896 65.2685 68.2573 64.8972 68.5689C64.7685 68.676 64.6699 68.811 64.6053 68.9456C64.2898 69.5994 63.9105 70.2297 63.459 70.8387C63.2941 71.0604 63.1986 71.3108 63.0964 71.5545C62.9206 71.9743 62.6728 72.3675 62.3918 72.7546C62.0416 73.2358 61.7355 73.7334 61.423 74.2282C61.1534 74.6574 60.8956 75.0853 60.4879 75.4653C60.2474 75.6886 60.1079 75.9741 59.9704 76.2455C59.7618 76.658 59.4896 77.0418 59.1503 77.4053C58.8989 77.675 58.6915 77.9664 58.4635 78.248C58.1097 78.6861 57.7525 79.1235 57.4016 79.5636C57.1261 79.9084 56.8599 80.2579 56.5891 80.6051C56.4411 80.7937 56.312 80.9918 56.1448 81.1721C55.5313 81.8346 54.8857 82.4833 54.2897 83.1537C53.8562 83.6413 53.4586 84.1475 53.0897 84.6614C52.8332 85.0197 52.5517 85.3513 52.1297 85.6251C51.8713 85.7944 51.6197 85.9888 51.4609 86.2093C51.0603 86.761 50.5713 87.256 49.9436 87.6845C49.7633 87.8079 49.6129 87.9603 49.4828 88.1133C48.6668 89.0735 47.6838 89.9438 46.7217 90.8279C45.6956 91.769 44.6122 92.6748 43.5442 93.5894C43.1889 93.894 42.7915 94.172 42.4167 94.4643C42.2107 94.6241 41.9865 94.7733 41.8163 94.9517C41.3268 95.4624 40.7297 95.899 40.114 96.3302C38.9944 97.1145 37.9049 97.9174 36.7065 98.6446C36.1678 98.9716 35.7148 99.3665 35.1828 99.7002C34.3859 100.2 33.5737 100.692 32.7348 101.156C31.0529 102.086 29.3474 102.994 27.6559 103.914C27.213 104.156 26.7937 104.418 26.3441 104.653C24.8721 105.422 23.3482 106.137 21.7479 106.771C20.9934 107.07 20.2623 107.395 19.5418 107.735C18.6971 108.134 17.7746 108.449 16.8914 108.807C16.2743 109.057 15.6747 109.33 15.0522 109.575C14.2086 109.909 13.3595 110.238 12.4964 110.545C11.7686 110.805 11.0214 111.038 10.2771 111.272C10.0607 111.34 9.82092 111.51 9.58629 111.358C9.41569 111.249 9.648 111.094 9.65879 110.958C9.66978 110.816 9.62962 110.672 9.60986 110.527L9.61858 110.539C10.544 109.591 11.466 108.642 12.3945 107.697C13.0314 107.046 13.6859 106.403 14.3105 105.746C14.5364 105.507 14.7131 105.237 14.6023 104.925C14.5842 104.876 14.4348 104.803 14.3761 104.813C14.2343 104.84 14.1114 104.909 13.9843 104.959C13.6815 104.862 13.7523 104.645 13.639 104.491C13.5427 104.36 13.4711 104.218 13.3841 104.083C13.3193 103.981 13.2478 103.882 13.1764 103.783C13.097 103.676 12.7945 103.606 12.6231 103.645C12.2262 103.737 11.8843 103.885 11.6331 104.126C11.5727 104.184 11.5152 104.244 11.4659 104.306C10.5412 105.475 9.40842 106.538 8.28795 107.609C8.22753 107.666 8.1624 107.722 8.10667 107.782C6.80368 109.209 5.21259 110.472 3.72703 111.796C3.25923 112.214 2.74936 112.516 1.96786 112.551C1.87598 112.556 1.7912 112.613 1.70302 112.646C1.48631 113.24 1.4821 113.237 0.974432 113.675C0.783024 113.841 0.615361 114.022 0.446929 114.201C0.349574 114.305 0.394086 114.519 0.530113 114.611C0.828883 114.814 1.22852 114.947 1.36488 115.261C1.52808 115.635 1.95652 115.775 2.44709 115.802C2.80192 115.82 3.17375 115.815 3.51535 115.758C3.9178 115.689 4.32191 115.669 4.73063 115.641C5.25528 115.605 5.75991 115.639 6.26216 115.759C7.10163 115.96 7.93677 116.173 8.77865 116.369C9.172 116.461 9.57408 116.564 9.97842 116.594C10.9548 116.668 11.9389 116.747 12.9156 116.745C14.8791 116.738 16.8179 116.567 18.7396 116.32C19.0894 116.276 19.4504 116.212 19.7615 116.1C20.4603 115.847 21.1811 115.704 21.9832 115.768C22.2523 115.79 22.5077 115.738 22.6657 115.58C22.9178 115.328 23.2756 115.211 23.6854 115.143C24.0348 115.085 24.3911 115.043 24.7295 114.966C25.3608 114.822 25.9943 114.677 26.6007 114.492C26.919 114.394 27.2001 114.224 27.4675 114.061C27.8234 113.845 27.8765 113.555 27.652 113.274C27.6005 113.21 27.5296 113.152 27.4804 113.087C26.8185 112.233 26.7112 112.13 25.2617 112.496C21.5748 113.428 17.7129 113.802 13.8147 114.055C12.8422 114.118 11.8578 114.154 10.9034 113.887C10.8226 113.864 10.7154 113.788 10.7147 113.738C10.7134 113.68 10.8 113.599 10.8784 113.571C11.4267 113.381 11.9814 113.203 12.5359 113.02L12.5285 113.011C12.5533 113.081 12.5652 113.155 12.6088 113.22C12.6799 113.33 12.8249 113.38 12.979 113.361C13.1236 113.342 13.2628 113.293 13.3946 113.245C13.7515 113.116 14.0875 112.955 14.4603 112.852C15.1183 112.669 15.758 112.476 16.2932 112.139C16.4378 112.048 16.6356 111.99 16.8237 111.946C17.2017 111.859 17.3878 111.683 17.4401 111.404C17.4628 111.285 17.6382 111.245 17.7958 111.283C18.153 111.367 18.4928 111.413 18.7883 111.208L18.7707 111.214C19.3207 111.105 19.8207 110.927 20.2162 110.64C20.5461 110.399 20.9461 110.257 21.3916 110.165C21.9869 110.04 22.5078 109.829 22.9964 109.562C23.4774 109.3 24.0068 109.082 24.4908 108.822C24.816 108.645 25.1679 108.51 25.533 108.385C26.0808 108.196 26.6229 107.997 27.1508 107.783C27.4571 107.658 27.7614 107.521 28.0134 107.349C29.2246 106.523 30.5978 105.852 32.0475 105.257C32.7534 104.967 33.3887 104.638 33.974 104.227C34.5411 103.828 35.2003 103.486 35.8061 103.108C36.0705 102.943 36.3019 102.752 36.5592 102.581C36.7045 102.484 36.859 102.388 37.0299 102.317C38.1926 101.831 38.1938 101.832 38.7969 101.045C38.8642 101.022 38.9515 100.977 39.049 100.963C39.6896 100.871 40.1375 100.588 40.5051 100.234C40.8043 99.9429 41.0926 99.6511 41.5477 99.4637C41.783 99.3672 41.8502 99.1883 41.8782 98.9993C41.9016 98.8409 42.042 98.7377 42.2455 98.6882C42.5368 98.616 42.8282 98.5438 43.007 98.3529C43.2665 98.077 43.6275 97.8859 44.0107 97.7049C44.4032 97.5195 44.6944 97.2678 44.7406 96.9193C44.7926 96.5326 45.0755 96.2448 45.4255 95.9773C45.7003 95.7669 45.9578 95.5434 46.2521 95.3452C46.9509 94.8746 47.6169 94.3874 48.1864 93.8312C48.3886 93.6336 48.6681 93.4493 48.973 93.3379C49.401 93.1815 49.715 92.9904 49.9028 92.6682C50.0163 92.4719 50.1962 92.2878 50.3948 92.1277C51.0744 91.5776 51.5484 90.9499 51.8157 90.2379C51.7105 90.2144 51.6058 90.1897 51.4989 90.1659C51.3444 90.2858 51.1895 90.4068 51.0333 90.5263C50.8439 90.9141 50.532 91.2323 50.0197 91.4359C49.8648 91.557 49.7103 91.6768 49.5554 91.7979C49.5172 91.8184 49.4807 91.8393 49.4431 91.8586C49.4837 91.8413 49.5244 91.824 49.565 91.8066C49.7199 91.6856 49.8744 91.5657 50.0306 91.4462C50.2187 91.0569 50.5101 90.7288 51.0454 90.5382C51.1999 90.4184 51.3549 90.2973 51.5111 90.1778C51.5454 90.1195 51.5751 90.0589 51.6159 90.0033C51.6355 89.9774 51.6736 89.9476 51.7089 89.9437C51.802 89.9314 51.8533 89.9772 51.8415 90.059C51.833 90.123 51.8085 90.1848 51.7931 90.2474C52.4544 89.862 53.0578 89.4426 53.403 88.8654C53.5644 88.5954 53.862 88.4032 54.222 88.262L54.2022 88.2694C54.248 88.0923 54.2631 87.9216 54.1832 87.7349C54.013 87.3407 54.062 87.2739 54.5599 87.2108C54.7695 87.1838 54.9351 87.1495 55.0907 87.0457C55.418 86.8259 55.7723 86.6279 56.0967 86.4061C56.2359 86.3106 56.382 86.1928 56.4351 86.0635C56.5854 85.6987 56.8806 85.4321 57.3337 85.2404C57.5595 85.1444 57.6725 84.9823 57.7138 84.7976C57.7863 84.4774 57.8571 84.1568 57.9296 83.8366C57.7221 83.669 57.6087 83.4722 57.5114 83.2631C57.4334 83.0954 57.3901 83.091 57.0337 83.1143C56.9836 83.1177 56.937 83.131 56.8897 83.1416C56.8152 83.2252 56.746 83.31 56.6669 83.3913C56.642 83.4161 56.5935 83.4343 56.5515 83.4407C56.5157 83.4459 56.4716 83.4295 56.4292 83.4227C56.4578 83.3697 56.4637 83.2932 56.5168 83.2681C56.6313 83.2158 56.7709 83.1902 56.9014 83.1547C57.0776 82.5398 57.5309 82.0209 57.9872 81.5041C58.0213 81.4655 58.1663 81.4689 58.2614 81.4703C58.2932 81.4708 58.3519 81.5169 58.359 81.5462C58.5643 82.2779 58.6398 82.9965 58.02 83.6418C57.9652 83.6995 57.9463 83.7757 57.9102 83.8429C58.141 83.7057 58.4332 83.5981 58.5879 83.4255C58.8174 83.1734 59.0792 82.9957 59.4891 82.9038C59.5943 82.8797 59.6361 82.7268 59.7092 82.6324C59.7011 82.6292 59.6857 82.635 59.6857 82.635ZM15.8744 110.327L15.8831 110.338C16.0109 110.29 16.1388 110.242 16.2649 110.193C16.3928 110.145 16.5201 110.099 16.6463 110.05C16.7741 110.002 16.9002 109.954 17.0281 109.906C17.156 109.858 17.2821 109.81 17.4099 109.762C17.5378 109.714 17.6652 109.667 17.793 109.619C17.9209 109.571 18.0482 109.524 18.1744 109.476L18.1669 109.466C18.039 109.514 17.9134 109.561 17.7855 109.609C17.6577 109.657 17.5316 109.706 17.4037 109.754C17.2759 109.802 17.1485 109.848 17.0206 109.896C16.8928 109.944 16.7654 109.991 16.6376 110.039C16.5097 110.087 16.3836 110.135 16.2562 110.182C16.1301 110.231 16.0022 110.279 15.8744 110.327ZM22.916 107.327C22.7877 107.376 22.6576 107.425 22.5293 107.474C22.4907 107.496 22.4503 107.517 22.4117 107.539C22.4528 107.521 22.4944 107.501 22.5355 107.482C22.6651 107.435 22.7952 107.386 22.9247 107.338C23.0526 107.29 23.1782 107.243 23.3061 107.195C23.5299 106.896 23.9045 106.713 24.3027 106.551C25.8951 105.909 27.3565 105.143 28.7195 104.28C29.098 104.04 29.5025 103.824 30.0089 103.73C30.0536 103.721 30.1432 103.732 30.1529 103.75C30.1872 103.81 30.2408 103.898 30.2058 103.939C29.9098 104.283 29.4766 104.533 29.0137 104.754C27.8797 105.295 26.7487 105.838 25.5947 106.359C24.8704 106.686 24.1557 107.035 23.2969 107.185C23.17 107.231 23.0439 107.279 22.916 107.327ZM27.0846 106.657C26.9546 106.706 26.8267 106.754 26.6967 106.803C26.6127 106.887 26.5388 106.979 26.4412 107.055C26.3511 107.125 26.2591 107.112 26.2308 107.031C26.2225 107.01 26.2715 106.967 26.3112 106.952C26.4383 106.901 26.5733 106.858 26.7041 106.812C26.8342 106.764 26.9621 106.716 27.0921 106.667C27.22 106.619 27.3461 106.571 27.474 106.523C27.6018 106.475 27.7292 106.428 27.857 106.38C28.121 106.031 28.5553 105.844 29.0798 105.742C29.2081 105.693 29.3382 105.644 29.4665 105.595C29.5944 105.547 29.7205 105.499 29.8484 105.451C30.0019 105.334 30.1554 105.216 30.3084 105.1C30.438 105.052 30.568 105.003 30.6959 104.955C30.8238 104.908 30.9511 104.861 31.0772 104.812C31.2303 104.696 31.3838 104.579 31.5369 104.462C31.6669 104.414 31.7948 104.366 31.9248 104.317C32.0766 104.199 32.2301 104.082 32.3819 103.964C32.512 103.915 32.6398 103.867 32.7699 103.818C32.8977 103.77 33.0251 103.723 33.153 103.676C33.3065 103.558 33.4578 103.441 33.6113 103.324C33.7413 103.275 33.8692 103.227 33.9993 103.178C34.1528 103.061 34.3058 102.945 34.4593 102.827C34.5889 102.78 34.7189 102.731 34.8468 102.683C35.0003 102.565 35.1516 102.449 35.3051 102.331C35.4352 102.283 35.5648 102.235 35.6948 102.186C35.8488 102.068 36.0028 101.949 36.1568 101.83C36.3354 101.579 36.6235 101.42 37.0012 101.338L36.9937 101.328C36.8038 101.571 36.5296 101.742 36.1476 101.82C35.9936 101.939 35.8396 102.058 35.6873 102.177C35.559 102.226 35.429 102.275 35.3011 102.323C35.1476 102.44 34.9946 102.556 34.8411 102.674C34.711 102.723 34.5827 102.772 34.4531 102.819C34.2996 102.937 34.1465 103.053 33.9948 103.171C33.8647 103.22 33.7368 103.268 33.6068 103.316C33.4538 103.433 33.3002 103.55 33.1472 103.666C33.0194 103.714 32.8932 103.763 32.7654 103.811C32.6358 103.858 32.5075 103.907 32.3774 103.956C32.2244 104.072 32.0691 104.19 31.9161 104.306C31.7861 104.355 31.6582 104.403 31.5281 104.451C31.3746 104.569 31.2229 104.687 31.0698 104.803C30.942 104.851 30.8158 104.899 30.6885 104.946C30.5584 104.995 30.4306 105.043 30.3005 105.092C30.147 105.209 29.9935 105.326 29.8404 105.443C29.7126 105.491 29.5852 105.537 29.4573 105.585C29.3277 105.633 29.1977 105.682 29.0681 105.729C28.8193 106.092 28.3724 106.268 27.8449 106.368C27.717 106.416 27.5909 106.464 27.463 106.512C27.3381 106.562 27.2103 106.61 27.0846 106.657ZM53.2347 88.2817C53.2711 88.2608 53.308 88.2387 53.3444 88.2178C53.3055 88.2355 53.2644 88.2541 53.2255 88.2717C53.1868 88.2935 53.1499 88.3156 53.1113 88.3373C53.1524 88.3188 53.1936 88.3002 53.2347 88.2817ZM45.5929 95.2615C45.7474 95.1416 45.9023 95.0205 46.0568 94.9007C46.172 94.681 46.3282 94.4811 46.6029 94.3419L46.5942 94.3307C46.4849 94.5543 46.3228 94.7503 46.0463 94.8891C45.8919 95.009 45.7352 95.1297 45.5807 95.2495C45.4267 95.3682 45.271 95.4864 45.117 95.6051C44.9613 95.7234 44.8078 95.8408 44.6521 95.9591C44.4968 96.0761 44.3411 96.1944 44.1876 96.3118C44.0324 96.4289 43.8767 96.5472 43.7214 96.6642C43.5662 96.7813 43.4105 96.8995 43.257 97.017C43.1017 97.134 42.946 97.2523 42.7925 97.3698C42.6368 97.488 42.4833 97.6055 42.3276 97.7237C42.1723 97.8408 42.0171 97.9578 41.8619 98.0749C41.7066 98.192 41.5526 98.3106 41.3969 98.4289C41.2421 98.5447 41.0886 98.6622 40.9339 98.778L40.9426 98.7892C41.0973 98.6733 41.2526 98.5563 41.4073 98.4404C41.5626 98.3234 41.7183 98.2051 41.8723 98.0865C42.0275 97.9694 42.1815 97.8508 42.3367 97.7337C42.492 97.6166 42.6477 97.4984 42.8029 97.3813C42.9582 97.2643 43.1121 97.1456 43.2679 97.0273C43.4231 96.9103 43.5788 96.792 43.7323 96.6746C43.888 96.5563 44.0416 96.4389 44.1973 96.3206C44.3525 96.2035 44.5083 96.0853 44.6618 95.9678C44.8175 95.8496 44.971 95.7321 45.1267 95.6138C45.2819 95.4968 45.4377 95.3785 45.5929 95.2615ZM40.0902 99.2875L40.0814 99.2764C39.9274 99.395 39.773 99.5149 39.619 99.6335C39.4637 99.7506 39.308 99.8689 39.1528 99.9859C38.9998 100.102 38.8463 100.22 38.6915 100.335C38.5614 100.384 38.4336 100.432 38.3035 100.481C38.1488 100.597 37.9957 100.713 37.8405 100.83L37.8505 100.843C38.0023 100.725 38.1558 100.608 38.308 100.489C38.4381 100.44 38.5659 100.392 38.696 100.343C38.8508 100.227 39.0055 100.111 39.1598 99.9967C39.3155 99.8784 39.469 99.761 39.6247 99.6427C39.7822 99.5249 39.9362 99.4062 40.0902 99.2875ZM48.3605 91.522L48.3705 91.5348C48.4502 91.4946 48.524 91.4504 48.61 91.4181C48.6347 91.4078 48.6868 91.4326 48.7265 91.4415C48.6494 91.5601 48.4924 91.5159 48.3605 91.522ZM48.9517 90.0684C49.1062 89.9485 49.2629 89.8279 49.4174 89.708C49.5318 89.4855 49.6897 89.286 49.9654 89.1443C50.0759 88.9223 50.2321 88.7224 50.511 88.5868L50.5024 88.5756C50.4055 88.8059 50.2433 89.0019 49.9545 89.134C49.8542 89.3636 49.6868 89.5584 49.4082 89.698C49.2532 89.8191 49.0987 89.939 48.9438 90.06C48.8182 90.2774 48.6586 90.4766 48.3957 90.6237C48.1164 91.1721 47.6127 91.586 46.9147 91.884C46.8604 91.988 46.81 92.011 46.8053 91.952C46.8029 91.9343 46.8841 91.9141 46.9269 91.896C47.2275 91.3602 47.7057 90.9301 48.4067 90.634C48.5211 90.4116 48.682 90.214 48.9517 90.0684ZM53.8048 85.2101C53.8362 85.1498 53.8642 85.0888 53.899 85.0293C53.951 84.9407 54.0163 84.9275 54.0609 84.9995C54.0724 85.0179 54.0347 85.0609 54.0044 85.0805C53.9384 85.1238 53.8628 85.1584 53.7909 85.1978C53.6176 85.6683 53.3129 86.0725 52.6926 86.3166C52.6616 86.3757 52.6312 86.4335 52.5986 86.4922C52.5505 86.5804 52.4921 86.5951 52.4477 86.5271C52.4362 86.5088 52.473 86.4681 52.5038 86.4473C52.5658 86.4044 52.635 86.3671 52.7035 86.327C52.9536 85.8947 53.2737 85.4992 53.8048 85.2101ZM45.4446 93.1692C45.5563 93.02 45.6627 92.8697 45.7804 92.7244C45.7991 92.7009 45.868 92.6833 45.9074 92.6881C46.0302 92.705 46.0736 92.7754 45.9808 92.8391C45.8112 92.9543 45.6197 93.054 45.4354 93.1593C45.184 93.7271 44.6645 94.1336 43.9562 94.4293C43.8089 94.7631 43.6719 95.0993 43.5112 95.4288C43.4598 95.5347 43.3207 95.5828 43.1499 95.5592C42.9535 95.5339 42.7577 95.5073 42.5596 95.4816C42.5227 95.5037 42.487 95.5274 42.45 95.5495C42.4894 95.5306 42.5306 95.512 42.57 95.4931C42.9051 95.0548 43.3471 94.6878 43.9666 94.4408C44.2392 93.8856 44.7256 93.4586 45.4446 93.1692ZM34.3657 101.44C34.5004 101.128 34.7409 100.872 35.1182 100.687C35.1974 100.648 35.2813 100.602 35.3736 100.587C35.458 100.573 35.5905 100.575 35.6361 100.611C35.6851 100.649 35.6959 100.754 35.659 100.8C35.3663 101.15 34.8975 101.329 34.3535 101.428C34.2638 101.593 34.1974 101.765 34.0815 101.92C33.8645 102.212 33.5111 102.398 33.0669 102.501C32.935 102.531 32.7161 102.491 32.6655 102.415C32.5945 102.306 32.6395 102.206 32.7309 102.122C32.8218 102.04 32.9226 101.961 33.0355 101.894C33.4207 101.66 33.8654 101.509 34.3657 101.44ZM64.2569 73.6022C64.4694 73.1562 64.9078 72.8359 65.3759 72.5261C65.4232 72.5631 65.4826 72.5882 65.4821 72.6132C65.5003 73.0974 65.2316 73.4345 64.5363 73.5458C64.4384 73.5609 64.3415 73.5735 64.2435 73.5886C64.3577 73.8687 64.4815 74.1482 64.5829 74.4321C64.6207 74.5355 64.6259 74.6501 64.6033 74.7545C64.5915 74.8126 64.5013 74.865 64.4314 74.9088C64.4065 74.9243 64.3234 74.9163 64.2915 74.8973C64.0164 74.7344 63.7563 74.5576 63.47 74.404C63.1548 74.2334 62.785 74.4846 62.4059 74.3143C62.4777 73.8159 62.712 73.3577 63.1689 72.9623C63.1977 72.9371 63.2552 72.9103 63.2972 72.9131C63.4143 72.9208 63.4507 72.9804 63.4486 73.0709C63.4462 73.2142 63.439 73.3603 63.4771 73.5007C63.5072 73.6142 63.6473 73.6917 63.8163 73.6819C63.9666 73.6719 64.1112 73.629 64.2569 73.6022ZM55.6327 82.8901C55.6438 82.8952 55.6553 82.8991 55.6647 82.9038C55.943 82.5662 56.2149 82.2259 56.5031 81.8918C56.6067 81.7725 56.7394 81.6649 56.8682 81.5578C56.8906 81.5391 56.9717 81.5334 57.0016 81.548C57.0361 81.5649 57.0693 81.6185 57.0562 81.642C56.5467 82.544 55.682 83.2863 54.9499 84.0872C54.9326 84.1071 54.845 84.1152 54.8129 84.1014C54.7808 84.0877 54.7461 84.0285 54.7616 84.0082C55.0469 83.6339 55.3404 83.2628 55.6327 82.8901ZM36.5068 99.9957C36.4797 99.9646 36.4241 99.9297 36.4291 99.9031C36.4816 99.6616 36.7801 99.562 36.993 99.413C37.3676 99.1496 37.8281 99.0057 38.3575 98.9721C38.4324 98.9677 38.5256 99.0308 38.5966 99.0743C38.6161 99.0866 38.6027 99.1535 38.5741 99.1735C38.3968 99.2988 38.2348 99.4473 38.022 99.5344C37.5837 99.7123 37.1149 99.8583 36.6562 100.012C36.6197 100.023 36.557 100.002 36.5068 99.9957ZM20.9198 108.363C20.9073 108.395 20.9085 108.444 20.8793 108.456C20.5429 108.594 20.2045 108.728 19.8618 108.859C19.8332 108.87 19.7339 108.841 19.7328 108.834C19.736 108.774 19.7246 108.685 19.7738 108.66C20.0901 108.501 20.4034 108.331 20.8143 108.303C20.847 108.301 20.8849 108.342 20.9198 108.363ZM75.9358 46.1366C75.8513 46.1745 75.8133 46.2042 75.7693 46.2063C75.7266 46.2099 75.651 46.197 75.6353 46.1751C75.4793 45.9675 75.4808 45.7647 75.6718 45.5764C75.6971 45.5504 75.7513 45.5322 75.7967 45.5265C75.9116 45.5112 76.0108 45.5545 76.0064 45.6366C75.9967 45.8125 75.958 45.9859 75.9358 46.1366ZM76.9493 44.9619C76.9963 44.9618 77.0432 44.9617 77.0897 44.9629C77.0984 45.0308 77.137 45.104 77.1129 45.1646C77.0249 45.4009 76.9278 45.6364 76.811 45.8649C76.7622 45.9596 76.6716 45.9512 76.6032 45.8304C76.7125 45.5594 76.8312 45.26 76.9493 44.9619ZM70.9056 60.8434C70.874 60.9089 70.859 60.9847 70.8027 61.0368C70.7527 61.0823 70.6367 61.1382 70.5847 61.1227C70.5137 61.1029 70.4476 61.0235 70.4286 60.9625C70.3841 60.8194 70.4147 60.6758 70.5689 60.5757C70.6223 60.5401 70.7416 60.5469 70.8306 60.5497C70.8584 60.5506 70.9034 60.6028 70.9083 60.633C70.9166 60.7021 70.9074 60.7726 70.9056 60.8434ZM54.6815 85.6353C54.6464 85.6103 54.6002 85.5894 54.5852 85.561C54.569 85.531 54.5648 85.48 54.5885 85.4628C54.7245 85.3705 54.8658 85.2793 55.0191 85.2001C55.1158 85.1504 55.2112 85.1796 55.246 85.2573C55.2588 85.2866 55.2437 85.3294 55.2201 85.3558C55.1006 85.5059 54.9704 85.6496 54.6815 85.6353ZM68.3789 65.1444C68.4433 65.0955 68.497 65.031 68.578 65.0016C68.6988 64.9573 68.836 65.0895 68.8063 65.2306C68.792 65.2999 68.755 65.3695 68.7113 65.4323C68.6929 65.4599 68.6146 65.4965 68.5971 65.4886C68.5188 65.454 68.4226 65.4127 68.3916 65.3583C68.3544 65.2959 68.3805 65.216 68.3789 65.1444ZM60.2988 77.8027C60.2603 77.7862 60.1909 77.7721 60.1885 77.7544C60.1592 77.5539 60.3559 77.4409 60.5239 77.3201C60.5481 77.3017 60.6252 77.2965 60.6533 77.3107C60.6845 77.3269 60.7088 77.3745 60.7012 77.4031C60.6583 77.5822 60.5518 77.7326 60.2988 77.8027ZM66.3114 71.2311C66.2689 71.343 66.1398 71.3894 65.9838 71.3427C65.9451 71.3314 65.9026 71.2969 65.8932 71.2684C65.8653 71.1778 66.0106 71.0717 66.162 71.0922C66.2208 71.1001 66.2611 71.183 66.3114 71.2311ZM55.5277 86.0378C55.4839 86.0254 55.4271 86.0219 55.3984 85.9997C55.3679 85.9771 55.3486 85.9358 55.3533 85.9052C55.3737 85.7779 55.4976 85.6973 55.6349 85.7201C55.6721 85.7257 55.7263 85.7642 55.7297 85.7887C55.744 85.904 55.6765 85.9892 55.5277 86.0378ZM50.752 89.5507C50.7328 89.495 50.7023 89.4394 50.7001 89.3835C50.6999 89.365 50.7934 89.3278 50.7976 89.3314C50.8548 89.3718 50.9038 89.4184 50.9551 89.4641C50.8876 89.4926 50.8195 89.5223 50.752 89.5507ZM51.6948 87.6123C51.5957 87.6588 51.4895 87.7089 51.3838 87.7579C51.3636 87.7283 51.3186 87.6906 51.3297 87.6719C51.3658 87.614 51.4156 87.5592 51.4769 87.5135C51.5011 87.4952 51.5725 87.49 51.609 87.5021C51.6391 87.5115 51.6523 87.554 51.6948 87.6123ZM69.8045 63.2992C69.822 63.3308 69.8565 63.3623 69.8558 63.3924C69.8546 63.4238 69.8243 63.4765 69.7946 63.4804C69.6719 63.4965 69.6304 63.445 69.6947 63.3539C69.71 63.3296 69.7669 63.3185 69.8045 63.2992ZM53.5344 86.7208L53.4197 86.7071L53.489 86.646L53.5344 86.7208ZM68.8328 64.2168L68.7421 64.2375L68.7692 64.1644L68.8328 64.2168ZM38.8928 98.4122L38.8209 98.3474L38.9348 98.3346L38.8928 98.4122ZM40.0492 97.4264L40.1448 97.3791L40.1593 97.4562L40.0492 97.4264Z" fill="#A25F9D"/>
</svg>
