<svg width="213" height="381" viewBox="0 0 213 381" fill="none" xmlns="http://www.w3.org/2000/svg">
<g opacity="0.54">
<path d="M53.1068 196.828C49.6968 198.314 47.1392 200.437 45.6473 204.046C44.1554 207.867 44.1554 212.112 46.2867 215.508C47.5655 217.631 49.4836 219.754 51.6149 221.028C56.3038 226.334 64.4027 228.245 70.7966 224.212C72.2885 223.15 73.7804 222.089 74.8461 220.603C75.9117 219.966 76.7642 218.905 77.4036 218.056C77.8299 217.419 78.043 216.782 78.2561 216.145C79.748 213.81 80.8137 210.838 80.6006 207.867C80.3874 200.862 74.6329 194.281 67.8128 192.795C62.4845 191.734 56.9432 193.22 53.1068 196.828Z" fill="#FDC76B"/>
<path d="M75.275 147.575C73.5699 151.183 72.7174 154.792 73.3568 158.825C73.7831 161.585 74.4225 163.92 75.9144 166.255C79.3245 171.774 85.5052 175.383 92.1122 175.17C93.1779 175.17 94.0304 174.958 94.8829 174.746C95.5223 174.746 96.1617 174.534 96.8011 174.321C98.9324 173.897 101.064 172.623 102.769 171.137C104.687 169.651 106.392 167.953 107.671 165.83C109.376 163.283 110.228 160.099 110.015 156.915C110.015 155.853 109.802 155.004 109.589 153.943C109.376 153.094 109.376 152.245 109.163 151.396C108.31 148.212 106.392 145.24 104.047 142.905C101.703 140.57 98.7192 138.872 95.5223 138.022C88.0628 136.749 78.6851 140.57 75.275 147.575Z" fill="#FDC76B"/>
<path d="M115.771 203.195C105.115 203.62 97.6552 211.474 97.0158 221.875C96.8027 225.484 96.5895 229.305 96.1633 232.913C95.737 237.583 98.0814 242.253 101.492 245.65C101.705 246.499 102.131 247.136 102.77 247.985C105.115 251.593 108.312 254.353 112.574 255.414C116.624 256.476 121.526 255.839 125.149 253.716C129.625 250.956 131.969 246.923 132.822 242.253C133.248 241.829 133.674 241.192 133.887 240.767C139.215 232.913 138.363 222.512 132.822 215.507C131.969 212.96 130.69 210.625 128.559 208.502C125.788 205.53 120.46 202.983 115.771 203.195Z" fill="#FDC76B"/>
<path d="M161.165 128.898C155.837 130.172 150.935 132.932 146.885 136.965C140.491 143.333 136.016 152.885 136.016 161.801C136.016 169.018 138.36 175.386 141.983 180.481C145.82 186.212 151.361 190.882 158.607 192.793C160.526 193.217 162.444 193.642 164.362 193.854C169.477 194.703 175.018 194.279 180.347 192.368C197.397 186.637 212.103 169.443 205.922 150.338C199.741 131.233 179.494 121.257 161.165 128.898Z" fill="#FDC76B"/>
<path d="M109.801 82.627C108.948 82.8392 108.096 83.0515 107.243 83.2638C96.7997 84.9619 90.6189 97.6984 96.1603 107.038C97.8653 110.01 99.9966 112.77 102.341 115.317C102.98 116.166 103.833 117.015 104.685 117.652C106.817 119.563 109.374 121.473 112.145 121.898C113.85 122.322 115.555 122.322 117.26 122.534C119.605 122.747 122.802 121.685 124.72 120.412C127.49 118.713 129.622 116.166 130.9 113.194C131.327 111.921 131.753 110.647 131.966 109.586C132.392 108.737 133.032 107.887 133.245 107.038C134.737 103.43 135.376 99.1843 134.097 95.3634C132.605 91.1179 130.048 86.6601 125.785 84.5373C124.08 83.6882 122.162 82.8392 120.244 82.2024C116.408 81.5656 113.637 81.9901 109.801 82.627Z" fill="#FDC76B"/>
<path d="M167.132 237.163C166.919 237.163 166.919 237.376 166.706 237.376H166.493C162.656 238.225 159.246 240.135 157.541 243.956C156.262 245.866 155.623 248.201 155.623 250.536C155.836 258.603 162.656 264.759 170.542 264.759C175.657 264.759 180.346 262.636 183.969 259.452C185.035 258.391 185.887 257.329 186.527 256.056C186.74 255.843 186.74 255.843 186.953 255.631C188.658 253.721 189.724 251.598 190.15 249.051C191.003 243.531 187.379 238.012 181.838 236.526C180.346 236.102 178.641 235.89 176.936 235.677C173.952 235.04 170.329 235.465 167.132 237.163Z" fill="#FDC76B"/>
<path d="M57.7985 278.973C53.1096 278.76 48.847 280.458 45.6501 283.43C43.5188 284.704 41.6006 286.402 40.1087 288.949C38.1906 292.346 37.338 297.44 38.4037 301.261C38.8299 302.323 39.2562 303.384 39.6825 304.233C40.7481 307.842 42.8794 310.814 46.0764 313.361C47.9945 315.059 50.1258 316.12 52.6834 316.757C54.3884 317.182 56.0935 317.394 57.7985 317.394C59.2904 317.394 60.7823 317.182 62.2742 316.757H62.4873C66.9631 316.12 71.4388 315.059 74.6357 311.45C77.4064 308.479 79.1115 304.87 79.7508 300.837C81.0296 291.709 75.4883 283.006 66.3237 280.458C65.0449 280.034 63.7661 279.822 62.7005 279.822C61.4217 279.397 59.9298 279.185 58.4379 279.185C58.4379 278.973 58.0116 278.973 57.7985 278.973Z" fill="#FDC76B"/>
<path d="M123.869 292.562C123.442 292.774 123.229 292.774 122.803 292.987C118.54 295.534 114.704 300.841 115.343 305.935V306.148C115.77 309.756 116.409 312.728 118.754 315.488C121.098 318.459 123.442 319.733 126.853 321.007C130.689 322.493 135.591 321.644 139.214 320.158C143.263 318.459 146.247 316.124 148.592 312.516C152.215 306.997 152.641 300.416 150.936 294.26C149.657 289.378 145.821 285.345 140.919 284.071C133.886 282.798 126.853 286.194 123.869 292.562Z" fill="#FDC76B"/>
<path d="M40.7459 50.9993C37.9752 51.6361 35.6308 52.9097 33.7126 54.8202C31.3682 56.3061 29.6632 58.2167 28.3844 60.764C26.8925 63.099 26.04 65.6462 25.8268 68.618C25.1875 71.3775 25.4006 74.1371 26.2531 76.8967C27.3188 80.5053 29.0238 83.4771 31.5814 86.0244C34.7783 88.784 37.1227 90.4822 41.3853 91.7558C48.8449 93.6663 56.5175 91.5436 62.0589 86.2368C64.1902 84.3263 65.469 82.2035 66.3215 79.6562C67.6003 77.1089 68.2397 74.5617 68.0265 71.5899C67.8134 69.6794 67.6003 67.9813 67.3871 66.0708C66.7478 63.3112 65.469 60.9761 63.7639 59.0657C62.9114 57.5798 61.6326 56.3061 59.9276 55.2448C58.0094 53.5466 55.665 52.2729 52.8943 51.6361C52.4681 51.4238 52.2549 51.4239 51.8287 51.2117C48.2055 49.938 44.3691 49.9379 40.7459 50.9993Z" fill="#FDC76B"/>
<path d="M33.9277 130.175C33.0752 130.175 32.4358 130.387 31.5832 130.387C30.5176 130.6 29.4519 131.024 28.5994 131.449C28.3863 131.449 27.96 131.449 27.7469 131.661C24.3368 132.51 21.353 134.633 19.2217 137.392C18.1561 138.454 17.5167 139.515 17.0904 141.001C16.451 142.275 16.0248 143.548 16.0248 145.034C15.5985 146.52 15.5985 148.006 16.0248 149.28C16.0248 151.402 16.6642 153.525 17.9429 155.436C18.3692 156.072 18.7955 156.709 19.2217 157.346C20.0742 158.62 21.1399 159.893 22.2055 160.955C23.9106 162.653 25.4025 163.502 26.8944 164.351C26.8944 164.351 26.8944 164.351 26.6813 164.351C26.8944 164.351 26.8944 164.563 27.1075 164.563C28.5994 165.2 30.0913 165.837 31.5832 166.474C34.1408 167.323 36.4852 167.323 39.0428 166.898C40.7478 166.898 42.2397 166.474 43.7316 165.625C46.0761 164.776 47.9942 163.502 49.6993 161.804C52.2568 159.256 53.9619 156.285 55.0275 152.676C56.9457 146.52 54.8144 139.515 50.3387 135.057C47.9942 132.722 45.4367 131.236 42.2397 130.387C39.6822 129.751 36.9115 129.538 33.9277 130.175Z" fill="#FDC76B"/>
<path d="M166.708 52.6964C165.003 53.5455 163.724 54.6069 162.658 55.8805C159.675 59.2769 157.757 62.8855 157.117 67.5555C156.051 75.8342 160.314 84.5375 167.774 88.3584C173.528 93.453 180.988 96.4248 188.873 96.4248C194.628 96.4248 200.809 93.8774 204.858 89.8442C206.35 88.3583 207.629 86.4479 208.695 84.5374C209.76 82.8392 210.613 80.7166 211.252 78.8061C213.383 70.7397 211.039 62.4611 205.284 56.5174C200.596 51.6351 194.415 49.9369 188.234 48.2387C180.988 45.6914 172.462 47.6018 166.708 52.6964Z" fill="#FDC76B"/>
<path d="M71.6519 341.599C69.3074 342.872 67.3893 344.571 65.8974 346.906C64.1923 348.816 62.9135 351.151 62.2742 353.911C62.061 355.609 61.8479 357.519 61.6348 359.217C61.6348 362.826 62.4873 366.222 64.4054 369.406C64.4054 369.619 64.4054 369.619 64.6186 369.831C65.6842 371.317 66.7499 372.591 67.8155 374.077C69.3074 375.138 70.5862 376.199 72.0781 377.261C73.7832 377.897 75.4882 378.747 76.9801 379.383C79.3245 379.808 81.8821 380.232 84.2265 380.232C84.8659 380.232 85.5053 380.232 86.1447 380.232C87.2103 380.232 88.4891 380.02 89.5548 379.808C91.4729 379.808 93.178 379.383 94.6699 378.322C95.5224 377.897 96.588 377.473 97.4406 377.048C100.424 375.35 102.982 372.803 104.687 369.831C105.539 368.133 106.392 366.435 106.818 364.736V364.524C107.245 363.251 107.245 361.765 107.458 360.491C107.458 360.279 107.458 359.854 107.671 359.642C107.458 357.944 107.245 356.246 107.031 354.547C106.818 354.335 106.818 353.911 106.605 353.698C106.179 352.637 105.753 351.576 105.326 350.726C105.326 350.514 105.113 350.302 105.113 350.09C104.687 349.241 104.048 348.604 103.621 347.755C103.408 347.542 103.408 347.33 103.195 347.33C103.195 347.118 102.982 347.118 102.982 346.906C100.424 343.721 97.0143 341.386 92.9648 340.537C91.8992 340.325 90.8335 340.113 89.5548 339.9C89.3416 339.9 88.9154 339.688 88.7022 339.688C82.7346 337.99 76.5538 338.627 71.6519 341.599Z" fill="#FDC76B"/>
<path d="M19.6479 223.361C13.8934 225.271 8.56515 228.243 5.3682 233.337C4.51569 234.399 3.66317 235.46 3.02378 236.521C2.38439 238.22 1.53187 239.918 0.89248 241.616C0.67935 243.526 0.466221 245.437 0.0399619 247.347C-0.173168 250.319 0.46622 253.079 1.95813 255.626C2.38439 257.537 3.45004 259.022 4.72882 260.296C5.58133 261.994 6.86011 263.268 8.56515 264.117C9.84393 265.391 11.549 266.452 13.254 266.877C14.959 267.726 16.8772 268.362 18.7954 268.575C20.5004 269.424 22.2055 269.848 24.1236 269.848C25.4024 270.273 26.6812 270.273 27.96 270.273C30.0912 270.061 32.2225 269.636 34.3538 269.424C37.5508 268.787 40.1083 267.301 42.4528 265.178C44.1578 264.117 45.6497 262.631 46.7154 260.933C48.8467 258.598 50.3386 255.838 50.978 252.867C51.8305 248.621 51.8305 244.376 50.978 240.13C50.3386 236.946 48.8467 234.399 46.7154 232.064C45.0103 229.516 42.879 227.394 40.1083 225.908C33.9276 222.299 26.2549 221.238 19.6479 223.361Z" fill="#FDC76B"/>
<path d="M96.8023 1.74871C92.7528 2.81008 88.9165 5.14514 85.9326 7.9047C81.2438 12.1502 79.1125 18.7306 78.8994 24.8866C78.6862 32.1039 81.6701 39.3211 86.7852 44.628C89.769 47.5998 94.2447 50.5716 98.2942 51.633C103.409 52.9066 107.885 52.4821 112.787 51.4208C117.689 50.3594 123.443 45.9016 125.788 41.4439C126.427 39.7457 127.28 38.0476 127.919 36.3494C128.772 33.3776 128.985 30.6179 128.345 27.6461C128.132 25.7356 127.493 23.8252 126.854 21.9147C126.64 18.7306 125.788 15.3343 124.083 12.5747C123.443 11.5134 122.591 10.452 121.738 9.39064C121.525 9.17836 121.525 8.96606 121.312 8.96606C120.886 8.32925 120.247 7.90472 119.82 7.2679C120.033 7.48018 120.033 7.69247 120.247 7.69247C117.476 4.72065 113.853 2.38559 109.59 1.5365C105.114 0.475124 101.704 0.475075 96.8023 1.74871Z" fill="#FDC76B"/>
</g>
</svg>
