<svg width="1374" height="1256" viewBox="0 0 1374 1256" fill="none" xmlns="http://www.w3.org/2000/svg">
<path d="M1001.29 1139.87C865.259 1211.08 748.664 1250.28 620.576 1255.45C431.387 1263.09 272.52 1188.58 143.232 1041.66C64.2533 951.915 12.7403 850.115 2.27079 735.059C-2.31992 684.583 1.37362 632.978 9.17848 583.709C20.75 510.691 66.0494 456.947 121.123 412.814C167.317 375.81 202.577 329.822 240.221 285.258C290.715 225.487 340.513 164.076 398.773 112.168C485.091 35.2712 594.779 2.47587 714.66 0.184148C931.777 -3.97232 1106.86 87.8489 1241.1 266.382C1306.27 353.056 1348.38 449.062 1366.07 552.77C1391.06 699.328 1348.67 823.6 1258.6 929.656C1179.64 1022.63 1082.06 1094.24 1001.29 1139.87Z" fill="#E4F9EA"/>
</svg>
