<svg width="274" height="274" viewBox="0 0 274 274" fill="none" xmlns="http://www.w3.org/2000/svg">
<g id="Group" opacity="0.2">
<path id="Vector" d="M129.643 36.2343C117.596 49.3309 123.971 71.4217 129.3 86.5817C135.345 103.533 143.736 121.284 153.859 135.76C163.981 150.236 175.864 162.606 191.333 169.238C207.536 176.315 227.225 179.942 240.828 164.863C248.132 156.721 245.074 141.369 236.115 136.571C225.638 131.062 214.188 132.375 204.683 126.424C196.914 121.646 189.013 113.535 183.056 104.541C175.649 93.3127 170.233 81.0236 164.097 68.8751C158.397 57.6488 156.069 44.673 148.595 34.9682C143.68 28.4571 134.434 31.1019 129.643 36.2343Z" fill="#0286C3"/>
<path id="Vector_2" d="M96.7277 15.6806C90.0286 14.5543 81.1373 19.0605 79.8924 27.5298C76.1911 52.1757 81.0609 80.5203 88.4498 103.924C95.8529 127.913 106.172 150.577 121.67 169.207C137.277 188.068 157.219 202.222 178.871 209.998C195.672 216.119 226.592 224.352 239.015 205.39C240.462 203.176 239.406 200.109 237.609 198.529C230.063 192.28 221.339 192.976 212.525 192.095C203.399 191.107 194.23 188.364 185.455 184.789C167.639 177.356 151.608 164.537 139.172 148.498C127.532 133.311 118.501 114.761 113.951 95.4193C111.598 85.7219 110.013 75.7067 109.257 65.7813C108.63 54.7395 109.866 43.7537 109.348 32.9425C109.09 24.347 104.569 17.0035 96.7277 15.6806Z" fill="#0286C3"/>
<path id="Vector_3" d="M39.7891 49.7345C38.3729 74.7761 48.0844 102.262 56.8064 125.156C66.4003 149.895 80.6705 171.202 97.5777 190.315C129.269 226.27 170.663 269.984 219.067 265.234C224.174 264.656 224.698 256.327 219.312 256.035C174.343 253.063 136.799 210.276 106.809 176.256C91.1203 158.332 78.2863 138.675 69.4079 115.728C60.9653 93.7026 58.7496 68.1949 47.7035 47.6015C45.5379 43.575 40.0846 44.8077 39.7891 49.7345Z" fill="#0286C3"/>
<path id="Vector_4" d="M199.324 198.963C196.772 198.285 194.646 202.396 197.273 204.067C206.515 209.737 220.3 215.024 230.39 208.602C231.661 207.682 231.667 205.749 230.557 204.79C221.852 197.755 209.107 201.336 199.324 198.963Z" fill="#0286C3"/>
<path id="Vector_5" d="M149.233 181.839C154.356 192.68 168.562 198.303 178.82 198.903C180.01 198.923 180.846 197.08 179.893 196.174C176.019 192.144 171.8 188.769 167.471 185.164C163.142 181.558 158.8 177.367 153.432 175.728C150.473 175.299 147.659 178.787 149.233 181.839Z" fill="#0286C3"/>
<path id="Vector_6" d="M113.126 138.005C112.649 146.155 118.849 152.331 123.123 158.043C126.806 162.78 131.108 169.662 137.39 168.519C138.315 168.255 138.709 167.423 138.79 166.484C139.669 160.017 134.171 155.047 131.366 150.223C128.186 144.884 125.875 136.942 120.419 133.727C117.215 131.667 113.436 133.663 113.126 138.005Z" fill="#0286C3"/>
<path id="Vector_7" d="M95.3494 82.4739C91.9011 89.6088 93.6196 96.5741 96.7316 103.435C99.081 108.683 104.193 116.999 109.701 118.106C110.843 118.302 112.066 117.56 112.085 116.214C112.172 113.344 111.035 111.216 109.993 108.734C108.78 105.614 107.975 102.247 106.967 99.003C105.059 92.7462 104.041 86.9867 99.8906 82.0908C98.7677 80.5478 96.1843 80.6326 95.3494 82.4739Z" fill="#0286C3"/>
<path id="Vector_8" d="M86.1188 23.1064C79.9359 34.7172 83.4031 54.2598 89.9628 64.8087C92.222 68.4786 98.3393 69.2138 99.4499 63.7952C100.75 57.6683 100.705 51.4687 100.659 45.269C100.709 38.7152 102.057 32.4113 100.917 25.8381C99.7487 18.0957 89.7839 16.4339 86.1188 23.1064Z" fill="#0286C3"/>
</g>
</svg>
