<svg width="363" height="549" viewBox="0 0 700 549" fill="none" xmlns="http://www.w3.org/2000/svg">
<path d="M37.1964 313.602C43.0714 307.336 49.3381 301.069 56.7798 294.802C80.2799 274.827 106.13 252.894 102.213 218.427C98.6882 190.227 66.5715 178.477 43.0714 170.644C-26.2538 146.752 -7.0622 62.5432 66.1797 45.3098C139.03 28.0765 192.689 70.7683 209.922 93.485C227.155 116.202 278.072 104.06 287.081 72.3349C296.089 40.6098 312.539 -10.307 349.747 1.83471C386.956 13.9764 411.239 69.9849 370.898 123.252C330.556 176.519 409.281 175.344 436.698 164.769C464.115 154.194 560.073 91.5267 586.707 83.3017C613.34 75.4683 745.332 73.9016 686.582 199.235C654.465 252.502 580.048 274.044 570.648 279.136C561.248 284.227 489.181 317.911 495.84 377.836C502.498 437.761 522.473 485.153 514.64 504.736C506.806 524.32 451.973 572.495 366.589 535.286C281.205 498.078 241.255 418.569 234.597 402.903C220.105 369.219 186.03 388.803 166.838 406.428C138.247 432.278 126.105 465.178 108.48 498.078C96.73 520.403 82.2382 530.586 58.7382 515.311C26.2297 494.161 6.25456 460.086 2.33788 421.703C-1.97046 377.444 10.563 342.978 37.1964 313.602Z" fill="#F9E4EE"/>
<path d="M98.6879 98.9685C92.8129 102.494 87.7212 108.76 84.9796 115.419C83.4129 117.769 82.2377 120.51 81.846 123.252C79.8877 131.085 82.6294 138.527 87.721 143.619C91.6377 149.494 97.9045 153.41 104.955 153.019C113.18 152.627 119.446 147.927 124.146 141.66C128.846 135.002 132.763 125.21 132.371 116.594C131.98 99.3602 113.571 90.3518 98.6879 98.9685Z" fill="#E4F9EA"/>
<path d="M216.58 176.524C216.189 170.257 213.839 165.165 209.922 161.249C209.922 160.857 209.53 160.857 209.139 160.465C208.355 159.682 207.572 158.899 206.397 158.115C195.039 149.499 178.589 154.199 172.322 166.732C172.322 166.732 172.322 166.732 172.322 167.124C166.447 174.174 162.53 183.182 165.272 191.799C166.055 194.932 168.014 197.674 170.364 200.024C173.889 206.291 180.155 210.207 187.597 210.599C193.472 210.599 198.564 208.641 202.48 205.116C204.047 204.332 205.614 203.157 206.789 201.591C213.447 194.932 216.972 185.14 216.58 176.524Z" fill="#E4F9EA"/>
<path d="M345.831 89.5698C344.656 86.8281 342.305 84.0865 339.172 82.5198C332.905 78.9948 323.505 79.7781 318.414 85.2615C310.189 94.2698 301.964 105.628 297.655 117.77C296.48 120.512 295.305 123.253 294.13 125.603C291.389 132.653 296.089 141.27 301.964 144.795C308.23 148.32 314.889 147.145 320.764 143.62C321.939 142.837 323.114 142.053 324.289 140.878C333.689 132.653 340.739 122.078 345.047 110.328C345.83 109.153 347.006 107.978 347.397 106.803C350.531 100.928 349.356 94.2698 345.831 89.5698Z" fill="#E4F9EA"/>
<path d="M326.639 220.394C319.198 209.035 303.531 209.035 296.089 220.394C292.956 225.485 290.215 231.36 288.648 237.627C285.123 246.244 284.339 256.427 285.906 264.652C285.906 265.436 286.298 266.611 286.689 267.394C287.081 268.569 287.081 269.744 287.473 271.311C289.431 279.536 296.089 283.452 303.139 283.844C307.056 285.019 310.973 285.019 315.281 283.452C328.598 279.144 332.123 265.044 333.298 252.902C334.473 241.544 333.298 230.185 326.639 220.394Z" fill="#E4F9EA"/>
<path d="M189.554 310.855C188.77 297.147 176.629 286.18 162.137 289.705C142.945 294.405 132.762 319.08 132.762 337.488C132.762 346.889 140.987 355.505 150.387 355.114C153.128 355.114 155.87 354.33 158.22 353.155C168.012 352.764 177.02 344.539 182.504 336.705C187.595 329.263 190.337 319.863 189.554 310.855Z" fill="#E4F9EA"/>
<path d="M80.6678 379.8C68.9177 371.183 52.8593 378.233 49.3343 391.941C47.7676 397.425 47.7677 403.691 46.9844 409.175C46.2011 415.05 45.026 420.925 45.4176 426.8C45.4176 431.108 46.9843 434.633 49.3343 437.375C55.2093 448.733 71.2678 452.258 79.4928 439.333C89.2845 424.058 98.2928 392.333 80.6678 379.8Z" fill="#E4F9EA"/>
<path d="M383.43 348.468C382.647 337.893 376.381 328.101 365.414 325.359C354.839 322.618 343.872 327.709 337.997 336.718C332.905 344.159 332.905 354.734 337.214 362.568C342.305 371.576 352.88 375.493 362.672 373.143C364.239 373.143 365.805 372.751 367.372 372.36C378.339 370.01 384.214 358.651 383.43 348.468Z" fill="#E4F9EA"/>
</svg>
