<svg width="457" height="782" viewBox="-248.952 16.8235 601.154 712.8415" fill="none" xmlns="http://www.w3.org/2000/svg">
<path d="M-241.249 328.844C-235.914 298.586 -226.072 269.779 -210.8 245.327C-197.208 223.912 -178.082 198.703 -148.539 203.162C-86.5661 212.338 -47.2133 295.054 4.48692 186.549C56.1871 78.0451 85.2729 103.772 124.159 125.839C163.046 147.905 230.195 215.144 165.057 287.243C138.706 322.581 150.634 373.856 182.28 406.361C205.209 430.064 252.906 477.307 257.866 506.229C265.871 553.528 256.763 604.218 231.267 637.727C190.053 692.43 70.185 729.665 9.861 648.108C-4.86265 628.203 -13.6086 604.772 -18.7056 581.633C-28.3122 535.817 -15.8354 472.769 -85.1249 460.334C-120.38 454.12 -156.915 455.13 -191.908 440.649C-241.993 419.691 -248.952 372.813 -241.249 328.844Z" fill="#FFF5AD"/>
<path d="M-195.362 278.473C-195.362 278.473 -180.762 176.182 -101.5 199.778C-22.095 223.568 8.95361 118.977 24.5941 99.3353C40.2346 79.6938 92.0862 16.8235 176.56 103.838C261.034 190.853 242.055 237.482 237.556 244.996C233.057 252.509 184.54 318.893 215.282 369.408C246.024 419.923 352.202 509.422 256.721 568.684C161.224 628.256 118.471 664.962 76.4187 632.979C34.3664 600.995 49.2165 566.69 26.3596 480.742C3.66119 394.677 -47.5366 389.79 -75.1718 389.899C-102.664 390.202 -214.14 391.031 -195.362 278.473Z" stroke="#FBB22E" stroke-miterlimit="10" stroke-linecap="round" stroke-linejoin="round"/>
</svg>
