<svg width="530" height="342" viewBox="0 0 530 342" fill="none" xmlns="http://www.w3.org/2000/svg">
<path d="M447.977 317.107C405.151 334.968 363.187 340.777 321.539 341.53C278.651 342.307 241.905 334.509 210.461 319.902C178.133 304.881 146.054 289.589 115.214 273.258C79.692 254.446 49.6002 231.584 28.8615 202.621C13.9609 181.812 2.88232 159.31 0.567529 133.301C-1.46195 110.558 9.78695 87.4923 28.6006 64.8573C44.7381 45.4458 68.8002 34.8974 96.1605 30.2034C128.835 24.5998 156.526 27.8617 181.302 36.5934C189.595 39.5165 198.075 42.2634 206.811 44.693C231.766 51.6364 257.708 47.3539 285.834 31.3287C300.68 22.87 316.599 14.898 332.745 8.87278C366.603 -3.75994 395.431 -1.87207 418.89 9.57957C445.378 22.5122 456.275 43.3228 452.765 70.1388C451.134 82.5985 448.536 95.6296 442.516 108.292C431.218 132.057 435.82 148.455 458.644 159.725C476.281 168.433 492.336 178.703 507.328 189.568C521.775 200.037 529.038 214.437 529.016 231.585C528.984 258.41 501.167 291.245 463.249 309.863C458.208 312.343 453.072 314.694 447.977 317.107Z" fill="#CCEBFF"/>
</svg>
