<svg width="1013" height="991" viewBox="0 0 1013 991" fill="none" xmlns="http://www.w3.org/2000/svg">
<g opacity="0.5">
<path d="M314.211 91.6354C355.961 80.241 399.754 74.9373 442.799 78.489C480.684 81.8525 527.934 89.4504 547.536 126.439C588.875 203.927 520.545 297.871 697.917 294.926C875.288 291.982 868.341 340.813 874.219 398.924C880.098 457.035 854.409 574.333 710.408 540.451C644.564 530.335 591.62 574.056 578.509 629.811C568.823 670.297 551.215 753.315 519.85 775.917C468.466 812.758 398.379 831.648 335.51 821.463C233.223 805.311 85.632 687.426 134.727 569.743C146.71 541.02 168.104 517.205 192.239 497.807C240.439 459.964 328.587 437.805 285.044 349.903C262.75 305.243 230.483 263.298 218.581 214.133C201.83 143.628 253.585 108.251 314.211 91.6354Z" fill="#FBB22E"/>
<path d="M415.146 115.73C415.146 115.73 553.369 73.2085 591.652 179.215C629.818 285.5 784.838 260.79 822.281 267.57C859.723 274.35 981.089 298.135 945.787 447.109C910.486 596.084 837.011 601.119 823.949 600.253C810.887 599.388 688.03 581.53 651.998 646.712C615.965 711.894 596.039 887.582 442.062 810.905C287.689 734.39 206.233 705.975 209.866 638.408C213.498 570.841 268.307 568.169 354.619 491.549C441.211 415.047 403.747 352.599 380.145 320.489C356.428 288.659 260.744 159.361 415.146 115.73Z" stroke="#EE2F4D" stroke-width="1.1777" stroke-miterlimit="10" stroke-linecap="round" stroke-linejoin="round"/>
</g>
</svg>
