<svg width="109" height="159" viewBox="0 0 109 159" fill="none" xmlns="http://www.w3.org/2000/svg">
<g id="Group" opacity="0.2">
<path id="Vector" d="M54.353 89.7919C53.7311 85.5798 50.9325 82.6066 47.4498 80.3767C45.584 79.1998 43.5317 78.2088 41.9147 76.6602C40.2355 75.0497 39.2405 72.9437 38.3076 70.8996C36.5041 66.9973 35.3846 62.7853 33.581 58.8829C30.1605 51.5738 21.9512 39.6191 12.6847 45.5655C11.6274 46.2468 11.3164 47.4857 11.8762 48.6006C13.9907 52.8126 8.89098 57.4583 6.83866 60.7412C4.22661 64.8293 1.1792 69.7847 0.246327 74.5542C-0.562164 78.9521 0.681684 83.0402 3.29373 86.6329C5.84359 90.1635 9.13974 92.5793 11.3786 96.3577C15.2967 102.862 18.7172 107.445 26.6778 108.56C35.6955 109.861 46.0816 108.994 51.6788 100.879C53.8555 97.6585 54.9128 93.6323 54.353 89.7919ZM43.6561 98.5876C40.4843 100.818 35.8822 101.313 32.0885 101.313C28.9789 101.313 25.8693 100.632 23.3817 98.8354C21.0806 97.1629 19.7745 94.8092 18.4063 92.3934C17.0381 89.9158 15.1723 87.8097 13.2444 85.7657C11.6274 84.0932 9.88605 82.5447 9.01537 80.3148C7.274 75.9169 10.2592 71.8907 12.2493 68.1123C14.3639 64.0241 16.4162 59.4404 17.5356 54.9806C18.1575 52.441 18.2197 49.7775 16.9759 47.6715C21.1427 45.9371 25.3717 50.8305 27.2997 53.7418C30.5958 58.6352 31.3421 63.8383 32.275 69.475C33.0213 73.687 34.203 77.5274 37.126 80.7484C39.9246 83.7835 45.4596 85.394 47.1388 89.2963C48.6314 92.6412 46.3925 96.6674 43.6561 98.5876Z" fill="#A25F9D"/>
<path id="Vector_2" d="M95.0893 114.446C88.2482 107.571 77.3025 100.076 67.2897 104.473C61.6924 106.889 58.8316 112.526 58.334 118.348C58.0231 121.817 58.2719 125.41 59.2047 128.755C59.8267 131.108 61.257 133.091 62.5009 135.135C63.8691 137.303 64.491 139.223 65.3617 141.577C67.2897 146.965 70.1504 153.098 74.9392 156.505C79.7279 159.911 85.7605 159.725 90.3627 156.133C94.6539 152.788 98.0123 147.771 101.308 143.435C108.46 133.834 102.614 122.003 95.0893 114.446ZM92.6016 136.188C90.9846 138.418 88.9323 140.4 87.191 142.568C86.0093 143.93 84.7655 146.222 83.1485 147.151C82.0291 147.833 81.7803 147.461 80.7852 146.594C75.1258 141.762 76.494 132.781 73.0734 126.711C72.0784 124.914 70.4614 123.304 68.4091 122.684C67.7249 122.499 66.9165 122.375 66.419 121.817C64.9885 120.083 67.4762 115.933 68.6578 114.57C70.4614 112.526 73.1356 111.597 75.8099 112.216C84.7033 114.384 90.6737 122.808 93.0992 131.108C93.8455 133.276 93.9698 134.329 92.6016 136.188Z" fill="#A25F9D"/>
<path id="Vector_3" d="M107.278 62.8487C105.847 57.212 102.489 52.1328 98.5088 47.9207C95.9589 45.2572 93.2847 42.5318 90.1129 40.6116C88.3716 39.5586 86.257 38.4437 84.2047 38.9392C82.7121 39.2489 81.8414 40.24 80.5354 40.9833C78.9184 41.8504 77.1149 42.2221 75.3114 42.5318C69.5897 43.4609 64.801 44.5759 60.4476 48.664C57.027 51.885 54.1662 57.0881 55.1613 61.9196C56.2807 67.3085 62.6243 70.7153 66.6045 73.9982C71.3933 77.9005 76.182 81.8029 80.9708 85.6433C82.9609 87.1918 85.0754 89.4217 87.5631 90.165C90.6105 91.0322 93.1604 89.6075 95.5858 87.9971C99.6283 85.2716 103.609 82.2365 105.91 77.8386C108.335 73.193 108.522 67.866 107.278 62.8487ZM97.3271 73.9363C95.9589 76.2901 92.6006 79.511 89.6776 80.8738C87.5631 79.8207 85.3242 77.2811 83.7072 76.0423C81.4061 74.3079 79.1673 72.5116 76.8662 70.7773C74.2541 68.7951 71.642 66.751 69.03 64.7689C67.4752 63.592 63.8059 61.7337 63.3705 59.8136C62.9974 58.0172 65.0497 55.6635 66.1692 54.4866C69.2165 51.3895 74.6272 49.2835 78.9184 48.5402C83.5828 47.7349 87.0656 50.1506 90.2995 53.1858C93.2225 55.9732 95.8345 59.1941 97.3271 62.9726C98.8197 66.5033 99.3173 70.5295 97.3271 73.9363Z" fill="#A25F9D"/>
<path id="Vector_4" d="M59.7626 15.8962C47.4486 7.22438 31.5275 4.00341 17.0991 0.658553C12.1859 -0.456399 9.88486 6.29525 13.5542 8.40127C13.5542 8.46321 13.6163 8.52517 13.6163 8.58711C15.1089 12.2417 17.8454 15.2768 20.2086 18.4358C22.7585 21.7188 25.3084 24.9397 27.8582 28.2226C32.8958 34.7885 37.5601 41.664 41.9135 48.7254C44.339 52.6277 50.2472 50.8933 50.4338 46.4335C50.6826 40.3632 53.4812 35.0362 57.7724 30.8242C59.8869 28.7182 62.9965 27.2316 63.8672 24.1964C64.8623 20.4799 62.499 17.8164 59.7626 15.8962ZM46.5779 29.7712C45.4584 31.3817 44.5256 33.116 43.7793 34.9124C41.0428 30.9481 38.2442 27.0457 35.2591 23.2054C32.7092 19.9224 30.1593 16.6395 27.2985 13.6663C26.49 12.7991 25.6815 11.932 24.8108 11.0028C34.8237 13.1708 45.0231 15.8962 53.419 21.471C53.6677 21.6568 53.9165 21.8426 54.2275 22.0904C53.4812 22.6479 52.797 23.2673 52.5483 23.4531C50.185 25.2494 48.2571 27.3555 46.5779 29.7712Z" fill="#A25F9D"/>
</g>
</svg>
