<svg width="660" height="828" viewBox="0 0 660 828" fill="none" xmlns="http://www.w3.org/2000/svg">
<g opacity="0.6">
<path d="M394.824 734.301C460.436 731.429 504.494 578.263 518.159 459.324C531.731 340.679 517.706 291.923 475.749 297.745C433.599 303.667 432.511 384.364 376.662 381.426C320.814 378.489 319.194 274.128 323.199 243.042C327.204 211.957 338.743 62.9055 208.483 80.4397C78.224 97.9738 159.239 251.539 167.021 268.881C174.802 286.223 263.281 411.576 218.267 440.372C173.252 469.167 125.309 372.159 90.2358 394.069C55.0697 416.272 54.8695 748.945 394.824 734.301Z" fill="#E4F9EA"/>
<path d="M71.8908 362.547C69.6157 360.534 66.5742 359.41 63.2535 359.169C57.3939 358.772 51.6878 361.983 49.2322 367.191C48.6667 368.468 48.2946 369.645 48.1162 370.721C47.1711 372.687 46.8144 374.838 46.9453 376.983C46.9604 377.958 47.1691 378.833 47.4783 379.901C48.1044 382.525 49.2182 385.142 51.2997 387.256C54.774 391.104 60.3623 392.871 65.5179 391.913C66.8804 391.697 68.3356 391.187 69.4969 390.583C71.3395 389.872 73.2751 388.866 75.0095 387.473C83.1938 380.517 80.365 367.976 71.8908 362.547Z" fill="#689576"/>
<path d="M64.3036 420.326C63.0493 421.223 61.9885 422.02 61.3224 423.103C38.6746 441.015 48.1438 479.111 60.9552 499.984C73.8596 520.564 103.939 547.705 130.176 534.81C157.769 521.212 143.108 475.49 132.549 455.167C121.588 434.07 90.0007 404.025 64.3036 420.326ZM117.907 467.199C122.85 477.658 137.528 518.209 117.255 519.402C100.588 520.441 83.3253 501.881 75.8058 488.827C68.0852 475.387 60.105 451.512 71.5041 437.969C72.0847 437.668 72.766 437.559 73.2461 437.064C90.4496 426.651 111.657 454.223 117.907 467.199Z" fill="#689576"/>
<path d="M229.513 322.928C222.032 312.313 209.339 305.388 196.017 308.131C195.335 308.24 194.755 308.541 194.073 308.649C192.61 308.672 191.147 308.695 189.599 309.499C175.749 315.958 168.568 330.996 163.415 344.734C157.891 359.648 158.025 374.572 163.718 389.313C168.605 402.505 176.627 416.526 190.365 421.678C204.103 426.83 218.17 421.734 225.582 409.034C233.188 396.234 235.462 379.321 237.286 364.854C239.304 350.287 238.287 335.084 229.513 322.928ZM219.063 347.284C221.054 362.472 217.378 383.309 210.763 397.07C199.05 421.836 180.338 385.347 178.098 372.993C175.424 357.913 181.514 341.721 193.168 331.98C207.136 320.544 217.171 332.29 219.063 347.284Z" fill="#689576"/>
<path d="M289.475 439.753C283.351 441.214 279.139 446.352 278.355 452.413C277.641 456.716 278.971 460.696 281.555 463.777C281.656 463.971 281.857 464.358 281.958 464.552C288.58 476.351 305.673 471.402 308.804 459.452C311.649 447.896 301.428 436.738 289.475 439.753Z" fill="#689576"/>
<path d="M253.953 483.039C242.306 474.342 216.919 466.639 202.596 474.08C200.359 474.505 198.23 475.612 196.604 477.686C177.878 503.146 199.898 532.754 216.688 552.298C225.138 562.41 236.126 572.678 249.532 575.299C263.232 578.013 273.236 568.882 277.73 556.715C286.881 530.33 276.356 499.666 253.953 483.039ZM259.897 551.724C252.46 569.107 230.362 540.769 224.691 533.638C217.131 524.292 207.677 512.244 207.681 499.952C209.121 498.466 210.167 496.694 210.322 494.155C212.116 477.737 246.214 499.841 250.679 504.65C261.403 516.775 266.389 536.307 259.897 551.724Z" fill="#689576"/>
<path d="M186.729 576.95C185.064 576.585 183.501 576.414 181.844 576.538C175.095 575.374 168.011 577.826 164.108 584.032C159.345 591.423 160.022 603.607 168.388 608.355C170.849 609.78 173.976 610.122 176.593 609.008C177.181 609.194 177.87 609.574 178.458 609.76C186.786 612.069 194.777 605.214 196.506 597.187C200.178 588.643 195.637 578.957 186.729 576.95Z" fill="#689576"/>
<path d="M173.156 682.82C167.9 683.585 163.479 687.848 161.898 692.848C161.805 693.142 161.619 693.731 161.627 694.218C161.534 694.512 161.441 694.807 161.348 695.101C158.751 703.824 165.444 713.866 174.717 714.209C183.309 714.661 191.292 707.318 191.45 698.633C191.5 689.267 182.694 681.306 173.156 682.82Z" fill="#689576"/>
<path d="M329.652 602.245C326.643 596.926 321.024 593.209 314.491 593.408C305.032 593.652 300.958 601.422 301.659 608.923C300.908 610.789 300.45 612.747 300.388 614.992C300.255 618.994 302.661 623.151 306.012 625.343C306.608 626.017 307.397 626.59 308.186 627.163C312.621 630.021 317.304 630.046 321.57 628.321C328.59 628.114 335.249 623.426 335.414 615.228C335.407 614.741 335.299 614.059 335.291 613.572C335.223 609.183 332.918 605.219 329.652 602.245Z" fill="#689576"/>
<path d="M367.812 678.527C364.391 678.092 361.279 678.726 358.763 680.033C356.239 680.853 353.924 682.547 352.398 684.815C349.44 689.055 349.616 694.126 351.442 698.585C351.844 699.359 352.053 700.234 352.548 700.714C353.461 702.944 354.567 705.073 356.153 706.707C358.335 709.014 361.09 710.532 364.117 710.68C365.1 711.153 366.176 711.331 367.058 711.61C372.538 712.696 377.09 710.576 379.468 706.637C382.155 703.766 383.759 700.229 384.085 696.127C384.529 687.047 376.706 679.559 367.812 678.527Z" fill="#689576"/>
<path d="M465.103 504.342C464.608 503.862 464.213 503.576 463.819 503.289C463.51 502.221 462.813 501.353 461.822 500.393C455.299 494.934 446.149 496.247 441.967 503.336C435.687 507.335 431.512 514.912 433.499 523.466C435.593 532.702 444.377 539.199 453.914 537.685C456.151 537.26 458.381 536.348 460.216 535.149C464.891 534.686 469.336 531.885 471.397 526.39C474.008 518.642 471.139 509.809 465.103 504.342Z" fill="#689576"/>
<path d="M456.885 383.491C453.65 382.468 450.135 382.328 446.845 384.037C440.651 387.255 439.317 395.568 442.326 400.887C442.334 401.375 442.635 401.955 442.837 402.343C442.689 405.369 443.616 408.574 446 411.269C450.673 416.952 459.76 417.884 465.242 412.824C470.725 407.763 471.664 399.163 468.733 392.575C466.319 387.93 461.97 384.29 456.885 383.491Z" fill="#689576"/>
<path d="M245.258 620.528C242.053 621.456 240.233 623.63 239.195 625.89C226.604 638.085 229.04 669.266 231.891 683.27C235.701 702.429 250.756 748.438 278.052 740.892C290.098 737.583 294.647 722.684 297.112 711.817C300.314 698.109 300.381 683.572 296.562 670.071C291.297 651.422 270.209 612.726 245.258 620.528ZM277.372 671.93C281.362 683.867 283.731 704.513 276.396 715.943C269.922 726.19 264.19 715.157 260.376 708.29C256.562 701.422 253.623 694.346 251.652 686.768C249.889 680.063 243.391 644.849 252.473 639.147C258.054 640.426 263.833 648.238 266.619 651.707C271.199 657.685 274.82 664.653 277.372 671.93Z" fill="#689576"/>
<path d="M368.416 491.399C341.646 501.375 349.743 545.346 355.556 567.889C360.016 584.989 382.496 650.492 411.066 630.732C422.649 622.747 425.149 601.538 426.314 588.643C427.55 573.99 426.24 558.694 421.925 544.713C417.093 528.788 391.954 474.254 368.416 491.399ZM404.892 553.562C409.469 571.832 409.183 591.153 403.124 609.295C401.163 614.984 400.188 614.999 396.219 610.67C392.543 606.435 389.348 601.704 386.54 596.772C380.823 586.715 376.848 575.753 373.841 564.288C370.424 551.561 360.875 520.881 373.093 509.862C374.75 509.739 376.399 509.128 377.94 507.836C380.448 506.041 394.142 527.193 395.047 528.935C399.364 536.77 402.612 544.915 404.892 553.562Z" fill="#689576"/>
<path d="M383.98 331.168C380.149 329.471 375.845 328.758 371.758 329.407C361.733 330.928 354.253 339.239 348.824 347.713C336.339 366.735 329.473 389.475 329.341 412.403C329.36 426.159 331.723 440.17 338.252 452.264C346.182 466.579 369.134 487.1 385.905 473.962C390.434 470.379 393.478 465.357 396.127 460.047C411.178 430.351 415.021 395.171 406.425 363.013C404.144 354.366 400.795 346.028 395.132 339.385C392.052 335.823 388.105 332.957 383.98 331.168ZM389.478 371.081C391.934 384.798 392.277 400.597 392.129 403.624C391.599 413.485 384.554 462.373 370.436 457.91C352.201 452.144 346.659 428.231 348.058 411.527C348.875 401.271 365.608 341.697 381.256 350.526C387.061 353.656 388.512 365.438 389.478 371.081Z" fill="#689576"/>
</g>
</svg>
