<svg width="1042" height="405" viewBox="0 0 1042 405" fill="none" xmlns="http://www.w3.org/2000/svg">
<path fill-rule="evenodd" clip-rule="evenodd" d="M492.297 51.1396C553.247 37.6075 611.706 20.8458 672.705 14.166C751.192 5.57104 838.282 -8.40721 897.181 6.80164C958.156 22.5467 972.514 61.7639 991.025 96.3621C1011.65 134.904 1081.26 180.685 1011.06 219.652C923.515 268.248 779.838 232.314 676.04 271.203C602.924 298.597 635.094 359.579 562.733 387.625C496.652 413.237 415.266 404.938 354.282 395.912C297.043 387.44 284.044 352.727 233.76 338.933C165.989 320.341 42.3882 337.384 10.526 301.608C-19.7943 267.564 25.4924 212.335 85.052 171.959C142.201 133.217 237.254 116.913 318.549 92.7946C376.001 75.7501 433.07 64.2889 492.297 51.1396Z" fill="#F9E4EE"/>
</svg>
