<svg width="65" height="62" viewBox="0 0 65 62" fill="none" xmlns="http://www.w3.org/2000/svg">
<path id="Vector" d="M49.4419 9.59474C55.2191 14.4119 59.1809 18.8741 61.8146 24.3551C65.7052 32.4506 65.3035 40.4843 61.0645 48.3401C58.4751 53.1389 54.8247 56.9297 49.8044 59.1413C47.6019 60.1114 45.193 60.7392 42.813 61.1529C39.2856 61.7658 36.0003 60.6202 32.9676 58.9037C30.4245 57.4637 27.6789 56.6355 24.9532 55.6821C21.2974 54.4032 17.5801 53.1795 14.1352 51.4433C9.03175 48.8709 5.48995 44.6106 3.14017 39.4419C-1.11577 30.0811 -0.2327 21.0791 5.34688 12.5256C8.05565 8.37309 11.6194 5.07867 15.9901 2.72721C22.1666 -0.595932 28.5951 -0.653657 35.0909 1.63621C40.7856 3.6437 45.8605 6.78574 49.4419 9.59474Z" fill="#F9DC5C" fill-opacity="0.5"/>
</svg>
