<svg width="574" height="486" viewBox="0 0 574 486" fill="none" xmlns="http://www.w3.org/2000/svg">
<path d="M554.849 236.836C532.901 286.455 502.115 325.36 467.583 359.81C432.024 395.286 394.84 418.649 356.724 432.049C317.534 445.824 278.339 459.171 239.364 470.65C194.472 483.869 150.944 489.313 110.464 482.093C81.3796 476.906 54.1758 467.209 31.5806 447.481C11.8177 430.234 2.99958 401.936 0.903659 367.852C-0.891059 338.619 11.033 310.314 30.3855 284.195C53.4986 253.004 79.4442 233.226 107.273 220.359C116.588 216.052 125.921 211.448 135.218 206.372C161.778 191.874 180.261 167.248 191.266 131.092C197.075 112.008 204.175 92.4571 213.012 74.339C231.544 36.347 257.359 14.5033 286.235 4.96645C318.842 -5.80107 344.55 2.63869 362.873 27.768C371.386 39.4443 379.538 52.3797 384.509 67.7886C393.841 96.7079 410.738 106.594 438.935 97.4207C460.723 90.3325 482.416 85.8258 503.684 82.677C524.179 79.6426 541.735 85.7069 555.326 99.9712C576.59 122.285 579.187 172.153 561.98 218.416C559.696 224.57 557.231 230.694 554.849 236.836Z" fill="#FFE0CC"/>
</svg>
