<svg width="680" height="690" viewBox="0 0 680 690" fill="none" xmlns="http://www.w3.org/2000/svg">
<path d="M615.71 578.106C620.162 575.749 623.828 543.537 624.875 538.823C631.684 509.231 637.97 479.638 645.826 450.307C657.611 406.835 667.824 362.839 676.204 318.581C683.275 281.655 690.084 249.968 679.609 213.566C674.371 195.234 664.158 167.213 643.207 161.19C615.71 153.333 595.283 189.735 584.808 209.114C584.808 209.114 570.142 321.461 558.096 332.199C546.049 342.936 524.575 349.221 511.219 287.941C498.125 227.708 501.267 164.07 479.007 105.933C467.746 76.8637 448.629 49.628 421.131 33.9151C354.09 -4.58151 369.279 141.025 381.849 167.999C393.11 192.092 409.347 222.732 404.109 250.491C401.228 265.157 390.491 278.775 375.564 282.441C328.687 293.44 300.928 224.565 284.691 192.877C241.48 108.028 173.915 29.725 78.0662 4.0606C46.3784 -4.31962 9.19122 -3.01024 17.8333 40.2003C18.8809 45.9617 20.7141 51.7231 22.8091 57.2226C43.4978 114.313 83.5656 163.285 126.776 204.924C167.63 244.468 229.958 275.632 243.314 335.865C244.885 343.198 245.671 350.792 242.79 357.601C234.148 378.028 205.079 372.528 188.057 369.91C157.678 365.196 127.038 360.22 96.136 359.172C63.4008 357.863 1.59668 359.434 0.0253906 404.216C-2.59344 473.877 195.389 501.898 231.267 505.826C267.407 509.755 331.568 505.826 310.093 539.347C288.619 572.868 192.509 584.129 231.267 666.622C270.811 749.115 615.71 578.106 615.71 578.106Z" fill="#FFF5AD"/>
<path d="M633.519 181.354C638.233 178.735 643.994 178.211 649.232 179.782C650.279 179.782 651.327 180.044 652.374 180.306C661.017 182.401 667.04 189.996 667.564 198.638C667.564 199.685 667.564 200.733 667.564 201.78C668.611 207.018 668.087 211.994 665.73 216.184C657.35 230.849 634.828 224.826 628.543 211.47C628.281 211.208 628.281 210.684 628.02 210.422C626.186 207.804 625.139 205.185 624.615 202.042C622.782 193.924 625.924 185.282 633.519 181.354Z" fill="#F9E4EE"/>
<path d="M614.136 286.371C624.612 282.966 636.134 287.68 640.586 298.156C645.3 309.155 639.801 321.987 628.802 326.177C626.969 327.224 624.612 328.01 622.255 328.272C611.779 329.581 602.09 321.463 599.995 311.25C597.9 300.251 603.661 289.775 614.136 286.371Z" fill="#F9E4EE"/>
<path d="M610.732 407.102C615.969 405.793 621.469 406.579 625.921 409.198C628.54 410.245 630.896 411.816 633.253 414.435C635.087 416.53 636.658 419.149 637.705 421.768C638.491 423.601 639.277 425.434 639.539 427.529C640.062 430.148 640.324 432.505 640.324 435.124C640.324 442.98 637.967 450.837 632.991 456.074C621.207 468.645 600.518 463.407 593.709 448.48C587.162 433.814 594.233 411.554 610.732 407.102Z" fill="#F9E4EE"/>
<path d="M536.62 503.988C537.405 490.37 550.238 479.895 563.855 483.038C567.522 483.823 570.926 485.918 573.807 488.537C576.949 489.585 579.83 491.68 582.449 494.561C589.782 502.941 588.472 515.773 580.354 523.368C574.593 528.867 566.736 530.176 559.665 528.343C557.308 528.343 555.213 528.343 552.856 527.558C542.643 524.677 536.096 514.464 536.62 503.988Z" fill="#F9E4EE"/>
<path d="M494.196 381.952C502.576 377.5 511.742 379.595 519.075 384.571C521.694 384.833 524.313 385.618 526.931 387.451C531.383 390.332 534.002 394.784 535.312 400.022C544.216 408.664 541.597 425.686 529.027 430.662C525.622 433.543 521.17 435.114 516.194 434.852C512.266 434.59 508.338 433.281 504.933 431.186C486.34 422.806 473.246 392.689 494.196 381.952Z" fill="#F9E4EE"/>
<path d="M436.321 280.607C439.988 268.036 454.391 262.537 465.652 268.298C475.08 273.274 479.27 283.749 478.484 293.963C478.484 294.748 478.746 295.796 478.746 296.581C478.746 304.438 474.818 309.414 469.58 312.032C465.128 315.437 459.105 317.27 452.82 316.746C440.249 315.699 430.56 307.057 430.822 293.963C430.822 288.987 433.179 284.273 436.321 280.607Z" fill="#F9E4EE"/>
<path d="M389.703 158.831C391.798 149.665 399.655 145.475 407.773 145.475C431.866 134.214 447.841 171.401 432.39 187.638C424.533 196.018 413.273 194.447 404.369 188.424C404.107 188.162 403.583 187.9 403.321 187.638C393.893 180.829 387.346 169.045 389.703 158.831Z" fill="#F9E4EE"/>
<path d="M376.612 347.384C385.778 338.742 399.658 340.837 407.514 349.479C410.133 351.574 412.228 354.193 413.799 357.335C414.061 357.597 414.061 357.859 414.323 358.383C414.585 358.645 414.585 358.645 414.847 358.907C424.013 368.596 419.823 384.309 408.562 390.071C403.062 392.951 397.301 393.475 391.801 392.166C385.254 391.38 378.707 387.975 374.779 382.476C371.898 378.548 370.327 374.096 370.065 369.644C368.232 362.049 369.803 353.931 376.612 347.384Z" fill="#F9E4EE"/>
<path d="M194.865 226.917C202.198 215.132 217.911 215.656 227.077 224.56C229.172 226.655 231.005 228.75 232.576 231.369C241.742 239.749 249.337 251.796 238.6 262.533C238.6 262.533 238.338 262.795 238.076 262.795C233.362 271.961 220.53 272.746 211.364 266.985C207.174 265.152 202.984 262.009 200.103 258.605C192.247 249.701 187.795 237.916 194.865 226.917Z" fill="#F9E4EE"/>
<path d="M105.563 87.0788C109.753 78.9604 119.181 74.2466 129.133 76.6035C133.847 77.651 138.299 80.5317 142.227 84.46C151.131 90.2214 156.368 105.672 153.488 115.624C151.916 120.862 148.25 124.528 144.06 126.361C141.441 127.932 138.299 128.98 134.632 128.98C124.943 128.98 113.682 121.647 107.135 114.576C99.2782 106.72 99.0163 94.9352 105.563 87.0788Z" fill="#F9E4EE"/>
<path d="M276.57 404.748C278.927 396.63 284.95 389.821 292.807 386.94C293.33 386.416 293.854 386.155 294.64 385.893C305.377 379.346 320.042 381.703 325.804 393.749C326.328 394.797 326.851 396.106 327.375 397.415C328.946 398.987 329.994 400.82 330.78 402.915C334.97 414.7 328.685 429.627 317.162 434.864C311.924 437.221 306.425 436.96 301.449 435.126C286.522 434.603 271.856 422.294 276.57 404.748Z" fill="#F9E4EE"/>
<path d="M412.751 474.664C424.012 476.759 443.13 482.782 449.415 493.257C453.867 500.852 451.51 511.065 445.225 517.089C434.226 527.04 417.727 530.968 404.633 523.112C388.658 513.422 376.612 486.448 398.61 476.497C403.586 473.878 408.299 473.616 412.751 474.664Z" fill="#F9E4EE"/>
<path d="M472.198 563.708C475.34 550.614 493.41 543.281 505.719 546.162C513.051 547.733 517.765 552.709 520.908 558.994C524.05 563.708 525.36 569.469 524.574 574.969C524.574 587.277 516.718 598.538 502.838 597.752C496.029 597.49 488.696 593.562 483.197 588.325C475.34 582.301 469.841 573.397 472.198 563.708Z" fill="#F9E4EE"/>
<path d="M381.064 575.484C386.302 565.532 398.611 561.866 409.086 565.008C411.705 565.794 414.323 567.103 416.942 568.413C430.822 569.984 441.297 586.483 434.488 602.196C430.298 611.885 420.347 617.647 409.871 618.17C399.396 618.694 389.445 612.671 383.683 604.029C378.184 595.911 376.351 584.388 381.064 575.484Z" fill="#F9E4EE"/>
<path d="M303.809 638.337C309.832 616.077 343.091 610.315 354.876 630.742C358.804 637.551 359.328 646.193 356.185 653.264C355.923 656.93 354.09 660.858 350.948 664.263C333.663 681.809 297.262 662.43 303.809 638.337Z" fill="#F9E4EE"/>
<path d="M230.744 612.673C233.625 603.507 239.124 596.698 247.766 598.269C257.98 600.102 264.265 616.077 265.313 624.981C266.622 636.242 263.479 654.836 250.385 658.24C244.1 659.811 237.291 656.669 233.101 651.693C228.125 644.622 226.816 626.029 230.744 612.673Z" fill="#F9E4EE"/>
<path d="M303.284 548.253H303.545C304.069 547.467 304.593 546.943 305.117 546.42C308.521 543.539 311.664 540.658 315.068 538.039C316.378 535.682 318.473 533.587 321.091 532.54C327.115 530.183 333.138 532.54 336.804 537.777C337.328 538.563 337.852 539.611 338.376 540.396C343.613 549.038 341.256 561.085 333.924 568.156C324.758 576.798 311.14 577.06 300.403 571.298C290.713 566.061 293.07 550.872 303.284 548.253Z" fill="#F9E4EE"/>
<path d="M184.915 457.372C183.868 452.396 186.225 447.159 192.51 445.064C192.772 445.064 193.034 444.802 193.295 444.802C205.866 435.636 227.602 438.517 235.458 452.658C245.148 470.466 226.554 485.655 209.794 484.346C204.294 485.394 198.533 484.346 193.557 480.942C185.963 475.966 182.558 466.276 184.915 457.372Z" fill="#F9E4EE"/>
<path d="M104.517 396.094C112.112 388.5 124.944 386.929 134.372 392.69C144.585 398.975 151.394 411.545 145.109 423.068C142.49 428.044 138.3 431.187 133.586 433.02C132.277 433.805 130.967 434.591 129.658 435.115C118.921 439.305 106.612 435.115 101.113 425.163C95.3513 415.212 96.6607 403.689 104.517 396.094Z" fill="#F9E4EE"/>
<path d="M185.701 132.908C190.939 126.623 200.366 125.575 207.175 129.242C214.508 133.17 218.436 141.812 216.341 149.669C213.984 158.049 205.342 163.81 196.7 162.763C192.248 162.239 188.582 160.144 185.963 157.001C184.915 156.216 184.13 155.168 183.344 153.859C179.154 147.05 180.725 138.669 185.701 132.908Z" fill="#F9E4EE"/>
<path d="M290.455 288.204C298.311 283.752 308.001 285.324 314.024 292.133C314.81 293.18 315.596 294.228 316.381 295.275C319.786 300.251 321.095 306.798 319.786 312.298C317.691 320.94 308.525 326.177 300.144 325.392C291.24 324.606 283.908 319.106 281.551 310.464C279.456 302.346 283.122 292.395 290.455 288.204Z" fill="#F9E4EE"/>
<path d="M412.488 80.2737C421.392 71.8935 435.795 74.5123 441.295 85.2495C447.318 97.0342 439.986 111.961 426.106 111.961C423.487 111.961 420.868 111.176 418.511 110.128C417.464 109.866 416.154 109.343 415.107 108.557C405.417 102.272 404.108 88.3921 412.488 80.2737Z" fill="#F9E4EE"/>
<path d="M457.271 212.516C457.532 206.231 462.508 200.207 469.055 200.731C471.674 200.731 474.031 201.517 476.126 202.826C476.388 202.826 476.388 202.826 476.65 202.826C481.364 204.135 485.554 208.064 486.601 213.039C488.173 219.063 485.03 225.61 479.531 228.229C479.269 228.491 479.007 228.49 478.745 228.752C474.555 231.109 469.055 231.109 465.127 228.49C462.246 226.657 459.889 223.515 458.842 220.11C457.794 217.753 457.271 215.135 457.271 212.516Z" fill="#F9E4EE"/>
<path d="M602.355 238.71C605.235 235.044 609.687 233.734 614.139 234.52C616.496 234.782 618.329 235.306 620.424 236.615C621.734 237.401 623.305 238.71 624.353 239.758C625.138 240.805 626.186 241.853 626.71 243.162C627.233 244.472 628.019 245.781 628.281 247.09C628.805 248.662 628.805 250.233 628.543 251.804C628.543 253.376 628.019 254.685 627.233 256.256C625.924 258.613 623.043 260.97 620.163 261.494C618.329 262.018 616.234 262.018 614.401 261.494C614.139 261.494 613.877 261.494 613.616 261.494C608.64 261.232 603.926 258.875 601.569 254.423C598.688 249.185 598.95 243.162 602.355 238.71Z" fill="#F9E4EE"/>
<path d="M563.335 380.131C563.597 377.25 564.645 374.631 567.001 372.536C568.835 370.703 570.668 369.655 573.025 368.87C576.429 367.822 580.096 368.346 582.976 370.179C585.595 371.489 587.166 373.845 588.476 376.464C589.261 377.512 590.047 378.821 590.309 380.131C590.833 381.964 590.833 383.797 590.833 385.63C591.095 388.249 589.523 391.653 587.69 393.487C585.595 395.582 582.976 396.629 579.834 396.629C576.691 396.629 572.763 395.844 570.144 394.01C568.049 392.701 566.216 390.868 565.168 388.773C563.597 385.892 563.073 383.273 563.335 380.131Z" fill="#F9E4EE"/>
<path d="M423.489 423.338C424.275 420.195 426.108 417.838 428.989 416.005C430.036 415.481 431.084 414.958 432.131 414.696C433.179 414.434 434.488 414.172 435.536 414.172C436.583 414.172 438.155 414.434 438.94 414.696C439.988 414.958 441.297 415.481 442.083 416.005C443.654 416.791 445.487 418.624 446.535 420.457L446.797 420.719C448.892 423.076 450.201 425.695 450.201 428.837C450.201 429.885 450.201 431.194 449.678 432.242C449.154 434.075 448.106 435.908 446.797 437.217C445.487 438.527 444.178 439.313 442.607 439.836C440.774 440.622 439.464 440.884 437.369 440.884C436.322 440.884 435.274 440.622 434.226 440.36C433.965 440.36 433.965 440.36 433.703 440.36C431.346 439.574 428.989 438.265 427.156 436.432C426.37 435.646 425.323 434.599 424.799 433.289C423.751 431.194 423.489 430.408 423.227 428.313C422.965 426.48 422.966 425.171 423.489 423.338Z" fill="#F9E4EE"/>
<path d="M126.251 163.031C126.251 160.674 126.775 158.84 127.822 157.007C128.608 155.698 129.393 154.65 130.703 153.865C131.75 152.817 133.06 152.293 134.369 152.032C135.94 151.508 137.25 151.508 138.821 151.77C139.607 151.77 140.392 152.032 141.44 152.293C141.702 152.293 141.702 152.293 141.964 152.293C143.273 152.555 144.582 153.341 145.63 154.127C146.154 154.388 146.416 154.65 146.939 155.174C147.201 155.436 147.463 155.96 147.725 156.222C147.987 156.484 148.249 157.007 148.511 157.269C148.511 157.269 148.511 157.269 148.511 157.531C148.773 158.317 149.296 159.364 149.558 160.15C149.558 160.15 149.558 160.15 149.558 160.412C149.82 161.459 150.082 162.507 150.082 163.554C150.082 163.816 149.82 166.173 149.558 166.435C149.558 166.959 149.034 167.483 149.034 167.744C148.511 169.316 148.249 170.101 146.678 171.149C145.892 171.673 145.106 172.196 144.583 172.72C143.797 173.244 142.749 173.768 141.702 174.03C141.178 174.292 140.654 174.292 140.131 174.292C139.869 174.292 139.083 174.553 138.559 174.553C137.512 174.553 136.726 174.292 135.679 174.292H135.417C134.631 174.03 133.584 173.506 132.798 173.244C132.798 173.244 132.798 173.244 132.536 173.244C132.012 172.982 131.488 172.458 131.227 172.196C130.703 171.935 130.179 171.673 129.917 171.149C129.655 170.887 129.393 170.363 129.131 170.101C128.608 169.578 128.346 169.054 128.084 168.53C126.774 166.959 126.251 165.126 126.251 163.031Z" fill="#F9E4EE"/>
<path d="M51.0931 40.4592C52.4025 36.0072 55.8068 32.6027 59.997 31.2933C61.3064 31.0314 62.8777 30.7695 64.1872 30.7695C66.5441 31.0314 68.6391 31.2933 70.7342 32.6027C72.5674 33.6503 74.4005 35.2215 75.448 37.3166C76.7575 39.4116 77.0194 41.5067 77.2812 43.8636C77.2812 44.6493 77.2812 45.435 77.0193 46.2206C77.0193 46.7444 76.7575 47.2681 76.7575 47.7919C75.448 52.2438 72.0436 55.6484 67.5916 56.6959C63.1396 58.0053 58.1638 56.434 54.7593 53.0295C51.3549 50.1488 49.7837 45.1731 51.0931 40.4592Z" fill="#F9E4EE"/>
<path d="M333.141 474.409C333.141 473.623 333.403 472.576 333.403 471.79C333.664 470.481 334.45 469.171 335.236 468.386C335.76 467.6 336.283 467.076 337.069 466.552C337.331 466.291 337.855 466.029 338.378 465.767C339.164 465.243 339.688 464.981 340.735 464.719C340.735 464.719 340.735 464.719 340.997 464.719C340.735 464.719 340.473 464.981 340.211 464.981C340.735 464.719 341.521 464.457 342.045 464.457C343.092 464.196 344.14 463.934 345.187 463.934C346.235 463.934 347.544 464.196 348.592 464.457C349.377 464.719 350.687 465.243 351.472 465.505C353.044 466.29 354.091 467.338 355.139 468.909C356.186 470.481 356.972 471.266 357.496 473.361V473.623C357.758 474.671 357.758 475.456 358.02 476.504C357.758 477.551 357.758 478.337 357.496 479.385C357.234 480.432 356.71 481.218 356.186 482.265C355.663 483.313 354.877 484.098 354.091 484.884C353.829 485.146 353.567 485.67 353.306 485.932C352.52 486.455 351.734 486.979 351.211 487.503C349.901 488.289 348.592 488.812 347.282 488.812C346.235 489.074 345.449 489.074 344.402 488.812C343.354 488.812 342.568 488.551 341.783 488.027C340.997 487.765 340.211 487.241 339.426 486.717C338.378 485.932 337.331 484.884 336.545 483.575C336.283 483.313 336.021 482.789 336.021 482.527C334.974 481.218 334.188 479.908 333.664 478.337C333.403 477.028 333.403 475.718 333.141 474.409Z" fill="#F9E4EE"/>
<path d="M320.83 344.248C321.092 342.939 321.878 341.629 322.925 340.582C323.449 339.534 324.235 339.01 325.282 338.225C325.806 337.701 326.068 337.439 326.592 337.177C328.425 335.868 330.782 334.82 332.877 334.82C335.757 334.82 338.376 335.868 340.471 337.963C344.4 341.891 345.709 347.391 344.4 352.628L343.352 355.247C342.566 356.557 341.781 357.604 340.471 358.39C339.686 359.175 338.9 359.437 338.114 359.699C336.805 360.485 335.496 360.747 333.924 360.747C333.662 360.747 333.662 360.747 333.401 360.747C332.353 360.747 331.567 360.485 330.52 360.485C329.472 360.223 328.687 359.961 327.377 359.175C326.33 358.652 325.282 357.866 324.235 356.818C322.663 355.247 321.616 353.414 321.092 351.057C320.045 348.438 320.306 346.605 320.83 344.248Z" fill="#F9E4EE"/>
<path d="M172.083 405.788C173.131 401.86 176.273 398.456 180.463 397.67C184.653 396.884 188.843 397.67 191.986 400.813C193.557 402.384 194.605 403.955 195.129 406.05C195.652 407.883 195.652 409.717 195.39 411.812C195.39 415.478 193.557 419.406 190.153 421.239C187.534 422.549 184.653 423.073 181.773 422.287C180.725 422.025 179.416 421.501 178.63 420.977C177.583 420.454 176.535 419.668 176.011 418.621C174.44 416.787 173.916 415.74 172.869 413.383C171.559 410.764 171.559 407.883 172.083 405.788Z" fill="#F9E4EE"/>
<path d="M32.7617 406.051C35.1187 401.861 39.8325 399.504 44.5464 399.504C46.9034 399.504 49.5221 400.028 51.3553 401.337C52.4028 401.861 53.1886 402.646 54.2361 403.432C55.8074 405.003 56.5929 406.837 57.3785 408.67C57.9023 409.979 57.9024 411.551 57.6405 412.86C57.6405 414.431 57.1168 415.741 56.3311 416.788C56.0692 417.05 56.0692 417.312 55.8073 417.574C55.5454 418.883 54.7598 420.455 53.9741 421.502C52.4028 423.335 50.8316 424.383 48.4747 425.43C47.9509 425.692 47.1652 425.692 46.6414 425.692C46.1177 425.692 45.332 425.954 44.8082 425.954C43.4988 425.954 42.1895 425.692 41.142 425.43C38.7851 424.907 36.6899 423.335 35.1186 421.764C30.9285 417.836 29.881 411.289 32.7617 406.051Z" fill="#F9E4EE"/>
<path d="M482.934 483.31C483.458 481.215 483.982 480.691 485.029 479.382C486.077 478.073 487.124 476.763 488.696 475.977C490.791 474.93 492.362 474.406 494.981 474.406C499.171 474.406 503.623 476.501 505.718 480.43C507.027 482.786 507.551 485.667 506.766 488.286C506.766 489.333 506.504 490.381 506.242 491.429C505.98 492.738 505.194 494.047 504.409 495.095C503.623 496.142 502.576 497.19 501.528 497.976C500.742 498.238 499.695 498.761 498.909 499.023C497.076 499.547 495.243 499.547 493.148 499.023C491.838 498.761 490.529 498.237 489.22 497.452C487.386 496.142 485.815 494.833 484.768 493C483.982 491.952 483.458 490.643 483.196 489.334C482.411 487.238 482.411 485.405 482.934 483.31Z" fill="#F9E4EE"/>
</svg>
