<svg width="262" height="397" viewBox="0 0 262 397" fill="none" xmlns="http://www.w3.org/2000/svg">
<path d="M144.797 396.729C173.708 389.753 205.35 370.973 222.44 353.135C250.782 315.866 208.911 231.118 150.26 187.654C211.789 284.533 198.83 347.802 144.797 396.729Z" fill="url(#paint0_linear_4968_53920)"/>
<path d="M195.999 97.7915C195.999 97.7915 236.926 155.174 255.739 221.012C267.024 260.508 263.284 306.639 222.422 353.127C253.609 312.232 166.519 199.971 150.242 187.646L195.999 97.7915Z" fill="url(#paint1_linear_4968_53920)"/>
<path d="M3.19951 240.144C-3.41843 294.209 25.0696 351.315 105.33 396.698L130.762 371.218C81.2652 343.803 31.59 297.884 3.19951 240.144Z" fill="url(#paint2_linear_4968_53920)"/>
<path d="M142.584 371.228C158.032 350.822 169.609 339.635 151.007 292.106L109.234 260.528C124.438 279.309 143.462 342.236 142.584 371.228Z" fill="url(#paint3_linear_4968_53920)"/>
<path d="M158.017 346.851C153.139 280.916 87.7239 262.509 60.8782 227.24C43.3008 186.964 64.6018 178.622 138.001 109.223C60.8944 195.549 130.602 237.11 156.05 289.501C164.521 306.948 167.643 325.42 158.017 346.851Z" fill="url(#paint4_linear_4968_53920)"/>
<path d="M137.108 0C137.108 0 -41.1216 117.66 60.863 227.238C45.1556 182.034 181.303 70.5372 181.303 70.5372L137.108 0Z" fill="url(#paint5_linear_4968_53920)"/>
<path d="M5.26589 219.891C5.26589 219.891 -35.271 332.169 130.763 371.21C83.2666 342.64 47.3476 236.379 47.3476 236.379L5.26589 219.891Z" fill="url(#paint6_linear_4968_53920)"/>
<defs>
<linearGradient id="paint0_linear_4968_53920" x1="102.406" y1="354.345" x2="211.21" y2="245.541" gradientUnits="userSpaceOnUse">
<stop offset="0.5027" stop-color="#FF003F"/>
<stop offset="1" stop-color="#BE1E2D"/>
</linearGradient>
<linearGradient id="paint1_linear_4968_53920" x1="144.627" y1="172.765" x2="273.396" y2="277.813" gradientUnits="userSpaceOnUse">
<stop offset="0.2966" stop-color="#FF9D00"/>
<stop offset="0.4416" stop-color="#FFA203"/>
<stop offset="0.6078" stop-color="#FEB00C"/>
<stop offset="0.7845" stop-color="#FCC71A"/>
<stop offset="0.9675" stop-color="#F9E72E"/>
<stop offset="1" stop-color="#F9ED32"/>
</linearGradient>
<linearGradient id="paint2_linear_4968_53920" x1="12.3588" y1="300.232" x2="208.571" y2="385.396" gradientUnits="userSpaceOnUse">
<stop offset="0.4167" stop-color="#22272A"/>
<stop offset="0.8734" stop-color="#FF003F"/>
</linearGradient>
<linearGradient id="paint3_linear_4968_53920" x1="104.467" y1="276.406" x2="174.678" y2="368.05" gradientUnits="userSpaceOnUse">
<stop offset="0.2966" stop-color="#FF9D00"/>
<stop offset="0.4416" stop-color="#FFA203"/>
<stop offset="0.6078" stop-color="#FEB00C"/>
<stop offset="0.7845" stop-color="#FCC71A"/>
<stop offset="0.9675" stop-color="#F9E72E"/>
<stop offset="1" stop-color="#F9ED32"/>
</linearGradient>
<linearGradient id="paint4_linear_4968_53920" x1="87.7641" y1="162.834" x2="212.989" y2="298.371" gradientUnits="userSpaceOnUse">
<stop offset="0.3556" stop-color="#009A45"/>
<stop offset="0.8042" stop-color="#006838"/>
</linearGradient>
<linearGradient id="paint5_linear_4968_53920" x1="21.1102" y1="187.482" x2="172.847" y2="35.7447" gradientUnits="userSpaceOnUse">
<stop offset="0.3391" stop-color="#0078C2"/>
<stop offset="1" stop-color="#2E3192"/>
</linearGradient>
<linearGradient id="paint6_linear_4968_53920" x1="0.898537" y1="295.561" x2="130.758" y2="295.561" gradientUnits="userSpaceOnUse">
<stop stop-color="#BE1E2D"/>
<stop offset="0.7609" stop-color="#FF003F"/>
</linearGradient>
</defs>
</svg>
