<svg width="456" height="694" viewBox="0 0 456 694" fill="none" xmlns="http://www.w3.org/2000/svg">
    <path d="M251.566 693.582C302.11 681.387 357.43 648.553 387.307 617.368C436.856 552.213 363.656 404.049 261.118 328.062C368.687 497.433 346.031 608.044 251.566 693.582Z" fill="url(#paint0_linear_4835_52712)"/>
    <path d="M341.081 170.961C341.081 170.961 412.633 271.281 445.523 386.384C465.252 455.434 458.713 536.083 387.275 617.357C441.799 545.862 289.542 349.599 261.086 328.051L341.081 170.961Z" fill="url(#paint1_linear_4835_52712)"/>
    <path d="M4.01845 419.836C-7.55151 514.357 42.2533 614.194 182.571 693.535L227.032 648.989C140.499 601.061 53.6527 520.782 4.01845 419.836Z" fill="url(#paint2_linear_4835_52712)"/>
    <path d="M247.703 649.018C274.709 613.342 294.949 593.784 262.428 510.69L189.398 455.484C215.978 488.318 249.238 598.332 247.703 649.018Z" fill="url(#paint3_linear_4835_52712)"/>
    <path d="M274.68 606.392C266.152 491.118 151.789 458.938 104.855 397.279C74.1249 326.865 111.365 312.281 239.686 190.953C104.883 341.874 226.752 414.535 271.241 506.128C286.051 536.631 291.509 568.924 274.68 606.392Z" fill="url(#paint4_linear_4835_52712)"/>
    <path d="M238.122 0C238.122 0 -73.4709 205.701 104.826 397.273C77.365 318.245 315.388 123.318 315.388 123.318L238.122 0Z" fill="url(#paint5_linear_4835_52712)"/>
    <path d="M7.62866 384.43C7.62866 384.43 -63.2409 580.721 227.032 648.975C143.995 599.028 81.1988 413.255 81.1988 413.255L7.62866 384.43Z" fill="url(#paint6_linear_4835_52712)"/>
    <path d="M253.213 444.14L252.02 441.78L279.651 435.242L280.873 437.715L253.213 444.14ZM256.881 451.417L255.687 449.029L283.347 442.52L284.597 444.993L256.881 451.417ZM266.205 453.834L257.762 437.061L260.434 435.725L268.877 452.498L266.205 453.834ZM275.415 451.417L266.916 434.531L269.588 433.195L278.087 450.081L275.415 451.417Z" fill="#231F20"/>
    <path d="M249.235 407.455C244.744 410.269 240.167 413.084 237.552 414.562L237.637 414.704C242.214 413.283 255.006 410.696 264.33 408.677L266.15 411.549C261.289 417.518 252.192 428.861 248.752 432.528L248.809 432.642C251.481 430.709 256.797 427.269 260.919 424.654L270.556 418.599L272.461 421.612L248.326 436.764L245.341 431.988C251.112 424.54 258.673 415.13 261.232 412.373L261.203 412.316C258.531 413.197 245.426 415.898 236.358 417.661L233.43 413.027L257.565 397.875L259.526 401.002L249.235 407.455Z" fill="#231F20"/>
    <path d="M235.42 402.035C242.271 394.076 246.052 389.669 247.587 388.106L247.559 388.077C245.199 388.703 240.338 389.868 229.621 392.285L227.773 389.158L250.288 384.467C256.599 383.159 258.702 383.728 260.891 387.395C261.232 387.964 261.574 388.646 261.915 389.385L259.243 390.977C259.044 390.494 258.759 389.954 258.475 389.442C257.139 387.168 255.632 386.912 252.022 387.623L237.439 405.333L235.42 402.035Z" fill="#231F20"/>
    <path d="M217.651 386.224L210.914 369.196L213.927 368.002L219.272 381.591L227.885 378.179L222.854 365.444L225.867 364.25L230.899 376.985L242.781 372.295L244.146 375.763L217.651 386.224Z" fill="#231F20"/>
    <path d="M230.618 341.459C232.494 341.204 234.484 340.777 235.081 340.578L235.536 343.989C235.11 344.217 234.143 344.473 232.892 344.7C234.37 345.24 236.389 346.633 236.929 350.641C237.583 355.503 234.683 357.976 231.556 358.402C226.951 358.999 224.392 355.673 223.568 349.561C223.369 348.14 223.198 346.832 223.113 346.036L221.351 346.264C219.531 346.491 217.399 347.372 217.911 351.238C218.366 354.678 220.157 355.019 221.806 355.19L222.26 358.63C219.389 358.743 215.864 357.407 215.097 351.494C214.443 346.463 216.12 343.392 220.811 342.795L230.618 341.459ZM225.53 345.667C225.615 346.32 225.814 347.884 225.984 348.993C226.524 353.086 227.946 355.133 230.845 354.763C232.978 354.479 234.342 352.802 234.001 350.272C233.347 345.326 229.907 345.098 226.183 345.581L225.53 345.667Z" fill="#231F20"/>
    <path d="M214.465 333.614C223.078 331.226 229.503 329.464 232.118 328.952V328.924C229.815 328.298 223.732 325.825 214.976 322.272L215.147 318.633L235.529 327.218L235.359 331.169L214.266 337.452L214.465 333.614Z" fill="#231F20"/>
    <path d="M229.729 297.545C235.585 298.739 239.764 303.06 238.485 309.286C237.319 315.113 232.088 317.728 225.977 316.506C219.978 315.312 215.999 310.906 217.221 304.766C218.358 299.109 223.333 296.266 229.729 297.545ZM226.687 312.867C231.15 313.777 234.846 312.185 235.585 308.546C236.324 304.822 233.68 302.093 229.047 301.184C224.47 300.246 220.888 301.695 220.12 305.533C219.353 309.314 222.025 311.958 226.687 312.867Z" fill="#231F20"/>
    <path d="M226.892 291.28C224.135 290.399 222.571 289.916 221.52 289.575L222.6 286.22C223.168 286.334 224.732 286.789 226.665 287.414C224.334 285.51 223.367 282.61 224.305 279.312L227.717 280.421C226.523 284.515 227.802 287.784 232.805 289.404L242.385 292.503L241.277 295.914L226.892 291.28Z" fill="#231F20"/>
    <path d="M217.883 271.568L219.219 268.242L223.369 269.891L222.033 273.217L217.883 271.568ZM226.525 275.036L227.861 271.71L247.135 279.414L245.799 282.74L226.525 275.036Z" fill="#231F20"/>
    <path d="M229.446 267.718L230.981 264.477L225.438 261.862L226.973 258.621L232.516 261.236L234.449 257.086L237.093 258.337L235.16 262.487L246.161 267.661C247.98 268.514 249.118 268.514 249.942 266.808C250.169 266.353 250.454 265.671 250.567 265.102L253.012 266.24C252.927 267.178 252.472 268.315 252.046 269.224C250.681 272.152 248.549 272.721 245.422 271.271L233.653 265.756L232.118 268.997L229.446 267.718Z" fill="#231F20"/>
    <path d="M247.359 256.064C251.055 258.139 254.693 257.769 256.456 254.699C258.076 251.857 257.138 250.094 256.143 248.758L257.934 245.631C259.839 247.649 261.829 251.345 259.014 256.291C255.774 261.977 249.861 261.664 245.199 259.02C239.826 255.95 237.097 250.833 240.224 245.347C243.55 239.519 249.292 240.287 253.158 242.475C253.698 242.788 254.153 243.044 254.636 243.385L247.359 256.064ZM250.657 245.205C247.672 243.556 244.431 243.698 242.668 246.768C240.849 249.952 242.27 252.596 245.227 254.699L250.657 245.205Z" fill="#231F20"/>
    <path d="M260.152 238.228C263.393 239.535 266.236 238.683 268.595 235.3C271.125 231.661 270.443 229.017 268.226 227.482C265.895 225.833 263.763 226.089 259.356 229.955C254.182 234.532 250.942 235.129 247.673 232.827C244.204 230.41 243.153 225.862 246.82 220.66C250.714 215.088 255.519 215.059 258.816 216.879L256.627 220.034C254.268 219.011 251.652 219.096 249.265 222.507C247.275 225.35 247.445 227.852 249.662 229.387C251.851 230.922 253.642 230.211 257.48 226.8C263.762 221.285 267.174 221.91 270.159 224.014C273.94 226.629 274.934 231.49 270.926 237.204C266.833 243.089 261.858 243.373 257.935 241.355L260.152 238.228Z" fill="#231F20"/>
    <path d="M279.629 220.708L287.901 227.559L285.627 230.316L267.263 215.107C265.955 214.027 264.591 212.918 263.34 211.923L265.557 209.223C266.154 209.592 267.149 210.36 268.144 211.213C267.234 209.024 267.32 206.323 269.565 203.594C272.636 199.899 277.952 199.785 282.813 203.793C288.527 208.512 289.038 214.141 285.854 218.007C283.722 220.594 281.505 221.049 279.629 220.708ZM280.567 206.721C277.184 203.907 273.574 203.537 271.328 206.266C268.57 209.592 269.594 212.634 273.488 215.846C277.269 218.973 280.453 219.798 283.211 216.472C285.627 213.515 284.518 209.962 280.567 206.721Z" fill="#231F20"/>
    <path d="M298.781 187.477C303.131 191.599 304.353 197.483 299.975 202.089C295.882 206.41 290.054 205.841 285.534 201.577C281.071 197.37 280.048 191.514 284.34 186.965C288.32 182.758 294.062 182.985 298.781 187.477ZM288.064 198.848C291.362 201.975 295.342 202.6 297.9 199.9C300.515 197.142 299.691 193.418 296.28 190.178C292.897 186.965 289.088 186.283 286.415 189.126C283.743 191.94 284.624 195.579 288.064 198.848Z" fill="#231F20"/>
    <path d="M299.068 180.728C297.049 178.624 295.912 177.459 295.145 176.691L297.675 174.275C298.129 174.644 299.295 175.781 300.688 177.26C299.522 174.474 300.062 171.46 302.479 169.016L304.952 171.603C301.967 174.644 301.512 178.141 305.151 181.922L312.116 189.199L309.529 191.672L299.068 180.728Z" fill="#231F20"/>
    <path d="M304.018 168.212L306.69 165.824L302.625 161.247L305.297 158.859L309.362 163.436L312.774 160.394L314.735 162.583L311.324 165.625L319.426 174.693C320.762 176.2 321.814 176.655 323.235 175.404C323.604 175.063 324.145 174.551 324.457 174.068L326.248 176.086C325.822 176.911 324.912 177.764 324.201 178.446C321.785 180.606 319.596 180.294 317.322 177.707L308.68 167.985L306.008 170.372L304.018 168.212Z" fill="#231F20"/>
    <path d="M188.387 580.772L206.95 565.961L208.911 568.434L190.348 583.245L188.387 580.772Z" fill="#231F20"/>
    <path d="M185.377 550.872C189.101 549.025 193.336 549.337 196.861 553.402C201.524 558.775 199.789 565.001 194.729 569.407C189.868 573.643 183.103 574.751 178.384 569.293C174.716 565.058 175.143 560.68 177.673 557.553L179.748 559.941C178.355 562.272 177.986 564.859 180.459 567.673C183.899 571.624 188.873 570.118 192.512 566.962C196.037 563.892 198.397 559.145 194.815 555.023C192.427 552.265 189.783 552.436 187.452 553.26L185.377 550.872Z" fill="#231F20"/>
    <path d="M179.836 544.984L187.029 542.682L188.933 545.155L164.969 552.887L162.609 549.817L176.084 528.383L178.131 531.055L174.094 537.48L179.836 544.984ZM172.417 539.754C168.835 545.354 166.959 548.339 165.85 549.845L165.879 549.874C167.84 549.106 171.848 547.77 177.193 545.979L172.417 539.754Z" fill="#231F20"/>
    <path d="M154.256 538.235L146.098 525.357L148.372 523.907L154.882 534.17L161.392 530.048L155.308 520.411L157.582 518.961L163.666 528.598L172.649 522.912L174.298 525.528L154.256 538.235Z" fill="#231F20"/>
    <path d="M165.113 510.468L160.707 512.913L159.172 510.184L163.578 507.711L165.113 510.468Z" fill="#231F20"/>
    <path d="M147.148 494.621C151.611 492.432 156.558 493.172 158.917 497.919C161.106 502.354 159.003 506.76 154.312 509.062C149.735 511.308 144.874 510.455 142.571 505.765C140.439 501.444 142.287 497.038 147.148 494.621ZM152.948 506.305C156.359 504.628 158.008 501.7 156.615 498.914C155.222 496.071 152.066 495.645 148.541 497.379C145.045 499.084 143.424 501.87 144.874 504.77C146.295 507.67 149.394 508.039 152.948 506.305Z" fill="#231F20"/>
    <path d="M142.005 492.433C139.788 493.371 138.537 493.911 137.684 494.281L136.547 491.58C136.974 491.353 138.196 490.784 139.759 490.131C137.258 490.216 135.069 488.908 133.875 486.293L136.604 485.127C138.082 488.34 140.669 489.733 144.706 488.027L152.438 484.758L153.604 487.515L142.005 492.433Z" fill="#231F20"/>
    <path d="M142.854 463.845C148.084 461.997 151.808 463.078 153.713 468.394C155.475 473.34 153.258 475.841 151.154 476.922L150.131 474.051C151.751 472.942 152.178 471.179 151.439 469.076C150.131 465.38 147.459 465.295 143.706 466.631L142.399 467.114C144.531 467.342 146.094 468.45 147.061 471.179C148.482 475.188 146.208 479.082 141.432 480.788C136.116 482.692 131.767 480.731 130.374 476.808C129.265 473.709 130.26 471.862 131.198 471.094C130.459 471.322 129.351 471.634 128.981 471.72L128.043 469.047C128.981 468.735 131.198 467.967 132.762 467.427L142.854 463.845ZM140.21 477.917C143.65 476.694 145.355 474.079 144.389 471.407C143.138 467.882 140.409 467.711 136.799 468.99C133.131 470.298 131.312 472.032 132.535 475.529C133.615 478.542 136.685 479.167 140.21 477.917Z" fill="#231F20"/>
    <defs>
    <linearGradient id="paint0_linear_4835_52712" x1="177.455" y1="619.484" x2="367.674" y2="429.265" gradientUnits="userSpaceOnUse">
    <stop offset="0.5027" stop-color="#FF003F"/>
    <stop offset="1" stop-color="#BE1E2D"/>
    </linearGradient>
    <linearGradient id="paint1_linear_4835_52712" x1="251.269" y1="302.034" x2="476.392" y2="485.688" gradientUnits="userSpaceOnUse">
    <stop offset="0.2966" stop-color="#FF9D00"/>
    <stop offset="0.4416" stop-color="#FFA203"/>
    <stop offset="0.6078" stop-color="#FEB00C"/>
    <stop offset="0.7845" stop-color="#FCC71A"/>
    <stop offset="0.9675" stop-color="#F9E72E"/>
    <stop offset="1" stop-color="#F9ED32"/>
    </linearGradient>
    <linearGradient id="paint2_linear_4835_52712" x1="20.0313" y1="524.886" x2="363.063" y2="673.777" gradientUnits="userSpaceOnUse">
    <stop offset="0.4167" stop-color="#22272A"/>
    <stop offset="0.8734" stop-color="#FF003F"/>
    </linearGradient>
    <linearGradient id="paint3_linear_4835_52712" x1="181.063" y1="483.243" x2="303.812" y2="643.462" gradientUnits="userSpaceOnUse">
    <stop offset="0.2966" stop-color="#FF9D00"/>
    <stop offset="0.4416" stop-color="#FFA203"/>
    <stop offset="0.6078" stop-color="#FEB00C"/>
    <stop offset="0.7845" stop-color="#FCC71A"/>
    <stop offset="0.9675" stop-color="#F9E72E"/>
    <stop offset="1" stop-color="#F9ED32"/>
    </linearGradient>
    <linearGradient id="paint4_linear_4835_52712" x1="151.859" y1="284.679" x2="370.786" y2="521.635" gradientUnits="userSpaceOnUse">
    <stop offset="0.3556" stop-color="#009A45"/>
    <stop offset="0.8042" stop-color="#006838"/>
    </linearGradient>
    <linearGradient id="paint5_linear_4835_52712" x1="35.3271" y1="327.769" x2="300.604" y2="62.4914" gradientUnits="userSpaceOnUse">
    <stop offset="0.3391" stop-color="#0078C2"/>
    <stop offset="1" stop-color="#2E3192"/>
    </linearGradient>
    <linearGradient id="paint6_linear_4835_52712" x1="-0.00665571" y1="516.721" x2="227.023" y2="516.721" gradientUnits="userSpaceOnUse">
    <stop stop-color="#BE1E2D"/>
    <stop offset="0.7609" stop-color="#FF003F"/>
    </linearGradient>
    </defs>
</svg>
    