<svg width="632" height="805" viewBox="0 0 632 805" fill="none" xmlns="http://www.w3.org/2000/svg">
<path d="M568.94 584.449C560.299 430.294 525.39 203.9 382.986 108.85C340.818 80.5073 287.935 64.9534 237.127 68.0642C171.801 71.8662 114.425 112.652 47.7168 110.578C-23.1391 108.158 4.51162 249.179 9.35057 287.199C23.5218 396.075 10.0419 502.878 14.1896 612.1C16.6091 678.462 37.6931 738.258 96.7973 774.204C145.878 803.929 206.019 809.805 261.667 801.164C330.449 790.795 391.627 754.848 454.879 728.234C484.95 715.446 522.279 709.57 545.782 685.375C572.742 658.07 571.014 619.358 568.94 584.449Z" fill="#CCEBFF"/>
<path d="M628.815 518.777C620.174 364.622 585.264 138.229 442.861 43.1779C400.693 14.8355 347.811 -0.71844 297.002 2.39231C231.676 6.19434 174.3 46.9799 107.592 44.906C36.7356 42.4866 64.3868 183.507 69.2258 221.527C83.3969 330.404 69.9171 437.206 74.0648 546.428C76.4843 612.791 97.5683 672.586 156.673 708.533C205.753 738.257 265.894 744.133 321.542 735.492C390.324 725.123 451.502 689.177 514.754 662.562C544.825 649.774 582.154 643.898 605.657 619.703C632.617 592.743 630.543 553.686 628.815 518.777Z" stroke="#0286C3" stroke-width="3" stroke-miterlimit="10"/>
</svg>
