<svg width="49" height="210" viewBox="0 0 49 210" fill="none" xmlns="http://www.w3.org/2000/svg">
<path id="Vector" d="M0.95059 130.02C0.911242 129.91 0.837956 129.8 0.836728 129.686C0.822301 128.603 0.630361 127.553 0.45549 126.496C0.31864 125.667 0.296175 124.829 0.456302 123.99L0.438607 124.002C0.661184 123.7 0.794958 123.367 0.742424 122.98C0.710126 122.739 0.696129 122.482 0.606502 122.267C0.134243 121.127 0.159974 119.891 0.0349721 118.682C-0.0294191 118.063 0.0268597 117.46 0.27539 116.884C0.550591 116.248 0.57932 115.59 0.536388 114.905C0.465142 113.749 0.398387 112.589 0.544304 111.426C0.581703 111.129 0.567509 110.805 0.494129 110.52C0.218289 109.447 0.260954 108.353 0.286793 107.251C0.299151 106.691 0.361175 106.157 0.571995 105.636C0.668055 105.399 0.664787 105.15 0.531521 104.935C0.151347 104.32 0.160162 103.675 0.448137 103.02C0.605614 102.661 0.631978 102.317 0.506272 101.955C0.364012 101.544 0.388725 101.116 0.431538 100.687C0.521252 99.7733 0.632328 98.8625 0.588473 97.9399C0.568232 97.5077 0.674679 97.0769 0.928527 96.7234C1.64173 95.7224 1.60872 94.5353 1.73083 93.3858C1.73767 93.3117 1.61351 93.1842 1.52757 93.148C1.3427 93.0695 1.2414 92.9346 1.27022 92.7371C1.38681 91.9516 1.51341 91.1654 1.6533 90.3833C1.69601 90.1449 1.85063 89.9143 1.85492 89.681C1.89465 87.8865 2.65406 86.2292 2.7922 84.4533C2.85443 83.6599 2.96038 82.8792 2.92685 82.0761C2.87686 80.9101 3.00971 79.7686 3.58925 78.7052C3.8763 78.1784 3.89744 77.5442 3.93718 76.932C4.0272 75.5268 4.28647 74.1441 4.51659 72.7572C4.55951 72.5038 4.71616 72.3271 4.93567 72.2089C5.10368 72.1176 5.1754 71.9521 5.1758 71.759C5.1758 71.6367 5.16804 71.5133 5.14157 71.3957C4.94013 70.493 5.16238 69.7036 5.72475 69.0024C5.92607 68.7507 6.02849 68.4566 5.8755 68.1597C5.6615 67.7508 5.67446 67.3493 5.83888 66.9291C5.88323 66.8154 5.91326 66.691 5.97192 66.588C6.18877 66.2162 6.03661 65.5331 6.73563 65.5536C6.79091 65.5552 6.89094 65.3724 6.90882 65.2634C6.97433 64.8417 7.07499 64.41 7.04872 63.9921C7.01815 63.4812 6.96644 63.0338 7.48221 62.7335C7.59932 62.6648 7.66655 62.4214 7.68944 62.2509C7.75188 61.7686 7.8462 61.2717 7.8046 60.7957C7.71997 59.8263 7.93643 58.9545 8.50493 58.2114C8.89714 57.6978 9.08366 57.1671 9.01937 56.5204C9.00179 56.3419 8.99892 56.1441 9.04961 55.9734C9.45203 54.6288 9.83012 53.2741 10.5001 52.0394C11.2021 51.3328 11.4838 50.3804 11.7893 49.4551C11.9995 48.8163 12.2384 48.1988 12.5251 47.5926C13.0166 46.5485 13.4307 45.4631 13.88 44.3957C14.0075 44.0924 13.9581 43.8191 13.8578 43.5148C13.7034 43.0503 13.8995 42.6175 14.2853 42.4335C14.6285 42.269 14.8599 42.056 15.0185 41.7165C15.3013 41.1097 15.5787 40.5 15.8577 39.8927C15.9597 39.6694 16.0525 39.4276 15.9562 39.1904C15.8075 38.8232 15.8513 38.482 16.0173 38.1328C16.5422 37.0357 17.0598 35.9353 17.5867 34.8384C17.8 34.3953 18.0883 34.0233 18.4458 33.6935C19.3524 32.8623 19.8967 31.8087 20.0855 30.5424C20.1287 30.2461 20.2206 29.9419 20.3527 29.6758C20.6779 29.0237 21.0271 28.3838 21.3941 27.7571C21.7928 27.0771 22.2282 26.4304 22.8688 25.9681C23.3184 25.6453 23.5771 25.1637 23.6287 24.579C23.6683 24.117 23.8753 23.7588 24.2272 23.5076C24.6255 23.2246 24.8492 22.8195 25.0943 22.3896C25.51 21.6606 26.01 20.9932 26.3382 20.1978C26.4695 19.8822 26.7903 19.6544 27.0342 19.396C27.3602 19.0509 27.7409 18.7524 28.0171 18.3678C29.88 15.7664 32.0556 13.4681 34.1025 11.0459C34.45 10.6352 34.8046 10.2299 35.1592 9.82458C36.7352 8.02031 38.4232 6.34609 40.2407 4.83025C40.5117 4.60372 40.7881 4.36724 41.093 4.20787C42.1302 3.66395 43.0373 2.91009 43.9837 2.21345C44.7392 1.65634 45.5491 1.18869 46.34 0.688235C46.9845 0.280155 47.6348 0.308504 48.2865 0.598844C48.4614 1.0857 48.6259 1.53456 48.7818 1.9886C48.932 2.4268 48.8578 2.85371 48.5631 3.18837C48.2495 3.54388 47.9033 3.87748 47.5378 4.16747C45.7804 5.55689 44.0942 7.04253 42.4544 8.59073C41.7646 9.24112 41.0425 9.85461 40.3644 10.5196C38.4512 12.3927 36.683 14.4264 34.9454 16.4818C32.9737 18.8098 31.0617 21.2045 29.3904 23.7974C28.5394 25.1174 27.7532 26.4832 26.9402 27.8281C26.566 28.4494 26.2097 29.084 25.8192 29.6944C25.0344 30.9146 24.2641 32.1433 23.6515 33.4744C23.5498 33.6956 23.4316 33.908 23.3097 34.1177C21.7354 36.7805 20.3318 39.5369 19.2217 42.4563C19.0703 42.8548 18.8761 43.2341 18.6985 43.6224C18.5229 44.0109 18.3041 44.3823 18.1738 44.7861C17.4726 46.9411 16.4368 48.9444 15.6185 51.0459C14.5336 53.8337 13.6064 56.6811 12.6982 59.5355C12.3097 60.7577 11.9416 61.9893 11.5738 63.2188C11.4507 63.6279 11.3227 64.0427 11.2575 64.4623C11.0519 65.8035 10.6697 67.091 10.2302 68.3636C9.94898 69.1766 9.76977 70.011 9.60127 70.8533C9.43306 71.6935 9.21886 72.5227 9.02573 73.3571C8.94193 73.7139 8.8326 74.0692 8.77987 74.4306C8.5427 76.0697 8.19965 77.6869 7.82002 79.2967C7.623 80.1305 7.46284 80.9697 7.51212 81.8417C7.53338 82.1988 7.47861 82.5878 7.36201 82.9249C6.99546 83.9829 6.89911 85.0782 6.84547 86.1797C6.81482 86.7975 6.70701 87.3869 6.52746 87.9787C6.36999 88.5008 6.27772 89.0516 6.19668 89.5934C6.01592 90.8052 5.86038 92.0206 5.69934 93.2331C5.66797 93.4752 5.61988 93.7236 5.63051 93.9633C5.70401 95.6885 5.35055 97.3771 5.13617 99.0775C5.0067 100.114 4.88909 101.138 4.97822 102.185C5.02482 102.722 4.96206 103.288 4.86417 103.823C4.74154 104.5 4.70179 105.153 4.86644 105.819C4.92418 106.048 4.93431 106.305 4.91132 106.544C4.80127 107.706 4.76911 108.864 4.82166 110.027C4.84118 110.45 4.77414 110.882 4.71804 111.308C4.62106 112.04 4.61197 112.768 4.63948 113.504C4.67454 114.419 4.65566 115.337 4.64484 116.254C4.63402 117.048 4.61244 117.835 4.76901 118.623C4.86192 119.088 4.81555 119.596 4.77642 120.082C4.71634 120.819 4.73728 121.546 4.83714 122.275C4.91093 122.816 4.92762 123.367 4.97075 123.914C5.03699 124.765 5.10708 125.616 5.16913 126.469C5.21839 127.137 5.25542 127.808 5.29856 128.477C5.32278 128.841 5.32247 129.21 5.37091 129.571C5.54824 130.897 5.76592 132.219 5.92097 133.548C6.03371 134.515 6.09932 135.492 6.13163 136.467C6.15351 137.146 6.21721 137.797 6.45594 138.43C6.60127 138.821 6.72362 139.246 6.73793 139.665C6.77729 140.713 6.93979 141.72 7.28144 142.694C7.37935 142.975 7.42933 143.285 7.45887 143.585C7.64387 145.47 8.05084 147.302 8.42847 149.144C8.83227 151.107 9.31504 153.044 9.77719 154.987C9.9307 155.634 10.1426 156.261 10.3232 156.899C10.4229 157.248 10.5475 157.59 10.6001 157.95C10.7531 158.981 11.0595 159.952 11.3876 160.925C11.9841 162.694 12.539 164.477 13.2496 166.199C13.569 166.973 13.7606 167.807 14.069 168.588C14.5308 169.759 15.0133 170.923 15.5395 172.06C16.5955 174.336 17.6882 176.592 18.7594 178.86C19.0395 179.454 19.2829 180.069 19.574 180.657C20.5267 182.581 21.5649 184.449 22.7308 186.231C23.2805 187.071 23.7903 187.939 24.2797 188.826C24.8539 189.864 25.5581 190.815 26.196 191.811C26.6418 192.507 27.0561 193.228 27.5105 193.919C28.125 194.858 28.7482 195.793 29.399 196.701C29.9475 197.467 30.5323 198.203 31.1129 198.94C31.282 199.153 31.4088 199.535 31.7367 199.421C31.9746 199.34 31.846 198.985 31.9229 198.771C32.0029 198.548 32.1354 198.347 32.2475 198.136L32.2318 198.148C31.9311 196.227 31.6343 194.306 31.3294 192.386C31.1215 191.066 30.8912 189.749 30.6996 188.425C30.6309 187.945 30.631 187.441 30.9406 187.019C30.9898 186.953 31.1835 186.917 31.2343 186.963C31.3568 187.075 31.4334 187.243 31.5257 187.385C31.8861 187.388 31.9556 187.021 32.1662 186.841C32.3451 186.689 32.5062 186.509 32.6788 186.345C32.8078 186.222 32.9417 186.107 33.0755 185.991C33.2226 185.867 33.5649 185.912 33.708 186.06C34.0388 186.402 34.2799 186.802 34.3721 187.298C34.3944 187.417 34.4125 187.538 34.4205 187.659C34.5788 189.918 35.0087 192.123 35.4222 194.331C35.4445 194.45 35.473 194.568 35.4891 194.688C35.8531 197.535 36.6051 200.278 37.2145 203.059C37.4057 203.937 37.713 204.658 38.4584 205.108C38.5458 205.161 38.5921 205.292 38.6575 205.388C38.4888 206.408 38.4952 206.405 38.7127 207.334C38.7944 207.684 38.8425 208.048 38.8932 208.407C38.9223 208.615 38.7408 208.921 38.5478 208.994C38.124 209.153 37.6459 209.154 37.3101 209.566C36.9093 210.057 36.3979 210.056 35.8988 209.848C35.5382 209.696 35.1762 209.5 34.877 209.239C34.5255 208.931 34.1415 208.694 33.7575 208.445C33.2649 208.124 32.7474 207.92 32.1766 207.85C31.2218 207.734 30.2643 207.637 29.311 207.511C28.8654 207.453 28.4041 207.407 27.9868 207.249C26.9795 206.868 25.9618 206.49 25.0033 205.992C23.0776 204.988 21.2821 203.743 19.5517 202.392C19.2366 202.147 18.9224 201.867 18.689 201.537C18.1646 200.795 17.5477 200.212 16.7181 199.904C16.4396 199.801 16.2224 199.591 16.1681 199.27C16.0825 198.756 15.8059 198.396 15.4469 198.083C15.1406 197.818 14.8174 197.573 14.5345 197.283C14.0065 196.743 13.477 196.2 13 195.609C12.7499 195.298 12.5825 194.895 12.4246 194.51C12.2137 193.998 12.348 193.527 12.7492 193.21C12.8411 193.137 12.948 193.084 13.0382 193.009C14.2371 192.036 14.4089 191.932 15.598 193.228C18.6233 196.523 22.1787 199.053 25.8478 201.414C26.7634 202.003 27.7078 202.557 28.8174 202.63C28.9118 202.636 29.0656 202.574 29.0986 202.498C29.1373 202.409 29.1043 202.241 29.0448 202.159C28.6281 201.59 28.1974 201.036 27.7695 200.476L27.783 200.465C27.7136 200.56 27.6543 200.667 27.5696 200.745C27.4294 200.877 27.2542 200.881 27.1153 200.773C26.9856 200.67 26.8797 200.526 26.7813 200.385C26.5132 200.007 26.2865 199.59 25.9861 199.243C25.4569 198.63 24.9525 198.009 24.6431 197.221C24.559 197.01 24.4023 196.819 24.2455 196.657C23.9301 196.332 23.8603 195.968 23.9879 195.514C24.042 195.321 23.8953 195.17 23.7161 195.149C23.3113 195.096 22.9472 194.996 22.789 194.53L22.802 194.55C22.3317 194.103 21.9542 193.578 21.7503 192.937C21.5805 192.402 21.2792 191.98 20.9003 191.613C20.3951 191.121 20.0187 190.534 19.7099 189.878C19.4055 189.232 19.0254 188.63 18.7168 187.986C18.5106 187.551 18.2516 187.165 17.9735 186.788C17.5566 186.22 17.1511 185.642 16.7701 185.046C16.5489 184.7 16.3385 184.335 16.2012 183.943C15.5414 182.064 14.6229 180.34 13.58 178.694C13.0723 177.893 12.6594 177.067 12.3485 176.139C12.0472 175.241 11.6193 174.383 11.2667 173.497C11.113 173.11 11.0082 172.699 10.8651 172.307C10.7845 172.085 10.6944 171.86 10.5723 171.664C9.74165 170.33 9.73941 170.332 9.65272 168.82C9.60142 168.75 9.54461 168.636 9.45775 168.566C8.88709 168.101 8.62843 167.441 8.49495 166.711C8.38774 166.114 8.29189 165.52 7.96485 165.003C7.79562 164.736 7.84455 164.427 7.93847 164.123C8.01726 163.869 7.94561 163.64 7.77739 163.461C7.53744 163.202 7.29746 162.944 7.24431 162.561C7.16653 162.007 6.93455 161.531 6.67415 161.059C6.40751 160.576 6.28304 160.043 6.46156 159.486C6.65899 158.866 6.5658 158.282 6.3937 157.695C6.25879 157.233 6.14932 156.76 5.98734 156.307C5.60286 155.232 5.26129 154.148 5.05893 153.007C4.98718 152.601 4.83094 152.177 4.60273 151.852C4.28265 151.396 4.09675 150.944 4.11922 150.355C4.13383 149.996 4.07527 149.623 3.98298 149.277C3.66841 148.09 3.60583 146.887 3.8007 145.661C3.91915 145.678 4.03791 145.693 4.1583 145.711C4.23311 145.973 4.30761 146.237 4.38436 146.499C4.32132 147.189 4.42342 147.835 4.79613 148.406C4.87063 148.67 4.94543 148.932 5.01994 149.197C5.04426 149.247 5.06668 149.298 5.09131 149.346C5.06249 149.299 5.03367 149.252 5.00485 149.205C4.93034 148.941 4.85554 148.679 4.77879 148.417C4.84408 147.725 4.76845 147.074 4.36477 146.511C4.28996 146.249 4.21541 145.985 4.13866 145.723C4.14234 145.616 4.15216 145.508 4.14776 145.402C4.14511 145.352 4.12684 145.288 4.09464 145.264C4.01105 145.198 3.9312 145.242 3.89022 145.373C3.85742 145.476 3.8418 145.583 3.81677 145.686C3.41441 144.761 3.09076 143.812 3.12243 142.753C3.13724 142.257 2.96819 141.812 2.70513 141.413L2.71986 141.434C2.78864 141.14 2.88347 140.87 3.08192 140.625C3.50255 140.107 3.49731 139.979 3.04846 139.631C2.85981 139.483 2.71909 139.347 2.63283 139.109C2.45235 138.606 2.23129 138.123 2.055 137.619C1.97958 137.402 1.91165 137.147 1.94251 136.922C2.02926 136.287 1.91039 135.729 1.58816 135.205C1.42802 134.944 1.42105 134.638 1.49912 134.334C1.6336 133.807 1.77005 133.279 1.90453 132.752C2.21622 132.6 2.45411 132.356 2.68405 132.084C2.86851 131.867 2.91386 131.882 3.24916 132.098C3.29627 132.129 3.33351 132.173 3.37327 132.213C3.39269 132.379 3.40626 132.544 3.43182 132.708C3.4403 132.759 3.47627 132.812 3.51337 132.843C3.54526 132.869 3.5992 132.866 3.64519 132.877C3.65122 132.781 3.69457 132.661 3.65849 132.596C3.5795 132.458 3.45869 132.348 3.35332 132.227C3.57528 131.195 3.46304 130.17 3.34663 129.147C3.33794 129.071 3.19325 129.002 3.09882 128.956C3.06735 128.941 2.98004 128.982 2.95418 129.023C2.28216 130.041 1.7463 131.104 1.94089 132.407C1.95766 132.523 1.92729 132.65 1.91952 132.771C1.78084 132.444 1.56275 132.131 1.52156 131.788C1.45809 131.285 1.31492 130.88 0.971135 130.532C0.883143 130.442 0.940248 130.186 0.929104 130.004C0.939121 130.004 0.95059 130.02 0.95059 130.02ZM26.2192 194.655L26.2035 194.668C26.1086 194.53 26.0138 194.392 25.9209 194.254C25.826 194.115 25.7309 193.979 25.638 193.841C25.5432 193.703 25.4503 193.565 25.3554 193.426C25.2606 193.288 25.1677 193.15 25.0729 193.012C24.978 192.874 24.8829 192.737 24.788 192.599C24.6932 192.461 24.5981 192.325 24.5052 192.187L24.5187 192.176C24.6135 192.314 24.7067 192.45 24.8015 192.588C24.8964 192.726 24.9893 192.864 25.0841 193.003C25.179 193.141 25.2741 193.277 25.3689 193.416C25.4638 193.554 25.5589 193.69 25.6538 193.828C25.7486 193.967 25.8415 194.105 25.9366 194.241C26.0295 194.379 26.1244 194.517 26.2192 194.655ZM21.2252 186.492C21.3198 186.632 21.4162 186.773 21.5108 186.913C21.5348 186.966 21.5608 187.019 21.5848 187.072C21.5563 187.023 21.528 186.971 21.4995 186.922C21.4028 186.784 21.3063 186.643 21.2095 186.504C21.1147 186.366 21.0215 186.23 20.9266 186.092C20.8991 185.519 20.6484 185.049 20.3611 184.6C19.2084 182.809 18.2642 180.895 17.4792 178.881C17.2614 178.322 17.0024 177.786 16.5651 177.385C16.5267 177.35 16.4318 177.321 16.4106 177.344C16.3381 177.419 16.2294 177.525 16.2375 177.606C16.3072 178.283 16.5722 178.886 16.8851 179.46C17.652 180.863 18.4147 182.269 19.2144 183.651C19.7165 184.519 20.1943 185.416 20.9421 186.081C21.0375 186.215 21.1304 186.353 21.2252 186.492ZM17.5583 183.354C17.6548 183.495 17.7496 183.633 17.8461 183.774C17.8746 183.945 17.8883 184.123 17.9356 184.289C17.9785 184.443 18.0779 184.468 18.1572 184.36C18.1793 184.331 18.1588 184.24 18.1294 184.197C18.0371 184.055 17.9317 183.921 17.8326 183.784C17.7361 183.644 17.6413 183.506 17.5448 183.365C17.45 183.227 17.3571 183.089 17.2623 182.95C17.1674 182.812 17.0723 182.676 16.9774 182.538C16.9421 181.869 16.6352 181.363 16.1851 180.941C16.0906 180.801 15.9941 180.66 15.8996 180.52C15.8047 180.382 15.7118 180.244 15.617 180.105C15.5416 179.848 15.4662 179.59 15.3904 179.334C15.2937 179.196 15.1972 179.055 15.1023 178.917C15.0075 178.778 14.9124 178.642 14.8195 178.504C14.7437 178.248 14.6683 177.991 14.5925 177.735C14.4961 177.594 14.4012 177.456 14.3048 177.315C14.2313 177.058 14.1559 176.8 14.0824 176.543C13.9859 176.402 13.8911 176.264 13.7946 176.123C13.6997 175.985 13.6046 175.848 13.5098 175.71C13.4343 175.452 13.3606 175.197 13.2851 174.939C13.1887 174.799 13.0938 174.66 12.9974 174.52C12.9219 174.262 12.8462 174.006 12.7708 173.748C12.674 173.61 12.5775 173.469 12.4827 173.331C12.4073 173.073 12.3335 172.818 12.2581 172.56C12.1616 172.419 12.0648 172.281 11.9683 172.14C11.8932 171.88 11.8181 171.62 11.743 171.36C11.7292 170.884 11.5479 170.495 11.2293 170.178L11.2428 170.167C11.2737 170.635 11.4333 171.036 11.7584 171.35C11.8335 171.61 11.9087 171.87 11.9818 172.129C12.0764 172.27 12.1728 172.41 12.2677 172.548C12.3431 172.806 12.4188 173.062 12.4942 173.32C12.5907 173.46 12.6853 173.601 12.782 173.739C12.8575 173.997 12.9332 174.253 13.0067 174.51C13.1031 174.651 13.198 174.789 13.2944 174.93C13.3702 175.186 13.4456 175.443 13.5213 175.699C13.6162 175.837 13.7091 175.975 13.8039 176.114C13.9007 176.252 13.9952 176.393 14.0917 176.533C14.1674 176.789 14.2448 177.047 14.3205 177.303C14.417 177.443 14.5118 177.582 14.6083 177.722C14.6837 177.98 14.7572 178.237 14.8329 178.493C14.9278 178.631 15.0207 178.769 15.1158 178.906C15.2123 179.046 15.3071 179.185 15.4036 179.325C15.479 179.583 15.5544 179.841 15.6302 180.096C15.725 180.235 15.8202 180.371 15.915 180.509C16.0118 180.648 16.1082 180.788 16.205 180.927C16.2166 181.609 16.5428 182.105 16.9971 182.525C17.0919 182.664 17.1848 182.802 17.2796 182.94C17.3703 183.08 17.4651 183.218 17.5583 183.354ZM3.6629 141.943C3.64052 141.893 3.61846 141.84 3.59607 141.79C3.62295 141.837 3.65147 141.886 3.67835 141.933C3.70236 141.986 3.72443 142.038 3.74845 142.091C3.71994 142.042 3.69142 141.992 3.6629 141.943ZM6.6891 156.513C6.61429 156.251 6.53979 155.986 6.46498 155.725C6.49288 155.329 6.46784 154.944 6.28725 154.591L6.303 154.579C6.26673 154.977 6.30015 155.359 6.48268 155.712C6.55749 155.974 6.63393 156.238 6.70874 156.5C6.78386 156.76 6.86091 157.02 6.93603 157.28C7.01308 157.54 7.0885 157.798 7.16556 158.058C7.24293 158.316 7.31998 158.577 7.39541 158.834C7.47277 159.092 7.54983 159.352 7.62719 159.611C7.70456 159.869 7.78161 160.129 7.85704 160.387C7.9344 160.645 8.01146 160.905 8.08688 161.162C8.16394 161.423 8.23936 161.68 8.31642 161.941C8.39378 162.199 8.47115 162.457 8.54851 162.715C8.62588 162.973 8.70104 163.233 8.7781 163.493C8.85577 163.749 8.93119 164.006 9.00886 164.262L8.99311 164.275C8.91544 164.019 8.83807 163.761 8.7604 163.505C8.68304 163.247 8.60598 162.987 8.53087 162.727C8.4535 162.469 8.37839 162.209 8.30102 161.951C8.22365 161.693 8.1466 161.433 8.06923 161.175C7.99187 160.917 7.91676 160.657 7.83969 160.397C7.76233 160.139 7.68528 159.879 7.60985 159.621C7.53279 159.361 7.45733 159.103 7.38027 158.843C7.3029 158.585 7.22585 158.325 7.15042 158.067C7.07336 157.807 6.99795 157.549 6.92089 157.289C6.84352 157.031 6.76646 156.771 6.6891 156.513ZM9.51074 165.471L9.52649 165.458C9.60161 165.718 9.67641 165.98 9.75153 166.24C9.82889 166.498 9.90595 166.758 9.98332 167.016C10.059 167.272 10.1345 167.529 10.2121 167.785C10.3086 167.926 10.4035 168.064 10.4999 168.205C10.5776 168.461 10.6533 168.717 10.7307 168.975L10.7127 168.989C10.6392 168.732 10.5638 168.474 10.4906 168.214C10.3941 168.074 10.2993 167.935 10.2028 167.795C10.1252 167.539 10.0475 167.283 9.96951 167.029C9.89245 166.769 9.81703 166.511 9.73997 166.251C9.66097 165.991 9.58586 165.731 9.51074 165.471ZM6.37161 149.379L6.35361 149.393C6.30108 149.291 6.25692 149.186 6.19315 149.093C6.17547 149.065 6.10834 149.076 6.06368 149.07C6.06318 149.291 6.24591 149.302 6.37161 149.379ZM6.72454 146.851C6.64973 146.589 6.57329 146.325 6.49848 146.063C6.52892 145.664 6.50194 145.278 6.32197 144.921C6.356 144.525 6.33096 144.139 6.14394 143.79L6.15964 143.777C6.10691 144.18 6.14033 144.562 6.33931 144.911C6.29047 145.314 6.32976 145.697 6.51392 146.052C6.58842 146.316 6.66323 146.578 6.73773 146.842C6.72149 147.239 6.75041 147.625 6.91423 147.984C6.83638 148.966 7.06551 149.855 7.56004 150.666C7.54665 150.853 7.58139 150.913 7.624 150.825C7.6377 150.799 7.57086 150.727 7.5404 150.678C7.58924 149.704 7.39557 148.803 6.89685 147.994C6.9273 147.595 6.89613 147.211 6.72454 146.851ZM5.07618 136.946C5.08404 136.838 5.09582 136.73 5.0998 136.621C5.10562 136.459 5.04992 136.406 4.95979 136.493C4.93669 136.516 4.94612 136.601 4.96329 136.646C5.00028 136.746 5.05238 136.837 5.09776 136.934C4.96584 137.743 5.0056 138.517 5.45843 139.205C5.45087 139.312 5.4436 139.416 5.43798 139.522C5.42858 139.682 5.47655 139.734 5.56382 139.652C5.58692 139.63 5.57688 139.549 5.56002 139.501C5.5266 139.404 5.48254 139.312 5.44105 139.216C5.47292 138.426 5.41251 137.658 5.07618 136.946ZM8.17925 153.38C8.16535 153.095 8.1573 152.811 8.13502 152.528C8.13175 152.483 8.07532 152.421 8.03352 152.409C7.90199 152.372 7.81411 152.458 7.8644 152.603C7.95699 152.865 8.08116 153.115 8.1947 153.37C8.07688 154.368 8.32634 155.254 8.83253 156.066C8.76284 156.652 8.6815 157.237 8.62765 157.823C8.61008 158.012 8.71598 158.156 8.89902 158.206C9.10831 158.267 9.31787 158.325 9.52911 158.386C9.55119 158.439 9.57105 158.493 9.59313 158.546C9.56655 158.497 9.53804 158.447 9.51147 158.398C9.46373 157.557 9.26516 156.77 8.81488 156.078C8.90367 155.089 8.69995 154.188 8.17925 153.38ZM13.7544 171.669C13.8221 171.123 13.7505 170.608 13.4985 170.134C13.4456 170.034 13.3927 169.921 13.3116 169.851C13.2377 169.787 13.1063 169.723 13.038 169.755C12.9659 169.788 12.8876 169.944 12.8945 170.033C12.9571 170.718 13.3029 171.23 13.774 171.657C13.7563 171.955 13.7108 172.253 13.7251 172.549C13.7509 173.106 13.9786 173.571 14.3492 173.953C14.4596 174.066 14.7002 174.116 14.7987 174.025C14.9389 173.893 14.9586 173.718 14.9226 173.543C14.8863 173.37 14.8381 173.198 14.7702 173.038C14.5415 172.485 14.2017 172.028 13.7544 171.669ZM2.26161 113.859C2.33937 113.068 2.11424 112.355 1.85322 111.643C1.78301 111.675 1.70841 111.684 1.69288 111.722C1.36382 112.455 1.41137 113.108 2.02321 113.631C2.10977 113.704 2.19694 113.772 2.2835 113.845C1.99133 114.216 1.69005 114.582 1.408 114.966C1.30437 115.105 1.22558 115.278 1.18071 115.45C1.15496 115.545 1.20996 115.671 1.25054 115.773C1.26505 115.81 1.35192 115.84 1.39545 115.827C1.77051 115.716 2.13982 115.577 2.51988 115.487C2.93929 115.385 3.14136 115.957 3.62341 115.888C3.87306 115.087 3.93729 114.266 3.74219 113.429C3.73013 113.376 3.69081 113.306 3.64769 113.289C3.52771 113.241 3.45359 113.314 3.39749 113.454C3.30777 113.675 3.22104 113.902 3.0933 114.098C2.9908 114.257 2.80334 114.305 2.64351 114.204C2.50217 114.113 2.38762 113.974 2.26161 113.859ZM4.77038 132.464C4.75617 132.466 4.74228 132.466 4.73002 132.469C4.67339 131.81 4.62482 131.151 4.55624 130.493C4.5311 130.257 4.46978 130.025 4.41204 129.796C4.40202 129.756 4.326 129.706 4.28727 129.713C4.2424 129.722 4.17537 129.787 4.17312 129.83C4.09435 131.47 4.46725 133.046 4.67227 134.645C4.67646 134.684 4.75739 134.741 4.79776 134.736C4.83813 134.731 4.91032 134.658 4.90807 134.619C4.8681 133.901 4.81811 133.183 4.77038 132.464ZM12.5778 168.371C12.6244 168.337 12.7014 168.312 12.7137 168.268C12.8172 167.871 12.5879 167.568 12.4743 167.231C12.2753 166.638 11.9152 166.184 11.4165 165.865C11.3456 165.82 11.2135 165.869 11.1158 165.9C11.0887 165.909 11.0589 166.019 11.0741 166.064C11.1679 166.346 11.2317 166.655 11.3849 166.896C11.7014 167.391 12.0684 167.852 12.4206 168.32C12.449 168.356 12.5246 168.354 12.5778 168.371ZM22.5217 189.091C22.5137 189.145 22.481 189.22 22.502 189.253C22.7436 189.636 22.99 190.013 23.2428 190.387C23.2641 190.418 23.3802 190.424 23.3856 190.414C23.4211 190.32 23.4898 190.189 23.4573 190.126C23.2485 189.722 23.05 189.303 22.6643 189.051C22.6334 189.032 22.5694 189.076 22.5217 189.091ZM8.43074 65.8416C8.4894 65.9425 8.50769 66.0074 8.54959 66.0328C8.58924 66.06 8.67182 66.0785 8.70136 66.0528C8.98811 65.8135 9.11689 65.5018 9.05015 65.1166C9.04197 65.0639 9.00047 65.0085 8.95949 64.9768C8.85637 64.8952 8.73106 64.9113 8.68262 65.0394C8.5791 65.314 8.50575 65.5994 8.43074 65.8416ZM8.18934 63.5276C8.14325 63.5037 8.09715 63.4798 8.05076 63.458C7.99854 63.5577 7.91361 63.6504 7.89828 63.7555C7.83298 64.1623 7.77707 64.5725 7.74508 64.982C7.73221 65.1518 7.82657 65.1849 7.97148 65.0343C8.03821 64.5634 8.11392 64.0445 8.18934 63.5276ZM3.92492 90.9336C3.91388 91.05 3.87994 91.1738 3.90181 91.2821C3.92163 91.3772 3.99975 91.5217 4.06087 91.5242C4.14334 91.5298 4.25931 91.4415 4.31716 91.3577C4.45297 91.1608 4.51511 90.9252 4.42794 90.6937C4.3982 90.6121 4.27657 90.5621 4.18735 90.5212C4.15945 90.5086 4.08167 90.5659 4.05745 90.6096C4.00492 90.7113 3.96866 90.8241 3.92492 90.9336ZM3.94134 137.154C3.99193 137.133 4.05067 137.125 4.08368 137.089C4.11894 137.051 4.15582 136.975 4.14355 136.936C4.06915 136.726 3.98893 136.515 3.88908 136.316C3.82603 136.191 3.71349 136.187 3.62929 136.289C3.59791 136.327 3.58528 136.4 3.59151 136.453C3.61257 136.743 3.64814 137.029 3.94134 137.154ZM3.64479 98.8063C3.6129 98.6986 3.6016 98.5725 3.5408 98.4864C3.45056 98.3574 3.2308 98.4906 3.16928 98.7219C3.13883 98.8355 3.13047 98.9609 3.13303 99.0793C3.13344 99.1308 3.18688 99.2266 3.20916 99.2234C3.30829 99.21 3.42941 99.1955 3.49482 99.1277C3.57146 99.051 3.59717 98.9152 3.64479 98.8063ZM3.45291 122.302C3.50135 122.297 3.5787 122.31 3.5924 122.284C3.75008 121.992 3.62931 121.719 3.54182 121.448C3.52987 121.408 3.45742 121.361 3.42063 121.369C3.37965 121.378 3.32515 121.438 3.31421 121.486C3.24125 121.782 3.24934 122.067 3.45291 122.302ZM1.76581 109.184C1.73567 109.377 1.83275 109.513 2.01609 109.521C2.06136 109.523 2.12542 109.492 2.15291 109.453C2.23855 109.328 2.16393 109.092 2.00195 109.047C1.9391 109.029 1.84624 109.135 1.76581 109.184ZM2.8509 137.342C2.902 137.345 2.96005 137.369 3.00256 137.349C3.04702 137.33 3.09248 137.277 3.10761 137.227C3.16933 137.022 3.09935 136.836 2.94973 136.801C2.90957 136.791 2.83157 136.822 2.81246 136.858C2.72427 137.028 2.73593 137.192 2.8509 137.342ZM5.28775 145.146C5.34243 145.07 5.40811 145 5.44623 144.916C5.45829 144.887 5.39025 144.783 5.38381 144.786C5.30164 144.82 5.22349 144.866 5.14368 144.91C5.19181 144.988 5.23962 145.068 5.28775 145.146ZM5.60657 141.697C5.67412 141.818 5.74624 141.949 5.8187 142.078C5.85753 142.042 5.9261 142.007 5.92712 141.973C5.92886 141.866 5.91507 141.757 5.8842 141.656C5.87225 141.615 5.80532 141.571 5.76168 141.571C5.72612 141.571 5.68587 141.629 5.60657 141.697ZM3.42912 95.2558C3.39161 95.2954 3.33756 95.3261 3.31886 95.3727C3.29985 95.4214 3.29579 95.5174 3.32246 95.5385C3.43273 95.6254 3.50658 95.5675 3.50198 95.3951C3.50259 95.3502 3.45375 95.3044 3.42912 95.2558ZM4.37127 139.399L4.49281 139.436L4.46399 139.307L4.37127 139.399ZM3.79459 97.1544L3.87056 97.2321L3.8909 97.1063L3.79459 97.1544ZM11.2501 164.735L11.3624 164.672L11.2587 164.595L11.2501 164.735ZM10.7469 162.638L10.6833 162.518L10.6195 162.628L10.7469 162.638Z" fill="#0286C3"/>
</svg>
