<svg width="689" height="767" viewBox="0 0 689 767" fill="none" xmlns="http://www.w3.org/2000/svg">
<path d="M630.704 470.113C630.508 459.488 630.663 448.892 631.872 438.382C636.263 393.121 655.968 350.875 665.572 306.746C675.555 262.294 673.729 210.869 642.083 178.235C604.542 139.817 543.433 143.33 490.378 134.769C445.346 127.567 402.957 109.619 359.551 95.4771C316.145 81.3354 269.937 71.2093 225.081 79.2282C185.608 86.2708 140.642 113.023 128.134 153.733C121.852 174.439 127.599 195.064 124.07 216.702C113.626 279.858 87.0701 336.753 82.0746 402.475C77.1078 467.845 70.8216 592.871 116.324 646.436C129.555 662.012 149.767 670.022 168.982 677.244C233.132 701.561 297.983 725.935 365.012 740.939C409.815 750.95 457.127 756.216 501.006 742.813C580.049 718.834 631.081 634.934 634.287 552.093C634.732 524.9 631.313 497.392 630.704 470.113Z" fill="#FFF5AD"/>
<path d="M579.298 406.527C579.102 395.902 579.257 385.306 580.466 374.796C584.857 329.535 604.562 287.289 614.165 243.16C624.149 198.708 622.322 147.283 590.677 114.649C553.136 76.2311 492.026 79.7445 438.972 71.1829C393.94 63.9815 351.551 46.0328 308.145 31.8911C264.739 17.7495 218.53 7.62333 173.674 15.6422C134.202 22.6848 89.2356 49.437 76.7279 90.147C70.4454 110.853 76.1932 131.478 72.6639 153.116C62.2193 216.272 35.6638 273.167 30.6684 338.889C25.7015 404.259 19.4154 529.285 64.9173 582.85C78.1483 598.426 98.3608 606.436 117.576 613.658C181.725 637.975 246.577 662.349 313.606 677.353C358.409 687.364 405.72 692.63 449.6 679.227C528.643 655.248 579.675 571.348 582.881 488.507C583.326 461.314 579.907 433.806 579.298 406.527Z" stroke="#FBB22E" stroke-width="3" stroke-miterlimit="10"/>
</svg>
