<svg width="1536" height="459" viewBox="0 0 1536 459" fill="none" xmlns="http://www.w3.org/2000/svg">
<g style="mix-blend-mode:darken" filter="url(#filter0_b_84_10)">
<path d="M1535.68 27.4844H0V419.423C81.2378 466.167 361.274 460.419 421.51 456.037C544.079 447.121 717.705 422.875 790.035 412.068C889.919 397.144 971.745 377.882 1130.16 381.643C1331.72 386.429 1477.24 401.97 1535.68 419.233V27.4844Z" fill="black"/>
<path d="M1535.68 21.5078H0V413.447C81.2378 460.191 361.274 454.442 421.51 450.06C544.079 441.144 717.705 416.898 790.035 406.091C889.919 391.168 971.745 371.905 1130.16 375.667C1331.72 380.452 1477.24 395.993 1535.68 413.257V21.5078Z" fill="#FBB22E"/>
<path d="M1535.68 14.3438H0V406.282C81.2378 453.027 361.274 447.278 421.51 442.896C544.079 433.98 717.705 409.734 790.035 398.927C889.919 384.004 971.745 364.741 1130.16 368.503C1331.72 373.288 1477.24 388.829 1535.68 406.093V14.3438Z" fill="#168C39"/>
<path d="M1535.68 7.17188H0V399.111C81.2378 445.855 361.274 440.106 421.51 435.724C544.079 426.808 717.705 402.562 790.035 391.755C889.919 376.832 971.745 357.569 1130.16 361.331C1331.72 366.117 1477.24 381.657 1535.68 398.921V7.17188Z" fill="#EE2F4D"/>
<path d="M1535.68 0H0V391.939C81.2378 438.683 361.274 432.934 421.51 428.552C544.079 419.636 717.705 395.39 790.035 384.584C889.919 369.66 971.745 350.397 1130.16 354.159C1331.72 358.945 1477.24 374.485 1535.68 391.749V0Z" fill="#2057CC"/>
<path d="M1535.68 0H0V381.082C81.2378 426.531 361.274 420.942 421.51 416.681C544.079 408.012 717.705 384.438 790.035 373.93C889.919 359.42 971.745 340.691 1130.16 344.348C1331.72 349.002 1477.24 364.112 1535.68 380.897V0Z" fill="white"/>
</g>
<defs>
<filter id="filter0_b_84_10" x="-4" y="-4" width="1543.68" height="466.902" filterUnits="userSpaceOnUse" color-interpolation-filters="sRGB">
<feFlood flood-opacity="0" result="BackgroundImageFix"/>
<feGaussianBlur in="BackgroundImageFix" stdDeviation="2"/>
<feComposite in2="SourceAlpha" operator="in" result="effect1_backgroundBlur_84_10"/>
<feBlend mode="normal" in="SourceGraphic" in2="effect1_backgroundBlur_84_10" result="shape"/>
</filter>
</defs>
</svg>
