<svg width="571" height="247" viewBox="0 0 571 247" fill="none" xmlns="http://www.w3.org/2000/svg">
<rect width="571" height="247" rx="20" fill="#F2F2F2"/>
<mask id="path-2-inside-1_368_9788" fill="white">
<path d="M51.7183 143.935C48.4934 129.451 48.7423 114.409 52.4446 100.039C56.147 85.67 63.1975 72.3807 73.0199 61.2582C82.8423 50.1357 95.1577 41.4958 108.959 36.0449C122.76 30.5939 137.656 28.4868 152.428 29.8956L148.857 67.3373C139.993 66.492 131.056 67.7563 122.775 71.0269C114.495 74.2975 107.105 79.4814 101.212 86.1549C95.3185 92.8284 91.0882 100.802 88.8668 109.424C86.6454 118.045 86.496 127.07 88.4309 135.761L51.7183 143.935Z"/>
</mask>
<path d="M51.7183 143.935C48.4934 129.451 48.7423 114.409 52.4446 100.039C56.147 85.67 63.1975 72.3807 73.0199 61.2582C82.8423 50.1357 95.1577 41.4958 108.959 36.0449C122.76 30.5939 137.656 28.4868 152.428 29.8956L148.857 67.3373C139.993 66.492 131.056 67.7563 122.775 71.0269C114.495 74.2975 107.105 79.4814 101.212 86.1549C95.3185 92.8284 91.0882 100.802 88.8668 109.424C86.6454 118.045 86.496 127.07 88.4309 135.761L51.7183 143.935Z" fill="#91E184" stroke="white" stroke-width="4" stroke-linejoin="round" mask="url(#path-2-inside-1_368_9788)"/>
<mask id="path-3-inside-2_368_9788" fill="white">
<path d="M151.996 29.8554C164.84 31.0207 177.307 34.8157 188.622 41.0045C199.937 47.1933 209.857 55.6436 217.767 65.83C225.677 76.0163 231.407 87.721 234.601 100.216C237.794 112.711 238.383 125.73 236.331 138.462L199.199 132.477C200.43 124.838 200.077 117.027 198.16 109.53C196.244 102.033 192.806 95.0098 188.06 88.898C183.314 82.7861 177.362 77.716 170.573 74.0027C163.784 70.2894 156.304 68.0124 148.597 67.3132L151.996 29.8554Z"/>
</mask>
<path d="M151.996 29.8554C164.84 31.0207 177.307 34.8157 188.622 41.0045C199.937 47.1933 209.857 55.6436 217.767 65.83C225.677 76.0163 231.407 87.721 234.601 100.216C237.794 112.711 238.383 125.73 236.331 138.462L199.199 132.477C200.43 124.838 200.077 117.027 198.16 109.53C196.244 102.033 192.806 95.0098 188.06 88.898C183.314 82.7861 177.362 77.716 170.573 74.0027C163.784 70.2894 156.304 68.0124 148.597 67.3132L151.996 29.8554Z" fill="#98CEFF" stroke="white" stroke-width="4" stroke-linejoin="round" mask="url(#path-3-inside-2_368_9788)"/>
<mask id="path-4-inside-3_368_9788" fill="white">
<path d="M236.507 137.328C234.527 150.645 229.71 163.381 222.383 174.675C215.056 185.969 205.389 195.559 194.036 202.794C182.683 210.03 169.908 214.743 156.576 216.615C143.244 218.488 129.666 217.475 116.759 213.646L127.455 177.588C135.199 179.885 143.347 180.493 151.346 179.369C159.345 178.246 167.01 175.418 173.822 171.077C180.633 166.735 186.434 160.982 190.83 154.205C195.226 147.428 198.116 139.787 199.304 131.797L236.507 137.328Z"/>
</mask>
<path d="M236.507 137.328C234.527 150.645 229.71 163.381 222.383 174.675C215.056 185.969 205.389 195.559 194.036 202.794C182.683 210.03 169.908 214.743 156.576 216.615C143.244 218.488 129.666 217.475 116.759 213.646L127.455 177.588C135.199 179.885 143.347 180.493 151.346 179.369C159.345 178.246 167.01 175.418 173.822 171.077C180.633 166.735 186.434 160.982 190.83 154.205C195.226 147.428 198.116 139.787 199.304 131.797L236.507 137.328Z" fill="#FFE666" stroke="white" stroke-width="4" stroke-linejoin="round" mask="url(#path-4-inside-3_368_9788)"/>
<mask id="path-5-inside-4_368_9788" fill="white">
<path d="M117.062 213.736C100.765 208.961 86.0646 199.861 74.523 187.403C62.9815 174.946 55.0293 159.594 51.511 142.98L88.3066 135.188C90.4176 145.157 95.1889 154.367 102.114 161.842C109.039 169.317 117.859 174.776 127.637 177.641L117.062 213.736Z"/>
</mask>
<path d="M117.062 213.736C100.765 208.961 86.0646 199.861 74.523 187.403C62.9815 174.946 55.0293 159.594 51.511 142.98L88.3066 135.188C90.4176 145.157 95.1889 154.367 102.114 161.842C109.039 169.317 117.859 174.776 127.637 177.641L117.062 213.736Z" fill="#EFA247" stroke="white" stroke-width="4" stroke-linejoin="round" mask="url(#path-5-inside-4_368_9788)"/>
<circle cx="291.5" cy="61.5" r="4.5" fill="#91E184"/>
<path d="M320.672 66.644C320.053 66.644 319.429 66.5533 318.8 66.372C318.181 66.1907 317.643 65.924 317.184 65.572C317.045 65.476 316.955 65.3693 316.912 65.252C316.869 65.124 316.859 65.0067 316.88 64.9C316.912 64.7827 316.971 64.6867 317.056 64.612C317.141 64.5267 317.243 64.4787 317.36 64.468C317.488 64.4573 317.627 64.5 317.776 64.596C318.245 64.9053 318.715 65.1293 319.184 65.268C319.653 65.4067 320.139 65.476 320.64 65.476C321.184 65.476 321.643 65.396 322.016 65.236C322.389 65.076 322.672 64.8413 322.864 64.532C323.056 64.212 323.152 63.8227 323.152 63.364C323.152 62.7027 322.933 62.2013 322.496 61.86C322.059 61.5187 321.424 61.348 320.592 61.348H319.456C319.253 61.348 319.099 61.3 318.992 61.204C318.885 61.0973 318.832 60.9533 318.832 60.772C318.832 60.6013 318.885 60.468 318.992 60.372C319.099 60.2653 319.253 60.212 319.456 60.212H320.48C320.971 60.212 321.387 60.1267 321.728 59.956C322.08 59.7853 322.352 59.5453 322.544 59.236C322.736 58.916 322.832 58.532 322.832 58.084C322.832 57.4867 322.64 57.0333 322.256 56.724C321.872 56.404 321.317 56.244 320.592 56.244C320.112 56.244 319.659 56.3133 319.232 56.452C318.805 56.5907 318.384 56.8253 317.968 57.156C317.84 57.252 317.712 57.3 317.584 57.3C317.467 57.2893 317.365 57.252 317.28 57.188C317.205 57.1133 317.147 57.0173 317.104 56.9C317.072 56.7827 317.077 56.6653 317.12 56.548C317.163 56.42 317.253 56.3027 317.392 56.196C317.819 55.8333 318.32 55.556 318.896 55.364C319.472 55.172 320.064 55.076 320.672 55.076C321.397 55.076 322.016 55.1933 322.528 55.428C323.051 55.652 323.451 55.9827 323.728 56.42C324.005 56.8467 324.144 57.364 324.144 57.972C324.144 58.4307 324.053 58.852 323.872 59.236C323.701 59.6093 323.456 59.9293 323.136 60.196C322.827 60.4627 322.448 60.6547 322 60.772V60.596C322.779 60.724 323.381 61.044 323.808 61.556C324.245 62.0573 324.464 62.692 324.464 63.46C324.464 64.1107 324.309 64.676 324 65.156C323.701 65.6253 323.269 65.9933 322.704 66.26C322.139 66.516 321.461 66.644 320.672 66.644ZM330.394 66.644C329.103 66.644 328.122 66.148 327.45 65.156C326.778 64.164 326.442 62.7293 326.442 60.852C326.442 59.5933 326.591 58.5373 326.89 57.684C327.188 56.82 327.631 56.1693 328.218 55.732C328.815 55.2947 329.54 55.076 330.394 55.076C331.695 55.076 332.676 55.5667 333.338 56.548C334.01 57.5187 334.346 58.948 334.346 60.836C334.346 62.0947 334.196 63.156 333.898 64.02C333.599 64.884 333.156 65.54 332.57 65.988C331.983 66.4253 331.258 66.644 330.394 66.644ZM330.394 65.508C331.29 65.508 331.951 65.1293 332.378 64.372C332.815 63.604 333.034 62.4253 333.034 60.836C333.034 59.236 332.815 58.068 332.378 57.332C331.951 56.5853 331.29 56.212 330.394 56.212C329.508 56.212 328.847 56.5853 328.41 57.332C327.972 58.0787 327.754 59.2467 327.754 60.836C327.754 62.4253 327.972 63.604 328.41 64.372C328.847 65.1293 329.508 65.508 330.394 65.508ZM339.988 66.516C339.913 66.6547 339.822 66.7453 339.716 66.788C339.609 66.8413 339.502 66.852 339.396 66.82C339.289 66.7987 339.198 66.7453 339.124 66.66C339.049 66.5853 339.001 66.4893 338.98 66.372C338.969 66.2547 339.001 66.1267 339.076 65.988L345.252 55.236C345.326 55.0973 345.417 55.0067 345.524 54.964C345.63 54.9107 345.737 54.9 345.844 54.932C345.95 54.9533 346.041 55.0067 346.116 55.092C346.19 55.1773 346.233 55.2787 346.244 55.396C346.265 55.5133 346.238 55.636 346.164 55.764L339.988 66.516ZM338.804 61.988C337.95 61.988 337.284 61.684 336.804 61.076C336.324 60.468 336.084 59.62 336.084 58.532C336.084 57.8067 336.19 57.188 336.404 56.676C336.628 56.164 336.942 55.7747 337.348 55.508C337.753 55.2307 338.238 55.092 338.804 55.092C339.646 55.092 340.308 55.396 340.788 56.004C341.278 56.6013 341.524 57.444 341.524 58.532C341.524 59.2573 341.412 59.876 341.188 60.388C340.974 60.9 340.665 61.2947 340.26 61.572C339.854 61.8493 339.369 61.988 338.804 61.988ZM338.804 61.044C339.134 61.044 339.417 60.948 339.652 60.756C339.897 60.564 340.084 60.2813 340.212 59.908C340.34 59.5347 340.404 59.076 340.404 58.532C340.404 57.7 340.26 57.076 339.972 56.66C339.684 56.244 339.294 56.036 338.804 56.036C338.473 56.036 338.185 56.132 337.94 56.324C337.705 56.5053 337.524 56.7827 337.396 57.156C337.268 57.5187 337.204 57.9773 337.204 58.532C337.204 59.364 337.342 59.9933 337.62 60.42C337.908 60.836 338.302 61.044 338.804 61.044ZM346.452 66.644C345.609 66.644 344.942 66.34 344.452 65.732C343.972 65.124 343.732 64.276 343.732 63.188C343.732 62.4627 343.838 61.844 344.052 61.332C344.276 60.82 344.59 60.4307 344.996 60.164C345.412 59.8867 345.897 59.748 346.452 59.748C347.305 59.748 347.972 60.052 348.452 60.66C348.932 61.2573 349.172 62.1 349.172 63.188C349.172 63.9133 349.065 64.5373 348.852 65.06C348.638 65.572 348.329 65.9667 347.924 66.244C347.518 66.5107 347.028 66.644 346.452 66.644ZM346.452 65.7C346.793 65.7 347.081 65.6093 347.316 65.428C347.55 65.236 347.732 64.9533 347.86 64.58C347.988 64.2067 348.052 63.7427 348.052 63.188C348.052 62.356 347.908 61.732 347.62 61.316C347.342 60.9 346.953 60.692 346.452 60.692C346.121 60.692 345.833 60.788 345.588 60.98C345.353 61.1613 345.172 61.4387 345.044 61.812C344.926 62.1747 344.868 62.6333 344.868 63.188C344.868 64.0307 345.006 64.66 345.284 65.076C345.572 65.492 345.961 65.7 346.452 65.7Z" fill="#1F1F23"/>
<path d="M363.048 66.612C362.835 66.612 362.669 66.5533 362.552 66.436C362.445 66.308 362.392 66.1373 362.392 65.924V55.796C362.392 55.572 362.445 55.4013 362.552 55.284C362.669 55.1667 362.835 55.108 363.048 55.108C363.261 55.108 363.421 55.1667 363.528 55.284C363.645 55.4013 363.704 55.572 363.704 55.796V65.924C363.704 66.1373 363.651 66.308 363.544 66.436C363.437 66.5533 363.272 66.612 363.048 66.612ZM369.445 66.644C368.837 66.644 368.325 66.5373 367.909 66.324C367.504 66.1 367.2 65.78 366.997 65.364C366.795 64.9373 366.693 64.42 366.693 63.812V59.732H365.621C365.44 59.732 365.301 59.6893 365.205 59.604C365.109 59.508 365.061 59.38 365.061 59.22C365.061 59.06 365.109 58.9373 365.205 58.852C365.301 58.7667 365.44 58.724 365.621 58.724H366.693V56.884C366.693 56.6707 366.752 56.5107 366.869 56.404C366.987 56.2867 367.147 56.228 367.349 56.228C367.552 56.228 367.707 56.2867 367.813 56.404C367.931 56.5107 367.989 56.6707 367.989 56.884V58.724H370.005C370.187 58.724 370.325 58.7667 370.421 58.852C370.517 58.9373 370.565 59.06 370.565 59.22C370.565 59.38 370.517 59.508 370.421 59.604C370.325 59.6893 370.187 59.732 370.005 59.732H367.989V63.684C367.989 64.292 368.117 64.756 368.373 65.076C368.629 65.3853 369.045 65.54 369.621 65.54C369.824 65.54 369.995 65.5187 370.133 65.476C370.283 65.4333 370.405 65.412 370.501 65.412C370.597 65.4013 370.677 65.4333 370.741 65.508C370.805 65.5827 370.837 65.7107 370.837 65.892C370.837 66.02 370.811 66.1373 370.757 66.244C370.715 66.3507 370.635 66.4253 370.517 66.468C370.389 66.5107 370.219 66.548 370.005 66.58C369.803 66.6227 369.616 66.644 369.445 66.644ZM372.609 58.372C372.502 58.5107 372.39 58.5907 372.273 58.612C372.156 58.6227 372.054 58.6013 371.969 58.548C371.884 58.484 371.836 58.3933 371.825 58.276C371.825 58.1587 371.878 58.0307 371.985 57.892C372.156 57.668 372.273 57.444 372.337 57.22C372.401 56.9853 372.433 56.7773 372.433 56.596L372.497 56.916C372.22 56.916 371.996 56.836 371.825 56.676C371.665 56.5053 371.585 56.292 371.585 56.036C371.585 55.7693 371.66 55.556 371.809 55.396C371.969 55.236 372.177 55.156 372.433 55.156C372.71 55.156 372.929 55.252 373.089 55.444C373.249 55.6253 373.329 55.892 373.329 56.244C373.329 56.468 373.308 56.7027 373.265 56.948C373.222 57.1827 373.148 57.4227 373.041 57.668C372.934 57.9133 372.79 58.148 372.609 58.372ZM377.637 66.644C377.157 66.644 376.672 66.5853 376.181 66.468C375.701 66.3507 375.253 66.148 374.837 65.86C374.73 65.7853 374.656 65.7 374.613 65.604C374.57 65.4973 374.554 65.396 374.565 65.3C374.586 65.1933 374.629 65.1027 374.693 65.028C374.768 64.9533 374.853 64.9107 374.949 64.9C375.056 64.8787 375.173 64.9 375.301 64.964C375.717 65.22 376.117 65.4013 376.501 65.508C376.896 65.604 377.285 65.652 377.669 65.652C378.277 65.652 378.736 65.54 379.045 65.316C379.354 65.092 379.509 64.788 379.509 64.404C379.509 64.1053 379.408 63.8707 379.205 63.7C379.002 63.5187 378.682 63.38 378.245 63.284L376.789 62.964C376.117 62.8253 375.616 62.5853 375.285 62.244C374.965 61.9027 374.805 61.46 374.805 60.916C374.805 60.436 374.928 60.0253 375.173 59.684C375.429 59.332 375.786 59.06 376.245 58.868C376.704 58.676 377.237 58.58 377.845 58.58C378.314 58.58 378.757 58.644 379.173 58.772C379.6 58.8893 379.984 59.0813 380.325 59.348C380.432 59.4227 380.501 59.5133 380.533 59.62C380.576 59.716 380.581 59.8173 380.549 59.924C380.528 60.02 380.48 60.1053 380.405 60.18C380.33 60.244 380.24 60.2813 380.133 60.292C380.026 60.3027 379.914 60.2707 379.797 60.196C379.477 59.9827 379.152 59.828 378.821 59.732C378.49 59.6253 378.165 59.572 377.845 59.572C377.248 59.572 376.794 59.6893 376.485 59.924C376.176 60.1587 376.021 60.468 376.021 60.852C376.021 61.1507 376.117 61.396 376.309 61.588C376.501 61.78 376.8 61.9187 377.205 62.004L378.661 62.308C379.354 62.4573 379.872 62.6973 380.213 63.028C380.565 63.348 380.741 63.7853 380.741 64.34C380.741 65.044 380.458 65.604 379.893 66.02C379.328 66.436 378.576 66.644 377.637 66.644ZM390.777 66.644C390.073 66.644 389.465 66.4627 388.953 66.1C388.452 65.7373 388.116 65.252 387.945 64.644L388.121 64.468V65.94C388.121 66.1533 388.062 66.3187 387.945 66.436C387.838 66.5533 387.684 66.612 387.481 66.612C387.268 66.612 387.108 66.5533 387.001 66.436C386.894 66.3187 386.841 66.1533 386.841 65.94V55.764C386.841 55.5507 386.894 55.3907 387.001 55.284C387.108 55.1667 387.268 55.108 387.481 55.108C387.684 55.108 387.844 55.1667 387.961 55.284C388.078 55.3907 388.137 55.5507 388.137 55.764V60.532H387.945C388.126 59.9347 388.468 59.46 388.969 59.108C389.47 58.756 390.073 58.58 390.777 58.58C391.481 58.58 392.089 58.7453 392.601 59.076C393.113 59.396 393.508 59.86 393.785 60.468C394.073 61.0653 394.217 61.78 394.217 62.612C394.217 63.4333 394.073 64.148 393.785 64.756C393.508 65.3533 393.108 65.8173 392.585 66.148C392.073 66.4787 391.47 66.644 390.777 66.644ZM390.505 65.604C390.996 65.604 391.417 65.4867 391.769 65.252C392.132 65.0173 392.409 64.676 392.601 64.228C392.804 63.78 392.905 63.2413 392.905 62.612C392.905 61.6413 392.686 60.9 392.249 60.388C391.822 59.876 391.241 59.62 390.505 59.62C390.025 59.62 389.604 59.7373 389.241 59.972C388.878 60.196 388.596 60.532 388.393 60.98C388.201 61.4173 388.105 61.9613 388.105 62.612C388.105 63.572 388.324 64.3133 388.761 64.836C389.198 65.348 389.78 65.604 390.505 65.604ZM399.401 66.644C398.644 66.644 397.988 66.4787 397.433 66.148C396.878 65.8173 396.446 65.3533 396.137 64.756C395.838 64.148 395.689 63.4333 395.689 62.612C395.689 61.9933 395.774 61.4387 395.945 60.948C396.116 60.4467 396.366 60.02 396.697 59.668C397.028 59.316 397.417 59.0493 397.865 58.868C398.324 58.676 398.836 58.58 399.401 58.58C400.158 58.58 400.814 58.7453 401.369 59.076C401.924 59.4067 402.35 59.876 402.649 60.484C402.958 61.0813 403.113 61.7907 403.113 62.612C403.113 63.2307 403.028 63.7853 402.857 64.276C402.686 64.7667 402.436 65.1933 402.105 65.556C401.774 65.908 401.38 66.18 400.921 66.372C400.473 66.5533 399.966 66.644 399.401 66.644ZM399.401 65.604C399.881 65.604 400.302 65.4867 400.665 65.252C401.028 65.0173 401.305 64.676 401.497 64.228C401.7 63.78 401.801 63.2413 401.801 62.612C401.801 61.6413 401.582 60.9 401.145 60.388C400.718 59.876 400.137 59.62 399.401 59.62C398.91 59.62 398.484 59.7373 398.121 59.972C397.769 60.196 397.492 60.532 397.289 60.98C397.097 61.4173 397.001 61.9613 397.001 62.612C397.001 63.572 397.22 64.3133 397.657 64.836C398.094 65.348 398.676 65.604 399.401 65.604ZM405.716 66.612C405.502 66.612 405.337 66.5533 405.22 66.436C405.113 66.3187 405.06 66.1533 405.06 65.94V59.268C405.06 59.0547 405.113 58.8947 405.22 58.788C405.326 58.6707 405.481 58.612 405.684 58.612C405.886 58.612 406.041 58.6707 406.148 58.788C406.265 58.8947 406.324 59.0547 406.324 59.268V60.564H406.164C406.334 59.9347 406.66 59.4493 407.14 59.108C407.62 58.7667 408.212 58.5853 408.916 58.564C409.076 58.5533 409.204 58.5907 409.3 58.676C409.396 58.7507 409.449 58.884 409.46 59.076C409.47 59.2573 409.428 59.4013 409.332 59.508C409.236 59.6147 409.086 59.6787 408.884 59.7L408.628 59.732C407.902 59.796 407.342 60.0307 406.948 60.436C406.564 60.8307 406.372 61.3747 406.372 62.068V65.94C406.372 66.1533 406.313 66.3187 406.196 66.436C406.089 66.5533 405.929 66.612 405.716 66.612ZM411.434 66.58C411.221 66.58 411.061 66.5213 410.954 66.404C410.847 66.276 410.794 66.1 410.794 65.876V59.332C410.794 59.108 410.847 58.9373 410.954 58.82C411.061 58.7027 411.221 58.644 411.434 58.644C411.637 58.644 411.797 58.7027 411.914 58.82C412.031 58.9373 412.09 59.108 412.09 59.332V65.876C412.09 66.1 412.031 66.276 411.914 66.404C411.807 66.5213 411.647 66.58 411.434 66.58ZM411.434 56.852C411.167 56.852 410.959 56.7827 410.81 56.644C410.661 56.4947 410.586 56.2973 410.586 56.052C410.586 55.796 410.661 55.604 410.81 55.476C410.959 55.3373 411.167 55.268 411.434 55.268C411.711 55.268 411.919 55.3373 412.058 55.476C412.207 55.604 412.282 55.796 412.282 56.052C412.282 56.2973 412.207 56.4947 412.058 56.644C411.919 56.7827 411.711 56.852 411.434 56.852ZM415.153 66.612C414.94 66.612 414.78 66.5533 414.673 66.436C414.566 66.3187 414.513 66.1533 414.513 65.94V59.268C414.513 59.0547 414.566 58.8947 414.673 58.788C414.78 58.6707 414.934 58.612 415.137 58.612C415.34 58.612 415.494 58.6707 415.601 58.788C415.718 58.8947 415.777 59.0547 415.777 59.268V60.644L415.601 60.452C415.825 59.8333 416.188 59.3693 416.689 59.06C417.201 58.74 417.788 58.58 418.449 58.58C419.068 58.58 419.58 58.692 419.985 58.916C420.401 59.14 420.71 59.4813 420.913 59.94C421.116 60.388 421.217 60.9587 421.217 61.652V65.94C421.217 66.1533 421.158 66.3187 421.041 66.436C420.934 66.5533 420.78 66.612 420.577 66.612C420.364 66.612 420.198 66.5533 420.081 66.436C419.974 66.3187 419.921 66.1533 419.921 65.94V61.732C419.921 61.0067 419.777 60.4787 419.489 60.148C419.212 59.8067 418.764 59.636 418.145 59.636C417.43 59.636 416.86 59.86 416.433 60.308C416.017 60.7453 415.809 61.332 415.809 62.068V65.94C415.809 66.388 415.59 66.612 415.153 66.612ZM427.047 69.524C426.481 69.524 425.927 69.4547 425.383 69.316C424.849 69.188 424.364 68.98 423.927 68.692C423.799 68.6173 423.713 68.5267 423.671 68.42C423.639 68.3133 423.633 68.2067 423.655 68.1C423.676 68.004 423.724 67.9133 423.799 67.828C423.873 67.7533 423.959 67.7053 424.055 67.684C424.161 67.6627 424.268 67.6787 424.375 67.732C424.844 68.02 425.292 68.2173 425.719 68.324C426.145 68.4307 426.567 68.484 426.983 68.484C427.74 68.484 428.311 68.2813 428.695 67.876C429.089 67.4707 429.287 66.884 429.287 66.116V64.308H429.447C429.287 64.9267 428.945 65.4173 428.423 65.78C427.911 66.1427 427.308 66.324 426.615 66.324C425.9 66.324 425.281 66.164 424.759 65.844C424.236 65.5133 423.831 65.0547 423.543 64.468C423.265 63.8813 423.127 63.204 423.127 62.436C423.127 61.86 423.207 61.3373 423.367 60.868C423.527 60.388 423.756 59.9827 424.055 59.652C424.364 59.3107 424.732 59.0493 425.159 58.868C425.596 58.676 426.081 58.58 426.615 58.58C427.319 58.58 427.927 58.7613 428.439 59.124C428.951 59.476 429.281 59.956 429.431 60.564L429.271 60.756V59.268C429.271 59.0547 429.324 58.8947 429.431 58.788C429.548 58.6707 429.708 58.612 429.911 58.612C430.124 58.612 430.284 58.6707 430.391 58.788C430.497 58.8947 430.551 59.0547 430.551 59.268V65.94C430.551 67.124 430.252 68.0147 429.655 68.612C429.068 69.22 428.199 69.524 427.047 69.524ZM426.855 65.268C427.356 65.268 427.788 65.156 428.151 64.932C428.513 64.6973 428.791 64.3667 428.983 63.94C429.185 63.5133 429.287 63.012 429.287 62.436C429.287 61.572 429.068 60.8893 428.631 60.388C428.193 59.876 427.601 59.62 426.855 59.62C426.364 59.62 425.937 59.7373 425.575 59.972C425.212 60.196 424.929 60.5213 424.727 60.948C424.535 61.364 424.439 61.86 424.439 62.436C424.439 63.3 424.657 63.988 425.095 64.5C425.532 65.012 426.119 65.268 426.855 65.268Z" fill="#1F1F23"/>
<circle cx="291.5" cy="95.5" r="4.5" fill="#98CEFF"/>
<path d="M318.064 100.5C317.829 100.5 317.653 100.447 317.536 100.34C317.429 100.223 317.376 100.068 317.376 99.876C317.376 99.7587 317.403 99.6467 317.456 99.54C317.52 99.4227 317.605 99.3053 317.712 99.188L321.296 95.348C321.84 94.7613 322.229 94.2227 322.464 93.732C322.709 93.2307 322.832 92.724 322.832 92.212C322.832 91.572 322.635 91.0867 322.24 90.756C321.856 90.4147 321.291 90.244 320.544 90.244C320.064 90.244 319.611 90.3187 319.184 90.468C318.757 90.6173 318.347 90.8467 317.952 91.156C317.813 91.2627 317.685 91.3107 317.568 91.3C317.461 91.2893 317.365 91.2467 317.28 91.172C317.195 91.0973 317.136 91.0013 317.104 90.884C317.072 90.7667 317.072 90.6493 317.104 90.532C317.147 90.4147 317.232 90.308 317.36 90.212C317.776 89.8707 318.277 89.5987 318.864 89.396C319.451 89.1827 320.048 89.076 320.656 89.076C321.413 89.076 322.053 89.1933 322.576 89.428C323.099 89.6627 323.493 90.0093 323.76 90.468C324.027 90.916 324.16 91.4653 324.16 92.116C324.16 92.564 324.085 93.0067 323.936 93.444C323.797 93.8707 323.579 94.308 323.28 94.756C322.992 95.204 322.613 95.668 322.144 96.148L318.736 99.748V99.38H324.128C324.331 99.38 324.48 99.428 324.576 99.524C324.683 99.6093 324.736 99.7427 324.736 99.924C324.736 100.116 324.683 100.26 324.576 100.356C324.48 100.452 324.331 100.5 324.128 100.5H318.064ZM330.394 100.644C329.551 100.644 328.826 100.521 328.218 100.276C327.62 100.031 327.162 99.6733 326.842 99.204C326.532 98.7347 326.378 98.1693 326.378 97.508C326.378 96.9853 326.484 96.5213 326.698 96.116C326.911 95.7 327.21 95.364 327.594 95.108C327.978 94.852 328.42 94.692 328.922 94.628V94.868C328.228 94.7187 327.674 94.3933 327.258 93.892C326.852 93.38 326.65 92.7773 326.65 92.084C326.65 91.444 326.799 90.9053 327.098 90.468C327.407 90.02 327.844 89.6787 328.41 89.444C328.975 89.1987 329.636 89.076 330.394 89.076C331.162 89.076 331.823 89.1987 332.378 89.444C332.943 89.6787 333.38 90.02 333.69 90.468C333.999 90.9053 334.154 91.444 334.154 92.084C334.154 92.5427 334.058 92.9693 333.866 93.364C333.684 93.748 333.423 94.068 333.082 94.324C332.74 94.58 332.34 94.756 331.882 94.852V94.628C332.639 94.7347 333.247 95.0493 333.706 95.572C334.175 96.084 334.41 96.7293 334.41 97.508C334.41 98.1693 334.25 98.7347 333.93 99.204C333.62 99.6733 333.162 100.031 332.554 100.276C331.956 100.521 331.236 100.644 330.394 100.644ZM330.394 99.556C331.3 99.556 331.983 99.38 332.442 99.028C332.911 98.676 333.146 98.1427 333.146 97.428C333.146 96.724 332.911 96.2013 332.442 95.86C331.983 95.508 331.3 95.332 330.394 95.332C329.498 95.332 328.815 95.508 328.346 95.86C327.876 96.2013 327.642 96.724 327.642 97.428C327.642 98.1427 327.876 98.676 328.346 99.028C328.815 99.38 329.498 99.556 330.394 99.556ZM330.394 94.244C330.916 94.244 331.359 94.164 331.722 94.004C332.095 93.8333 332.383 93.5933 332.586 93.284C332.788 92.9747 332.89 92.612 332.89 92.196C332.89 91.556 332.666 91.06 332.218 90.708C331.78 90.3453 331.172 90.164 330.394 90.164C329.615 90.164 329.007 90.3453 328.57 90.708C328.132 91.06 327.914 91.556 327.914 92.196C327.914 92.836 328.132 93.3373 328.57 93.7C329.007 94.0627 329.615 94.244 330.394 94.244ZM339.988 100.516C339.913 100.655 339.822 100.745 339.716 100.788C339.609 100.841 339.502 100.852 339.396 100.82C339.289 100.799 339.198 100.745 339.124 100.66C339.049 100.585 339.001 100.489 338.98 100.372C338.969 100.255 339.001 100.127 339.076 99.988L345.252 89.236C345.326 89.0973 345.417 89.0067 345.524 88.964C345.63 88.9107 345.737 88.9 345.844 88.932C345.95 88.9533 346.041 89.0067 346.116 89.092C346.19 89.1773 346.233 89.2787 346.244 89.396C346.265 89.5133 346.238 89.636 346.164 89.764L339.988 100.516ZM338.804 95.988C337.95 95.988 337.284 95.684 336.804 95.076C336.324 94.468 336.084 93.62 336.084 92.532C336.084 91.8067 336.19 91.188 336.404 90.676C336.628 90.164 336.942 89.7747 337.348 89.508C337.753 89.2307 338.238 89.092 338.804 89.092C339.646 89.092 340.308 89.396 340.788 90.004C341.278 90.6013 341.524 91.444 341.524 92.532C341.524 93.2573 341.412 93.876 341.188 94.388C340.974 94.9 340.665 95.2947 340.26 95.572C339.854 95.8493 339.369 95.988 338.804 95.988ZM338.804 95.044C339.134 95.044 339.417 94.948 339.652 94.756C339.897 94.564 340.084 94.2813 340.212 93.908C340.34 93.5347 340.404 93.076 340.404 92.532C340.404 91.7 340.26 91.076 339.972 90.66C339.684 90.244 339.294 90.036 338.804 90.036C338.473 90.036 338.185 90.132 337.94 90.324C337.705 90.5053 337.524 90.7827 337.396 91.156C337.268 91.5187 337.204 91.9773 337.204 92.532C337.204 93.364 337.342 93.9933 337.62 94.42C337.908 94.836 338.302 95.044 338.804 95.044ZM346.452 100.644C345.609 100.644 344.942 100.34 344.452 99.732C343.972 99.124 343.732 98.276 343.732 97.188C343.732 96.4627 343.838 95.844 344.052 95.332C344.276 94.82 344.59 94.4307 344.996 94.164C345.412 93.8867 345.897 93.748 346.452 93.748C347.305 93.748 347.972 94.052 348.452 94.66C348.932 95.2573 349.172 96.1 349.172 97.188C349.172 97.9133 349.065 98.5373 348.852 99.06C348.638 99.572 348.329 99.9667 347.924 100.244C347.518 100.511 347.028 100.644 346.452 100.644ZM346.452 99.7C346.793 99.7 347.081 99.6093 347.316 99.428C347.55 99.236 347.732 98.9533 347.86 98.58C347.988 98.2067 348.052 97.7427 348.052 97.188C348.052 96.356 347.908 95.732 347.62 95.316C347.342 94.9 346.953 94.692 346.452 94.692C346.121 94.692 345.833 94.788 345.588 94.98C345.353 95.1613 345.172 95.4387 345.044 95.812C344.926 96.1747 344.868 96.6333 344.868 97.188C344.868 98.0307 345.006 98.66 345.284 99.076C345.572 99.492 345.961 99.7 346.452 99.7Z" fill="#1F1F23"/>
<path d="M363.032 100.612C362.84 100.612 362.691 100.559 362.584 100.452C362.477 100.335 362.424 100.175 362.424 99.972V89.748C362.424 89.5347 362.477 89.3747 362.584 89.268C362.691 89.1613 362.84 89.108 363.032 89.108C363.203 89.108 363.336 89.1453 363.432 89.22C363.539 89.284 363.635 89.396 363.72 89.556L368.104 97.812H367.624L371.992 89.556C372.077 89.396 372.168 89.284 372.264 89.22C372.36 89.1453 372.499 89.108 372.68 89.108C372.861 89.108 373.005 89.1613 373.112 89.268C373.219 89.3747 373.272 89.5347 373.272 89.748V99.972C373.272 100.175 373.219 100.335 373.112 100.452C373.016 100.559 372.867 100.612 372.664 100.612C372.472 100.612 372.323 100.559 372.216 100.452C372.109 100.335 372.056 100.175 372.056 99.972V90.98H372.44L368.44 98.484C368.365 98.6227 368.285 98.724 368.2 98.788C368.125 98.8413 368.013 98.868 367.864 98.868C367.715 98.868 367.597 98.836 367.512 98.772C367.427 98.708 367.352 98.612 367.288 98.484L363.24 90.964H363.624V99.972C363.624 100.175 363.571 100.335 363.464 100.452C363.368 100.559 363.224 100.612 363.032 100.612ZM377.632 103.492C377.472 103.492 377.344 103.449 377.248 103.364C377.152 103.279 377.093 103.161 377.072 103.012C377.061 102.873 377.088 102.729 377.152 102.58L378.256 100.1V100.66L375.184 93.524C375.12 93.364 375.098 93.2147 375.12 93.076C375.141 92.9373 375.205 92.8253 375.312 92.74C375.418 92.6547 375.568 92.612 375.76 92.612C375.93 92.612 376.064 92.6493 376.16 92.724C376.256 92.7987 376.341 92.932 376.416 93.124L379.04 99.556H378.608L381.264 93.124C381.349 92.932 381.44 92.7987 381.536 92.724C381.632 92.6493 381.77 92.612 381.952 92.612C382.122 92.612 382.25 92.6547 382.336 92.74C382.432 92.8253 382.485 92.9373 382.496 93.076C382.517 93.204 382.496 93.348 382.432 93.508L378.336 102.98C378.25 103.172 378.154 103.305 378.048 103.38C377.952 103.455 377.813 103.492 377.632 103.492ZM389.303 100.612C389.101 100.612 388.941 100.553 388.823 100.436C388.717 100.319 388.663 100.153 388.663 99.94V93.732H387.639C387.469 93.732 387.33 93.6893 387.223 93.604C387.127 93.508 387.079 93.38 387.079 93.22C387.079 93.06 387.127 92.9373 387.223 92.852C387.33 92.7667 387.469 92.724 387.639 92.724H389.015L388.663 93.06V92.452C388.663 91.4387 388.909 90.6653 389.399 90.132C389.901 89.5987 390.631 89.2893 391.591 89.204L392.055 89.156C392.205 89.1453 392.322 89.172 392.407 89.236C392.503 89.3 392.562 89.38 392.583 89.476C392.615 89.572 392.621 89.6733 392.599 89.78C392.578 89.876 392.53 89.9613 392.455 90.036C392.381 90.1107 392.29 90.1533 392.183 90.164L391.815 90.196C391.165 90.2493 390.69 90.4467 390.391 90.788C390.103 91.1293 389.959 91.6307 389.959 92.292V92.964L389.767 92.724H391.687C391.869 92.724 392.007 92.7667 392.103 92.852C392.199 92.9373 392.247 93.06 392.247 93.22C392.247 93.38 392.199 93.508 392.103 93.604C392.007 93.6893 391.869 93.732 391.687 93.732H389.959V99.94C389.959 100.388 389.741 100.612 389.303 100.612ZM395.945 100.644C395.412 100.644 394.932 100.543 394.505 100.34C394.089 100.127 393.759 99.8387 393.513 99.476C393.268 99.1133 393.145 98.708 393.145 98.26C393.145 97.684 393.289 97.2307 393.577 96.9C393.876 96.5693 394.361 96.3347 395.033 96.196C395.716 96.0573 396.644 95.988 397.817 95.988H398.537V96.836H397.833C396.969 96.836 396.287 96.8787 395.785 96.964C395.295 97.0387 394.948 97.172 394.745 97.364C394.553 97.556 394.457 97.828 394.457 98.18C394.457 98.6173 394.607 98.9747 394.905 99.252C395.215 99.5293 395.631 99.668 396.153 99.668C396.58 99.668 396.953 99.5667 397.273 99.364C397.604 99.1613 397.86 98.884 398.041 98.532C398.233 98.18 398.329 97.7747 398.329 97.316V95.492C398.329 94.8307 398.196 94.356 397.929 94.068C397.663 93.7693 397.225 93.62 396.617 93.62C396.244 93.62 395.871 93.668 395.497 93.764C395.124 93.86 394.729 94.0147 394.313 94.228C394.164 94.3027 394.036 94.3293 393.929 94.308C393.823 94.276 393.737 94.2173 393.673 94.132C393.609 94.0467 393.572 93.9507 393.561 93.844C393.551 93.7267 393.572 93.6147 393.625 93.508C393.689 93.4013 393.785 93.316 393.913 93.252C394.383 93.0173 394.847 92.8467 395.305 92.74C395.764 92.6333 396.201 92.58 396.617 92.58C397.289 92.58 397.844 92.692 398.281 92.916C398.719 93.1293 399.044 93.46 399.257 93.908C399.471 94.3453 399.577 94.9107 399.577 95.604V99.94C399.577 100.153 399.524 100.319 399.417 100.436C399.321 100.553 399.177 100.612 398.985 100.612C398.783 100.612 398.628 100.553 398.521 100.436C398.415 100.319 398.361 100.153 398.361 99.94V98.692H398.505C398.42 99.0973 398.255 99.444 398.009 99.732C397.775 100.02 397.481 100.244 397.129 100.404C396.777 100.564 396.383 100.644 395.945 100.644ZM402.654 100.612C402.44 100.612 402.28 100.553 402.174 100.436C402.067 100.319 402.014 100.153 402.014 99.94V93.268C402.014 93.0547 402.067 92.8947 402.174 92.788C402.28 92.6707 402.435 92.612 402.638 92.612C402.84 92.612 402.995 92.6707 403.102 92.788C403.219 92.8947 403.278 93.0547 403.278 93.268V94.676L403.102 94.452C403.304 93.8547 403.63 93.396 404.078 93.076C404.536 92.7453 405.08 92.58 405.71 92.58C406.371 92.58 406.904 92.74 407.31 93.06C407.726 93.3693 408.003 93.8547 408.142 94.516H407.902C408.094 93.9187 408.435 93.4493 408.926 93.108C409.427 92.756 410.008 92.58 410.67 92.58C411.256 92.58 411.736 92.692 412.11 92.916C412.494 93.14 412.782 93.4813 412.974 93.94C413.166 94.388 413.262 94.9587 413.262 95.652V99.94C413.262 100.153 413.203 100.319 413.086 100.436C412.979 100.553 412.819 100.612 412.606 100.612C412.403 100.612 412.243 100.553 412.126 100.436C412.019 100.319 411.966 100.153 411.966 99.94V95.716C411.966 95.0013 411.843 94.4787 411.598 94.148C411.352 93.8067 410.936 93.636 410.35 93.636C409.71 93.636 409.203 93.86 408.83 94.308C408.467 94.7453 408.286 95.3427 408.286 96.1V99.94C408.286 100.153 408.227 100.319 408.11 100.436C408.003 100.553 407.843 100.612 407.63 100.612C407.427 100.612 407.267 100.553 407.15 100.436C407.043 100.319 406.99 100.153 406.99 99.94V95.716C406.99 95.0013 406.862 94.4787 406.606 94.148C406.36 93.8067 405.95 93.636 405.374 93.636C404.734 93.636 404.227 93.86 403.854 94.308C403.491 94.7453 403.31 95.3427 403.31 96.1V99.94C403.31 100.388 403.091 100.612 402.654 100.612ZM416.325 100.58C416.111 100.58 415.951 100.521 415.845 100.404C415.738 100.276 415.685 100.1 415.685 99.876V93.332C415.685 93.108 415.738 92.9373 415.845 92.82C415.951 92.7027 416.111 92.644 416.325 92.644C416.527 92.644 416.687 92.7027 416.805 92.82C416.922 92.9373 416.981 93.108 416.981 93.332V99.876C416.981 100.1 416.922 100.276 416.805 100.404C416.698 100.521 416.538 100.58 416.325 100.58ZM416.325 90.852C416.058 90.852 415.85 90.7827 415.701 90.644C415.551 90.4947 415.477 90.2973 415.477 90.052C415.477 89.796 415.551 89.604 415.701 89.476C415.85 89.3373 416.058 89.268 416.325 89.268C416.602 89.268 416.81 89.3373 416.949 89.476C417.098 89.604 417.173 89.796 417.173 90.052C417.173 90.2973 417.098 90.4947 416.949 90.644C416.81 90.7827 416.602 90.852 416.325 90.852ZM421.772 100.644C421.004 100.644 420.417 100.409 420.012 99.94C419.606 99.4707 419.404 98.7987 419.404 97.924V89.764C419.404 89.5507 419.457 89.3907 419.564 89.284C419.67 89.1667 419.83 89.108 420.044 89.108C420.246 89.108 420.406 89.1667 420.524 89.284C420.641 89.3907 420.7 89.5507 420.7 89.764V97.828C420.7 98.404 420.812 98.836 421.036 99.124C421.27 99.4013 421.612 99.54 422.06 99.54C422.156 99.54 422.241 99.5347 422.316 99.524C422.39 99.5133 422.465 99.508 422.54 99.508C422.657 99.4973 422.737 99.524 422.78 99.588C422.833 99.652 422.86 99.78 422.86 99.972C422.86 100.164 422.817 100.308 422.732 100.404C422.646 100.5 422.508 100.564 422.316 100.596C422.23 100.607 422.14 100.617 422.044 100.628C421.948 100.639 421.857 100.644 421.772 100.644ZM425.694 103.492C425.534 103.492 425.406 103.449 425.31 103.364C425.214 103.279 425.155 103.161 425.134 103.012C425.123 102.873 425.15 102.729 425.214 102.58L426.318 100.1V100.66L423.246 93.524C423.182 93.364 423.161 93.2147 423.182 93.076C423.203 92.9373 423.267 92.8253 423.374 92.74C423.481 92.6547 423.63 92.612 423.822 92.612C423.993 92.612 424.126 92.6493 424.222 92.724C424.318 92.7987 424.403 92.932 424.478 93.124L427.102 99.556H426.67L429.326 93.124C429.411 92.932 429.502 92.7987 429.598 92.724C429.694 92.6493 429.833 92.612 430.014 92.612C430.185 92.612 430.313 92.6547 430.398 92.74C430.494 92.8253 430.547 92.9373 430.558 93.076C430.579 93.204 430.558 93.348 430.494 93.508L426.398 102.98C426.313 103.172 426.217 103.305 426.11 103.38C426.014 103.455 425.875 103.492 425.694 103.492ZM439.27 100.644C438.576 100.644 437.968 100.479 437.446 100.148C436.934 99.8173 436.534 99.3533 436.246 98.756C435.968 98.148 435.83 97.4333 435.83 96.612C435.83 95.78 435.968 95.0653 436.246 94.468C436.534 93.86 436.934 93.396 437.446 93.076C437.968 92.7453 438.576 92.58 439.27 92.58C439.974 92.58 440.576 92.756 441.078 93.108C441.579 93.46 441.915 93.9347 442.086 94.532H441.91V89.764C441.91 89.5507 441.963 89.3907 442.07 89.284C442.187 89.1667 442.352 89.108 442.566 89.108C442.768 89.108 442.923 89.1667 443.03 89.284C443.147 89.3907 443.206 89.5507 443.206 89.764V99.94C443.206 100.153 443.152 100.319 443.046 100.436C442.939 100.553 442.779 100.612 442.566 100.612C442.363 100.612 442.203 100.553 442.086 100.436C441.979 100.319 441.926 100.153 441.926 99.94V98.42L442.102 98.644C441.931 99.252 441.59 99.7373 441.078 100.1C440.576 100.463 439.974 100.644 439.27 100.644ZM439.542 99.604C440.022 99.604 440.443 99.4867 440.806 99.252C441.168 99.0173 441.446 98.676 441.638 98.228C441.84 97.78 441.942 97.2413 441.942 96.612C441.942 95.6413 441.723 94.9 441.286 94.388C440.859 93.876 440.278 93.62 439.542 93.62C439.051 93.62 438.624 93.7373 438.262 93.972C437.91 94.196 437.632 94.532 437.43 94.98C437.238 95.4173 437.142 95.9613 437.142 96.612C437.142 97.572 437.36 98.3133 437.798 98.836C438.235 99.348 438.816 99.604 439.542 99.604ZM448.87 100.644C448.113 100.644 447.457 100.479 446.902 100.148C446.347 99.8173 445.915 99.3533 445.606 98.756C445.307 98.148 445.158 97.4333 445.158 96.612C445.158 95.9933 445.243 95.4387 445.414 94.948C445.585 94.4467 445.835 94.02 446.166 93.668C446.497 93.316 446.886 93.0493 447.334 92.868C447.793 92.676 448.305 92.58 448.87 92.58C449.627 92.58 450.283 92.7453 450.838 93.076C451.393 93.4067 451.819 93.876 452.118 94.484C452.427 95.0813 452.582 95.7907 452.582 96.612C452.582 97.2307 452.497 97.7853 452.326 98.276C452.155 98.7667 451.905 99.1933 451.574 99.556C451.243 99.908 450.849 100.18 450.39 100.372C449.942 100.553 449.435 100.644 448.87 100.644ZM448.87 99.604C449.35 99.604 449.771 99.4867 450.134 99.252C450.497 99.0173 450.774 98.676 450.966 98.228C451.169 97.78 451.27 97.2413 451.27 96.612C451.27 95.6413 451.051 94.9 450.614 94.388C450.187 93.876 449.606 93.62 448.87 93.62C448.379 93.62 447.953 93.7373 447.59 93.972C447.238 94.196 446.961 94.532 446.758 94.98C446.566 95.4173 446.47 95.9613 446.47 96.612C446.47 97.572 446.689 98.3133 447.126 98.836C447.563 99.348 448.145 99.604 448.87 99.604ZM458.033 100.644C457.211 100.644 456.502 100.484 455.905 100.164C455.318 99.8333 454.859 99.3693 454.529 98.772C454.209 98.1747 454.049 97.46 454.049 96.628C454.049 95.8173 454.209 95.1133 454.529 94.516C454.849 93.908 455.286 93.4333 455.841 93.092C456.406 92.7507 457.057 92.58 457.793 92.58C458.315 92.58 458.785 92.6707 459.201 92.852C459.617 93.0227 459.969 93.2733 460.257 93.604C460.555 93.9347 460.779 94.3347 460.929 94.804C461.089 95.2733 461.169 95.8013 461.169 96.388C461.169 96.5587 461.121 96.6867 461.025 96.772C460.929 96.8467 460.79 96.884 460.609 96.884H455.041V96.036H460.305L460.049 96.244C460.049 95.668 459.963 95.1827 459.793 94.788C459.622 94.3827 459.371 94.0733 459.041 93.86C458.721 93.6467 458.315 93.54 457.825 93.54C457.281 93.54 456.817 93.668 456.433 93.924C456.059 94.1693 455.777 94.516 455.585 94.964C455.393 95.4013 455.297 95.9133 455.297 96.5V96.596C455.297 97.5773 455.531 98.324 456.001 98.836C456.481 99.348 457.158 99.604 458.033 99.604C458.395 99.604 458.753 99.556 459.105 99.46C459.467 99.364 459.819 99.204 460.161 98.98C460.31 98.884 460.443 98.8413 460.561 98.852C460.689 98.852 460.79 98.8893 460.865 98.964C460.939 99.028 460.987 99.1133 461.009 99.22C461.041 99.316 461.03 99.4227 460.977 99.54C460.934 99.6573 460.843 99.7587 460.705 99.844C460.353 100.1 459.937 100.297 459.457 100.436C458.977 100.575 458.502 100.644 458.033 100.644ZM465.668 100.644C465.188 100.644 464.703 100.585 464.212 100.468C463.732 100.351 463.284 100.148 462.868 99.86C462.761 99.7853 462.687 99.7 462.644 99.604C462.601 99.4973 462.585 99.396 462.596 99.3C462.617 99.1933 462.66 99.1027 462.724 99.028C462.799 98.9533 462.884 98.9107 462.98 98.9C463.087 98.8787 463.204 98.9 463.332 98.964C463.748 99.22 464.148 99.4013 464.532 99.508C464.927 99.604 465.316 99.652 465.7 99.652C466.308 99.652 466.767 99.54 467.076 99.316C467.385 99.092 467.54 98.788 467.54 98.404C467.54 98.1053 467.439 97.8707 467.236 97.7C467.033 97.5187 466.713 97.38 466.276 97.284L464.82 96.964C464.148 96.8253 463.647 96.5853 463.316 96.244C462.996 95.9027 462.836 95.46 462.836 94.916C462.836 94.436 462.959 94.0253 463.204 93.684C463.46 93.332 463.817 93.06 464.276 92.868C464.735 92.676 465.268 92.58 465.876 92.58C466.345 92.58 466.788 92.644 467.204 92.772C467.631 92.8893 468.015 93.0813 468.356 93.348C468.463 93.4227 468.532 93.5133 468.564 93.62C468.607 93.716 468.612 93.8173 468.58 93.924C468.559 94.02 468.511 94.1053 468.436 94.18C468.361 94.244 468.271 94.2813 468.164 94.292C468.057 94.3027 467.945 94.2707 467.828 94.196C467.508 93.9827 467.183 93.828 466.852 93.732C466.521 93.6253 466.196 93.572 465.876 93.572C465.279 93.572 464.825 93.6893 464.516 93.924C464.207 94.1587 464.052 94.468 464.052 94.852C464.052 95.1507 464.148 95.396 464.34 95.588C464.532 95.78 464.831 95.9187 465.236 96.004L466.692 96.308C467.385 96.4573 467.903 96.6973 468.244 97.028C468.596 97.348 468.772 97.7853 468.772 98.34C468.772 99.044 468.489 99.604 467.924 100.02C467.359 100.436 466.607 100.644 465.668 100.644ZM471.387 100.612C471.174 100.612 471.014 100.553 470.907 100.436C470.801 100.319 470.747 100.153 470.747 99.94V93.268C470.747 93.0547 470.801 92.8947 470.907 92.788C471.014 92.6707 471.169 92.612 471.371 92.612C471.574 92.612 471.729 92.6707 471.835 92.788C471.953 92.8947 472.011 93.0547 472.011 93.268V94.644L471.835 94.452C472.059 93.8333 472.422 93.3693 472.923 93.06C473.435 92.74 474.022 92.58 474.683 92.58C475.302 92.58 475.814 92.692 476.219 92.916C476.635 93.14 476.945 93.4813 477.147 93.94C477.35 94.388 477.451 94.9587 477.451 95.652V99.94C477.451 100.153 477.393 100.319 477.275 100.436C477.169 100.553 477.014 100.612 476.811 100.612C476.598 100.612 476.433 100.553 476.315 100.436C476.209 100.319 476.155 100.153 476.155 99.94V95.732C476.155 95.0067 476.011 94.4787 475.723 94.148C475.446 93.8067 474.998 93.636 474.379 93.636C473.665 93.636 473.094 93.86 472.667 94.308C472.251 94.7453 472.043 95.332 472.043 96.068V99.94C472.043 100.388 471.825 100.612 471.387 100.612ZM480.312 92.372C480.205 92.5107 480.093 92.5907 479.976 92.612C479.859 92.6227 479.757 92.6013 479.672 92.548C479.587 92.484 479.539 92.3933 479.528 92.276C479.528 92.1587 479.581 92.0307 479.688 91.892C479.859 91.668 479.976 91.444 480.04 91.22C480.104 90.9853 480.136 90.7773 480.136 90.596L480.2 90.916C479.923 90.916 479.699 90.836 479.528 90.676C479.368 90.5053 479.288 90.292 479.288 90.036C479.288 89.7693 479.363 89.556 479.512 89.396C479.672 89.236 479.88 89.156 480.136 89.156C480.413 89.156 480.632 89.252 480.792 89.444C480.952 89.6253 481.032 89.892 481.032 90.244C481.032 90.468 481.011 90.7027 480.968 90.948C480.925 91.1827 480.851 91.4227 480.744 91.668C480.637 91.9133 480.493 92.148 480.312 92.372ZM486.336 100.644C485.728 100.644 485.216 100.537 484.8 100.324C484.395 100.1 484.091 99.78 483.888 99.364C483.685 98.9373 483.584 98.42 483.584 97.812V93.732H482.512C482.331 93.732 482.192 93.6893 482.096 93.604C482 93.508 481.952 93.38 481.952 93.22C481.952 93.06 482 92.9373 482.096 92.852C482.192 92.7667 482.331 92.724 482.512 92.724H483.584V90.884C483.584 90.6707 483.643 90.5107 483.76 90.404C483.877 90.2867 484.037 90.228 484.24 90.228C484.443 90.228 484.597 90.2867 484.704 90.404C484.821 90.5107 484.88 90.6707 484.88 90.884V92.724H486.896C487.077 92.724 487.216 92.7667 487.312 92.852C487.408 92.9373 487.456 93.06 487.456 93.22C487.456 93.38 487.408 93.508 487.312 93.604C487.216 93.6893 487.077 93.732 486.896 93.732H484.88V97.684C484.88 98.292 485.008 98.756 485.264 99.076C485.52 99.3853 485.936 99.54 486.512 99.54C486.715 99.54 486.885 99.5187 487.024 99.476C487.173 99.4333 487.296 99.412 487.392 99.412C487.488 99.4013 487.568 99.4333 487.632 99.508C487.696 99.5827 487.728 99.7107 487.728 99.892C487.728 100.02 487.701 100.137 487.648 100.244C487.605 100.351 487.525 100.425 487.408 100.468C487.28 100.511 487.109 100.548 486.896 100.58C486.693 100.623 486.507 100.644 486.336 100.644ZM364.904 122.612C364.723 122.612 364.563 122.564 364.424 122.468C364.285 122.372 364.173 122.217 364.088 122.004L361.704 115.524C361.64 115.343 361.619 115.183 361.64 115.044C361.672 114.905 361.741 114.799 361.848 114.724C361.955 114.649 362.088 114.612 362.248 114.612C362.408 114.612 362.536 114.649 362.632 114.724C362.739 114.799 362.824 114.937 362.888 115.14L365.128 121.54H364.744L367.048 115.14C367.123 114.948 367.213 114.815 367.32 114.74C367.437 114.655 367.587 114.612 367.768 114.612C367.939 114.612 368.083 114.655 368.2 114.74C368.317 114.825 368.408 114.959 368.472 115.14L370.728 121.54H370.36L372.632 115.108C372.707 114.916 372.797 114.788 372.904 114.724C373.011 114.649 373.139 114.612 373.288 114.612C373.459 114.612 373.587 114.655 373.672 114.74C373.768 114.825 373.821 114.937 373.832 115.076C373.843 115.215 373.816 115.364 373.752 115.524L371.368 122.004C371.293 122.207 371.181 122.361 371.032 122.468C370.893 122.564 370.733 122.612 370.552 122.612C370.371 122.612 370.211 122.564 370.072 122.468C369.933 122.361 369.827 122.207 369.752 122.004L367.384 115.508H368.072L365.72 122.004C365.645 122.207 365.539 122.361 365.4 122.468C365.261 122.564 365.096 122.612 364.904 122.612ZM377.961 122.644C377.428 122.644 376.948 122.543 376.521 122.34C376.105 122.127 375.774 121.839 375.529 121.476C375.284 121.113 375.161 120.708 375.161 120.26C375.161 119.684 375.305 119.231 375.593 118.9C375.892 118.569 376.377 118.335 377.049 118.196C377.732 118.057 378.66 117.988 379.833 117.988H380.553V118.836H379.849C378.985 118.836 378.302 118.879 377.801 118.964C377.31 119.039 376.964 119.172 376.761 119.364C376.569 119.556 376.473 119.828 376.473 120.18C376.473 120.617 376.622 120.975 376.921 121.252C377.23 121.529 377.646 121.668 378.169 121.668C378.596 121.668 378.969 121.567 379.289 121.364C379.62 121.161 379.876 120.884 380.057 120.532C380.249 120.18 380.345 119.775 380.345 119.316V117.492C380.345 116.831 380.212 116.356 379.945 116.068C379.678 115.769 379.241 115.62 378.633 115.62C378.26 115.62 377.886 115.668 377.513 115.764C377.14 115.86 376.745 116.015 376.329 116.228C376.18 116.303 376.052 116.329 375.945 116.308C375.838 116.276 375.753 116.217 375.689 116.132C375.625 116.047 375.588 115.951 375.577 115.844C375.566 115.727 375.588 115.615 375.641 115.508C375.705 115.401 375.801 115.316 375.929 115.252C376.398 115.017 376.862 114.847 377.321 114.74C377.78 114.633 378.217 114.58 378.633 114.58C379.305 114.58 379.86 114.692 380.297 114.916C380.734 115.129 381.06 115.46 381.273 115.908C381.486 116.345 381.593 116.911 381.593 117.604V121.94C381.593 122.153 381.54 122.319 381.433 122.436C381.337 122.553 381.193 122.612 381.001 122.612C380.798 122.612 380.644 122.553 380.537 122.436C380.43 122.319 380.377 122.153 380.377 121.94V120.692H380.521C380.436 121.097 380.27 121.444 380.025 121.732C379.79 122.02 379.497 122.244 379.145 122.404C378.793 122.564 378.398 122.644 377.961 122.644ZM387.117 122.644C386.509 122.644 385.997 122.537 385.581 122.324C385.176 122.1 384.872 121.78 384.669 121.364C384.467 120.937 384.365 120.42 384.365 119.812V115.732H383.293C383.112 115.732 382.973 115.689 382.877 115.604C382.781 115.508 382.733 115.38 382.733 115.22C382.733 115.06 382.781 114.937 382.877 114.852C382.973 114.767 383.112 114.724 383.293 114.724H384.365V112.884C384.365 112.671 384.424 112.511 384.541 112.404C384.659 112.287 384.819 112.228 385.021 112.228C385.224 112.228 385.379 112.287 385.485 112.404C385.603 112.511 385.661 112.671 385.661 112.884V114.724H387.677C387.859 114.724 387.997 114.767 388.093 114.852C388.189 114.937 388.237 115.06 388.237 115.22C388.237 115.38 388.189 115.508 388.093 115.604C387.997 115.689 387.859 115.732 387.677 115.732H385.661V119.684C385.661 120.292 385.789 120.756 386.045 121.076C386.301 121.385 386.717 121.54 387.293 121.54C387.496 121.54 387.667 121.519 387.805 121.476C387.955 121.433 388.077 121.412 388.173 121.412C388.269 121.401 388.349 121.433 388.413 121.508C388.477 121.583 388.509 121.711 388.509 121.892C388.509 122.02 388.483 122.137 388.429 122.244C388.387 122.351 388.307 122.425 388.189 122.468C388.061 122.511 387.891 122.548 387.677 122.58C387.475 122.623 387.288 122.644 387.117 122.644ZM392.809 122.644C392.03 122.644 391.358 122.473 390.793 122.132C390.228 121.791 389.79 121.316 389.481 120.708C389.182 120.089 389.033 119.375 389.033 118.564C389.033 117.945 389.118 117.391 389.289 116.9C389.46 116.409 389.71 115.993 390.041 115.652C390.372 115.3 390.766 115.033 391.225 114.852C391.694 114.671 392.222 114.58 392.809 114.58C393.193 114.58 393.593 114.639 394.009 114.756C394.425 114.873 394.804 115.076 395.145 115.364C395.252 115.439 395.321 115.529 395.353 115.636C395.385 115.743 395.385 115.849 395.353 115.956C395.321 116.052 395.268 116.137 395.193 116.212C395.118 116.276 395.022 116.313 394.905 116.324C394.798 116.335 394.686 116.297 394.569 116.212C394.292 115.999 394.009 115.849 393.721 115.764C393.433 115.679 393.156 115.636 392.889 115.636C392.473 115.636 392.11 115.705 391.801 115.844C391.492 115.972 391.23 116.159 391.017 116.404C390.804 116.649 390.638 116.953 390.521 117.316C390.414 117.679 390.361 118.1 390.361 118.58C390.361 119.508 390.58 120.244 391.017 120.788C391.454 121.321 392.078 121.588 392.889 121.588C393.156 121.588 393.428 121.545 393.705 121.46C393.993 121.375 394.281 121.225 394.569 121.012C394.686 120.927 394.798 120.889 394.905 120.9C395.012 120.911 395.102 120.953 395.177 121.028C395.252 121.092 395.3 121.177 395.321 121.284C395.353 121.391 395.353 121.497 395.321 121.604C395.289 121.7 395.22 121.785 395.113 121.86C394.772 122.137 394.398 122.34 393.993 122.468C393.588 122.585 393.193 122.644 392.809 122.644ZM397.559 122.612C397.346 122.612 397.186 122.553 397.079 122.436C396.972 122.319 396.919 122.153 396.919 121.94V111.764C396.919 111.551 396.972 111.391 397.079 111.284C397.186 111.167 397.346 111.108 397.559 111.108C397.762 111.108 397.922 111.167 398.039 111.284C398.156 111.391 398.215 111.551 398.215 111.764V116.452H398.007C398.231 115.833 398.594 115.369 399.095 115.06C399.607 114.74 400.194 114.58 400.855 114.58C401.474 114.58 401.986 114.692 402.391 114.916C402.807 115.14 403.116 115.481 403.319 115.94C403.522 116.388 403.623 116.959 403.623 117.652V121.94C403.623 122.153 403.564 122.319 403.447 122.436C403.34 122.553 403.186 122.612 402.983 122.612C402.77 122.612 402.604 122.553 402.487 122.436C402.38 122.319 402.327 122.153 402.327 121.94V117.732C402.327 117.007 402.183 116.479 401.895 116.148C401.618 115.807 401.17 115.636 400.551 115.636C399.836 115.636 399.266 115.86 398.839 116.308C398.423 116.745 398.215 117.332 398.215 118.068V121.94C398.215 122.388 397.996 122.612 397.559 122.612ZM410.778 122.58C410.565 122.58 410.405 122.521 410.298 122.404C410.191 122.276 410.138 122.1 410.138 121.876V115.332C410.138 115.108 410.191 114.937 410.298 114.82C410.405 114.703 410.565 114.644 410.778 114.644C410.981 114.644 411.141 114.703 411.258 114.82C411.375 114.937 411.434 115.108 411.434 115.332V121.876C411.434 122.1 411.375 122.276 411.258 122.404C411.151 122.521 410.991 122.58 410.778 122.58ZM410.778 112.852C410.511 112.852 410.303 112.783 410.154 112.644C410.005 112.495 409.93 112.297 409.93 112.052C409.93 111.796 410.005 111.604 410.154 111.476C410.303 111.337 410.511 111.268 410.778 111.268C411.055 111.268 411.263 111.337 411.402 111.476C411.551 111.604 411.626 111.796 411.626 112.052C411.626 112.297 411.551 112.495 411.402 112.644C411.263 112.783 411.055 112.852 410.778 112.852ZM416.977 122.644C416.369 122.644 415.857 122.537 415.441 122.324C415.035 122.1 414.731 121.78 414.529 121.364C414.326 120.937 414.225 120.42 414.225 119.812V115.732H413.153C412.971 115.732 412.833 115.689 412.737 115.604C412.641 115.508 412.593 115.38 412.593 115.22C412.593 115.06 412.641 114.937 412.737 114.852C412.833 114.767 412.971 114.724 413.153 114.724H414.225V112.884C414.225 112.671 414.283 112.511 414.401 112.404C414.518 112.287 414.678 112.228 414.881 112.228C415.083 112.228 415.238 112.287 415.345 112.404C415.462 112.511 415.521 112.671 415.521 112.884V114.724H417.537C417.718 114.724 417.857 114.767 417.953 114.852C418.049 114.937 418.097 115.06 418.097 115.22C418.097 115.38 418.049 115.508 417.953 115.604C417.857 115.689 417.718 115.732 417.537 115.732H415.521V119.684C415.521 120.292 415.649 120.756 415.905 121.076C416.161 121.385 416.577 121.54 417.153 121.54C417.355 121.54 417.526 121.519 417.665 121.476C417.814 121.433 417.937 121.412 418.033 121.412C418.129 121.401 418.209 121.433 418.273 121.508C418.337 121.583 418.369 121.711 418.369 121.892C418.369 122.02 418.342 122.137 418.289 122.244C418.246 122.351 418.166 122.425 418.049 122.468C417.921 122.511 417.75 122.548 417.537 122.58C417.334 122.623 417.147 122.644 416.977 122.644Z" fill="#1F1F23"/>
<circle cx="291.5" cy="151.5" r="4.5" fill="#FFE666"/>
<path d="M318.064 156.5C317.829 156.5 317.653 156.447 317.536 156.34C317.429 156.223 317.376 156.068 317.376 155.876C317.376 155.759 317.403 155.647 317.456 155.54C317.52 155.423 317.605 155.305 317.712 155.188L321.296 151.348C321.84 150.761 322.229 150.223 322.464 149.732C322.709 149.231 322.832 148.724 322.832 148.212C322.832 147.572 322.635 147.087 322.24 146.756C321.856 146.415 321.291 146.244 320.544 146.244C320.064 146.244 319.611 146.319 319.184 146.468C318.757 146.617 318.347 146.847 317.952 147.156C317.813 147.263 317.685 147.311 317.568 147.3C317.461 147.289 317.365 147.247 317.28 147.172C317.195 147.097 317.136 147.001 317.104 146.884C317.072 146.767 317.072 146.649 317.104 146.532C317.147 146.415 317.232 146.308 317.36 146.212C317.776 145.871 318.277 145.599 318.864 145.396C319.451 145.183 320.048 145.076 320.656 145.076C321.413 145.076 322.053 145.193 322.576 145.428C323.099 145.663 323.493 146.009 323.76 146.468C324.027 146.916 324.16 147.465 324.16 148.116C324.16 148.564 324.085 149.007 323.936 149.444C323.797 149.871 323.579 150.308 323.28 150.756C322.992 151.204 322.613 151.668 322.144 152.148L318.736 155.748V155.38H324.128C324.331 155.38 324.48 155.428 324.576 155.524C324.683 155.609 324.736 155.743 324.736 155.924C324.736 156.116 324.683 156.26 324.576 156.356C324.48 156.452 324.331 156.5 324.128 156.5H318.064ZM330.634 156.644C330.026 156.644 329.418 156.553 328.81 156.372C328.212 156.191 327.668 155.908 327.178 155.524C327.05 155.439 326.964 155.337 326.922 155.22C326.879 155.103 326.874 154.985 326.906 154.868C326.938 154.751 326.996 154.655 327.082 154.58C327.167 154.495 327.268 154.447 327.386 154.436C327.514 154.425 327.647 154.468 327.786 154.564C328.223 154.873 328.676 155.103 329.146 155.252C329.615 155.401 330.106 155.476 330.618 155.476C331.14 155.476 331.588 155.38 331.962 155.188C332.346 154.985 332.634 154.708 332.826 154.356C333.028 153.993 333.13 153.572 333.13 153.092C333.13 152.356 332.916 151.753 332.49 151.284C332.063 150.815 331.476 150.58 330.73 150.58C330.271 150.58 329.85 150.665 329.466 150.836C329.082 151.007 328.73 151.279 328.41 151.652C328.335 151.737 328.244 151.812 328.138 151.876C328.042 151.929 327.93 151.956 327.802 151.956C327.62 151.956 327.476 151.908 327.37 151.812C327.274 151.705 327.226 151.567 327.226 151.396V145.828C327.226 145.625 327.279 145.476 327.386 145.38C327.492 145.273 327.642 145.22 327.834 145.22H333.274C333.476 145.22 333.626 145.268 333.722 145.364C333.828 145.46 333.882 145.599 333.882 145.78C333.882 145.961 333.828 146.1 333.722 146.196C333.626 146.292 333.476 146.34 333.274 146.34H328.522V150.836H328.17C328.447 150.388 328.831 150.047 329.322 149.812C329.812 149.567 330.362 149.444 330.97 149.444C331.684 149.444 332.298 149.593 332.81 149.892C333.332 150.191 333.732 150.612 334.01 151.156C334.298 151.689 334.442 152.313 334.442 153.028C334.442 153.732 334.287 154.356 333.978 154.9C333.668 155.444 333.231 155.871 332.666 156.18C332.1 156.489 331.423 156.644 330.634 156.644ZM339.988 156.516C339.913 156.655 339.822 156.745 339.716 156.788C339.609 156.841 339.502 156.852 339.396 156.82C339.289 156.799 339.198 156.745 339.124 156.66C339.049 156.585 339.001 156.489 338.98 156.372C338.969 156.255 339.001 156.127 339.076 155.988L345.252 145.236C345.326 145.097 345.417 145.007 345.524 144.964C345.63 144.911 345.737 144.9 345.844 144.932C345.95 144.953 346.041 145.007 346.116 145.092C346.19 145.177 346.233 145.279 346.244 145.396C346.265 145.513 346.238 145.636 346.164 145.764L339.988 156.516ZM338.804 151.988C337.95 151.988 337.284 151.684 336.804 151.076C336.324 150.468 336.084 149.62 336.084 148.532C336.084 147.807 336.19 147.188 336.404 146.676C336.628 146.164 336.942 145.775 337.348 145.508C337.753 145.231 338.238 145.092 338.804 145.092C339.646 145.092 340.308 145.396 340.788 146.004C341.278 146.601 341.524 147.444 341.524 148.532C341.524 149.257 341.412 149.876 341.188 150.388C340.974 150.9 340.665 151.295 340.26 151.572C339.854 151.849 339.369 151.988 338.804 151.988ZM338.804 151.044C339.134 151.044 339.417 150.948 339.652 150.756C339.897 150.564 340.084 150.281 340.212 149.908C340.34 149.535 340.404 149.076 340.404 148.532C340.404 147.7 340.26 147.076 339.972 146.66C339.684 146.244 339.294 146.036 338.804 146.036C338.473 146.036 338.185 146.132 337.94 146.324C337.705 146.505 337.524 146.783 337.396 147.156C337.268 147.519 337.204 147.977 337.204 148.532C337.204 149.364 337.342 149.993 337.62 150.42C337.908 150.836 338.302 151.044 338.804 151.044ZM346.452 156.644C345.609 156.644 344.942 156.34 344.452 155.732C343.972 155.124 343.732 154.276 343.732 153.188C343.732 152.463 343.838 151.844 344.052 151.332C344.276 150.82 344.59 150.431 344.996 150.164C345.412 149.887 345.897 149.748 346.452 149.748C347.305 149.748 347.972 150.052 348.452 150.66C348.932 151.257 349.172 152.1 349.172 153.188C349.172 153.913 349.065 154.537 348.852 155.06C348.638 155.572 348.329 155.967 347.924 156.244C347.518 156.511 347.028 156.644 346.452 156.644ZM346.452 155.7C346.793 155.7 347.081 155.609 347.316 155.428C347.55 155.236 347.732 154.953 347.86 154.58C347.988 154.207 348.052 153.743 348.052 153.188C348.052 152.356 347.908 151.732 347.62 151.316C347.342 150.9 346.953 150.692 346.452 150.692C346.121 150.692 345.833 150.788 345.588 150.98C345.353 151.161 345.172 151.439 345.044 151.812C344.926 152.175 344.868 152.633 344.868 153.188C344.868 154.031 345.006 154.66 345.284 155.076C345.572 155.492 345.961 155.7 346.452 155.7Z" fill="#1F1F23"/>
<path d="M363.048 156.612C362.835 156.612 362.669 156.553 362.552 156.436C362.445 156.308 362.392 156.137 362.392 155.924V145.796C362.392 145.572 362.445 145.401 362.552 145.284C362.669 145.167 362.835 145.108 363.048 145.108C363.261 145.108 363.421 145.167 363.528 145.284C363.645 145.401 363.704 145.572 363.704 145.796V155.924C363.704 156.137 363.651 156.308 363.544 156.436C363.437 156.553 363.272 156.612 363.048 156.612ZM373.41 156.644C372.717 156.644 372.109 156.479 371.586 156.148C371.074 155.817 370.674 155.353 370.386 154.756C370.109 154.148 369.97 153.433 369.97 152.612C369.97 151.78 370.109 151.065 370.386 150.468C370.674 149.86 371.074 149.396 371.586 149.076C372.109 148.745 372.717 148.58 373.41 148.58C374.114 148.58 374.717 148.756 375.218 149.108C375.72 149.46 376.056 149.935 376.226 150.532H376.05V145.764C376.05 145.551 376.104 145.391 376.21 145.284C376.328 145.167 376.493 145.108 376.706 145.108C376.909 145.108 377.064 145.167 377.17 145.284C377.288 145.391 377.346 145.551 377.346 145.764V155.94C377.346 156.153 377.293 156.319 377.186 156.436C377.08 156.553 376.92 156.612 376.706 156.612C376.504 156.612 376.344 156.553 376.226 156.436C376.12 156.319 376.066 156.153 376.066 155.94V154.42L376.242 154.644C376.072 155.252 375.73 155.737 375.218 156.1C374.717 156.463 374.114 156.644 373.41 156.644ZM373.682 155.604C374.162 155.604 374.584 155.487 374.946 155.252C375.309 155.017 375.586 154.676 375.778 154.228C375.981 153.78 376.082 153.241 376.082 152.612C376.082 151.641 375.864 150.9 375.426 150.388C375 149.876 374.418 149.62 373.682 149.62C373.192 149.62 372.765 149.737 372.402 149.972C372.05 150.196 371.773 150.532 371.57 150.98C371.378 151.417 371.282 151.961 371.282 152.612C371.282 153.572 371.501 154.313 371.938 154.836C372.376 155.348 372.957 155.604 373.682 155.604ZM383.011 156.644C382.253 156.644 381.597 156.479 381.043 156.148C380.488 155.817 380.056 155.353 379.747 154.756C379.448 154.148 379.299 153.433 379.299 152.612C379.299 151.993 379.384 151.439 379.555 150.948C379.725 150.447 379.976 150.02 380.307 149.668C380.637 149.316 381.027 149.049 381.475 148.868C381.933 148.676 382.445 148.58 383.011 148.58C383.768 148.58 384.424 148.745 384.979 149.076C385.533 149.407 385.96 149.876 386.259 150.484C386.568 151.081 386.723 151.791 386.723 152.612C386.723 153.231 386.637 153.785 386.467 154.276C386.296 154.767 386.045 155.193 385.715 155.556C385.384 155.908 384.989 156.18 384.531 156.372C384.083 156.553 383.576 156.644 383.011 156.644ZM383.011 155.604C383.491 155.604 383.912 155.487 384.275 155.252C384.637 155.017 384.915 154.676 385.107 154.228C385.309 153.78 385.411 153.241 385.411 152.612C385.411 151.641 385.192 150.9 384.755 150.388C384.328 149.876 383.747 149.62 383.011 149.62C382.52 149.62 382.093 149.737 381.731 149.972C381.379 150.196 381.101 150.532 380.899 150.98C380.707 151.417 380.611 151.961 380.611 152.612C380.611 153.572 380.829 154.313 381.267 154.836C381.704 155.348 382.285 155.604 383.011 155.604ZM389.309 156.612C389.096 156.612 388.936 156.553 388.829 156.436C388.722 156.319 388.669 156.153 388.669 155.94V149.268C388.669 149.055 388.722 148.895 388.829 148.788C388.936 148.671 389.09 148.612 389.293 148.612C389.496 148.612 389.65 148.671 389.757 148.788C389.874 148.895 389.933 149.055 389.933 149.268V150.644L389.757 150.452C389.981 149.833 390.344 149.369 390.845 149.06C391.357 148.74 391.944 148.58 392.605 148.58C393.224 148.58 393.736 148.692 394.141 148.916C394.557 149.14 394.866 149.481 395.069 149.94C395.272 150.388 395.373 150.959 395.373 151.652V155.94C395.373 156.153 395.314 156.319 395.197 156.436C395.09 156.553 394.936 156.612 394.733 156.612C394.52 156.612 394.354 156.553 394.237 156.436C394.13 156.319 394.077 156.153 394.077 155.94V151.732C394.077 151.007 393.933 150.479 393.645 150.148C393.368 149.807 392.92 149.636 392.301 149.636C391.586 149.636 391.016 149.86 390.589 150.308C390.173 150.745 389.965 151.332 389.965 152.068V155.94C389.965 156.388 389.746 156.612 389.309 156.612ZM398.234 148.372C398.127 148.511 398.015 148.591 397.898 148.612C397.781 148.623 397.679 148.601 397.594 148.548C397.509 148.484 397.461 148.393 397.45 148.276C397.45 148.159 397.503 148.031 397.61 147.892C397.781 147.668 397.898 147.444 397.962 147.22C398.026 146.985 398.058 146.777 398.058 146.596L398.122 146.916C397.845 146.916 397.621 146.836 397.45 146.676C397.29 146.505 397.21 146.292 397.21 146.036C397.21 145.769 397.285 145.556 397.434 145.396C397.594 145.236 397.802 145.156 398.058 145.156C398.335 145.156 398.554 145.252 398.714 145.444C398.874 145.625 398.954 145.892 398.954 146.244C398.954 146.468 398.933 146.703 398.89 146.948C398.847 147.183 398.773 147.423 398.666 147.668C398.559 147.913 398.415 148.148 398.234 148.372ZM404.258 156.644C403.65 156.644 403.138 156.537 402.722 156.324C402.317 156.1 402.013 155.78 401.81 155.364C401.607 154.937 401.506 154.42 401.506 153.812V149.732H400.434C400.253 149.732 400.114 149.689 400.018 149.604C399.922 149.508 399.874 149.38 399.874 149.22C399.874 149.06 399.922 148.937 400.018 148.852C400.114 148.767 400.253 148.724 400.434 148.724H401.506V146.884C401.506 146.671 401.565 146.511 401.682 146.404C401.799 146.287 401.959 146.228 402.162 146.228C402.365 146.228 402.519 146.287 402.626 146.404C402.743 146.511 402.802 146.671 402.802 146.884V148.724H404.818C404.999 148.724 405.138 148.767 405.234 148.852C405.33 148.937 405.378 149.06 405.378 149.22C405.378 149.38 405.33 149.508 405.234 149.604C405.138 149.689 404.999 149.732 404.818 149.732H402.802V153.684C402.802 154.292 402.93 154.756 403.186 155.076C403.442 155.385 403.858 155.54 404.434 155.54C404.637 155.54 404.807 155.519 404.946 155.476C405.095 155.433 405.218 155.412 405.314 155.412C405.41 155.401 405.49 155.433 405.554 155.508C405.618 155.583 405.65 155.711 405.65 155.892C405.65 156.02 405.623 156.137 405.57 156.244C405.527 156.351 405.447 156.425 405.33 156.468C405.202 156.511 405.031 156.548 404.818 156.58C404.615 156.623 404.429 156.644 404.258 156.644ZM411.497 156.612C411.283 156.612 411.123 156.553 411.017 156.436C410.91 156.319 410.857 156.153 410.857 155.94V145.764C410.857 145.551 410.91 145.391 411.017 145.284C411.123 145.167 411.283 145.108 411.497 145.108C411.699 145.108 411.859 145.167 411.977 145.284C412.094 145.391 412.153 145.551 412.153 145.764V152.18H412.185L415.465 149.044C415.614 148.905 415.742 148.799 415.849 148.724C415.966 148.649 416.121 148.612 416.313 148.612C416.483 148.612 416.617 148.66 416.713 148.756C416.809 148.841 416.851 148.953 416.841 149.092C416.841 149.22 416.777 149.359 416.649 149.508L413.161 152.82V152.116L416.953 155.684C417.102 155.833 417.177 155.977 417.177 156.116C417.177 156.255 417.123 156.372 417.017 156.468C416.921 156.564 416.793 156.612 416.633 156.612C416.441 156.612 416.286 156.575 416.169 156.5C416.051 156.415 415.907 156.292 415.737 156.132L412.185 152.852H412.153V155.94C412.153 156.388 411.934 156.612 411.497 156.612ZM419.497 156.612C419.283 156.612 419.123 156.553 419.017 156.436C418.91 156.319 418.857 156.153 418.857 155.94V149.268C418.857 149.055 418.91 148.895 419.017 148.788C419.123 148.671 419.278 148.612 419.481 148.612C419.683 148.612 419.838 148.671 419.945 148.788C420.062 148.895 420.121 149.055 420.121 149.268V150.644L419.945 150.452C420.169 149.833 420.531 149.369 421.033 149.06C421.545 148.74 422.131 148.58 422.793 148.58C423.411 148.58 423.923 148.692 424.329 148.916C424.745 149.14 425.054 149.481 425.257 149.94C425.459 150.388 425.561 150.959 425.561 151.652V155.94C425.561 156.153 425.502 156.319 425.385 156.436C425.278 156.553 425.123 156.612 424.921 156.612C424.707 156.612 424.542 156.553 424.425 156.436C424.318 156.319 424.265 156.153 424.265 155.94V151.732C424.265 151.007 424.121 150.479 423.833 150.148C423.555 149.807 423.107 149.636 422.489 149.636C421.774 149.636 421.203 149.86 420.777 150.308C420.361 150.745 420.153 151.332 420.153 152.068V155.94C420.153 156.388 419.934 156.612 419.497 156.612ZM431.182 156.644C430.425 156.644 429.769 156.479 429.214 156.148C428.66 155.817 428.228 155.353 427.918 154.756C427.62 154.148 427.47 153.433 427.47 152.612C427.47 151.993 427.556 151.439 427.726 150.948C427.897 150.447 428.148 150.02 428.478 149.668C428.809 149.316 429.198 149.049 429.646 148.868C430.105 148.676 430.617 148.58 431.182 148.58C431.94 148.58 432.596 148.745 433.15 149.076C433.705 149.407 434.132 149.876 434.43 150.484C434.74 151.081 434.894 151.791 434.894 152.612C434.894 153.231 434.809 153.785 434.638 154.276C434.468 154.767 434.217 155.193 433.886 155.556C433.556 155.908 433.161 156.18 432.702 156.372C432.254 156.553 431.748 156.644 431.182 156.644ZM431.182 155.604C431.662 155.604 432.084 155.487 432.446 155.252C432.809 155.017 433.086 154.676 433.278 154.228C433.481 153.78 433.582 153.241 433.582 152.612C433.582 151.641 433.364 150.9 432.926 150.388C432.5 149.876 431.918 149.62 431.182 149.62C430.692 149.62 430.265 149.737 429.902 149.972C429.55 150.196 429.273 150.532 429.07 150.98C428.878 151.417 428.782 151.961 428.782 152.612C428.782 153.572 429.001 154.313 429.438 154.836C429.876 155.348 430.457 155.604 431.182 155.604ZM439.42 156.612C439.238 156.612 439.078 156.564 438.94 156.468C438.801 156.372 438.689 156.217 438.604 156.004L436.22 149.524C436.156 149.343 436.134 149.183 436.156 149.044C436.188 148.905 436.257 148.799 436.364 148.724C436.47 148.649 436.604 148.612 436.764 148.612C436.924 148.612 437.052 148.649 437.148 148.724C437.254 148.799 437.34 148.937 437.404 149.14L439.644 155.54H439.26L441.564 149.14C441.638 148.948 441.729 148.815 441.836 148.74C441.953 148.655 442.102 148.612 442.284 148.612C442.454 148.612 442.598 148.655 442.716 148.74C442.833 148.825 442.924 148.959 442.988 149.14L445.244 155.54H444.876L447.148 149.108C447.222 148.916 447.313 148.788 447.42 148.724C447.526 148.649 447.654 148.612 447.804 148.612C447.974 148.612 448.102 148.655 448.188 148.74C448.284 148.825 448.337 148.937 448.348 149.076C448.358 149.215 448.332 149.364 448.268 149.524L445.884 156.004C445.809 156.207 445.697 156.361 445.548 156.468C445.409 156.564 445.249 156.612 445.068 156.612C444.886 156.612 444.726 156.564 444.588 156.468C444.449 156.361 444.342 156.207 444.268 156.004L441.9 149.508H442.588L440.236 156.004C440.161 156.207 440.054 156.361 439.916 156.468C439.777 156.564 439.612 156.612 439.42 156.612ZM456.998 156.612C456.816 156.612 456.656 156.564 456.518 156.468C456.379 156.372 456.267 156.217 456.182 156.004L453.798 149.524C453.734 149.343 453.712 149.183 453.734 149.044C453.766 148.905 453.835 148.799 453.942 148.724C454.048 148.649 454.182 148.612 454.342 148.612C454.502 148.612 454.63 148.649 454.726 148.724C454.832 148.799 454.918 148.937 454.982 149.14L457.222 155.54H456.838L459.142 149.14C459.216 148.948 459.307 148.815 459.414 148.74C459.531 148.655 459.68 148.612 459.862 148.612C460.032 148.612 460.176 148.655 460.294 148.74C460.411 148.825 460.502 148.959 460.566 149.14L462.822 155.54H462.454L464.726 149.108C464.8 148.916 464.891 148.788 464.998 148.724C465.104 148.649 465.232 148.612 465.382 148.612C465.552 148.612 465.68 148.655 465.766 148.74C465.862 148.825 465.915 148.937 465.926 149.076C465.936 149.215 465.91 149.364 465.846 149.524L463.462 156.004C463.387 156.207 463.275 156.361 463.126 156.468C462.987 156.564 462.827 156.612 462.646 156.612C462.464 156.612 462.304 156.564 462.166 156.468C462.027 156.361 461.92 156.207 461.846 156.004L459.478 149.508H460.166L457.814 156.004C457.739 156.207 457.632 156.361 457.494 156.468C457.355 156.564 457.19 156.612 456.998 156.612ZM468.403 156.612C468.19 156.612 468.03 156.553 467.923 156.436C467.816 156.319 467.763 156.153 467.763 155.94V145.764C467.763 145.551 467.816 145.391 467.923 145.284C468.03 145.167 468.19 145.108 468.403 145.108C468.606 145.108 468.766 145.167 468.883 145.284C469 145.391 469.059 145.551 469.059 145.764V150.452H468.851C469.075 149.833 469.438 149.369 469.939 149.06C470.451 148.74 471.038 148.58 471.699 148.58C472.318 148.58 472.83 148.692 473.235 148.916C473.651 149.14 473.96 149.481 474.163 149.94C474.366 150.388 474.467 150.959 474.467 151.652V155.94C474.467 156.153 474.408 156.319 474.291 156.436C474.184 156.553 474.03 156.612 473.827 156.612C473.614 156.612 473.448 156.553 473.331 156.436C473.224 156.319 473.171 156.153 473.171 155.94V151.732C473.171 151.007 473.027 150.479 472.739 150.148C472.462 149.807 472.014 149.636 471.395 149.636C470.68 149.636 470.11 149.86 469.683 150.308C469.267 150.745 469.059 151.332 469.059 152.068V155.94C469.059 156.388 468.84 156.612 468.403 156.612ZM480.361 156.644C479.539 156.644 478.83 156.484 478.233 156.164C477.646 155.833 477.187 155.369 476.857 154.772C476.537 154.175 476.377 153.46 476.377 152.628C476.377 151.817 476.537 151.113 476.857 150.516C477.177 149.908 477.614 149.433 478.169 149.092C478.734 148.751 479.385 148.58 480.121 148.58C480.643 148.58 481.113 148.671 481.529 148.852C481.945 149.023 482.297 149.273 482.585 149.604C482.883 149.935 483.107 150.335 483.257 150.804C483.417 151.273 483.497 151.801 483.497 152.388C483.497 152.559 483.449 152.687 483.353 152.772C483.257 152.847 483.118 152.884 482.937 152.884H477.369V152.036H482.633L482.377 152.244C482.377 151.668 482.291 151.183 482.121 150.788C481.95 150.383 481.699 150.073 481.369 149.86C481.049 149.647 480.643 149.54 480.153 149.54C479.609 149.54 479.145 149.668 478.761 149.924C478.387 150.169 478.105 150.516 477.913 150.964C477.721 151.401 477.625 151.913 477.625 152.5V152.596C477.625 153.577 477.859 154.324 478.329 154.836C478.809 155.348 479.486 155.604 480.361 155.604C480.723 155.604 481.081 155.556 481.433 155.46C481.795 155.364 482.147 155.204 482.489 154.98C482.638 154.884 482.771 154.841 482.889 154.852C483.017 154.852 483.118 154.889 483.193 154.964C483.267 155.028 483.315 155.113 483.337 155.22C483.369 155.316 483.358 155.423 483.305 155.54C483.262 155.657 483.171 155.759 483.033 155.844C482.681 156.1 482.265 156.297 481.785 156.436C481.305 156.575 480.83 156.644 480.361 156.644ZM486.012 156.612C485.799 156.612 485.639 156.553 485.532 156.436C485.426 156.319 485.372 156.153 485.372 155.94V149.268C485.372 149.055 485.426 148.895 485.532 148.788C485.639 148.671 485.794 148.612 485.996 148.612C486.199 148.612 486.354 148.671 486.46 148.788C486.578 148.895 486.636 149.055 486.636 149.268V150.644L486.46 150.452C486.684 149.833 487.047 149.369 487.548 149.06C488.06 148.74 488.647 148.58 489.308 148.58C489.927 148.58 490.439 148.692 490.844 148.916C491.26 149.14 491.57 149.481 491.772 149.94C491.975 150.388 492.076 150.959 492.076 151.652V155.94C492.076 156.153 492.018 156.319 491.9 156.436C491.794 156.553 491.639 156.612 491.436 156.612C491.223 156.612 491.058 156.553 490.94 156.436C490.834 156.319 490.78 156.153 490.78 155.94V151.732C490.78 151.007 490.636 150.479 490.348 150.148C490.071 149.807 489.623 149.636 489.004 149.636C488.29 149.636 487.719 149.86 487.292 150.308C486.876 150.745 486.668 151.332 486.668 152.068V155.94C486.668 156.388 486.45 156.612 486.012 156.612ZM499.231 156.58C499.018 156.58 498.858 156.521 498.751 156.404C498.644 156.276 498.591 156.1 498.591 155.876V149.332C498.591 149.108 498.644 148.937 498.751 148.82C498.858 148.703 499.018 148.644 499.231 148.644C499.434 148.644 499.594 148.703 499.711 148.82C499.828 148.937 499.887 149.108 499.887 149.332V155.876C499.887 156.1 499.828 156.276 499.711 156.404C499.604 156.521 499.444 156.58 499.231 156.58ZM499.231 146.852C498.964 146.852 498.756 146.783 498.607 146.644C498.458 146.495 498.383 146.297 498.383 146.052C498.383 145.796 498.458 145.604 498.607 145.476C498.756 145.337 498.964 145.268 499.231 145.268C499.508 145.268 499.716 145.337 499.855 145.476C500.004 145.604 500.079 145.796 500.079 146.052C500.079 146.297 500.004 146.495 499.855 146.644C499.716 146.783 499.508 146.852 499.231 146.852ZM505.43 156.644C504.822 156.644 504.31 156.537 503.894 156.324C503.488 156.1 503.184 155.78 502.982 155.364C502.779 154.937 502.678 154.42 502.678 153.812V149.732H501.606C501.424 149.732 501.286 149.689 501.19 149.604C501.094 149.508 501.046 149.38 501.046 149.22C501.046 149.06 501.094 148.937 501.19 148.852C501.286 148.767 501.424 148.724 501.606 148.724H502.678V146.884C502.678 146.671 502.736 146.511 502.854 146.404C502.971 146.287 503.131 146.228 503.334 146.228C503.536 146.228 503.691 146.287 503.798 146.404C503.915 146.511 503.974 146.671 503.974 146.884V148.724H505.99C506.171 148.724 506.31 148.767 506.406 148.852C506.502 148.937 506.55 149.06 506.55 149.22C506.55 149.38 506.502 149.508 506.406 149.604C506.31 149.689 506.171 149.732 505.99 149.732H503.974V153.684C503.974 154.292 504.102 154.756 504.358 155.076C504.614 155.385 505.03 155.54 505.606 155.54C505.808 155.54 505.979 155.519 506.118 155.476C506.267 155.433 506.39 155.412 506.486 155.412C506.582 155.401 506.662 155.433 506.726 155.508C506.79 155.583 506.822 155.711 506.822 155.892C506.822 156.02 506.795 156.137 506.742 156.244C506.699 156.351 506.619 156.425 506.502 156.468C506.374 156.511 506.203 156.548 505.99 156.58C505.787 156.623 505.6 156.644 505.43 156.644ZM512.669 156.58C512.455 156.58 512.295 156.521 512.189 156.404C512.082 156.276 512.029 156.1 512.029 155.876V149.332C512.029 149.108 512.082 148.937 512.189 148.82C512.295 148.703 512.455 148.644 512.669 148.644C512.871 148.644 513.031 148.703 513.149 148.82C513.266 148.937 513.325 149.108 513.325 149.332V155.876C513.325 156.1 513.266 156.276 513.149 156.404C513.042 156.521 512.882 156.58 512.669 156.58ZM512.669 146.852C512.402 146.852 512.194 146.783 512.045 146.644C511.895 146.495 511.821 146.297 511.821 146.052C511.821 145.796 511.895 145.604 512.045 145.476C512.194 145.337 512.402 145.268 512.669 145.268C512.946 145.268 513.154 145.337 513.293 145.476C513.442 145.604 513.517 145.796 513.517 146.052C513.517 146.297 513.442 146.495 513.293 146.644C513.154 146.783 512.946 146.852 512.669 146.852ZM518.371 156.644C517.891 156.644 517.406 156.585 516.915 156.468C516.435 156.351 515.987 156.148 515.571 155.86C515.465 155.785 515.39 155.7 515.347 155.604C515.305 155.497 515.289 155.396 515.299 155.3C515.321 155.193 515.363 155.103 515.427 155.028C515.502 154.953 515.587 154.911 515.683 154.9C515.79 154.879 515.907 154.9 516.035 154.964C516.451 155.22 516.851 155.401 517.235 155.508C517.63 155.604 518.019 155.652 518.403 155.652C519.011 155.652 519.47 155.54 519.779 155.316C520.089 155.092 520.243 154.788 520.243 154.404C520.243 154.105 520.142 153.871 519.939 153.7C519.737 153.519 519.417 153.38 518.979 153.284L517.523 152.964C516.851 152.825 516.35 152.585 516.019 152.244C515.699 151.903 515.539 151.46 515.539 150.916C515.539 150.436 515.662 150.025 515.907 149.684C516.163 149.332 516.521 149.06 516.979 148.868C517.438 148.676 517.971 148.58 518.579 148.58C519.049 148.58 519.491 148.644 519.907 148.772C520.334 148.889 520.718 149.081 521.059 149.348C521.166 149.423 521.235 149.513 521.267 149.62C521.31 149.716 521.315 149.817 521.283 149.924C521.262 150.02 521.214 150.105 521.139 150.18C521.065 150.244 520.974 150.281 520.867 150.292C520.761 150.303 520.649 150.271 520.531 150.196C520.211 149.983 519.886 149.828 519.555 149.732C519.225 149.625 518.899 149.572 518.579 149.572C517.982 149.572 517.529 149.689 517.219 149.924C516.91 150.159 516.755 150.468 516.755 150.852C516.755 151.151 516.851 151.396 517.043 151.588C517.235 151.78 517.534 151.919 517.939 152.004L519.395 152.308C520.089 152.457 520.606 152.697 520.947 153.028C521.299 153.348 521.475 153.785 521.475 154.34C521.475 155.044 521.193 155.604 520.627 156.02C520.062 156.436 519.31 156.644 518.371 156.644Z" fill="#1F1F23"/>
<circle cx="291.5" cy="185.5" r="4.5" fill="#EFA247"/>
<path d="M318.48 190.5C318.288 190.5 318.139 190.452 318.032 190.356C317.925 190.249 317.872 190.105 317.872 189.924C317.872 189.743 317.925 189.609 318.032 189.524C318.139 189.428 318.288 189.38 318.48 189.38H320.56V180.308H321.248L318.928 181.844C318.789 181.919 318.656 181.951 318.528 181.94C318.411 181.929 318.309 181.887 318.224 181.812C318.149 181.727 318.096 181.631 318.064 181.524C318.032 181.407 318.037 181.289 318.08 181.172C318.123 181.044 318.213 180.937 318.352 180.852L320.56 179.396C320.699 179.311 320.832 179.241 320.96 179.188C321.088 179.135 321.216 179.108 321.344 179.108C321.493 179.108 321.616 179.156 321.712 179.252C321.819 179.337 321.872 179.476 321.872 179.668V189.38H323.792C323.984 189.38 324.133 189.428 324.24 189.524C324.347 189.609 324.4 189.743 324.4 189.924C324.4 190.116 324.347 190.26 324.24 190.356C324.133 190.452 323.984 190.5 323.792 190.5H318.48ZM328.282 190.612C328.132 190.612 328.004 190.575 327.898 190.5C327.791 190.425 327.722 190.324 327.69 190.196C327.668 190.057 327.7 189.908 327.786 189.748L332.922 179.78V180.356H327.162C326.97 180.356 326.82 180.308 326.714 180.212C326.607 180.105 326.554 179.961 326.554 179.78C326.554 179.599 326.607 179.46 326.714 179.364C326.82 179.268 326.97 179.22 327.162 179.22H333.514C333.706 179.22 333.86 179.268 333.978 179.364C334.095 179.46 334.154 179.599 334.154 179.78C334.154 179.929 334.132 180.063 334.09 180.18C334.058 180.287 334.01 180.409 333.946 180.548L329.018 190.164C328.943 190.313 328.847 190.425 328.73 190.5C328.612 190.575 328.463 190.612 328.282 190.612ZM339.988 190.516C339.913 190.655 339.822 190.745 339.716 190.788C339.609 190.841 339.502 190.852 339.396 190.82C339.289 190.799 339.198 190.745 339.124 190.66C339.049 190.585 339.001 190.489 338.98 190.372C338.969 190.255 339.001 190.127 339.076 189.988L345.252 179.236C345.326 179.097 345.417 179.007 345.524 178.964C345.63 178.911 345.737 178.9 345.844 178.932C345.95 178.953 346.041 179.007 346.116 179.092C346.19 179.177 346.233 179.279 346.244 179.396C346.265 179.513 346.238 179.636 346.164 179.764L339.988 190.516ZM338.804 185.988C337.95 185.988 337.284 185.684 336.804 185.076C336.324 184.468 336.084 183.62 336.084 182.532C336.084 181.807 336.19 181.188 336.404 180.676C336.628 180.164 336.942 179.775 337.348 179.508C337.753 179.231 338.238 179.092 338.804 179.092C339.646 179.092 340.308 179.396 340.788 180.004C341.278 180.601 341.524 181.444 341.524 182.532C341.524 183.257 341.412 183.876 341.188 184.388C340.974 184.9 340.665 185.295 340.26 185.572C339.854 185.849 339.369 185.988 338.804 185.988ZM338.804 185.044C339.134 185.044 339.417 184.948 339.652 184.756C339.897 184.564 340.084 184.281 340.212 183.908C340.34 183.535 340.404 183.076 340.404 182.532C340.404 181.7 340.26 181.076 339.972 180.66C339.684 180.244 339.294 180.036 338.804 180.036C338.473 180.036 338.185 180.132 337.94 180.324C337.705 180.505 337.524 180.783 337.396 181.156C337.268 181.519 337.204 181.977 337.204 182.532C337.204 183.364 337.342 183.993 337.62 184.42C337.908 184.836 338.302 185.044 338.804 185.044ZM346.452 190.644C345.609 190.644 344.942 190.34 344.452 189.732C343.972 189.124 343.732 188.276 343.732 187.188C343.732 186.463 343.838 185.844 344.052 185.332C344.276 184.82 344.59 184.431 344.996 184.164C345.412 183.887 345.897 183.748 346.452 183.748C347.305 183.748 347.972 184.052 348.452 184.66C348.932 185.257 349.172 186.1 349.172 187.188C349.172 187.913 349.065 188.537 348.852 189.06C348.638 189.572 348.329 189.967 347.924 190.244C347.518 190.511 347.028 190.644 346.452 190.644ZM346.452 189.7C346.793 189.7 347.081 189.609 347.316 189.428C347.55 189.236 347.732 188.953 347.86 188.58C347.988 188.207 348.052 187.743 348.052 187.188C348.052 186.356 347.908 185.732 347.62 185.316C347.342 184.9 346.953 184.692 346.452 184.692C346.121 184.692 345.833 184.788 345.588 184.98C345.353 185.161 345.172 185.439 345.044 185.812C344.926 186.175 344.868 186.633 344.868 187.188C344.868 188.031 345.006 188.66 345.284 189.076C345.572 189.492 345.961 189.7 346.452 189.7Z" fill="#1F1F23"/>
<path d="M363.048 190.612C362.835 190.612 362.669 190.553 362.552 190.436C362.445 190.308 362.392 190.137 362.392 189.924V179.796C362.392 179.572 362.445 179.401 362.552 179.284C362.669 179.167 362.835 179.108 363.048 179.108C363.261 179.108 363.421 179.167 363.528 179.284C363.645 179.401 363.704 179.572 363.704 179.796V189.924C363.704 190.137 363.651 190.308 363.544 190.436C363.437 190.553 363.272 190.612 363.048 190.612ZM373.41 190.644C372.717 190.644 372.109 190.479 371.586 190.148C371.074 189.817 370.674 189.353 370.386 188.756C370.109 188.148 369.97 187.433 369.97 186.612C369.97 185.78 370.109 185.065 370.386 184.468C370.674 183.86 371.074 183.396 371.586 183.076C372.109 182.745 372.717 182.58 373.41 182.58C374.114 182.58 374.717 182.756 375.218 183.108C375.72 183.46 376.056 183.935 376.226 184.532H376.05V179.764C376.05 179.551 376.104 179.391 376.21 179.284C376.328 179.167 376.493 179.108 376.706 179.108C376.909 179.108 377.064 179.167 377.17 179.284C377.288 179.391 377.346 179.551 377.346 179.764V189.94C377.346 190.153 377.293 190.319 377.186 190.436C377.08 190.553 376.92 190.612 376.706 190.612C376.504 190.612 376.344 190.553 376.226 190.436C376.12 190.319 376.066 190.153 376.066 189.94V188.42L376.242 188.644C376.072 189.252 375.73 189.737 375.218 190.1C374.717 190.463 374.114 190.644 373.41 190.644ZM373.682 189.604C374.162 189.604 374.584 189.487 374.946 189.252C375.309 189.017 375.586 188.676 375.778 188.228C375.981 187.78 376.082 187.241 376.082 186.612C376.082 185.641 375.864 184.9 375.426 184.388C375 183.876 374.418 183.62 373.682 183.62C373.192 183.62 372.765 183.737 372.402 183.972C372.05 184.196 371.773 184.532 371.57 184.98C371.378 185.417 371.282 185.961 371.282 186.612C371.282 187.572 371.501 188.313 371.938 188.836C372.376 189.348 372.957 189.604 373.682 189.604ZM383.011 190.644C382.253 190.644 381.597 190.479 381.043 190.148C380.488 189.817 380.056 189.353 379.747 188.756C379.448 188.148 379.299 187.433 379.299 186.612C379.299 185.993 379.384 185.439 379.555 184.948C379.725 184.447 379.976 184.02 380.307 183.668C380.637 183.316 381.027 183.049 381.475 182.868C381.933 182.676 382.445 182.58 383.011 182.58C383.768 182.58 384.424 182.745 384.979 183.076C385.533 183.407 385.96 183.876 386.259 184.484C386.568 185.081 386.723 185.791 386.723 186.612C386.723 187.231 386.637 187.785 386.467 188.276C386.296 188.767 386.045 189.193 385.715 189.556C385.384 189.908 384.989 190.18 384.531 190.372C384.083 190.553 383.576 190.644 383.011 190.644ZM383.011 189.604C383.491 189.604 383.912 189.487 384.275 189.252C384.637 189.017 384.915 188.676 385.107 188.228C385.309 187.78 385.411 187.241 385.411 186.612C385.411 185.641 385.192 184.9 384.755 184.388C384.328 183.876 383.747 183.62 383.011 183.62C382.52 183.62 382.093 183.737 381.731 183.972C381.379 184.196 381.101 184.532 380.899 184.98C380.707 185.417 380.611 185.961 380.611 186.612C380.611 187.572 380.829 188.313 381.267 188.836C381.704 189.348 382.285 189.604 383.011 189.604ZM389.309 190.612C389.096 190.612 388.936 190.553 388.829 190.436C388.722 190.319 388.669 190.153 388.669 189.94V183.268C388.669 183.055 388.722 182.895 388.829 182.788C388.936 182.671 389.09 182.612 389.293 182.612C389.496 182.612 389.65 182.671 389.757 182.788C389.874 182.895 389.933 183.055 389.933 183.268V184.644L389.757 184.452C389.981 183.833 390.344 183.369 390.845 183.06C391.357 182.74 391.944 182.58 392.605 182.58C393.224 182.58 393.736 182.692 394.141 182.916C394.557 183.14 394.866 183.481 395.069 183.94C395.272 184.388 395.373 184.959 395.373 185.652V189.94C395.373 190.153 395.314 190.319 395.197 190.436C395.09 190.553 394.936 190.612 394.733 190.612C394.52 190.612 394.354 190.553 394.237 190.436C394.13 190.319 394.077 190.153 394.077 189.94V185.732C394.077 185.007 393.933 184.479 393.645 184.148C393.368 183.807 392.92 183.636 392.301 183.636C391.586 183.636 391.016 183.86 390.589 184.308C390.173 184.745 389.965 185.332 389.965 186.068V189.94C389.965 190.388 389.746 190.612 389.309 190.612ZM398.234 182.372C398.127 182.511 398.015 182.591 397.898 182.612C397.781 182.623 397.679 182.601 397.594 182.548C397.509 182.484 397.461 182.393 397.45 182.276C397.45 182.159 397.503 182.031 397.61 181.892C397.781 181.668 397.898 181.444 397.962 181.22C398.026 180.985 398.058 180.777 398.058 180.596L398.122 180.916C397.845 180.916 397.621 180.836 397.45 180.676C397.29 180.505 397.21 180.292 397.21 180.036C397.21 179.769 397.285 179.556 397.434 179.396C397.594 179.236 397.802 179.156 398.058 179.156C398.335 179.156 398.554 179.252 398.714 179.444C398.874 179.625 398.954 179.892 398.954 180.244C398.954 180.468 398.933 180.703 398.89 180.948C398.847 181.183 398.773 181.423 398.666 181.668C398.559 181.913 398.415 182.148 398.234 182.372ZM404.258 190.644C403.65 190.644 403.138 190.537 402.722 190.324C402.317 190.1 402.013 189.78 401.81 189.364C401.607 188.937 401.506 188.42 401.506 187.812V183.732H400.434C400.253 183.732 400.114 183.689 400.018 183.604C399.922 183.508 399.874 183.38 399.874 183.22C399.874 183.06 399.922 182.937 400.018 182.852C400.114 182.767 400.253 182.724 400.434 182.724H401.506V180.884C401.506 180.671 401.565 180.511 401.682 180.404C401.799 180.287 401.959 180.228 402.162 180.228C402.365 180.228 402.519 180.287 402.626 180.404C402.743 180.511 402.802 180.671 402.802 180.884V182.724H404.818C404.999 182.724 405.138 182.767 405.234 182.852C405.33 182.937 405.378 183.06 405.378 183.22C405.378 183.38 405.33 183.508 405.234 183.604C405.138 183.689 404.999 183.732 404.818 183.732H402.802V187.684C402.802 188.292 402.93 188.756 403.186 189.076C403.442 189.385 403.858 189.54 404.434 189.54C404.637 189.54 404.807 189.519 404.946 189.476C405.095 189.433 405.218 189.412 405.314 189.412C405.41 189.401 405.49 189.433 405.554 189.508C405.618 189.583 405.65 189.711 405.65 189.892C405.65 190.02 405.623 190.137 405.57 190.244C405.527 190.351 405.447 190.425 405.33 190.468C405.202 190.511 405.031 190.548 404.818 190.58C404.615 190.623 404.429 190.644 404.258 190.644ZM413.225 190.644C412.457 190.644 411.87 190.409 411.465 189.94C411.059 189.471 410.857 188.799 410.857 187.924V179.764C410.857 179.551 410.91 179.391 411.017 179.284C411.123 179.167 411.283 179.108 411.497 179.108C411.699 179.108 411.859 179.167 411.977 179.284C412.094 179.391 412.153 179.551 412.153 179.764V187.828C412.153 188.404 412.265 188.836 412.489 189.124C412.723 189.401 413.065 189.54 413.513 189.54C413.609 189.54 413.694 189.535 413.769 189.524C413.843 189.513 413.918 189.508 413.993 189.508C414.11 189.497 414.19 189.524 414.233 189.588C414.286 189.652 414.313 189.78 414.313 189.972C414.313 190.164 414.27 190.308 414.185 190.404C414.099 190.5 413.961 190.564 413.769 190.596C413.683 190.607 413.593 190.617 413.497 190.628C413.401 190.639 413.31 190.644 413.225 190.644ZM416.231 190.58C416.018 190.58 415.858 190.521 415.751 190.404C415.644 190.276 415.591 190.1 415.591 189.876V183.332C415.591 183.108 415.644 182.937 415.751 182.82C415.858 182.703 416.018 182.644 416.231 182.644C416.434 182.644 416.594 182.703 416.711 182.82C416.828 182.937 416.887 183.108 416.887 183.332V189.876C416.887 190.1 416.828 190.276 416.711 190.404C416.604 190.521 416.444 190.58 416.231 190.58ZM416.231 180.852C415.964 180.852 415.756 180.783 415.607 180.644C415.458 180.495 415.383 180.297 415.383 180.052C415.383 179.796 415.458 179.604 415.607 179.476C415.756 179.337 415.964 179.268 416.231 179.268C416.508 179.268 416.716 179.337 416.855 179.476C417.004 179.604 417.079 179.796 417.079 180.052C417.079 180.297 417.004 180.495 416.855 180.644C416.716 180.783 416.508 180.852 416.231 180.852ZM419.95 190.612C419.736 190.612 419.576 190.553 419.47 190.436C419.363 190.319 419.31 190.153 419.31 189.94V179.764C419.31 179.551 419.363 179.391 419.47 179.284C419.576 179.167 419.736 179.108 419.95 179.108C420.152 179.108 420.312 179.167 420.43 179.284C420.547 179.391 420.606 179.551 420.606 179.764V186.18H420.638L423.918 183.044C424.067 182.905 424.195 182.799 424.302 182.724C424.419 182.649 424.574 182.612 424.766 182.612C424.936 182.612 425.07 182.66 425.166 182.756C425.262 182.841 425.304 182.953 425.294 183.092C425.294 183.22 425.23 183.359 425.102 183.508L421.614 186.82V186.116L425.406 189.684C425.555 189.833 425.63 189.977 425.63 190.116C425.63 190.255 425.576 190.372 425.47 190.468C425.374 190.564 425.246 190.612 425.086 190.612C424.894 190.612 424.739 190.575 424.622 190.5C424.504 190.415 424.36 190.292 424.19 190.132L420.638 186.852H420.606V189.94C420.606 190.388 420.387 190.612 419.95 190.612ZM430.611 190.644C429.789 190.644 429.08 190.484 428.483 190.164C427.896 189.833 427.437 189.369 427.107 188.772C426.787 188.175 426.627 187.46 426.627 186.628C426.627 185.817 426.787 185.113 427.107 184.516C427.427 183.908 427.864 183.433 428.419 183.092C428.984 182.751 429.635 182.58 430.371 182.58C430.893 182.58 431.363 182.671 431.779 182.852C432.195 183.023 432.547 183.273 432.835 183.604C433.133 183.935 433.357 184.335 433.507 184.804C433.667 185.273 433.747 185.801 433.747 186.388C433.747 186.559 433.699 186.687 433.603 186.772C433.507 186.847 433.368 186.884 433.187 186.884H427.619V186.036H432.883L432.627 186.244C432.627 185.668 432.541 185.183 432.371 184.788C432.2 184.383 431.949 184.073 431.619 183.86C431.299 183.647 430.893 183.54 430.403 183.54C429.859 183.54 429.395 183.668 429.011 183.924C428.637 184.169 428.355 184.516 428.163 184.964C427.971 185.401 427.875 185.913 427.875 186.5V186.596C427.875 187.577 428.109 188.324 428.579 188.836C429.059 189.348 429.736 189.604 430.611 189.604C430.973 189.604 431.331 189.556 431.683 189.46C432.045 189.364 432.397 189.204 432.739 188.98C432.888 188.884 433.021 188.841 433.139 188.852C433.267 188.852 433.368 188.889 433.443 188.964C433.517 189.028 433.565 189.113 433.587 189.22C433.619 189.316 433.608 189.423 433.555 189.54C433.512 189.657 433.421 189.759 433.283 189.844C432.931 190.1 432.515 190.297 432.035 190.436C431.555 190.575 431.08 190.644 430.611 190.644ZM442.371 190.644C441.891 190.644 441.406 190.585 440.915 190.468C440.435 190.351 439.987 190.148 439.571 189.86C439.465 189.785 439.39 189.7 439.347 189.604C439.305 189.497 439.289 189.396 439.299 189.3C439.321 189.193 439.363 189.103 439.427 189.028C439.502 188.953 439.587 188.911 439.683 188.9C439.79 188.879 439.907 188.9 440.035 188.964C440.451 189.22 440.851 189.401 441.235 189.508C441.63 189.604 442.019 189.652 442.403 189.652C443.011 189.652 443.47 189.54 443.779 189.316C444.089 189.092 444.243 188.788 444.243 188.404C444.243 188.105 444.142 187.871 443.939 187.7C443.737 187.519 443.417 187.38 442.979 187.284L441.523 186.964C440.851 186.825 440.35 186.585 440.019 186.244C439.699 185.903 439.539 185.46 439.539 184.916C439.539 184.436 439.662 184.025 439.907 183.684C440.163 183.332 440.521 183.06 440.979 182.868C441.438 182.676 441.971 182.58 442.579 182.58C443.049 182.58 443.491 182.644 443.907 182.772C444.334 182.889 444.718 183.081 445.059 183.348C445.166 183.423 445.235 183.513 445.267 183.62C445.31 183.716 445.315 183.817 445.283 183.924C445.262 184.02 445.214 184.105 445.139 184.18C445.065 184.244 444.974 184.281 444.867 184.292C444.761 184.303 444.649 184.271 444.531 184.196C444.211 183.983 443.886 183.828 443.555 183.732C443.225 183.625 442.899 183.572 442.579 183.572C441.982 183.572 441.529 183.689 441.219 183.924C440.91 184.159 440.755 184.468 440.755 184.852C440.755 185.151 440.851 185.396 441.043 185.588C441.235 185.78 441.534 185.919 441.939 186.004L443.395 186.308C444.089 186.457 444.606 186.697 444.947 187.028C445.299 187.348 445.475 187.785 445.475 188.34C445.475 189.044 445.193 189.604 444.627 190.02C444.062 190.436 443.31 190.644 442.371 190.644ZM448.09 193.492C447.877 193.492 447.717 193.433 447.61 193.316C447.504 193.209 447.45 193.049 447.45 192.836V183.268C447.45 183.055 447.504 182.895 447.61 182.788C447.717 182.671 447.872 182.612 448.074 182.612C448.288 182.612 448.448 182.671 448.554 182.788C448.672 182.895 448.73 183.055 448.73 183.268V184.788L448.554 184.564C448.725 183.956 449.061 183.476 449.562 183.124C450.074 182.761 450.682 182.58 451.386 182.58C452.08 182.58 452.682 182.745 453.194 183.076C453.717 183.396 454.117 183.86 454.394 184.468C454.682 185.065 454.826 185.78 454.826 186.612C454.826 187.433 454.682 188.148 454.394 188.756C454.117 189.353 453.722 189.817 453.21 190.148C452.698 190.479 452.09 190.644 451.386 190.644C450.682 190.644 450.08 190.468 449.578 190.116C449.077 189.753 448.736 189.273 448.554 188.676H448.746V192.836C448.746 193.049 448.688 193.209 448.57 193.316C448.453 193.433 448.293 193.492 448.09 193.492ZM451.114 189.604C451.605 189.604 452.026 189.487 452.378 189.252C452.741 189.017 453.018 188.676 453.21 188.228C453.413 187.78 453.514 187.241 453.514 186.612C453.514 185.641 453.296 184.9 452.858 184.388C452.432 183.876 451.85 183.62 451.114 183.62C450.634 183.62 450.213 183.737 449.85 183.972C449.488 184.196 449.205 184.532 449.002 184.98C448.81 185.417 448.714 185.961 448.714 186.612C448.714 187.572 448.933 188.313 449.37 188.836C449.808 189.348 450.389 189.604 451.114 189.604ZM460.011 190.644C459.253 190.644 458.597 190.479 458.043 190.148C457.488 189.817 457.056 189.353 456.747 188.756C456.448 188.148 456.299 187.433 456.299 186.612C456.299 185.993 456.384 185.439 456.555 184.948C456.725 184.447 456.976 184.02 457.307 183.668C457.637 183.316 458.027 183.049 458.475 182.868C458.933 182.676 459.445 182.58 460.011 182.58C460.768 182.58 461.424 182.745 461.979 183.076C462.533 183.407 462.96 183.876 463.259 184.484C463.568 185.081 463.723 185.791 463.723 186.612C463.723 187.231 463.637 187.785 463.467 188.276C463.296 188.767 463.045 189.193 462.715 189.556C462.384 189.908 461.989 190.18 461.531 190.372C461.083 190.553 460.576 190.644 460.011 190.644ZM460.011 189.604C460.491 189.604 460.912 189.487 461.275 189.252C461.637 189.017 461.915 188.676 462.107 188.228C462.309 187.78 462.411 187.241 462.411 186.612C462.411 185.641 462.192 184.9 461.755 184.388C461.328 183.876 460.747 183.62 460.011 183.62C459.52 183.62 459.093 183.737 458.731 183.972C458.379 184.196 458.101 184.532 457.899 184.98C457.707 185.417 457.611 185.961 457.611 186.612C457.611 187.572 457.829 188.313 458.267 188.836C458.704 189.348 459.285 189.604 460.011 189.604ZM466.325 190.612C466.112 190.612 465.946 190.553 465.829 190.436C465.722 190.319 465.669 190.153 465.669 189.94V183.268C465.669 183.055 465.722 182.895 465.829 182.788C465.936 182.671 466.09 182.612 466.293 182.612C466.496 182.612 466.65 182.671 466.757 182.788C466.874 182.895 466.933 183.055 466.933 183.268V184.564H466.773C466.944 183.935 467.269 183.449 467.749 183.108C468.229 182.767 468.821 182.585 469.525 182.564C469.685 182.553 469.813 182.591 469.909 182.676C470.005 182.751 470.058 182.884 470.069 183.076C470.08 183.257 470.037 183.401 469.941 183.508C469.845 183.615 469.696 183.679 469.493 183.7L469.237 183.732C468.512 183.796 467.952 184.031 467.557 184.436C467.173 184.831 466.981 185.375 466.981 186.068V189.94C466.981 190.153 466.922 190.319 466.805 190.436C466.698 190.553 466.538 190.612 466.325 190.612ZM474.945 190.644C474.337 190.644 473.825 190.537 473.409 190.324C473.004 190.1 472.7 189.78 472.497 189.364C472.295 188.937 472.193 188.42 472.193 187.812V183.732H471.121C470.94 183.732 470.801 183.689 470.705 183.604C470.609 183.508 470.561 183.38 470.561 183.22C470.561 183.06 470.609 182.937 470.705 182.852C470.801 182.767 470.94 182.724 471.121 182.724H472.193V180.884C472.193 180.671 472.252 180.511 472.369 180.404C472.487 180.287 472.647 180.228 472.849 180.228C473.052 180.228 473.207 180.287 473.313 180.404C473.431 180.511 473.489 180.671 473.489 180.884V182.724H475.505C475.687 182.724 475.825 182.767 475.921 182.852C476.017 182.937 476.065 183.06 476.065 183.22C476.065 183.38 476.017 183.508 475.921 183.604C475.825 183.689 475.687 183.732 475.505 183.732H473.489V187.684C473.489 188.292 473.617 188.756 473.873 189.076C474.129 189.385 474.545 189.54 475.121 189.54C475.324 189.54 475.495 189.519 475.633 189.476C475.783 189.433 475.905 189.412 476.001 189.412C476.097 189.401 476.177 189.433 476.241 189.508C476.305 189.583 476.337 189.711 476.337 189.892C476.337 190.02 476.311 190.137 476.257 190.244C476.215 190.351 476.135 190.425 476.017 190.468C475.889 190.511 475.719 190.548 475.505 190.58C475.303 190.623 475.116 190.644 474.945 190.644ZM480.043 190.644C479.563 190.644 479.078 190.585 478.587 190.468C478.107 190.351 477.659 190.148 477.243 189.86C477.136 189.785 477.062 189.7 477.019 189.604C476.976 189.497 476.96 189.396 476.971 189.3C476.992 189.193 477.035 189.103 477.099 189.028C477.174 188.953 477.259 188.911 477.355 188.9C477.462 188.879 477.579 188.9 477.707 188.964C478.123 189.22 478.523 189.401 478.907 189.508C479.302 189.604 479.691 189.652 480.075 189.652C480.683 189.652 481.142 189.54 481.451 189.316C481.76 189.092 481.915 188.788 481.915 188.404C481.915 188.105 481.814 187.871 481.611 187.7C481.408 187.519 481.088 187.38 480.651 187.284L479.195 186.964C478.523 186.825 478.022 186.585 477.691 186.244C477.371 185.903 477.211 185.46 477.211 184.916C477.211 184.436 477.334 184.025 477.579 183.684C477.835 183.332 478.192 183.06 478.651 182.868C479.11 182.676 479.643 182.58 480.251 182.58C480.72 182.58 481.163 182.644 481.579 182.772C482.006 182.889 482.39 183.081 482.731 183.348C482.838 183.423 482.907 183.513 482.939 183.62C482.982 183.716 482.987 183.817 482.955 183.924C482.934 184.02 482.886 184.105 482.811 184.18C482.736 184.244 482.646 184.281 482.539 184.292C482.432 184.303 482.32 184.271 482.203 184.196C481.883 183.983 481.558 183.828 481.227 183.732C480.896 183.625 480.571 183.572 480.251 183.572C479.654 183.572 479.2 183.689 478.891 183.924C478.582 184.159 478.427 184.468 478.427 184.852C478.427 185.151 478.523 185.396 478.715 185.588C478.907 185.78 479.206 185.919 479.611 186.004L481.067 186.308C481.76 186.457 482.278 186.697 482.619 187.028C482.971 187.348 483.147 187.785 483.147 188.34C483.147 189.044 482.864 189.604 482.299 190.02C481.734 190.436 480.982 190.644 480.043 190.644Z" fill="#1F1F23"/>
</svg>
