<svg width="273" height="411" viewBox="0 0 273 411" fill="none" xmlns="http://www.w3.org/2000/svg">
<rect width="273" height="411" rx="10" fill="#F2F2F2"/>
<mask id="path-2-inside-1_314_11311" fill="white">
<path d="M48.4341 138.107C45.3398 124.21 45.5787 109.777 49.1311 95.9892C52.6835 82.2015 59.4487 69.4503 68.8734 58.7781C78.2981 48.1059 90.1148 39.8157 103.357 34.5855C116.6 29.3552 130.892 27.3334 145.066 28.6852L141.64 64.6111C133.135 63.8 124.56 65.0131 116.614 68.1513C108.669 71.2894 101.579 76.2635 95.924 82.6668C90.2692 89.0701 86.2101 96.7208 84.0787 104.993C81.9472 113.266 81.8039 121.926 83.6605 130.264L48.4341 138.107Z"/>
</mask>
<path d="M48.4341 138.107C45.3398 124.21 45.5787 109.777 49.1311 95.9892C52.6835 82.2015 59.4487 69.4503 68.8734 58.7781C78.2981 48.1059 90.1148 39.8157 103.357 34.5855C116.6 29.3552 130.892 27.3334 145.066 28.6852L141.64 64.6111C133.135 63.8 124.56 65.0131 116.614 68.1513C108.669 71.2894 101.579 76.2635 95.924 82.6668C90.2692 89.0701 86.2101 96.7208 84.0787 104.993C81.9472 113.266 81.8039 121.926 83.6605 130.264L48.4341 138.107Z" fill="#91E184" stroke="white" stroke-width="4" stroke-linejoin="round" mask="url(#path-2-inside-1_314_11311)"/>
<mask id="path-3-inside-2_314_11311" fill="white">
<path d="M144.652 28.6466C156.976 29.7647 168.938 33.4061 179.795 39.3443C190.652 45.2826 200.171 53.3908 207.761 63.1647C215.35 72.9387 220.848 84.1694 223.912 96.1588C226.977 108.148 227.542 120.64 225.573 132.857L189.944 127.114C191.125 119.784 190.786 112.289 188.947 105.095C187.109 97.9016 183.81 91.1632 179.256 85.2988C174.703 79.4344 168.991 74.5695 162.477 71.0066C155.963 67.4436 148.786 65.2588 141.391 64.5879L144.652 28.6466Z"/>
</mask>
<path d="M144.652 28.6466C156.976 29.7647 168.938 33.4061 179.795 39.3443C190.652 45.2826 200.171 53.3908 207.761 63.1647C215.35 72.9387 220.848 84.1694 223.912 96.1588C226.977 108.148 227.542 120.64 225.573 132.857L189.944 127.114C191.125 119.784 190.786 112.289 188.947 105.095C187.109 97.9016 183.81 91.1632 179.256 85.2988C174.703 79.4344 168.991 74.5695 162.477 71.0066C155.963 67.4436 148.786 65.2588 141.391 64.5879L144.652 28.6466Z" fill="#98CEFF" stroke="white" stroke-width="4" stroke-linejoin="round" mask="url(#path-3-inside-2_314_11311)"/>
<mask id="path-4-inside-3_314_11311" fill="white">
<path d="M225.741 131.768C223.842 144.546 219.22 156.766 212.19 167.603C205.159 178.44 195.884 187.641 184.99 194.584C174.096 201.527 161.839 206.049 149.047 207.845C136.255 209.642 123.226 208.67 110.841 204.997L121.105 170.398C128.535 172.602 136.353 173.185 144.028 172.107C151.703 171.029 159.058 168.316 165.594 164.15C172.13 159.985 177.696 154.464 181.914 147.962C186.132 141.46 188.905 134.127 190.045 126.461L225.741 131.768Z"/>
</mask>
<path d="M225.741 131.768C223.842 144.546 219.22 156.766 212.19 167.603C205.159 178.44 195.884 187.641 184.99 194.584C174.096 201.527 161.839 206.049 149.047 207.845C136.255 209.642 123.226 208.67 110.841 204.997L121.105 170.398C128.535 172.602 136.353 173.185 144.028 172.107C151.703 171.029 159.058 168.316 165.594 164.15C172.13 159.985 177.696 154.464 181.914 147.962C186.132 141.46 188.905 134.127 190.045 126.461L225.741 131.768Z" fill="#FFE666" stroke="white" stroke-width="4" stroke-linejoin="round" mask="url(#path-4-inside-3_314_11311)"/>
<mask id="path-5-inside-4_314_11311" fill="white">
<path d="M111.132 205.082C95.4947 200.501 81.3899 191.77 70.3156 179.816C59.2414 167.863 51.6111 153.133 48.2352 137.192L83.5411 129.715C85.5667 139.28 90.1448 148.118 96.7894 155.29C103.434 162.462 111.897 167.7 121.279 170.449L111.132 205.082Z"/>
</mask>
<path d="M111.132 205.082C95.4947 200.501 81.3899 191.77 70.3156 179.816C59.2414 167.863 51.6111 153.133 48.2352 137.192L83.5411 129.715C85.5667 139.28 90.1448 148.118 96.7894 155.29C103.434 162.462 111.897 167.7 121.279 170.449L111.132 205.082Z" fill="#EFA247" stroke="white" stroke-width="4" stroke-linejoin="round" mask="url(#path-5-inside-4_314_11311)"/>
<circle cx="22.5" cy="248" r="4.5" fill="#91E184"/>
<path d="M51.656 253.144C51.0373 253.144 50.4187 253.059 49.8 252.888C49.1813 252.717 48.6427 252.461 48.184 252.12C48.0347 252.013 47.9333 251.891 47.88 251.752C47.8267 251.613 47.8107 251.485 47.832 251.368C47.864 251.24 47.928 251.133 48.024 251.048C48.12 250.963 48.2373 250.915 48.376 250.904C48.5147 250.883 48.664 250.92 48.824 251.016C49.2827 251.315 49.736 251.533 50.184 251.672C50.6427 251.8 51.1173 251.864 51.608 251.864C52.1307 251.864 52.5733 251.789 52.936 251.64C53.2987 251.48 53.5707 251.251 53.752 250.952C53.944 250.643 54.04 250.275 54.04 249.848C54.04 249.208 53.832 248.728 53.416 248.408C53 248.077 52.392 247.912 51.592 247.912H50.472C50.248 247.912 50.0773 247.859 49.96 247.752C49.8427 247.635 49.784 247.48 49.784 247.288C49.784 247.085 49.8427 246.931 49.96 246.824C50.0773 246.717 50.248 246.664 50.472 246.664H51.464C51.9333 246.664 52.3333 246.584 52.664 246.424C52.9947 246.253 53.2507 246.019 53.432 245.72C53.624 245.421 53.72 245.059 53.72 244.632C53.72 244.056 53.5333 243.619 53.16 243.32C52.7867 243.011 52.248 242.856 51.544 242.856C51.0853 242.856 50.6533 242.925 50.248 243.064C49.8427 243.192 49.432 243.411 49.016 243.72C48.8773 243.816 48.7387 243.864 48.6 243.864C48.4613 243.853 48.344 243.805 48.248 243.72C48.1627 243.635 48.104 243.533 48.072 243.416C48.04 243.288 48.0453 243.155 48.088 243.016C48.1307 242.877 48.2267 242.755 48.376 242.648C48.8133 242.307 49.3147 242.045 49.88 241.864C50.456 241.672 51.048 241.576 51.656 241.576C52.392 241.576 53.0213 241.693 53.544 241.928C54.0773 242.163 54.4827 242.499 54.76 242.936C55.0373 243.363 55.176 243.88 55.176 244.488C55.176 244.947 55.0907 245.368 54.92 245.752C54.7493 246.125 54.504 246.445 54.184 246.712C53.8747 246.968 53.496 247.149 53.048 247.256V247.08C53.8267 247.219 54.4293 247.544 54.856 248.056C55.2933 248.557 55.512 249.187 55.512 249.944C55.512 250.595 55.352 251.165 55.032 251.656C54.7227 252.136 54.28 252.504 53.704 252.76C53.128 253.016 52.4453 253.144 51.656 253.144ZM61.3938 253.144C60.0924 253.144 59.1004 252.648 58.4178 251.656C57.7458 250.653 57.4098 249.219 57.4098 247.352C57.4098 246.083 57.5591 245.021 57.8578 244.168C58.1671 243.315 58.6151 242.669 59.2018 242.232C59.7991 241.795 60.5298 241.576 61.3938 241.576C62.7058 241.576 63.6978 242.067 64.3698 243.048C65.0418 244.019 65.3778 245.448 65.3778 247.336C65.3778 248.584 65.2231 249.64 64.9138 250.504C64.6151 251.368 64.1724 252.024 63.5858 252.472C62.9991 252.92 62.2684 253.144 61.3938 253.144ZM61.3938 251.88C62.2471 251.88 62.8818 251.512 63.2978 250.776C63.7138 250.04 63.9218 248.893 63.9218 247.336C63.9218 245.779 63.7138 244.643 63.2978 243.928C62.8924 243.203 62.2578 242.84 61.3938 242.84C60.5404 242.84 59.9058 243.203 59.4898 243.928C59.0738 244.643 58.8658 245.779 58.8658 247.336C58.8658 248.893 59.0738 250.04 59.4898 250.776C59.9058 251.512 60.5404 251.88 61.3938 251.88ZM71.0995 252.984C71.0142 253.133 70.9075 253.229 70.7795 253.272C70.6622 253.325 70.5448 253.336 70.4275 253.304C70.3102 253.283 70.2088 253.224 70.1235 253.128C70.0488 253.043 70.0062 252.936 69.9955 252.808C69.9848 252.68 70.0168 252.541 70.0915 252.392L76.2035 241.768C76.2888 241.619 76.3902 241.517 76.5075 241.464C76.6248 241.411 76.7422 241.4 76.8595 241.432C76.9768 241.453 77.0728 241.512 77.1475 241.608C77.2328 241.693 77.2862 241.8 77.3075 241.928C77.3288 242.056 77.2968 242.195 77.2115 242.344L71.0995 252.984ZM69.7875 248.472C68.9235 248.472 68.2462 248.168 67.7555 247.56C67.2755 246.952 67.0355 246.104 67.0355 245.016C67.0355 244.291 67.1422 243.672 67.3555 243.16C67.5795 242.648 67.8942 242.259 68.2995 241.992C68.7155 241.715 69.2115 241.576 69.7875 241.576C70.6408 241.576 71.3128 241.88 71.8035 242.488C72.2942 243.096 72.5395 243.939 72.5395 245.016C72.5395 245.741 72.4275 246.365 72.2035 246.888C71.9902 247.4 71.6755 247.795 71.2595 248.072C70.8542 248.339 70.3635 248.472 69.7875 248.472ZM69.7875 247.432C70.1075 247.432 70.3795 247.347 70.6035 247.176C70.8275 246.995 70.9982 246.728 71.1155 246.376C71.2328 246.013 71.2915 245.56 71.2915 245.016C71.2915 244.216 71.1582 243.619 70.8915 243.224C70.6248 242.819 70.2568 242.616 69.7875 242.616C69.4782 242.616 69.2062 242.707 68.9715 242.888C68.7475 243.059 68.5715 243.325 68.4435 243.688C68.3262 244.04 68.2675 244.483 68.2675 245.016C68.2675 245.827 68.4008 246.435 68.6675 246.84C68.9448 247.235 69.3182 247.432 69.7875 247.432ZM77.5315 253.144C76.6675 253.144 75.9902 252.84 75.4995 252.232C75.0195 251.624 74.7795 250.776 74.7795 249.688C74.7795 248.963 74.8862 248.344 75.0995 247.832C75.3235 247.32 75.6382 246.931 76.0435 246.664C76.4595 246.387 76.9555 246.248 77.5315 246.248C78.3848 246.248 79.0568 246.552 79.5475 247.16C80.0382 247.768 80.2835 248.611 80.2835 249.688C80.2835 250.413 80.1715 251.037 79.9475 251.56C79.7342 252.072 79.4195 252.467 79.0035 252.744C78.5982 253.011 78.1075 253.144 77.5315 253.144ZM77.5315 252.104C77.8515 252.104 78.1235 252.019 78.3475 251.848C78.5715 251.667 78.7422 251.4 78.8595 251.048C78.9768 250.685 79.0355 250.232 79.0355 249.688C79.0355 248.888 78.9022 248.291 78.6355 247.896C78.3688 247.491 78.0008 247.288 77.5315 247.288C77.2222 247.288 76.9502 247.379 76.7155 247.56C76.4915 247.731 76.3155 247.997 76.1875 248.36C76.0702 248.712 76.0115 249.155 76.0115 249.688C76.0115 250.499 76.1448 251.107 76.4115 251.512C76.6888 251.907 77.0622 252.104 77.5315 252.104Z" fill="#1F1F23"/>
<path d="M94.096 253.112C93.8613 253.112 93.68 253.048 93.552 252.92C93.424 252.781 93.36 252.589 93.36 252.344V242.376C93.36 242.12 93.424 241.928 93.552 241.8C93.68 241.672 93.8613 241.608 94.096 241.608C94.3413 241.608 94.528 241.672 94.656 241.8C94.784 241.928 94.848 242.12 94.848 242.376V252.344C94.848 252.589 94.784 252.781 94.656 252.92C94.5387 253.048 94.352 253.112 94.096 253.112ZM100.588 253.144C99.9582 253.144 99.4302 253.032 99.0035 252.808C98.5875 252.584 98.2728 252.259 98.0595 251.832C97.8568 251.405 97.7555 250.883 97.7555 250.264V246.328H96.7315C96.5395 246.328 96.3902 246.28 96.2835 246.184C96.1768 246.077 96.1235 245.939 96.1235 245.768C96.1235 245.587 96.1768 245.448 96.2835 245.352C96.3902 245.256 96.5395 245.208 96.7315 245.208H97.7555V243.464C97.7555 243.219 97.8195 243.037 97.9475 242.92C98.0755 242.792 98.2568 242.728 98.4915 242.728C98.7262 242.728 98.9022 242.792 99.0195 242.92C99.1475 243.037 99.2115 243.219 99.2115 243.464V245.208H101.148C101.35 245.208 101.505 245.256 101.612 245.352C101.718 245.448 101.772 245.587 101.772 245.768C101.772 245.939 101.718 246.077 101.612 246.184C101.505 246.28 101.35 246.328 101.148 246.328H99.2115V250.136C99.2115 250.723 99.3342 251.165 99.5795 251.464C99.8248 251.763 100.23 251.912 100.796 251.912C100.998 251.912 101.169 251.896 101.308 251.864C101.446 251.821 101.569 251.8 101.676 251.8C101.772 251.789 101.852 251.821 101.916 251.896C101.99 251.971 102.028 252.109 102.028 252.312C102.028 252.461 102.001 252.6 101.948 252.728C101.905 252.845 101.814 252.925 101.676 252.968C101.548 253.011 101.377 253.048 101.164 253.08C100.95 253.123 100.758 253.144 100.588 253.144ZM103.891 245.048C103.785 245.187 103.667 245.267 103.539 245.288C103.422 245.309 103.315 245.288 103.219 245.224C103.134 245.16 103.086 245.064 103.075 244.936C103.065 244.808 103.118 244.669 103.235 244.52C103.417 244.296 103.539 244.067 103.603 243.832C103.678 243.587 103.715 243.368 103.715 243.176L103.779 243.544C103.481 243.544 103.235 243.459 103.043 243.288C102.862 243.117 102.771 242.888 102.771 242.6C102.771 242.323 102.857 242.099 103.027 241.928C103.198 241.747 103.427 241.656 103.715 241.656C104.003 241.656 104.233 241.757 104.403 241.96C104.585 242.152 104.675 242.44 104.675 242.824C104.675 243.048 104.649 243.288 104.595 243.544C104.553 243.789 104.478 244.04 104.371 244.296C104.265 244.552 104.105 244.803 103.891 245.048ZM108.981 253.144C108.501 253.144 108.016 253.091 107.525 252.984C107.045 252.867 106.592 252.669 106.165 252.392C106.048 252.317 105.962 252.227 105.909 252.12C105.866 252.003 105.85 251.891 105.861 251.784C105.882 251.667 105.93 251.565 106.005 251.48C106.08 251.395 106.17 251.347 106.277 251.336C106.394 251.315 106.517 251.341 106.645 251.416C107.061 251.651 107.461 251.816 107.845 251.912C108.24 252.008 108.629 252.056 109.013 252.056C109.6 252.056 110.042 251.949 110.341 251.736C110.64 251.523 110.789 251.24 110.789 250.888C110.789 250.589 110.688 250.36 110.485 250.2C110.293 250.029 109.989 249.901 109.573 249.816L108.085 249.512C107.424 249.363 106.922 249.117 106.581 248.776C106.25 248.424 106.085 247.976 106.085 247.432C106.085 246.952 106.213 246.536 106.469 246.184C106.736 245.821 107.104 245.544 107.573 245.352C108.042 245.16 108.581 245.064 109.189 245.064C109.658 245.064 110.101 245.128 110.517 245.256C110.944 245.373 111.328 245.555 111.669 245.8C111.797 245.875 111.877 245.971 111.909 246.088C111.952 246.195 111.957 246.307 111.925 246.424C111.904 246.531 111.856 246.621 111.781 246.696C111.706 246.771 111.61 246.819 111.493 246.84C111.376 246.851 111.248 246.819 111.109 246.744C110.8 246.531 110.48 246.381 110.149 246.296C109.829 246.2 109.509 246.152 109.189 246.152C108.613 246.152 108.176 246.264 107.877 246.488C107.589 246.712 107.445 247.005 107.445 247.368C107.445 247.645 107.53 247.875 107.701 248.056C107.882 248.237 108.165 248.371 108.549 248.456L110.037 248.76C110.73 248.909 111.253 249.149 111.605 249.48C111.957 249.8 112.133 250.237 112.133 250.792C112.133 251.517 111.845 252.093 111.269 252.52C110.704 252.936 109.941 253.144 108.981 253.144ZM122.279 253.144C121.575 253.144 120.973 252.968 120.471 252.616C119.97 252.264 119.634 251.789 119.463 251.192L119.639 250.952V252.36C119.639 252.605 119.575 252.792 119.447 252.92C119.33 253.048 119.154 253.112 118.919 253.112C118.695 253.112 118.519 253.048 118.391 252.92C118.263 252.792 118.199 252.605 118.199 252.36V242.344C118.199 242.099 118.263 241.917 118.391 241.8C118.519 241.672 118.695 241.608 118.919 241.608C119.154 241.608 119.335 241.672 119.463 241.8C119.591 241.917 119.655 242.099 119.655 242.344V246.968H119.479C119.65 246.392 119.986 245.933 120.487 245.592C120.989 245.24 121.586 245.064 122.279 245.064C122.973 245.064 123.575 245.229 124.087 245.56C124.61 245.88 125.01 246.344 125.287 246.952C125.575 247.549 125.719 248.264 125.719 249.096C125.719 249.917 125.575 250.637 125.287 251.256C124.999 251.864 124.599 252.333 124.087 252.664C123.575 252.984 122.973 253.144 122.279 253.144ZM121.943 251.992C122.402 251.992 122.802 251.88 123.143 251.656C123.495 251.432 123.767 251.107 123.959 250.68C124.151 250.253 124.247 249.725 124.247 249.096C124.247 248.157 124.039 247.443 123.623 246.952C123.207 246.461 122.647 246.216 121.943 246.216C121.474 246.216 121.063 246.328 120.711 246.552C120.37 246.765 120.103 247.085 119.911 247.512C119.73 247.939 119.639 248.467 119.639 249.096C119.639 250.035 119.847 250.755 120.263 251.256C120.679 251.747 121.239 251.992 121.943 251.992ZM130.902 253.144C130.134 253.144 129.467 252.979 128.902 252.648C128.337 252.317 127.899 251.848 127.59 251.24C127.281 250.632 127.126 249.917 127.126 249.096C127.126 248.477 127.211 247.923 127.382 247.432C127.563 246.931 127.819 246.504 128.15 246.152C128.481 245.8 128.875 245.533 129.334 245.352C129.803 245.16 130.326 245.064 130.902 245.064C131.67 245.064 132.337 245.229 132.902 245.56C133.467 245.891 133.905 246.36 134.214 246.968C134.523 247.565 134.678 248.275 134.678 249.096C134.678 249.715 134.587 250.275 134.406 250.776C134.235 251.277 133.985 251.704 133.654 252.056C133.323 252.408 132.923 252.68 132.454 252.872C131.995 253.053 131.478 253.144 130.902 253.144ZM130.902 251.992C131.371 251.992 131.777 251.88 132.118 251.656C132.47 251.432 132.737 251.107 132.918 250.68C133.11 250.253 133.206 249.725 133.206 249.096C133.206 248.157 132.998 247.443 132.582 246.952C132.166 246.461 131.606 246.216 130.902 246.216C130.443 246.216 130.038 246.328 129.686 246.552C129.345 246.765 129.078 247.085 128.886 247.512C128.694 247.939 128.598 248.467 128.598 249.096C128.598 250.035 128.806 250.755 129.222 251.256C129.649 251.747 130.209 251.992 130.902 251.992ZM137.295 253.112C137.05 253.112 136.863 253.048 136.735 252.92C136.607 252.792 136.543 252.605 136.543 252.36V245.832C136.543 245.587 136.607 245.405 136.735 245.288C136.863 245.16 137.039 245.096 137.263 245.096C137.487 245.096 137.658 245.16 137.775 245.288C137.903 245.405 137.967 245.587 137.967 245.832V247.064H137.807C137.978 246.424 138.298 245.939 138.767 245.608C139.236 245.277 139.828 245.091 140.543 245.048C140.714 245.037 140.852 245.08 140.959 245.176C141.066 245.261 141.124 245.411 141.135 245.624C141.146 245.827 141.098 245.992 140.991 246.12C140.884 246.237 140.719 246.307 140.495 246.328L140.207 246.344C139.503 246.419 138.959 246.648 138.575 247.032C138.202 247.416 138.015 247.944 138.015 248.616V252.36C138.015 252.605 137.951 252.792 137.823 252.92C137.706 253.048 137.53 253.112 137.295 253.112ZM143.107 253.08C142.883 253.08 142.707 253.011 142.579 252.872C142.451 252.733 142.387 252.541 142.387 252.296V245.912C142.387 245.656 142.451 245.464 142.579 245.336C142.707 245.197 142.883 245.128 143.107 245.128C143.341 245.128 143.523 245.197 143.651 245.336C143.779 245.464 143.843 245.656 143.843 245.912V252.296C143.843 252.541 143.779 252.733 143.651 252.872C143.533 253.011 143.352 253.08 143.107 253.08ZM143.107 243.4C142.819 243.4 142.589 243.325 142.419 243.176C142.259 243.016 142.179 242.808 142.179 242.552C142.179 242.275 142.259 242.067 142.419 241.928C142.589 241.779 142.819 241.704 143.107 241.704C143.416 241.704 143.645 241.779 143.795 241.928C143.955 242.067 144.035 242.275 144.035 242.552C144.035 242.808 143.955 243.016 143.795 243.176C143.645 243.325 143.416 243.4 143.107 243.4ZM146.904 253.112C146.68 253.112 146.504 253.048 146.376 252.92C146.248 252.792 146.184 252.605 146.184 252.36V245.832C146.184 245.587 146.248 245.405 146.376 245.288C146.504 245.16 146.68 245.096 146.904 245.096C147.128 245.096 147.298 245.16 147.416 245.288C147.544 245.405 147.608 245.587 147.608 245.832V247.144L147.432 246.904C147.656 246.296 148.018 245.837 148.52 245.528C149.032 245.219 149.613 245.064 150.264 245.064C150.893 245.064 151.41 245.176 151.816 245.4C152.221 245.624 152.525 245.965 152.728 246.424C152.93 246.883 153.032 247.464 153.032 248.168V252.36C153.032 252.605 152.968 252.792 152.84 252.92C152.722 253.048 152.546 253.112 152.312 253.112C152.077 253.112 151.896 253.048 151.768 252.92C151.64 252.792 151.576 252.605 151.576 252.36V248.248C151.576 247.555 151.442 247.048 151.176 246.728C150.909 246.408 150.482 246.248 149.896 246.248C149.213 246.248 148.664 246.461 148.248 246.888C147.842 247.304 147.64 247.869 147.64 248.584V252.36C147.64 252.861 147.394 253.112 146.904 253.112ZM158.844 256.024C158.268 256.024 157.708 255.96 157.164 255.832C156.631 255.704 156.145 255.507 155.708 255.24C155.569 255.155 155.473 255.053 155.42 254.936C155.377 254.829 155.367 254.717 155.388 254.6C155.42 254.483 155.473 254.376 155.548 254.28C155.633 254.195 155.729 254.136 155.836 254.104C155.953 254.083 156.071 254.109 156.188 254.184C156.657 254.451 157.105 254.632 157.532 254.728C157.959 254.824 158.364 254.872 158.748 254.872C159.505 254.872 160.071 254.675 160.444 254.28C160.828 253.896 161.02 253.331 161.02 252.584V250.856H161.164C161.015 251.453 160.679 251.928 160.156 252.28C159.644 252.632 159.047 252.808 158.364 252.808C157.66 252.808 157.047 252.648 156.524 252.328C156.001 251.997 155.596 251.544 155.308 250.968C155.02 250.381 154.876 249.704 154.876 248.936C154.876 248.349 154.956 247.821 155.116 247.352C155.287 246.872 155.521 246.467 155.82 246.136C156.129 245.795 156.497 245.533 156.924 245.352C157.351 245.16 157.831 245.064 158.364 245.064C159.057 245.064 159.66 245.24 160.172 245.592C160.684 245.944 161.015 246.419 161.164 247.016L160.988 247.24V245.832C160.988 245.587 161.052 245.405 161.18 245.288C161.308 245.16 161.489 245.096 161.724 245.096C161.948 245.096 162.124 245.16 162.252 245.288C162.38 245.405 162.444 245.587 162.444 245.832V252.392C162.444 253.597 162.135 254.504 161.516 255.112C160.908 255.72 160.017 256.024 158.844 256.024ZM158.684 251.656C159.164 251.656 159.575 251.549 159.916 251.336C160.268 251.112 160.535 250.797 160.716 250.392C160.908 249.976 161.004 249.491 161.004 248.936C161.004 248.093 160.796 247.432 160.38 246.952C159.964 246.461 159.399 246.216 158.684 246.216C158.204 246.216 157.788 246.328 157.436 246.552C157.095 246.765 156.828 247.075 156.636 247.48C156.444 247.885 156.348 248.371 156.348 248.936C156.348 249.768 156.556 250.429 156.972 250.92C157.399 251.411 157.969 251.656 158.684 251.656Z" fill="#1F1F23"/>
<circle cx="22.5" cy="282" r="4.5" fill="#98CEFF"/>
<path d="M49.08 287C48.824 287 48.632 286.941 48.504 286.824C48.3867 286.696 48.328 286.525 48.328 286.312C48.328 286.184 48.36 286.056 48.424 285.928C48.488 285.8 48.584 285.672 48.712 285.544L52.216 281.784C52.7493 281.219 53.1333 280.696 53.368 280.216C53.6027 279.736 53.72 279.251 53.72 278.76C53.72 278.141 53.528 277.672 53.144 277.352C52.7707 277.021 52.2213 276.856 51.496 276.856C51.048 276.856 50.616 276.931 50.2 277.08C49.7947 277.219 49.3947 277.437 49 277.736C48.8507 277.843 48.712 277.891 48.584 277.88C48.456 277.869 48.344 277.821 48.248 277.736C48.1627 277.64 48.0987 277.533 48.056 277.416C48.024 277.288 48.0293 277.155 48.072 277.016C48.1147 276.877 48.2053 276.76 48.344 276.664C48.7813 276.323 49.288 276.056 49.864 275.864C50.44 275.672 51.032 275.576 51.64 275.576C52.408 275.576 53.0533 275.699 53.576 275.944C54.1093 276.179 54.5147 276.525 54.792 276.984C55.0693 277.432 55.208 277.981 55.208 278.632C55.208 279.08 55.1333 279.523 54.984 279.96C54.8347 280.387 54.6107 280.824 54.312 281.272C54.024 281.72 53.6507 282.184 53.192 282.664L49.864 286.168V285.736H55.112C55.3253 285.736 55.4853 285.789 55.592 285.896C55.7093 286.003 55.768 286.157 55.768 286.36C55.768 286.563 55.7093 286.723 55.592 286.84C55.4853 286.947 55.3253 287 55.112 287H49.08ZM61.3938 287.144C60.5404 287.144 59.8098 287.021 59.2018 286.776C58.6044 286.531 58.1404 286.173 57.8098 285.704C57.4898 285.235 57.3298 284.664 57.3298 283.992C57.3298 283.469 57.4364 283.005 57.6497 282.6C57.8738 282.184 58.1778 281.848 58.5618 281.592C58.9458 281.336 59.3884 281.176 59.8898 281.112V281.368C59.1858 281.219 58.6258 280.893 58.2098 280.392C57.8044 279.88 57.6018 279.277 57.6018 278.584C57.6018 277.955 57.7564 277.416 58.0658 276.968C58.3858 276.509 58.8284 276.163 59.3938 275.928C59.9591 275.693 60.6258 275.576 61.3938 275.576C62.1724 275.576 62.8444 275.693 63.4098 275.928C63.9751 276.163 64.4124 276.509 64.7218 276.968C65.0311 277.416 65.1858 277.955 65.1858 278.584C65.1858 279.043 65.0898 279.469 64.8978 279.864C64.7164 280.259 64.4551 280.584 64.1138 280.84C63.7831 281.096 63.3884 281.272 62.9298 281.368V281.112C63.6764 281.219 64.2844 281.533 64.7538 282.056C65.2231 282.568 65.4578 283.213 65.4578 283.992C65.4578 284.664 65.2924 285.235 64.9618 285.704C64.6418 286.173 64.1778 286.531 63.5698 286.776C62.9724 287.021 62.2471 287.144 61.3938 287.144ZM61.3938 285.944C62.2684 285.944 62.9298 285.773 63.3778 285.432C63.8258 285.091 64.0498 284.584 64.0498 283.912C64.0498 283.229 63.8258 282.723 63.3778 282.392C62.9298 282.061 62.2684 281.896 61.3938 281.896C60.5298 281.896 59.8684 282.061 59.4098 282.392C58.9618 282.723 58.7378 283.229 58.7378 283.912C58.7378 284.584 58.9618 285.091 59.4098 285.432C59.8684 285.773 60.5298 285.944 61.3938 285.944ZM61.3938 280.68C61.8951 280.68 62.3218 280.605 62.6738 280.456C63.0258 280.296 63.2978 280.067 63.4898 279.768C63.6818 279.469 63.7778 279.117 63.7778 278.712C63.7778 278.104 63.5644 277.629 63.1378 277.288C62.7218 276.947 62.1404 276.776 61.3938 276.776C60.6471 276.776 60.0658 276.947 59.6498 277.288C59.2338 277.629 59.0258 278.104 59.0258 278.712C59.0258 279.331 59.2338 279.816 59.6498 280.168C60.0658 280.509 60.6471 280.68 61.3938 280.68ZM71.0995 286.984C71.0142 287.133 70.9075 287.229 70.7795 287.272C70.6622 287.325 70.5448 287.336 70.4275 287.304C70.3102 287.283 70.2088 287.224 70.1235 287.128C70.0488 287.043 70.0062 286.936 69.9955 286.808C69.9848 286.68 70.0168 286.541 70.0915 286.392L76.2035 275.768C76.2888 275.619 76.3902 275.517 76.5075 275.464C76.6248 275.411 76.7422 275.4 76.8595 275.432C76.9768 275.453 77.0728 275.512 77.1475 275.608C77.2328 275.693 77.2862 275.8 77.3075 275.928C77.3288 276.056 77.2968 276.195 77.2115 276.344L71.0995 286.984ZM69.7875 282.472C68.9235 282.472 68.2462 282.168 67.7555 281.56C67.2755 280.952 67.0355 280.104 67.0355 279.016C67.0355 278.291 67.1422 277.672 67.3555 277.16C67.5795 276.648 67.8942 276.259 68.2995 275.992C68.7155 275.715 69.2115 275.576 69.7875 275.576C70.6408 275.576 71.3128 275.88 71.8035 276.488C72.2942 277.096 72.5395 277.939 72.5395 279.016C72.5395 279.741 72.4275 280.365 72.2035 280.888C71.9902 281.4 71.6755 281.795 71.2595 282.072C70.8542 282.339 70.3635 282.472 69.7875 282.472ZM69.7875 281.432C70.1075 281.432 70.3795 281.347 70.6035 281.176C70.8275 280.995 70.9982 280.728 71.1155 280.376C71.2328 280.013 71.2915 279.56 71.2915 279.016C71.2915 278.216 71.1582 277.619 70.8915 277.224C70.6248 276.819 70.2568 276.616 69.7875 276.616C69.4782 276.616 69.2062 276.707 68.9715 276.888C68.7475 277.059 68.5715 277.325 68.4435 277.688C68.3262 278.04 68.2675 278.483 68.2675 279.016C68.2675 279.827 68.4008 280.435 68.6675 280.84C68.9448 281.235 69.3182 281.432 69.7875 281.432ZM77.5315 287.144C76.6675 287.144 75.9902 286.84 75.4995 286.232C75.0195 285.624 74.7795 284.776 74.7795 283.688C74.7795 282.963 74.8862 282.344 75.0995 281.832C75.3235 281.32 75.6382 280.931 76.0435 280.664C76.4595 280.387 76.9555 280.248 77.5315 280.248C78.3848 280.248 79.0568 280.552 79.5475 281.16C80.0382 281.768 80.2835 282.611 80.2835 283.688C80.2835 284.413 80.1715 285.037 79.9475 285.56C79.7342 286.072 79.4195 286.467 79.0035 286.744C78.5982 287.011 78.1075 287.144 77.5315 287.144ZM77.5315 286.104C77.8515 286.104 78.1235 286.019 78.3475 285.848C78.5715 285.667 78.7422 285.4 78.8595 285.048C78.9768 284.685 79.0355 284.232 79.0355 283.688C79.0355 282.888 78.9022 282.291 78.6355 281.896C78.3688 281.491 78.0008 281.288 77.5315 281.288C77.2222 281.288 76.9502 281.379 76.7155 281.56C76.4915 281.731 76.3155 281.997 76.1875 282.36C76.0702 282.712 76.0115 283.155 76.0115 283.688C76.0115 284.499 76.1448 285.107 76.4115 285.512C76.6888 285.907 77.0622 286.104 77.5315 286.104Z" fill="#1F1F23"/>
<path d="M94.064 287.112C93.8507 287.112 93.6853 287.048 93.568 286.92C93.4507 286.792 93.392 286.621 93.392 286.408V276.312C93.392 276.088 93.4507 275.917 93.568 275.8C93.696 275.672 93.8667 275.608 94.08 275.608C94.272 275.608 94.4213 275.645 94.528 275.72C94.6453 275.795 94.752 275.923 94.848 276.104L99.136 284.152H98.64L102.928 276.104C103.024 275.923 103.125 275.795 103.232 275.72C103.339 275.645 103.488 275.608 103.68 275.608C103.893 275.608 104.059 275.672 104.176 275.8C104.293 275.917 104.352 276.088 104.352 276.312V286.408C104.352 286.621 104.293 286.792 104.176 286.92C104.069 287.048 103.904 287.112 103.68 287.112C103.456 287.112 103.285 287.048 103.168 286.92C103.061 286.792 103.008 286.621 103.008 286.408V277.784H103.36L99.52 284.968C99.4347 285.107 99.344 285.213 99.248 285.288C99.1627 285.352 99.04 285.384 98.88 285.384C98.7307 285.384 98.6027 285.347 98.496 285.272C98.4 285.197 98.3147 285.096 98.24 284.968L94.352 277.768H94.736V286.408C94.736 286.621 94.6773 286.792 94.56 286.92C94.4533 287.048 94.288 287.112 94.064 287.112ZM108.694 289.992C108.524 289.992 108.38 289.944 108.262 289.848C108.156 289.763 108.092 289.64 108.07 289.48C108.06 289.331 108.092 289.171 108.166 289L109.254 286.536V287.144L106.23 280.104C106.156 279.923 106.129 279.757 106.15 279.608C106.172 279.459 106.241 279.336 106.358 279.24C106.486 279.144 106.657 279.096 106.87 279.096C107.052 279.096 107.196 279.139 107.302 279.224C107.409 279.309 107.51 279.459 107.606 279.672L110.118 285.864H109.67L112.23 279.672C112.316 279.459 112.417 279.309 112.534 279.224C112.652 279.139 112.812 279.096 113.014 279.096C113.196 279.096 113.334 279.144 113.43 279.24C113.537 279.336 113.601 279.459 113.622 279.608C113.644 279.757 113.612 279.917 113.526 280.088L109.494 289.416C109.388 289.64 109.276 289.789 109.158 289.864C109.052 289.949 108.897 289.992 108.694 289.992ZM120.524 287.112C120.289 287.112 120.108 287.048 119.98 286.92C119.852 286.792 119.788 286.605 119.788 286.36V280.328H118.828C118.636 280.328 118.487 280.28 118.38 280.184C118.273 280.077 118.22 279.939 118.22 279.768C118.22 279.587 118.273 279.448 118.38 279.352C118.487 279.256 118.636 279.208 118.828 279.208H120.188L119.788 279.592V279C119.788 277.965 120.039 277.181 120.54 276.648C121.052 276.104 121.799 275.789 122.78 275.704L123.276 275.672C123.436 275.651 123.564 275.677 123.66 275.752C123.756 275.816 123.82 275.901 123.852 276.008C123.884 276.115 123.884 276.227 123.852 276.344C123.831 276.451 123.783 276.547 123.708 276.632C123.633 276.717 123.537 276.765 123.42 276.776L123.068 276.792C122.428 276.845 121.964 277.037 121.676 277.368C121.388 277.688 121.244 278.168 121.244 278.808V279.448L121.036 279.208H122.876C123.079 279.208 123.233 279.256 123.34 279.352C123.447 279.448 123.5 279.587 123.5 279.768C123.5 279.939 123.447 280.077 123.34 280.184C123.233 280.28 123.079 280.328 122.876 280.328H121.244V286.36C121.244 286.861 121.004 287.112 120.524 287.112ZM127.179 287.144C126.646 287.144 126.161 287.037 125.723 286.824C125.297 286.611 124.961 286.323 124.715 285.96C124.481 285.597 124.363 285.192 124.363 284.744C124.363 284.168 124.507 283.715 124.795 283.384C125.083 283.053 125.569 282.819 126.251 282.68C126.934 282.531 127.851 282.456 129.003 282.456H129.755V283.384H129.035C128.214 283.384 127.563 283.421 127.083 283.496C126.614 283.571 126.283 283.704 126.091 283.896C125.899 284.077 125.803 284.333 125.803 284.664C125.803 285.08 125.947 285.421 126.235 285.688C126.534 285.955 126.939 286.088 127.451 286.088C127.857 286.088 128.214 285.992 128.523 285.8C128.833 285.597 129.078 285.331 129.259 285C129.441 284.659 129.531 284.269 129.531 283.832V281.992C129.531 281.363 129.403 280.909 129.147 280.632C128.891 280.344 128.459 280.2 127.851 280.2C127.499 280.2 127.137 280.248 126.763 280.344C126.39 280.44 126.001 280.589 125.595 280.792C125.435 280.867 125.297 280.893 125.179 280.872C125.062 280.84 124.966 280.776 124.891 280.68C124.827 280.573 124.79 280.461 124.779 280.344C124.779 280.216 124.806 280.093 124.859 279.976C124.923 279.859 125.03 279.773 125.179 279.72C125.649 279.485 126.113 279.32 126.571 279.224C127.041 279.117 127.478 279.064 127.883 279.064C128.577 279.064 129.147 279.176 129.595 279.4C130.043 279.613 130.379 279.949 130.603 280.408C130.827 280.856 130.939 281.432 130.939 282.136V286.36C130.939 286.605 130.881 286.792 130.763 286.92C130.646 287.048 130.475 287.112 130.251 287.112C130.038 287.112 129.867 287.048 129.739 286.92C129.622 286.792 129.563 286.605 129.563 286.36V285.224H129.707C129.622 285.619 129.462 285.96 129.227 286.248C128.993 286.536 128.699 286.76 128.347 286.92C128.006 287.069 127.617 287.144 127.179 287.144ZM133.983 287.112C133.759 287.112 133.583 287.048 133.455 286.92C133.327 286.792 133.263 286.605 133.263 286.36V279.832C133.263 279.587 133.327 279.405 133.455 279.288C133.583 279.16 133.759 279.096 133.983 279.096C134.207 279.096 134.377 279.16 134.495 279.288C134.623 279.405 134.687 279.587 134.687 279.832V281.192L134.511 280.904C134.713 280.317 135.039 279.864 135.487 279.544C135.945 279.224 136.489 279.064 137.119 279.064C137.78 279.064 138.313 279.224 138.719 279.544C139.124 279.853 139.396 280.328 139.535 280.968H139.311C139.503 280.381 139.844 279.917 140.335 279.576C140.836 279.235 141.417 279.064 142.079 279.064C142.665 279.064 143.145 279.181 143.519 279.416C143.903 279.64 144.191 279.981 144.383 280.44C144.575 280.888 144.671 281.464 144.671 282.168V286.36C144.671 286.605 144.607 286.792 144.479 286.92C144.351 287.048 144.175 287.112 143.951 287.112C143.716 287.112 143.535 287.048 143.407 286.92C143.279 286.792 143.215 286.605 143.215 286.36V282.232C143.215 281.549 143.097 281.048 142.863 280.728C142.628 280.408 142.233 280.248 141.679 280.248C141.071 280.248 140.585 280.461 140.223 280.888C139.871 281.304 139.695 281.88 139.695 282.616V286.36C139.695 286.605 139.631 286.792 139.503 286.92C139.385 287.048 139.209 287.112 138.975 287.112C138.74 287.112 138.559 287.048 138.431 286.92C138.303 286.792 138.239 286.605 138.239 286.36V282.232C138.239 281.549 138.121 281.048 137.887 280.728C137.652 280.408 137.257 280.248 136.703 280.248C136.095 280.248 135.609 280.461 135.247 280.888C134.895 281.304 134.719 281.88 134.719 282.616V286.36C134.719 286.861 134.473 287.112 133.983 287.112ZM147.732 287.08C147.508 287.08 147.332 287.011 147.204 286.872C147.076 286.733 147.012 286.541 147.012 286.296V279.912C147.012 279.656 147.076 279.464 147.204 279.336C147.332 279.197 147.508 279.128 147.732 279.128C147.966 279.128 148.148 279.197 148.276 279.336C148.404 279.464 148.468 279.656 148.468 279.912V286.296C148.468 286.541 148.404 286.733 148.276 286.872C148.158 287.011 147.977 287.08 147.732 287.08ZM147.732 277.4C147.444 277.4 147.214 277.325 147.044 277.176C146.884 277.016 146.804 276.808 146.804 276.552C146.804 276.275 146.884 276.067 147.044 275.928C147.214 275.779 147.444 275.704 147.732 275.704C148.041 275.704 148.27 275.779 148.42 275.928C148.58 276.067 148.66 276.275 148.66 276.552C148.66 276.808 148.58 277.016 148.42 277.176C148.27 277.325 148.041 277.4 147.732 277.4ZM153.257 287.144C152.457 287.144 151.849 286.909 151.433 286.44C151.017 285.96 150.809 285.272 150.809 284.376V276.344C150.809 276.099 150.873 275.917 151.001 275.8C151.129 275.672 151.305 275.608 151.529 275.608C151.763 275.608 151.945 275.672 152.073 275.8C152.201 275.917 152.265 276.099 152.265 276.344V284.264C152.265 284.819 152.377 285.235 152.601 285.512C152.835 285.779 153.166 285.912 153.593 285.912C153.689 285.912 153.774 285.912 153.849 285.912C153.923 285.901 153.998 285.891 154.073 285.88C154.19 285.869 154.275 285.901 154.329 285.976C154.382 286.051 154.409 286.2 154.409 286.424C154.409 286.627 154.361 286.787 154.265 286.904C154.179 287.011 154.035 287.08 153.833 287.112C153.737 287.123 153.641 287.128 153.545 287.128C153.449 287.139 153.353 287.144 153.257 287.144ZM157.226 289.992C157.055 289.992 156.911 289.944 156.794 289.848C156.687 289.763 156.623 289.64 156.602 289.48C156.591 289.331 156.623 289.171 156.698 289L157.786 286.536V287.144L154.762 280.104C154.687 279.923 154.66 279.757 154.682 279.608C154.703 279.459 154.772 279.336 154.89 279.24C155.018 279.144 155.188 279.096 155.402 279.096C155.583 279.096 155.727 279.139 155.834 279.224C155.94 279.309 156.042 279.459 156.138 279.672L158.65 285.864H158.202L160.762 279.672C160.847 279.459 160.948 279.309 161.066 279.224C161.183 279.139 161.343 279.096 161.546 279.096C161.727 279.096 161.866 279.144 161.962 279.24C162.068 279.336 162.132 279.459 162.154 279.608C162.175 279.757 162.143 279.917 162.058 280.088L158.026 289.416C157.919 289.64 157.807 289.789 157.69 289.864C157.583 289.949 157.428 289.992 157.226 289.992ZM170.847 287.144C170.164 287.144 169.562 286.984 169.039 286.664C168.527 286.333 168.127 285.864 167.839 285.256C167.551 284.637 167.407 283.917 167.407 283.096C167.407 282.264 167.546 281.549 167.823 280.952C168.111 280.344 168.511 279.88 169.023 279.56C169.546 279.229 170.154 279.064 170.847 279.064C171.54 279.064 172.138 279.24 172.639 279.592C173.14 279.933 173.476 280.392 173.647 280.968H173.471V276.344C173.471 276.099 173.53 275.917 173.647 275.8C173.775 275.672 173.956 275.608 174.191 275.608C174.426 275.608 174.607 275.672 174.735 275.8C174.863 275.917 174.927 276.099 174.927 276.344V286.36C174.927 286.605 174.863 286.792 174.735 286.92C174.607 287.048 174.426 287.112 174.191 287.112C173.967 287.112 173.791 287.048 173.663 286.92C173.535 286.792 173.471 286.605 173.471 286.36V284.904L173.647 285.192C173.487 285.789 173.151 286.264 172.639 286.616C172.138 286.968 171.54 287.144 170.847 287.144ZM171.183 285.992C171.652 285.992 172.058 285.88 172.399 285.656C172.751 285.432 173.018 285.107 173.199 284.68C173.391 284.253 173.487 283.725 173.487 283.096C173.487 282.157 173.279 281.443 172.863 280.952C172.447 280.461 171.887 280.216 171.183 280.216C170.724 280.216 170.319 280.328 169.967 280.552C169.626 280.765 169.359 281.085 169.167 281.512C168.975 281.939 168.879 282.467 168.879 283.096C168.879 284.035 169.087 284.755 169.503 285.256C169.93 285.747 170.49 285.992 171.183 285.992ZM180.574 287.144C179.806 287.144 179.139 286.979 178.574 286.648C178.008 286.317 177.571 285.848 177.262 285.24C176.952 284.632 176.798 283.917 176.798 283.096C176.798 282.477 176.883 281.923 177.054 281.432C177.235 280.931 177.491 280.504 177.822 280.152C178.152 279.8 178.547 279.533 179.006 279.352C179.475 279.16 179.998 279.064 180.574 279.064C181.342 279.064 182.008 279.229 182.574 279.56C183.139 279.891 183.576 280.36 183.886 280.968C184.195 281.565 184.35 282.275 184.35 283.096C184.35 283.715 184.259 284.275 184.078 284.776C183.907 285.277 183.656 285.704 183.326 286.056C182.995 286.408 182.595 286.68 182.126 286.872C181.667 287.053 181.15 287.144 180.574 287.144ZM180.574 285.992C181.043 285.992 181.448 285.88 181.79 285.656C182.142 285.432 182.408 285.107 182.59 284.68C182.782 284.253 182.878 283.725 182.878 283.096C182.878 282.157 182.67 281.443 182.254 280.952C181.838 280.461 181.278 280.216 180.574 280.216C180.115 280.216 179.71 280.328 179.358 280.552C179.016 280.765 178.75 281.085 178.558 281.512C178.366 281.939 178.27 282.467 178.27 283.096C178.27 284.035 178.478 284.755 178.894 285.256C179.32 285.747 179.88 285.992 180.574 285.992ZM189.815 287.144C188.972 287.144 188.247 286.984 187.639 286.664C187.042 286.333 186.578 285.869 186.247 285.272C185.916 284.664 185.751 283.949 185.751 283.128C185.751 282.317 185.911 281.608 186.231 281C186.562 280.392 187.01 279.917 187.575 279.576C188.151 279.235 188.807 279.064 189.543 279.064C190.066 279.064 190.535 279.155 190.951 279.336C191.378 279.507 191.74 279.757 192.039 280.088C192.338 280.419 192.562 280.824 192.711 281.304C192.871 281.773 192.951 282.307 192.951 282.904C192.951 283.075 192.898 283.208 192.791 283.304C192.695 283.389 192.551 283.432 192.359 283.432H186.887V282.504H191.991L191.719 282.728C191.719 282.173 191.634 281.704 191.463 281.32C191.303 280.925 191.063 280.627 190.743 280.424C190.434 280.221 190.044 280.12 189.575 280.12C189.063 280.12 188.626 280.243 188.263 280.488C187.9 280.723 187.623 281.059 187.431 281.496C187.239 281.923 187.143 282.419 187.143 282.984V283.08C187.143 284.04 187.372 284.765 187.831 285.256C188.29 285.747 188.951 285.992 189.815 285.992C190.156 285.992 190.503 285.949 190.855 285.864C191.218 285.779 191.564 285.624 191.895 285.4C192.055 285.304 192.199 285.261 192.327 285.272C192.466 285.272 192.578 285.315 192.663 285.4C192.748 285.475 192.802 285.571 192.823 285.688C192.844 285.795 192.828 285.912 192.775 286.04C192.722 286.168 192.62 286.28 192.471 286.376C192.119 286.621 191.698 286.813 191.207 286.952C190.727 287.08 190.263 287.144 189.815 287.144ZM197.45 287.144C196.97 287.144 196.484 287.091 195.994 286.984C195.514 286.867 195.06 286.669 194.634 286.392C194.516 286.317 194.431 286.227 194.378 286.12C194.335 286.003 194.319 285.891 194.33 285.784C194.351 285.667 194.399 285.565 194.474 285.48C194.548 285.395 194.639 285.347 194.746 285.336C194.863 285.315 194.986 285.341 195.114 285.416C195.53 285.651 195.93 285.816 196.314 285.912C196.708 286.008 197.098 286.056 197.482 286.056C198.068 286.056 198.511 285.949 198.81 285.736C199.108 285.523 199.258 285.24 199.258 284.888C199.258 284.589 199.156 284.36 198.954 284.2C198.762 284.029 198.458 283.901 198.042 283.816L196.554 283.512C195.892 283.363 195.391 283.117 195.05 282.776C194.719 282.424 194.554 281.976 194.554 281.432C194.554 280.952 194.682 280.536 194.938 280.184C195.204 279.821 195.572 279.544 196.042 279.352C196.511 279.16 197.05 279.064 197.658 279.064C198.127 279.064 198.57 279.128 198.986 279.256C199.412 279.373 199.796 279.555 200.138 279.8C200.266 279.875 200.346 279.971 200.378 280.088C200.42 280.195 200.426 280.307 200.394 280.424C200.372 280.531 200.324 280.621 200.25 280.696C200.175 280.771 200.079 280.819 199.962 280.84C199.844 280.851 199.716 280.819 199.578 280.744C199.268 280.531 198.948 280.381 198.618 280.296C198.298 280.2 197.978 280.152 197.658 280.152C197.082 280.152 196.644 280.264 196.346 280.488C196.058 280.712 195.914 281.005 195.914 281.368C195.914 281.645 195.999 281.875 196.17 282.056C196.351 282.237 196.634 282.371 197.018 282.456L198.506 282.76C199.199 282.909 199.722 283.149 200.074 283.48C200.426 283.8 200.602 284.237 200.602 284.792C200.602 285.517 200.314 286.093 199.738 286.52C199.172 286.936 198.41 287.144 197.45 287.144ZM203.216 287.112C202.992 287.112 202.816 287.048 202.688 286.92C202.56 286.792 202.496 286.605 202.496 286.36V279.832C202.496 279.587 202.56 279.405 202.688 279.288C202.816 279.16 202.992 279.096 203.216 279.096C203.44 279.096 203.611 279.16 203.728 279.288C203.856 279.405 203.92 279.587 203.92 279.832V281.144L203.744 280.904C203.968 280.296 204.331 279.837 204.832 279.528C205.344 279.219 205.925 279.064 206.576 279.064C207.205 279.064 207.723 279.176 208.128 279.4C208.533 279.624 208.837 279.965 209.04 280.424C209.243 280.883 209.344 281.464 209.344 282.168V286.36C209.344 286.605 209.28 286.792 209.152 286.92C209.035 287.048 208.859 287.112 208.624 287.112C208.389 287.112 208.208 287.048 208.08 286.92C207.952 286.792 207.888 286.605 207.888 286.36V282.248C207.888 281.555 207.755 281.048 207.488 280.728C207.221 280.408 206.795 280.248 206.208 280.248C205.525 280.248 204.976 280.461 204.56 280.888C204.155 281.304 203.952 281.869 203.952 282.584V286.36C203.952 286.861 203.707 287.112 203.216 287.112ZM212.22 279.048C212.113 279.187 211.996 279.267 211.868 279.288C211.75 279.309 211.644 279.288 211.548 279.224C211.462 279.16 211.414 279.064 211.404 278.936C211.393 278.808 211.446 278.669 211.564 278.52C211.745 278.296 211.868 278.067 211.932 277.832C212.006 277.587 212.044 277.368 212.044 277.176L212.108 277.544C211.809 277.544 211.564 277.459 211.372 277.288C211.19 277.117 211.1 276.888 211.1 276.6C211.1 276.323 211.185 276.099 211.356 275.928C211.526 275.747 211.756 275.656 212.044 275.656C212.332 275.656 212.561 275.757 212.732 275.96C212.913 276.152 213.004 276.44 213.004 276.824C213.004 277.048 212.977 277.288 212.924 277.544C212.881 277.789 212.806 278.04 212.7 278.296C212.593 278.552 212.433 278.803 212.22 279.048ZM218.369 287.144C217.739 287.144 217.211 287.032 216.785 286.808C216.369 286.584 216.054 286.259 215.841 285.832C215.638 285.405 215.537 284.883 215.537 284.264V280.328H214.513C214.321 280.328 214.171 280.28 214.065 280.184C213.958 280.077 213.905 279.939 213.905 279.768C213.905 279.587 213.958 279.448 214.065 279.352C214.171 279.256 214.321 279.208 214.513 279.208H215.537V277.464C215.537 277.219 215.601 277.037 215.729 276.92C215.857 276.792 216.038 276.728 216.273 276.728C216.507 276.728 216.683 276.792 216.801 276.92C216.929 277.037 216.993 277.219 216.993 277.464V279.208H218.929C219.131 279.208 219.286 279.256 219.393 279.352C219.499 279.448 219.553 279.587 219.553 279.768C219.553 279.939 219.499 280.077 219.393 280.184C219.286 280.28 219.131 280.328 218.929 280.328H216.993V284.136C216.993 284.723 217.115 285.165 217.361 285.464C217.606 285.763 218.011 285.912 218.577 285.912C218.779 285.912 218.95 285.896 219.089 285.864C219.227 285.821 219.35 285.8 219.457 285.8C219.553 285.789 219.633 285.821 219.697 285.896C219.771 285.971 219.809 286.109 219.809 286.312C219.809 286.461 219.782 286.6 219.729 286.728C219.686 286.845 219.595 286.925 219.457 286.968C219.329 287.011 219.158 287.048 218.945 287.08C218.731 287.123 218.539 287.144 218.369 287.144ZM95.936 309.112C95.7333 309.112 95.5573 309.064 95.408 308.968C95.2587 308.861 95.1413 308.691 95.056 308.456L92.672 302.104C92.5973 301.901 92.576 301.725 92.608 301.576C92.64 301.427 92.7147 301.309 92.832 301.224C92.9493 301.139 93.104 301.096 93.296 301.096C93.4773 301.096 93.6213 301.139 93.728 301.224C93.8347 301.309 93.9253 301.464 94 301.688L96.176 307.832H95.792L98.032 301.656C98.1067 301.464 98.2027 301.325 98.32 301.24C98.448 301.144 98.6027 301.096 98.784 301.096C98.976 301.096 99.136 301.144 99.264 301.24C99.392 301.325 99.4827 301.464 99.536 301.656L101.744 307.832H101.376L103.584 301.656C103.659 301.443 103.755 301.299 103.872 301.224C103.989 301.139 104.133 301.096 104.304 301.096C104.496 301.096 104.64 301.144 104.736 301.24C104.832 301.336 104.885 301.464 104.896 301.624C104.917 301.773 104.896 301.933 104.832 302.104L102.448 308.456C102.373 308.68 102.256 308.845 102.096 308.952C101.947 309.059 101.771 309.112 101.568 309.112C101.365 309.112 101.184 309.059 101.024 308.952C100.875 308.845 100.757 308.68 100.672 308.456L98.384 302.184H99.12L96.832 308.456C96.7467 308.68 96.6293 308.845 96.48 308.952C96.3307 309.059 96.1493 309.112 95.936 309.112ZM108.992 309.144C108.458 309.144 107.973 309.037 107.536 308.824C107.109 308.611 106.773 308.323 106.528 307.96C106.293 307.597 106.176 307.192 106.176 306.744C106.176 306.168 106.32 305.715 106.608 305.384C106.896 305.053 107.381 304.819 108.064 304.68C108.746 304.531 109.664 304.456 110.816 304.456H111.568V305.384H110.848C110.026 305.384 109.376 305.421 108.896 305.496C108.426 305.571 108.096 305.704 107.904 305.896C107.712 306.077 107.616 306.333 107.616 306.664C107.616 307.08 107.76 307.421 108.048 307.688C108.346 307.955 108.752 308.088 109.264 308.088C109.669 308.088 110.026 307.992 110.336 307.8C110.645 307.597 110.89 307.331 111.072 307C111.253 306.659 111.344 306.269 111.344 305.832V303.992C111.344 303.363 111.216 302.909 110.96 302.632C110.704 302.344 110.272 302.2 109.664 302.2C109.312 302.2 108.949 302.248 108.576 302.344C108.202 302.44 107.813 302.589 107.408 302.792C107.248 302.867 107.109 302.893 106.992 302.872C106.874 302.84 106.778 302.776 106.704 302.68C106.64 302.573 106.602 302.461 106.592 302.344C106.592 302.216 106.618 302.093 106.672 301.976C106.736 301.859 106.842 301.773 106.992 301.72C107.461 301.485 107.925 301.32 108.384 301.224C108.853 301.117 109.29 301.064 109.696 301.064C110.389 301.064 110.96 301.176 111.408 301.4C111.856 301.613 112.192 301.949 112.416 302.408C112.64 302.856 112.752 303.432 112.752 304.136V308.36C112.752 308.605 112.693 308.792 112.576 308.92C112.458 309.048 112.288 309.112 112.064 309.112C111.85 309.112 111.68 309.048 111.552 308.92C111.434 308.792 111.376 308.605 111.376 308.36V307.224H111.52C111.434 307.619 111.274 307.96 111.04 308.248C110.805 308.536 110.512 308.76 110.16 308.92C109.818 309.069 109.429 309.144 108.992 309.144ZM118.275 309.144C117.646 309.144 117.118 309.032 116.691 308.808C116.275 308.584 115.96 308.259 115.747 307.832C115.544 307.405 115.443 306.883 115.443 306.264V302.328H114.419C114.227 302.328 114.078 302.28 113.971 302.184C113.864 302.077 113.811 301.939 113.811 301.768C113.811 301.587 113.864 301.448 113.971 301.352C114.078 301.256 114.227 301.208 114.419 301.208H115.443V299.464C115.443 299.219 115.507 299.037 115.635 298.92C115.763 298.792 115.944 298.728 116.179 298.728C116.414 298.728 116.59 298.792 116.707 298.92C116.835 299.037 116.899 299.219 116.899 299.464V301.208H118.835C119.038 301.208 119.192 301.256 119.299 301.352C119.406 301.448 119.459 301.587 119.459 301.768C119.459 301.939 119.406 302.077 119.299 302.184C119.192 302.28 119.038 302.328 118.835 302.328H116.899V306.136C116.899 306.723 117.022 307.165 117.267 307.464C117.512 307.763 117.918 307.912 118.483 307.912C118.686 307.912 118.856 307.896 118.995 307.864C119.134 307.821 119.256 307.8 119.363 307.8C119.459 307.789 119.539 307.821 119.603 307.896C119.678 307.971 119.715 308.109 119.715 308.312C119.715 308.461 119.688 308.6 119.635 308.728C119.592 308.845 119.502 308.925 119.363 308.968C119.235 309.011 119.064 309.048 118.851 309.08C118.638 309.123 118.446 309.144 118.275 309.144ZM124.075 309.144C123.286 309.144 122.603 308.979 122.027 308.648C121.451 308.307 121.009 307.832 120.699 307.224C120.39 306.605 120.235 305.88 120.235 305.048C120.235 304.429 120.321 303.875 120.491 303.384C120.673 302.893 120.929 302.477 121.259 302.136C121.59 301.784 121.99 301.517 122.459 301.336C122.939 301.155 123.478 301.064 124.075 301.064C124.449 301.064 124.843 301.123 125.259 301.24C125.675 301.357 126.059 301.549 126.411 301.816C126.529 301.901 126.603 302.003 126.635 302.12C126.667 302.227 126.667 302.339 126.635 302.456C126.614 302.573 126.561 302.675 126.475 302.76C126.401 302.835 126.299 302.877 126.171 302.888C126.054 302.899 125.926 302.861 125.787 302.776C125.531 302.584 125.259 302.445 124.971 302.36C124.694 302.275 124.427 302.232 124.171 302.232C123.777 302.232 123.425 302.296 123.115 302.424C122.817 302.552 122.561 302.739 122.347 302.984C122.145 303.219 121.99 303.512 121.883 303.864C121.777 304.205 121.723 304.605 121.723 305.064C121.723 305.971 121.937 306.685 122.363 307.208C122.79 307.72 123.393 307.976 124.171 307.976C124.427 307.976 124.694 307.939 124.971 307.864C125.249 307.779 125.521 307.64 125.787 307.448C125.926 307.363 126.054 307.331 126.171 307.352C126.289 307.363 126.385 307.411 126.459 307.496C126.545 307.571 126.598 307.667 126.619 307.784C126.641 307.891 126.63 308.003 126.587 308.12C126.555 308.237 126.481 308.333 126.363 308.408C126.022 308.664 125.649 308.851 125.243 308.968C124.838 309.085 124.449 309.144 124.075 309.144ZM128.857 309.112C128.633 309.112 128.457 309.048 128.329 308.92C128.201 308.792 128.137 308.605 128.137 308.36V298.344C128.137 298.099 128.201 297.917 128.329 297.8C128.457 297.672 128.633 297.608 128.857 297.608C129.091 297.608 129.273 297.672 129.401 297.8C129.529 297.917 129.593 298.099 129.593 298.344V302.904H129.385C129.609 302.296 129.971 301.837 130.473 301.528C130.985 301.219 131.566 301.064 132.217 301.064C132.846 301.064 133.363 301.181 133.769 301.416C134.174 301.64 134.478 301.981 134.681 302.44C134.883 302.899 134.985 303.475 134.985 304.168V308.36C134.985 308.605 134.921 308.792 134.793 308.92C134.675 309.048 134.499 309.112 134.265 309.112C134.03 309.112 133.849 309.048 133.721 308.92C133.593 308.792 133.529 308.605 133.529 308.36V304.248C133.529 303.555 133.395 303.048 133.129 302.728C132.862 302.408 132.435 302.248 131.849 302.248C131.166 302.248 130.617 302.461 130.201 302.888C129.795 303.304 129.593 303.869 129.593 304.584V308.36C129.593 308.861 129.347 309.112 128.857 309.112ZM142.185 309.08C141.961 309.08 141.785 309.011 141.657 308.872C141.529 308.733 141.465 308.541 141.465 308.296V301.912C141.465 301.656 141.529 301.464 141.657 301.336C141.785 301.197 141.961 301.128 142.185 301.128C142.42 301.128 142.601 301.197 142.729 301.336C142.857 301.464 142.921 301.656 142.921 301.912V308.296C142.921 308.541 142.857 308.733 142.729 308.872C142.612 309.011 142.43 309.08 142.185 309.08ZM142.185 299.4C141.897 299.4 141.668 299.325 141.497 299.176C141.337 299.016 141.257 298.808 141.257 298.552C141.257 298.275 141.337 298.067 141.497 297.928C141.668 297.779 141.897 297.704 142.185 297.704C142.494 297.704 142.724 297.779 142.873 297.928C143.033 298.067 143.113 298.275 143.113 298.552C143.113 298.808 143.033 299.016 142.873 299.176C142.724 299.325 142.494 299.4 142.185 299.4ZM148.494 309.144C147.864 309.144 147.336 309.032 146.91 308.808C146.494 308.584 146.179 308.259 145.966 307.832C145.763 307.405 145.662 306.883 145.662 306.264V302.328H144.638C144.446 302.328 144.296 302.28 144.19 302.184C144.083 302.077 144.03 301.939 144.03 301.768C144.03 301.587 144.083 301.448 144.19 301.352C144.296 301.256 144.446 301.208 144.638 301.208H145.662V299.464C145.662 299.219 145.726 299.037 145.854 298.92C145.982 298.792 146.163 298.728 146.398 298.728C146.632 298.728 146.808 298.792 146.926 298.92C147.054 299.037 147.118 299.219 147.118 299.464V301.208H149.054C149.256 301.208 149.411 301.256 149.518 301.352C149.624 301.448 149.678 301.587 149.678 301.768C149.678 301.939 149.624 302.077 149.518 302.184C149.411 302.28 149.256 302.328 149.054 302.328H147.118V306.136C147.118 306.723 147.24 307.165 147.486 307.464C147.731 307.763 148.136 307.912 148.702 307.912C148.904 307.912 149.075 307.896 149.214 307.864C149.352 307.821 149.475 307.8 149.582 307.8C149.678 307.789 149.758 307.821 149.822 307.896C149.896 307.971 149.934 308.109 149.934 308.312C149.934 308.461 149.907 308.6 149.854 308.728C149.811 308.845 149.72 308.925 149.582 308.968C149.454 309.011 149.283 309.048 149.07 309.08C148.856 309.123 148.664 309.144 148.494 309.144Z" fill="#1F1F23"/>
<circle cx="22.5" cy="338" r="4.5" fill="#FFE666"/>
<path d="M49.08 343C48.824 343 48.632 342.941 48.504 342.824C48.3867 342.696 48.328 342.525 48.328 342.312C48.328 342.184 48.36 342.056 48.424 341.928C48.488 341.8 48.584 341.672 48.712 341.544L52.216 337.784C52.7493 337.219 53.1333 336.696 53.368 336.216C53.6027 335.736 53.72 335.251 53.72 334.76C53.72 334.141 53.528 333.672 53.144 333.352C52.7707 333.021 52.2213 332.856 51.496 332.856C51.048 332.856 50.616 332.931 50.2 333.08C49.7947 333.219 49.3947 333.437 49 333.736C48.8507 333.843 48.712 333.891 48.584 333.88C48.456 333.869 48.344 333.821 48.248 333.736C48.1627 333.64 48.0987 333.533 48.056 333.416C48.024 333.288 48.0293 333.155 48.072 333.016C48.1147 332.877 48.2053 332.76 48.344 332.664C48.7813 332.323 49.288 332.056 49.864 331.864C50.44 331.672 51.032 331.576 51.64 331.576C52.408 331.576 53.0533 331.699 53.576 331.944C54.1093 332.179 54.5147 332.525 54.792 332.984C55.0693 333.432 55.208 333.981 55.208 334.632C55.208 335.08 55.1333 335.523 54.984 335.96C54.8347 336.387 54.6107 336.824 54.312 337.272C54.024 337.72 53.6507 338.184 53.192 338.664L49.864 342.168V341.736H55.112C55.3253 341.736 55.4853 341.789 55.592 341.896C55.7093 342.003 55.768 342.157 55.768 342.36C55.768 342.563 55.7093 342.723 55.592 342.84C55.4853 342.947 55.3253 343 55.112 343H49.08ZM61.6018 343.144C61.0044 343.144 60.4018 343.059 59.7938 342.888C59.1964 342.707 58.6524 342.435 58.1618 342.072C58.0231 341.976 57.9271 341.864 57.8738 341.736C57.8311 341.597 57.8258 341.464 57.8578 341.336C57.8898 341.208 57.9538 341.101 58.0498 341.016C58.1458 340.92 58.2578 340.867 58.3858 340.856C58.5244 340.845 58.6684 340.888 58.8178 340.984C59.2444 341.283 59.6871 341.507 60.1458 341.656C60.6044 341.795 61.0844 341.864 61.5858 341.864C62.0871 341.864 62.5191 341.768 62.8818 341.576C63.2444 341.384 63.5218 341.117 63.7138 340.776C63.9164 340.435 64.0178 340.035 64.0178 339.576C64.0178 338.872 63.8098 338.296 63.3938 337.848C62.9778 337.4 62.4124 337.176 61.6978 337.176C61.2604 337.176 60.8551 337.256 60.4818 337.416C60.1191 337.565 59.7778 337.821 59.4578 338.184C59.3831 338.269 59.2871 338.344 59.1698 338.408C59.0631 338.472 58.9404 338.504 58.8018 338.504C58.5991 338.504 58.4444 338.451 58.3378 338.344C58.2311 338.227 58.1778 338.072 58.1778 337.88V332.392C58.1778 332.179 58.2364 332.013 58.3538 331.896C58.4711 331.779 58.6364 331.72 58.8498 331.72H64.2418C64.4551 331.72 64.6204 331.773 64.7378 331.88C64.8551 331.987 64.9138 332.141 64.9138 332.344C64.9138 332.547 64.8551 332.707 64.7378 332.824C64.6204 332.931 64.4551 332.984 64.2418 332.984H59.6338V337.256H59.2178C59.5058 336.829 59.8898 336.499 60.3698 336.264C60.8604 336.029 61.3991 335.912 61.9858 335.912C62.7004 335.912 63.3138 336.067 63.8258 336.376C64.3484 336.675 64.7538 337.096 65.0417 337.64C65.3298 338.173 65.4738 338.797 65.4738 339.512C65.4738 340.216 65.3138 340.845 64.9938 341.4C64.6844 341.944 64.2418 342.371 63.6658 342.68C63.0898 342.989 62.4018 343.144 61.6018 343.144ZM71.0995 342.984C71.0142 343.133 70.9075 343.229 70.7795 343.272C70.6622 343.325 70.5448 343.336 70.4275 343.304C70.3102 343.283 70.2088 343.224 70.1235 343.128C70.0488 343.043 70.0062 342.936 69.9955 342.808C69.9848 342.68 70.0168 342.541 70.0915 342.392L76.2035 331.768C76.2888 331.619 76.3902 331.517 76.5075 331.464C76.6248 331.411 76.7422 331.4 76.8595 331.432C76.9768 331.453 77.0728 331.512 77.1475 331.608C77.2328 331.693 77.2862 331.8 77.3075 331.928C77.3288 332.056 77.2968 332.195 77.2115 332.344L71.0995 342.984ZM69.7875 338.472C68.9235 338.472 68.2462 338.168 67.7555 337.56C67.2755 336.952 67.0355 336.104 67.0355 335.016C67.0355 334.291 67.1422 333.672 67.3555 333.16C67.5795 332.648 67.8942 332.259 68.2995 331.992C68.7155 331.715 69.2115 331.576 69.7875 331.576C70.6408 331.576 71.3128 331.88 71.8035 332.488C72.2942 333.096 72.5395 333.939 72.5395 335.016C72.5395 335.741 72.4275 336.365 72.2035 336.888C71.9902 337.4 71.6755 337.795 71.2595 338.072C70.8542 338.339 70.3635 338.472 69.7875 338.472ZM69.7875 337.432C70.1075 337.432 70.3795 337.347 70.6035 337.176C70.8275 336.995 70.9982 336.728 71.1155 336.376C71.2328 336.013 71.2915 335.56 71.2915 335.016C71.2915 334.216 71.1582 333.619 70.8915 333.224C70.6248 332.819 70.2568 332.616 69.7875 332.616C69.4782 332.616 69.2062 332.707 68.9715 332.888C68.7475 333.059 68.5715 333.325 68.4435 333.688C68.3262 334.04 68.2675 334.483 68.2675 335.016C68.2675 335.827 68.4008 336.435 68.6675 336.84C68.9448 337.235 69.3182 337.432 69.7875 337.432ZM77.5315 343.144C76.6675 343.144 75.9902 342.84 75.4995 342.232C75.0195 341.624 74.7795 340.776 74.7795 339.688C74.7795 338.963 74.8862 338.344 75.0995 337.832C75.3235 337.32 75.6382 336.931 76.0435 336.664C76.4595 336.387 76.9555 336.248 77.5315 336.248C78.3848 336.248 79.0568 336.552 79.5475 337.16C80.0382 337.768 80.2835 338.611 80.2835 339.688C80.2835 340.413 80.1715 341.037 79.9475 341.56C79.7342 342.072 79.4195 342.467 79.0035 342.744C78.5982 343.011 78.1075 343.144 77.5315 343.144ZM77.5315 342.104C77.8515 342.104 78.1235 342.019 78.3475 341.848C78.5715 341.667 78.7422 341.4 78.8595 341.048C78.9768 340.685 79.0355 340.232 79.0355 339.688C79.0355 338.888 78.9022 338.291 78.6355 337.896C78.3688 337.491 78.0008 337.288 77.5315 337.288C77.2222 337.288 76.9502 337.379 76.7155 337.56C76.4915 337.731 76.3155 337.997 76.1875 338.36C76.0702 338.712 76.0115 339.155 76.0115 339.688C76.0115 340.499 76.1448 341.107 76.4115 341.512C76.6888 341.907 77.0622 342.104 77.5315 342.104Z" fill="#1F1F23"/>
<path d="M94.096 343.112C93.8613 343.112 93.68 343.048 93.552 342.92C93.424 342.781 93.36 342.589 93.36 342.344V332.376C93.36 332.12 93.424 331.928 93.552 331.8C93.68 331.672 93.8613 331.608 94.096 331.608C94.3413 331.608 94.528 331.672 94.656 331.8C94.784 331.928 94.848 332.12 94.848 332.376V342.344C94.848 342.589 94.784 342.781 94.656 342.92C94.5387 343.048 94.352 343.112 94.096 343.112ZM104.503 343.144C103.821 343.144 103.218 342.984 102.695 342.664C102.183 342.333 101.783 341.864 101.495 341.256C101.207 340.637 101.063 339.917 101.063 339.096C101.063 338.264 101.202 337.549 101.479 336.952C101.767 336.344 102.167 335.88 102.679 335.56C103.202 335.229 103.81 335.064 104.503 335.064C105.197 335.064 105.794 335.24 106.295 335.592C106.797 335.933 107.133 336.392 107.303 336.968H107.127V332.344C107.127 332.099 107.186 331.917 107.303 331.8C107.431 331.672 107.613 331.608 107.847 331.608C108.082 331.608 108.263 331.672 108.391 331.8C108.519 331.917 108.583 332.099 108.583 332.344V342.36C108.583 342.605 108.519 342.792 108.391 342.92C108.263 343.048 108.082 343.112 107.847 343.112C107.623 343.112 107.447 343.048 107.319 342.92C107.191 342.792 107.127 342.605 107.127 342.36V340.904L107.303 341.192C107.143 341.789 106.807 342.264 106.295 342.616C105.794 342.968 105.197 343.144 104.503 343.144ZM104.839 341.992C105.309 341.992 105.714 341.88 106.055 341.656C106.407 341.432 106.674 341.107 106.855 340.68C107.047 340.253 107.143 339.725 107.143 339.096C107.143 338.157 106.935 337.443 106.519 336.952C106.103 336.461 105.543 336.216 104.839 336.216C104.381 336.216 103.975 336.328 103.623 336.552C103.282 336.765 103.015 337.085 102.823 337.512C102.631 337.939 102.535 338.467 102.535 339.096C102.535 340.035 102.743 340.755 103.159 341.256C103.586 341.747 104.146 341.992 104.839 341.992ZM114.23 343.144C113.462 343.144 112.795 342.979 112.23 342.648C111.665 342.317 111.227 341.848 110.918 341.24C110.609 340.632 110.454 339.917 110.454 339.096C110.454 338.477 110.539 337.923 110.71 337.432C110.891 336.931 111.147 336.504 111.478 336.152C111.809 335.8 112.203 335.533 112.662 335.352C113.131 335.16 113.654 335.064 114.23 335.064C114.998 335.064 115.665 335.229 116.23 335.56C116.795 335.891 117.233 336.36 117.542 336.968C117.851 337.565 118.006 338.275 118.006 339.096C118.006 339.715 117.915 340.275 117.734 340.776C117.563 341.277 117.313 341.704 116.982 342.056C116.651 342.408 116.251 342.68 115.782 342.872C115.323 343.053 114.806 343.144 114.23 343.144ZM114.23 341.992C114.699 341.992 115.105 341.88 115.446 341.656C115.798 341.432 116.065 341.107 116.246 340.68C116.438 340.253 116.534 339.725 116.534 339.096C116.534 338.157 116.326 337.443 115.91 336.952C115.494 336.461 114.934 336.216 114.23 336.216C113.771 336.216 113.366 336.328 113.014 336.552C112.673 336.765 112.406 337.085 112.214 337.512C112.022 337.939 111.926 338.467 111.926 339.096C111.926 340.035 112.134 340.755 112.55 341.256C112.977 341.747 113.537 341.992 114.23 341.992ZM120.591 343.112C120.367 343.112 120.191 343.048 120.063 342.92C119.935 342.792 119.871 342.605 119.871 342.36V335.832C119.871 335.587 119.935 335.405 120.063 335.288C120.191 335.16 120.367 335.096 120.591 335.096C120.815 335.096 120.986 335.16 121.103 335.288C121.231 335.405 121.295 335.587 121.295 335.832V337.144L121.119 336.904C121.343 336.296 121.706 335.837 122.207 335.528C122.719 335.219 123.3 335.064 123.951 335.064C124.58 335.064 125.098 335.176 125.503 335.4C125.908 335.624 126.212 335.965 126.415 336.424C126.618 336.883 126.719 337.464 126.719 338.168V342.36C126.719 342.605 126.655 342.792 126.527 342.92C126.41 343.048 126.234 343.112 125.999 343.112C125.764 343.112 125.583 343.048 125.455 342.92C125.327 342.792 125.263 342.605 125.263 342.36V338.248C125.263 337.555 125.13 337.048 124.863 336.728C124.596 336.408 124.17 336.248 123.583 336.248C122.9 336.248 122.351 336.461 121.935 336.888C121.53 337.304 121.327 337.869 121.327 338.584V342.36C121.327 342.861 121.082 343.112 120.591 343.112ZM129.595 335.048C129.488 335.187 129.371 335.267 129.243 335.288C129.125 335.309 129.019 335.288 128.923 335.224C128.837 335.16 128.789 335.064 128.779 334.936C128.768 334.808 128.821 334.669 128.939 334.52C129.12 334.296 129.243 334.067 129.307 333.832C129.381 333.587 129.419 333.368 129.419 333.176L129.483 333.544C129.184 333.544 128.939 333.459 128.747 333.288C128.565 333.117 128.475 332.888 128.475 332.6C128.475 332.323 128.56 332.099 128.731 331.928C128.901 331.747 129.131 331.656 129.419 331.656C129.707 331.656 129.936 331.757 130.107 331.96C130.288 332.152 130.379 332.44 130.379 332.824C130.379 333.048 130.352 333.288 130.299 333.544C130.256 333.789 130.181 334.04 130.075 334.296C129.968 334.552 129.808 334.803 129.595 335.048ZM135.744 343.144C135.114 343.144 134.586 343.032 134.16 342.808C133.744 342.584 133.429 342.259 133.216 341.832C133.013 341.405 132.912 340.883 132.912 340.264V336.328H131.888C131.696 336.328 131.546 336.28 131.44 336.184C131.333 336.077 131.28 335.939 131.28 335.768C131.28 335.587 131.333 335.448 131.44 335.352C131.546 335.256 131.696 335.208 131.888 335.208H132.912V333.464C132.912 333.219 132.976 333.037 133.104 332.92C133.232 332.792 133.413 332.728 133.648 332.728C133.882 332.728 134.058 332.792 134.176 332.92C134.304 333.037 134.368 333.219 134.368 333.464V335.208H136.304C136.506 335.208 136.661 335.256 136.768 335.352C136.874 335.448 136.928 335.587 136.928 335.768C136.928 335.939 136.874 336.077 136.768 336.184C136.661 336.28 136.506 336.328 136.304 336.328H134.368V340.136C134.368 340.723 134.49 341.165 134.736 341.464C134.981 341.763 135.386 341.912 135.952 341.912C136.154 341.912 136.325 341.896 136.464 341.864C136.602 341.821 136.725 341.8 136.832 341.8C136.928 341.789 137.008 341.821 137.072 341.896C137.146 341.971 137.184 342.109 137.184 342.312C137.184 342.461 137.157 342.6 137.104 342.728C137.061 342.845 136.97 342.925 136.832 342.968C136.704 343.011 136.533 343.048 136.32 343.08C136.106 343.123 135.914 343.144 135.744 343.144ZM143.138 343.112C142.914 343.112 142.738 343.048 142.61 342.92C142.482 342.792 142.418 342.605 142.418 342.36V332.344C142.418 332.099 142.482 331.917 142.61 331.8C142.738 331.672 142.914 331.608 143.138 331.608C143.373 331.608 143.554 331.672 143.682 331.8C143.81 331.917 143.874 332.099 143.874 332.344V338.648H143.906L147.042 335.592C147.202 335.432 147.346 335.309 147.474 335.224C147.602 335.139 147.767 335.096 147.97 335.096C148.173 335.096 148.327 335.149 148.434 335.256C148.541 335.352 148.594 335.48 148.594 335.64C148.594 335.789 148.519 335.939 148.37 336.088L145.042 339.32V338.6L148.674 342.104C148.823 342.253 148.893 342.408 148.882 342.568C148.882 342.728 148.823 342.861 148.706 342.968C148.599 343.064 148.455 343.112 148.274 343.112C148.061 343.112 147.885 343.069 147.746 342.984C147.618 342.899 147.469 342.765 147.298 342.584L143.906 339.384H143.874V342.36C143.874 342.861 143.629 343.112 143.138 343.112ZM151.263 343.112C151.039 343.112 150.863 343.048 150.735 342.92C150.607 342.792 150.543 342.605 150.543 342.36V335.832C150.543 335.587 150.607 335.405 150.735 335.288C150.863 335.16 151.039 335.096 151.263 335.096C151.487 335.096 151.658 335.16 151.775 335.288C151.903 335.405 151.967 335.587 151.967 335.832V337.144L151.791 336.904C152.015 336.296 152.378 335.837 152.879 335.528C153.391 335.219 153.972 335.064 154.623 335.064C155.252 335.064 155.77 335.176 156.175 335.4C156.58 335.624 156.884 335.965 157.087 336.424C157.29 336.883 157.391 337.464 157.391 338.168V342.36C157.391 342.605 157.327 342.792 157.199 342.92C157.082 343.048 156.906 343.112 156.671 343.112C156.436 343.112 156.255 343.048 156.127 342.92C155.999 342.792 155.935 342.605 155.935 342.36V338.248C155.935 337.555 155.802 337.048 155.535 336.728C155.268 336.408 154.842 336.248 154.255 336.248C153.572 336.248 153.023 336.461 152.607 336.888C152.202 337.304 151.999 337.869 151.999 338.584V342.36C151.999 342.861 151.754 343.112 151.263 343.112ZM163.011 343.144C162.243 343.144 161.577 342.979 161.011 342.648C160.446 342.317 160.009 341.848 159.699 341.24C159.39 340.632 159.235 339.917 159.235 339.096C159.235 338.477 159.321 337.923 159.491 337.432C159.673 336.931 159.929 336.504 160.259 336.152C160.59 335.8 160.985 335.533 161.443 335.352C161.913 335.16 162.435 335.064 163.011 335.064C163.779 335.064 164.446 335.229 165.011 335.56C165.577 335.891 166.014 336.36 166.323 336.968C166.633 337.565 166.787 338.275 166.787 339.096C166.787 339.715 166.697 340.275 166.515 340.776C166.345 341.277 166.094 341.704 165.763 342.056C165.433 342.408 165.033 342.68 164.563 342.872C164.105 343.053 163.587 343.144 163.011 343.144ZM163.011 341.992C163.481 341.992 163.886 341.88 164.227 341.656C164.579 341.432 164.846 341.107 165.027 340.68C165.219 340.253 165.315 339.725 165.315 339.096C165.315 338.157 165.107 337.443 164.691 336.952C164.275 336.461 163.715 336.216 163.011 336.216C162.553 336.216 162.147 336.328 161.795 336.552C161.454 336.765 161.187 337.085 160.995 337.512C160.803 337.939 160.707 338.467 160.707 339.096C160.707 340.035 160.915 340.755 161.331 341.256C161.758 341.747 162.318 341.992 163.011 341.992ZM171.295 343.112C171.093 343.112 170.917 343.064 170.767 342.968C170.618 342.861 170.501 342.691 170.415 342.456L168.031 336.104C167.957 335.901 167.935 335.725 167.967 335.576C167.999 335.427 168.074 335.309 168.191 335.224C168.309 335.139 168.463 335.096 168.655 335.096C168.837 335.096 168.981 335.139 169.087 335.224C169.194 335.309 169.285 335.464 169.359 335.688L171.535 341.832H171.151L173.391 335.656C173.466 335.464 173.562 335.325 173.679 335.24C173.807 335.144 173.962 335.096 174.143 335.096C174.335 335.096 174.495 335.144 174.623 335.24C174.751 335.325 174.842 335.464 174.895 335.656L177.103 341.832H176.735L178.943 335.656C179.018 335.443 179.114 335.299 179.231 335.224C179.349 335.139 179.493 335.096 179.663 335.096C179.855 335.096 179.999 335.144 180.095 335.24C180.191 335.336 180.245 335.464 180.255 335.624C180.277 335.773 180.255 335.933 180.191 336.104L177.807 342.456C177.733 342.68 177.615 342.845 177.455 342.952C177.306 343.059 177.13 343.112 176.927 343.112C176.725 343.112 176.543 343.059 176.383 342.952C176.234 342.845 176.117 342.68 176.031 342.456L173.743 336.184H174.479L172.191 342.456C172.106 342.68 171.989 342.845 171.839 342.952C171.69 343.059 171.509 343.112 171.295 343.112ZM188.967 343.112C188.765 343.112 188.589 343.064 188.439 342.968C188.29 342.861 188.173 342.691 188.087 342.456L185.703 336.104C185.629 335.901 185.607 335.725 185.639 335.576C185.671 335.427 185.746 335.309 185.863 335.224C185.981 335.139 186.135 335.096 186.327 335.096C186.509 335.096 186.653 335.139 186.759 335.224C186.866 335.309 186.957 335.464 187.031 335.688L189.207 341.832H188.823L191.063 335.656C191.138 335.464 191.234 335.325 191.351 335.24C191.479 335.144 191.634 335.096 191.815 335.096C192.007 335.096 192.167 335.144 192.295 335.24C192.423 335.325 192.514 335.464 192.567 335.656L194.775 341.832H194.407L196.615 335.656C196.69 335.443 196.786 335.299 196.903 335.224C197.021 335.139 197.165 335.096 197.335 335.096C197.527 335.096 197.671 335.144 197.767 335.24C197.863 335.336 197.917 335.464 197.927 335.624C197.949 335.773 197.927 335.933 197.863 336.104L195.479 342.456C195.405 342.68 195.287 342.845 195.127 342.952C194.978 343.059 194.802 343.112 194.599 343.112C194.397 343.112 194.215 343.059 194.055 342.952C193.906 342.845 193.789 342.68 193.703 342.456L191.415 336.184H192.151L189.863 342.456C189.778 342.68 189.661 342.845 189.511 342.952C189.362 343.059 189.181 343.112 188.967 343.112ZM200.419 343.112C200.195 343.112 200.019 343.048 199.891 342.92C199.763 342.792 199.699 342.605 199.699 342.36V332.344C199.699 332.099 199.763 331.917 199.891 331.8C200.019 331.672 200.195 331.608 200.419 331.608C200.654 331.608 200.835 331.672 200.963 331.8C201.091 331.917 201.155 332.099 201.155 332.344V336.904H200.947C201.171 336.296 201.534 335.837 202.035 335.528C202.547 335.219 203.129 335.064 203.779 335.064C204.409 335.064 204.926 335.181 205.331 335.416C205.737 335.64 206.041 335.981 206.243 336.44C206.446 336.899 206.547 337.475 206.547 338.168V342.36C206.547 342.605 206.483 342.792 206.355 342.92C206.238 343.048 206.062 343.112 205.827 343.112C205.593 343.112 205.411 343.048 205.283 342.92C205.155 342.792 205.091 342.605 205.091 342.36V338.248C205.091 337.555 204.958 337.048 204.691 336.728C204.425 336.408 203.998 336.248 203.411 336.248C202.729 336.248 202.179 336.461 201.763 336.888C201.358 337.304 201.155 337.869 201.155 338.584V342.36C201.155 342.861 200.91 343.112 200.419 343.112ZM212.456 343.144C211.613 343.144 210.888 342.984 210.28 342.664C209.682 342.333 209.218 341.869 208.888 341.272C208.557 340.664 208.392 339.949 208.392 339.128C208.392 338.317 208.552 337.608 208.872 337C209.202 336.392 209.65 335.917 210.216 335.576C210.792 335.235 211.448 335.064 212.184 335.064C212.706 335.064 213.176 335.155 213.592 335.336C214.018 335.507 214.381 335.757 214.68 336.088C214.978 336.419 215.202 336.824 215.352 337.304C215.512 337.773 215.592 338.307 215.592 338.904C215.592 339.075 215.538 339.208 215.432 339.304C215.336 339.389 215.192 339.432 215 339.432H209.528V338.504H214.632L214.36 338.728C214.36 338.173 214.274 337.704 214.104 337.32C213.944 336.925 213.704 336.627 213.384 336.424C213.074 336.221 212.685 336.12 212.216 336.12C211.704 336.12 211.266 336.243 210.904 336.488C210.541 336.723 210.264 337.059 210.072 337.496C209.88 337.923 209.784 338.419 209.784 338.984V339.08C209.784 340.04 210.013 340.765 210.472 341.256C210.93 341.747 211.592 341.992 212.456 341.992C212.797 341.992 213.144 341.949 213.496 341.864C213.858 341.779 214.205 341.624 214.536 341.4C214.696 341.304 214.84 341.261 214.968 341.272C215.106 341.272 215.218 341.315 215.304 341.4C215.389 341.475 215.442 341.571 215.464 341.688C215.485 341.795 215.469 341.912 215.416 342.04C215.362 342.168 215.261 342.28 215.112 342.376C214.76 342.621 214.338 342.813 213.848 342.952C213.368 343.08 212.904 343.144 212.456 343.144ZM218.122 343.112C217.898 343.112 217.722 343.048 217.594 342.92C217.466 342.792 217.402 342.605 217.402 342.36V335.832C217.402 335.587 217.466 335.405 217.594 335.288C217.722 335.16 217.898 335.096 218.122 335.096C218.346 335.096 218.517 335.16 218.634 335.288C218.762 335.405 218.826 335.587 218.826 335.832V337.144L218.65 336.904C218.874 336.296 219.237 335.837 219.738 335.528C220.25 335.219 220.832 335.064 221.482 335.064C222.112 335.064 222.629 335.176 223.034 335.4C223.44 335.624 223.744 335.965 223.946 336.424C224.149 336.883 224.25 337.464 224.25 338.168V342.36C224.25 342.605 224.186 342.792 224.058 342.92C223.941 343.048 223.765 343.112 223.53 343.112C223.296 343.112 223.114 343.048 222.986 342.92C222.858 342.792 222.794 342.605 222.794 342.36V338.248C222.794 337.555 222.661 337.048 222.394 336.728C222.128 336.408 221.701 336.248 221.114 336.248C220.432 336.248 219.882 336.461 219.466 336.888C219.061 337.304 218.858 337.869 218.858 338.584V342.36C218.858 342.861 218.613 343.112 218.122 343.112ZM231.451 343.08C231.227 343.08 231.051 343.011 230.923 342.872C230.795 342.733 230.731 342.541 230.731 342.296V335.912C230.731 335.656 230.795 335.464 230.923 335.336C231.051 335.197 231.227 335.128 231.451 335.128C231.685 335.128 231.867 335.197 231.995 335.336C232.123 335.464 232.187 335.656 232.187 335.912V342.296C232.187 342.541 232.123 342.733 231.995 342.872C231.877 343.011 231.696 343.08 231.451 343.08ZM231.451 333.4C231.163 333.4 230.933 333.325 230.763 333.176C230.603 333.016 230.523 332.808 230.523 332.552C230.523 332.275 230.603 332.067 230.763 331.928C230.933 331.779 231.163 331.704 231.451 331.704C231.76 331.704 231.989 331.779 232.139 331.928C232.299 332.067 232.379 332.275 232.379 332.552C232.379 332.808 232.299 333.016 232.139 333.176C231.989 333.325 231.76 333.4 231.451 333.4ZM237.759 343.144C237.13 343.144 236.602 343.032 236.175 342.808C235.759 342.584 235.445 342.259 235.231 341.832C235.029 341.405 234.927 340.883 234.927 340.264V336.328H233.903C233.711 336.328 233.562 336.28 233.455 336.184C233.349 336.077 233.295 335.939 233.295 335.768C233.295 335.587 233.349 335.448 233.455 335.352C233.562 335.256 233.711 335.208 233.903 335.208H234.927V333.464C234.927 333.219 234.991 333.037 235.119 332.92C235.247 332.792 235.429 332.728 235.663 332.728C235.898 332.728 236.074 332.792 236.191 332.92C236.319 333.037 236.383 333.219 236.383 333.464V335.208H238.319C238.522 335.208 238.677 335.256 238.783 335.352C238.89 335.448 238.943 335.587 238.943 335.768C238.943 335.939 238.89 336.077 238.783 336.184C238.677 336.28 238.522 336.328 238.319 336.328H236.383V340.136C236.383 340.723 236.506 341.165 236.751 341.464C236.997 341.763 237.402 341.912 237.967 341.912C238.17 341.912 238.341 341.896 238.479 341.864C238.618 341.821 238.741 341.8 238.847 341.8C238.943 341.789 239.023 341.821 239.087 341.896C239.162 341.971 239.199 342.109 239.199 342.312C239.199 342.461 239.173 342.6 239.119 342.728C239.077 342.845 238.986 342.925 238.847 342.968C238.719 343.011 238.549 343.048 238.335 343.08C238.122 343.123 237.93 343.144 237.759 343.144ZM245.154 343.08C244.93 343.08 244.754 343.011 244.626 342.872C244.498 342.733 244.434 342.541 244.434 342.296V335.912C244.434 335.656 244.498 335.464 244.626 335.336C244.754 335.197 244.93 335.128 245.154 335.128C245.388 335.128 245.57 335.197 245.698 335.336C245.826 335.464 245.89 335.656 245.89 335.912V342.296C245.89 342.541 245.826 342.733 245.698 342.872C245.58 343.011 245.399 343.08 245.154 343.08ZM245.154 333.4C244.866 333.4 244.636 333.325 244.466 333.176C244.306 333.016 244.226 332.808 244.226 332.552C244.226 332.275 244.306 332.067 244.466 331.928C244.636 331.779 244.866 331.704 245.154 331.704C245.463 331.704 245.692 331.779 245.842 331.928C246.002 332.067 246.082 332.275 246.082 332.552C246.082 332.808 246.002 333.016 245.842 333.176C245.692 333.325 245.463 333.4 245.154 333.4ZM250.919 343.144C250.439 343.144 249.953 343.091 249.463 342.984C248.983 342.867 248.529 342.669 248.103 342.392C247.985 342.317 247.9 342.227 247.847 342.12C247.804 342.003 247.788 341.891 247.799 341.784C247.82 341.667 247.868 341.565 247.943 341.48C248.017 341.395 248.108 341.347 248.215 341.336C248.332 341.315 248.455 341.341 248.583 341.416C248.999 341.651 249.399 341.816 249.783 341.912C250.177 342.008 250.567 342.056 250.951 342.056C251.537 342.056 251.98 341.949 252.279 341.736C252.577 341.523 252.727 341.24 252.727 340.888C252.727 340.589 252.625 340.36 252.423 340.2C252.231 340.029 251.927 339.901 251.511 339.816L250.023 339.512C249.361 339.363 248.86 339.117 248.519 338.776C248.188 338.424 248.023 337.976 248.023 337.432C248.023 336.952 248.151 336.536 248.407 336.184C248.673 335.821 249.041 335.544 249.511 335.352C249.98 335.16 250.519 335.064 251.127 335.064C251.596 335.064 252.039 335.128 252.455 335.256C252.881 335.373 253.265 335.555 253.607 335.8C253.735 335.875 253.815 335.971 253.847 336.088C253.889 336.195 253.895 336.307 253.863 336.424C253.841 336.531 253.793 336.621 253.719 336.696C253.644 336.771 253.548 336.819 253.431 336.84C253.313 336.851 253.185 336.819 253.047 336.744C252.737 336.531 252.417 336.381 252.087 336.296C251.767 336.2 251.447 336.152 251.127 336.152C250.551 336.152 250.113 336.264 249.815 336.488C249.527 336.712 249.383 337.005 249.383 337.368C249.383 337.645 249.468 337.875 249.639 338.056C249.82 338.237 250.103 338.371 250.487 338.456L251.975 338.76C252.668 338.909 253.191 339.149 253.543 339.48C253.895 339.8 254.071 340.237 254.071 340.792C254.071 341.517 253.783 342.093 253.207 342.52C252.641 342.936 251.879 343.144 250.919 343.144Z" fill="#1F1F23"/>
<circle cx="22.5" cy="372" r="4.5" fill="#EFA247"/>
<path d="M49.48 377C49.2773 377 49.1173 376.941 49 376.824C48.8827 376.707 48.824 376.552 48.824 376.36C48.824 376.157 48.8827 376.003 49 375.896C49.1173 375.789 49.2773 375.736 49.48 375.736H51.496V366.952H52.264L49.928 368.456C49.7787 368.552 49.6347 368.595 49.496 368.584C49.368 368.563 49.256 368.509 49.16 368.424C49.064 368.328 49 368.216 48.968 368.088C48.936 367.96 48.9413 367.832 48.984 367.704C49.0373 367.565 49.144 367.453 49.304 367.368L51.512 365.928C51.672 365.832 51.8213 365.757 51.96 365.704C52.1093 365.64 52.2533 365.608 52.392 365.608C52.552 365.608 52.6907 365.656 52.808 365.752C52.9253 365.848 52.984 366.003 52.984 366.216V375.736H54.84C55.0533 375.736 55.2133 375.789 55.32 375.896C55.4373 376.003 55.496 376.157 55.496 376.36C55.496 376.563 55.4373 376.723 55.32 376.84C55.2133 376.947 55.0533 377 54.84 377H49.48ZM59.2978 377.112C59.1271 377.112 58.9778 377.069 58.8498 376.984C58.7324 376.899 58.6578 376.787 58.6258 376.648C58.6044 376.499 58.6418 376.328 58.7378 376.136L63.8098 366.392V366.984H58.1778C57.9644 366.984 57.7991 366.931 57.6818 366.824C57.5644 366.707 57.5058 366.552 57.5058 366.36C57.5058 366.157 57.5644 366.003 57.6818 365.896C57.7991 365.779 57.9644 365.72 58.1778 365.72H64.4978C64.7111 365.72 64.8818 365.779 65.0098 365.896C65.1484 366.003 65.2178 366.157 65.2178 366.36C65.2178 366.531 65.1964 366.68 65.1538 366.808C65.1111 366.925 65.0471 367.064 64.9618 367.224L60.1298 376.616C60.0444 376.787 59.9324 376.915 59.7938 377C59.6658 377.075 59.5004 377.112 59.2978 377.112ZM71.0995 376.984C71.0142 377.133 70.9075 377.229 70.7795 377.272C70.6622 377.325 70.5448 377.336 70.4275 377.304C70.3102 377.283 70.2088 377.224 70.1235 377.128C70.0488 377.043 70.0062 376.936 69.9955 376.808C69.9848 376.68 70.0168 376.541 70.0915 376.392L76.2035 365.768C76.2888 365.619 76.3902 365.517 76.5075 365.464C76.6248 365.411 76.7422 365.4 76.8595 365.432C76.9768 365.453 77.0728 365.512 77.1475 365.608C77.2328 365.693 77.2862 365.8 77.3075 365.928C77.3288 366.056 77.2968 366.195 77.2115 366.344L71.0995 376.984ZM69.7875 372.472C68.9235 372.472 68.2462 372.168 67.7555 371.56C67.2755 370.952 67.0355 370.104 67.0355 369.016C67.0355 368.291 67.1422 367.672 67.3555 367.16C67.5795 366.648 67.8942 366.259 68.2995 365.992C68.7155 365.715 69.2115 365.576 69.7875 365.576C70.6408 365.576 71.3128 365.88 71.8035 366.488C72.2942 367.096 72.5395 367.939 72.5395 369.016C72.5395 369.741 72.4275 370.365 72.2035 370.888C71.9902 371.4 71.6755 371.795 71.2595 372.072C70.8542 372.339 70.3635 372.472 69.7875 372.472ZM69.7875 371.432C70.1075 371.432 70.3795 371.347 70.6035 371.176C70.8275 370.995 70.9982 370.728 71.1155 370.376C71.2328 370.013 71.2915 369.56 71.2915 369.016C71.2915 368.216 71.1582 367.619 70.8915 367.224C70.6248 366.819 70.2568 366.616 69.7875 366.616C69.4782 366.616 69.2062 366.707 68.9715 366.888C68.7475 367.059 68.5715 367.325 68.4435 367.688C68.3262 368.04 68.2675 368.483 68.2675 369.016C68.2675 369.827 68.4008 370.435 68.6675 370.84C68.9448 371.235 69.3182 371.432 69.7875 371.432ZM77.5315 377.144C76.6675 377.144 75.9902 376.84 75.4995 376.232C75.0195 375.624 74.7795 374.776 74.7795 373.688C74.7795 372.963 74.8862 372.344 75.0995 371.832C75.3235 371.32 75.6382 370.931 76.0435 370.664C76.4595 370.387 76.9555 370.248 77.5315 370.248C78.3848 370.248 79.0568 370.552 79.5475 371.16C80.0382 371.768 80.2835 372.611 80.2835 373.688C80.2835 374.413 80.1715 375.037 79.9475 375.56C79.7342 376.072 79.4195 376.467 79.0035 376.744C78.5982 377.011 78.1075 377.144 77.5315 377.144ZM77.5315 376.104C77.8515 376.104 78.1235 376.019 78.3475 375.848C78.5715 375.667 78.7422 375.4 78.8595 375.048C78.9768 374.685 79.0355 374.232 79.0355 373.688C79.0355 372.888 78.9022 372.291 78.6355 371.896C78.3688 371.491 78.0008 371.288 77.5315 371.288C77.2222 371.288 76.9502 371.379 76.7155 371.56C76.4915 371.731 76.3155 371.997 76.1875 372.36C76.0702 372.712 76.0115 373.155 76.0115 373.688C76.0115 374.499 76.1448 375.107 76.4115 375.512C76.6888 375.907 77.0622 376.104 77.5315 376.104Z" fill="#1F1F23"/>
<path d="M94.096 377.112C93.8613 377.112 93.68 377.048 93.552 376.92C93.424 376.781 93.36 376.589 93.36 376.344V366.376C93.36 366.12 93.424 365.928 93.552 365.8C93.68 365.672 93.8613 365.608 94.096 365.608C94.3413 365.608 94.528 365.672 94.656 365.8C94.784 365.928 94.848 366.12 94.848 366.376V376.344C94.848 376.589 94.784 376.781 94.656 376.92C94.5387 377.048 94.352 377.112 94.096 377.112ZM104.503 377.144C103.821 377.144 103.218 376.984 102.695 376.664C102.183 376.333 101.783 375.864 101.495 375.256C101.207 374.637 101.063 373.917 101.063 373.096C101.063 372.264 101.202 371.549 101.479 370.952C101.767 370.344 102.167 369.88 102.679 369.56C103.202 369.229 103.81 369.064 104.503 369.064C105.197 369.064 105.794 369.24 106.295 369.592C106.797 369.933 107.133 370.392 107.303 370.968H107.127V366.344C107.127 366.099 107.186 365.917 107.303 365.8C107.431 365.672 107.613 365.608 107.847 365.608C108.082 365.608 108.263 365.672 108.391 365.8C108.519 365.917 108.583 366.099 108.583 366.344V376.36C108.583 376.605 108.519 376.792 108.391 376.92C108.263 377.048 108.082 377.112 107.847 377.112C107.623 377.112 107.447 377.048 107.319 376.92C107.191 376.792 107.127 376.605 107.127 376.36V374.904L107.303 375.192C107.143 375.789 106.807 376.264 106.295 376.616C105.794 376.968 105.197 377.144 104.503 377.144ZM104.839 375.992C105.309 375.992 105.714 375.88 106.055 375.656C106.407 375.432 106.674 375.107 106.855 374.68C107.047 374.253 107.143 373.725 107.143 373.096C107.143 372.157 106.935 371.443 106.519 370.952C106.103 370.461 105.543 370.216 104.839 370.216C104.381 370.216 103.975 370.328 103.623 370.552C103.282 370.765 103.015 371.085 102.823 371.512C102.631 371.939 102.535 372.467 102.535 373.096C102.535 374.035 102.743 374.755 103.159 375.256C103.586 375.747 104.146 375.992 104.839 375.992ZM114.23 377.144C113.462 377.144 112.795 376.979 112.23 376.648C111.665 376.317 111.227 375.848 110.918 375.24C110.609 374.632 110.454 373.917 110.454 373.096C110.454 372.477 110.539 371.923 110.71 371.432C110.891 370.931 111.147 370.504 111.478 370.152C111.809 369.8 112.203 369.533 112.662 369.352C113.131 369.16 113.654 369.064 114.23 369.064C114.998 369.064 115.665 369.229 116.23 369.56C116.795 369.891 117.233 370.36 117.542 370.968C117.851 371.565 118.006 372.275 118.006 373.096C118.006 373.715 117.915 374.275 117.734 374.776C117.563 375.277 117.313 375.704 116.982 376.056C116.651 376.408 116.251 376.68 115.782 376.872C115.323 377.053 114.806 377.144 114.23 377.144ZM114.23 375.992C114.699 375.992 115.105 375.88 115.446 375.656C115.798 375.432 116.065 375.107 116.246 374.68C116.438 374.253 116.534 373.725 116.534 373.096C116.534 372.157 116.326 371.443 115.91 370.952C115.494 370.461 114.934 370.216 114.23 370.216C113.771 370.216 113.366 370.328 113.014 370.552C112.673 370.765 112.406 371.085 112.214 371.512C112.022 371.939 111.926 372.467 111.926 373.096C111.926 374.035 112.134 374.755 112.55 375.256C112.977 375.747 113.537 375.992 114.23 375.992ZM120.591 377.112C120.367 377.112 120.191 377.048 120.063 376.92C119.935 376.792 119.871 376.605 119.871 376.36V369.832C119.871 369.587 119.935 369.405 120.063 369.288C120.191 369.16 120.367 369.096 120.591 369.096C120.815 369.096 120.986 369.16 121.103 369.288C121.231 369.405 121.295 369.587 121.295 369.832V371.144L121.119 370.904C121.343 370.296 121.706 369.837 122.207 369.528C122.719 369.219 123.3 369.064 123.951 369.064C124.58 369.064 125.098 369.176 125.503 369.4C125.908 369.624 126.212 369.965 126.415 370.424C126.618 370.883 126.719 371.464 126.719 372.168V376.36C126.719 376.605 126.655 376.792 126.527 376.92C126.41 377.048 126.234 377.112 125.999 377.112C125.764 377.112 125.583 377.048 125.455 376.92C125.327 376.792 125.263 376.605 125.263 376.36V372.248C125.263 371.555 125.13 371.048 124.863 370.728C124.596 370.408 124.17 370.248 123.583 370.248C122.9 370.248 122.351 370.461 121.935 370.888C121.53 371.304 121.327 371.869 121.327 372.584V376.36C121.327 376.861 121.082 377.112 120.591 377.112ZM129.595 369.048C129.488 369.187 129.371 369.267 129.243 369.288C129.125 369.309 129.019 369.288 128.923 369.224C128.837 369.16 128.789 369.064 128.779 368.936C128.768 368.808 128.821 368.669 128.939 368.52C129.12 368.296 129.243 368.067 129.307 367.832C129.381 367.587 129.419 367.368 129.419 367.176L129.483 367.544C129.184 367.544 128.939 367.459 128.747 367.288C128.565 367.117 128.475 366.888 128.475 366.6C128.475 366.323 128.56 366.099 128.731 365.928C128.901 365.747 129.131 365.656 129.419 365.656C129.707 365.656 129.936 365.757 130.107 365.96C130.288 366.152 130.379 366.44 130.379 366.824C130.379 367.048 130.352 367.288 130.299 367.544C130.256 367.789 130.181 368.04 130.075 368.296C129.968 368.552 129.808 368.803 129.595 369.048ZM135.744 377.144C135.114 377.144 134.586 377.032 134.16 376.808C133.744 376.584 133.429 376.259 133.216 375.832C133.013 375.405 132.912 374.883 132.912 374.264V370.328H131.888C131.696 370.328 131.546 370.28 131.44 370.184C131.333 370.077 131.28 369.939 131.28 369.768C131.28 369.587 131.333 369.448 131.44 369.352C131.546 369.256 131.696 369.208 131.888 369.208H132.912V367.464C132.912 367.219 132.976 367.037 133.104 366.92C133.232 366.792 133.413 366.728 133.648 366.728C133.882 366.728 134.058 366.792 134.176 366.92C134.304 367.037 134.368 367.219 134.368 367.464V369.208H136.304C136.506 369.208 136.661 369.256 136.768 369.352C136.874 369.448 136.928 369.587 136.928 369.768C136.928 369.939 136.874 370.077 136.768 370.184C136.661 370.28 136.506 370.328 136.304 370.328H134.368V374.136C134.368 374.723 134.49 375.165 134.736 375.464C134.981 375.763 135.386 375.912 135.952 375.912C136.154 375.912 136.325 375.896 136.464 375.864C136.602 375.821 136.725 375.8 136.832 375.8C136.928 375.789 137.008 375.821 137.072 375.896C137.146 375.971 137.184 376.109 137.184 376.312C137.184 376.461 137.157 376.6 137.104 376.728C137.061 376.845 136.97 376.925 136.832 376.968C136.704 377.011 136.533 377.048 136.32 377.08C136.106 377.123 135.914 377.144 135.744 377.144ZM144.866 377.144C144.066 377.144 143.458 376.909 143.042 376.44C142.626 375.96 142.418 375.272 142.418 374.376V366.344C142.418 366.099 142.482 365.917 142.61 365.8C142.738 365.672 142.914 365.608 143.138 365.608C143.373 365.608 143.554 365.672 143.682 365.8C143.81 365.917 143.874 366.099 143.874 366.344V374.264C143.874 374.819 143.986 375.235 144.21 375.512C144.445 375.779 144.775 375.912 145.202 375.912C145.298 375.912 145.383 375.912 145.458 375.912C145.533 375.901 145.607 375.891 145.682 375.88C145.799 375.869 145.885 375.901 145.938 375.976C145.991 376.051 146.018 376.2 146.018 376.424C146.018 376.627 145.97 376.787 145.874 376.904C145.789 377.011 145.645 377.08 145.442 377.112C145.346 377.123 145.25 377.128 145.154 377.128C145.058 377.139 144.962 377.144 144.866 377.144ZM147.951 377.08C147.727 377.08 147.551 377.011 147.423 376.872C147.295 376.733 147.231 376.541 147.231 376.296V369.912C147.231 369.656 147.295 369.464 147.423 369.336C147.551 369.197 147.727 369.128 147.951 369.128C148.185 369.128 148.367 369.197 148.495 369.336C148.623 369.464 148.687 369.656 148.687 369.912V376.296C148.687 376.541 148.623 376.733 148.495 376.872C148.377 377.011 148.196 377.08 147.951 377.08ZM147.951 367.4C147.663 367.4 147.433 367.325 147.263 367.176C147.103 367.016 147.023 366.808 147.023 366.552C147.023 366.275 147.103 366.067 147.263 365.928C147.433 365.779 147.663 365.704 147.951 365.704C148.26 365.704 148.489 365.779 148.639 365.928C148.799 366.067 148.879 366.275 148.879 366.552C148.879 366.808 148.799 367.016 148.639 367.176C148.489 367.325 148.26 367.4 147.951 367.4ZM151.747 377.112C151.523 377.112 151.347 377.048 151.219 376.92C151.091 376.792 151.027 376.605 151.027 376.36V366.344C151.027 366.099 151.091 365.917 151.219 365.8C151.347 365.672 151.523 365.608 151.747 365.608C151.982 365.608 152.163 365.672 152.291 365.8C152.419 365.917 152.483 366.099 152.483 366.344V372.648H152.515L155.651 369.592C155.811 369.432 155.955 369.309 156.083 369.224C156.211 369.139 156.377 369.096 156.579 369.096C156.782 369.096 156.937 369.149 157.043 369.256C157.15 369.352 157.203 369.48 157.203 369.64C157.203 369.789 157.129 369.939 156.979 370.088L153.651 373.32V372.6L157.283 376.104C157.433 376.253 157.502 376.408 157.491 376.568C157.491 376.728 157.433 376.861 157.315 376.968C157.209 377.064 157.065 377.112 156.883 377.112C156.67 377.112 156.494 377.069 156.355 376.984C156.227 376.899 156.078 376.765 155.907 376.584L152.515 373.384H152.483V376.36C152.483 376.861 152.238 377.112 151.747 377.112ZM162.565 377.144C161.722 377.144 160.997 376.984 160.389 376.664C159.792 376.333 159.328 375.869 158.997 375.272C158.666 374.664 158.501 373.949 158.501 373.128C158.501 372.317 158.661 371.608 158.981 371C159.312 370.392 159.76 369.917 160.325 369.576C160.901 369.235 161.557 369.064 162.293 369.064C162.816 369.064 163.285 369.155 163.701 369.336C164.128 369.507 164.49 369.757 164.789 370.088C165.088 370.419 165.312 370.824 165.461 371.304C165.621 371.773 165.701 372.307 165.701 372.904C165.701 373.075 165.648 373.208 165.541 373.304C165.445 373.389 165.301 373.432 165.109 373.432H159.637V372.504H164.741L164.469 372.728C164.469 372.173 164.384 371.704 164.213 371.32C164.053 370.925 163.813 370.627 163.493 370.424C163.184 370.221 162.794 370.12 162.325 370.12C161.813 370.12 161.376 370.243 161.013 370.488C160.65 370.723 160.373 371.059 160.181 371.496C159.989 371.923 159.893 372.419 159.893 372.984V373.08C159.893 374.04 160.122 374.765 160.581 375.256C161.04 375.747 161.701 375.992 162.565 375.992C162.906 375.992 163.253 375.949 163.605 375.864C163.968 375.779 164.314 375.624 164.645 375.4C164.805 375.304 164.949 375.261 165.077 375.272C165.216 375.272 165.328 375.315 165.413 375.4C165.498 375.475 165.552 375.571 165.573 375.688C165.594 375.795 165.578 375.912 165.525 376.04C165.472 376.168 165.37 376.28 165.221 376.376C164.869 376.621 164.448 376.813 163.957 376.952C163.477 377.08 163.013 377.144 162.565 377.144ZM174.372 377.144C173.892 377.144 173.406 377.091 172.916 376.984C172.436 376.867 171.982 376.669 171.556 376.392C171.438 376.317 171.353 376.227 171.3 376.12C171.257 376.003 171.241 375.891 171.252 375.784C171.273 375.667 171.321 375.565 171.396 375.48C171.47 375.395 171.561 375.347 171.668 375.336C171.785 375.315 171.908 375.341 172.036 375.416C172.452 375.651 172.852 375.816 173.236 375.912C173.63 376.008 174.02 376.056 174.404 376.056C174.99 376.056 175.433 375.949 175.732 375.736C176.03 375.523 176.18 375.24 176.18 374.888C176.18 374.589 176.078 374.36 175.876 374.2C175.684 374.029 175.38 373.901 174.964 373.816L173.476 373.512C172.814 373.363 172.313 373.117 171.972 372.776C171.641 372.424 171.476 371.976 171.476 371.432C171.476 370.952 171.604 370.536 171.86 370.184C172.126 369.821 172.494 369.544 172.964 369.352C173.433 369.16 173.972 369.064 174.58 369.064C175.049 369.064 175.492 369.128 175.908 369.256C176.334 369.373 176.718 369.555 177.06 369.8C177.188 369.875 177.268 369.971 177.3 370.088C177.342 370.195 177.348 370.307 177.316 370.424C177.294 370.531 177.246 370.621 177.172 370.696C177.097 370.771 177.001 370.819 176.884 370.84C176.766 370.851 176.638 370.819 176.5 370.744C176.19 370.531 175.87 370.381 175.54 370.296C175.22 370.2 174.9 370.152 174.58 370.152C174.004 370.152 173.566 370.264 173.268 370.488C172.98 370.712 172.836 371.005 172.836 371.368C172.836 371.645 172.921 371.875 173.092 372.056C173.273 372.237 173.556 372.371 173.94 372.456L175.428 372.76C176.121 372.909 176.644 373.149 176.996 373.48C177.348 373.8 177.524 374.237 177.524 374.792C177.524 375.517 177.236 376.093 176.66 376.52C176.094 376.936 175.332 377.144 174.372 377.144ZM180.138 379.992C179.914 379.992 179.738 379.928 179.61 379.8C179.482 379.672 179.418 379.491 179.418 379.256V369.832C179.418 369.587 179.482 369.405 179.61 369.288C179.738 369.16 179.914 369.096 180.138 369.096C180.373 369.096 180.549 369.16 180.666 369.288C180.794 369.405 180.858 369.587 180.858 369.832V371.288L180.682 371C180.853 370.413 181.189 369.944 181.69 369.592C182.191 369.24 182.794 369.064 183.498 369.064C184.191 369.064 184.794 369.229 185.306 369.56C185.818 369.88 186.218 370.344 186.506 370.952C186.794 371.549 186.938 372.264 186.938 373.096C186.938 373.917 186.794 374.637 186.506 375.256C186.229 375.864 185.829 376.333 185.306 376.664C184.794 376.984 184.191 377.144 183.498 377.144C182.805 377.144 182.207 376.968 181.706 376.616C181.205 376.264 180.869 375.8 180.698 375.224H180.874V379.256C180.874 379.491 180.81 379.672 180.682 379.8C180.554 379.928 180.373 379.992 180.138 379.992ZM183.162 375.992C183.621 375.992 184.021 375.88 184.362 375.656C184.714 375.432 184.986 375.107 185.178 374.68C185.37 374.253 185.466 373.725 185.466 373.096C185.466 372.157 185.258 371.443 184.842 370.952C184.426 370.461 183.866 370.216 183.162 370.216C182.693 370.216 182.282 370.328 181.93 370.552C181.589 370.765 181.322 371.085 181.13 371.512C180.949 371.939 180.858 372.467 180.858 373.096C180.858 374.035 181.066 374.755 181.482 375.256C181.898 375.747 182.458 375.992 183.162 375.992ZM192.121 377.144C191.353 377.144 190.686 376.979 190.121 376.648C189.555 376.317 189.118 375.848 188.809 375.24C188.499 374.632 188.345 373.917 188.345 373.096C188.345 372.477 188.43 371.923 188.601 371.432C188.782 370.931 189.038 370.504 189.369 370.152C189.699 369.8 190.094 369.533 190.553 369.352C191.022 369.16 191.545 369.064 192.121 369.064C192.889 369.064 193.555 369.229 194.121 369.56C194.686 369.891 195.123 370.36 195.433 370.968C195.742 371.565 195.897 372.275 195.897 373.096C195.897 373.715 195.806 374.275 195.625 374.776C195.454 375.277 195.203 375.704 194.873 376.056C194.542 376.408 194.142 376.68 193.673 376.872C193.214 377.053 192.697 377.144 192.121 377.144ZM192.121 375.992C192.59 375.992 192.995 375.88 193.337 375.656C193.689 375.432 193.955 375.107 194.137 374.68C194.329 374.253 194.425 373.725 194.425 373.096C194.425 372.157 194.217 371.443 193.801 370.952C193.385 370.461 192.825 370.216 192.121 370.216C191.662 370.216 191.257 370.328 190.905 370.552C190.563 370.765 190.297 371.085 190.105 371.512C189.913 371.939 189.817 372.467 189.817 373.096C189.817 374.035 190.025 374.755 190.441 375.256C190.867 375.747 191.427 375.992 192.121 375.992ZM198.514 377.112C198.268 377.112 198.082 377.048 197.954 376.92C197.826 376.792 197.762 376.605 197.762 376.36V369.832C197.762 369.587 197.826 369.405 197.954 369.288C198.082 369.16 198.258 369.096 198.482 369.096C198.706 369.096 198.876 369.16 198.994 369.288C199.122 369.405 199.186 369.587 199.186 369.832V371.064H199.026C199.196 370.424 199.516 369.939 199.986 369.608C200.455 369.277 201.047 369.091 201.762 369.048C201.932 369.037 202.071 369.08 202.178 369.176C202.284 369.261 202.343 369.411 202.354 369.624C202.364 369.827 202.316 369.992 202.21 370.12C202.103 370.237 201.938 370.307 201.714 370.328L201.426 370.344C200.722 370.419 200.178 370.648 199.794 371.032C199.42 371.416 199.234 371.944 199.234 372.616V376.36C199.234 376.605 199.17 376.792 199.042 376.92C198.924 377.048 198.748 377.112 198.514 377.112ZM207.275 377.144C206.646 377.144 206.118 377.032 205.691 376.808C205.275 376.584 204.96 376.259 204.747 375.832C204.544 375.405 204.443 374.883 204.443 374.264V370.328H203.419C203.227 370.328 203.078 370.28 202.971 370.184C202.864 370.077 202.811 369.939 202.811 369.768C202.811 369.587 202.864 369.448 202.971 369.352C203.078 369.256 203.227 369.208 203.419 369.208H204.443V367.464C204.443 367.219 204.507 367.037 204.635 366.92C204.763 366.792 204.944 366.728 205.179 366.728C205.414 366.728 205.59 366.792 205.707 366.92C205.835 367.037 205.899 367.219 205.899 367.464V369.208H207.835C208.038 369.208 208.192 369.256 208.299 369.352C208.406 369.448 208.459 369.587 208.459 369.768C208.459 369.939 208.406 370.077 208.299 370.184C208.192 370.28 208.038 370.328 207.835 370.328H205.899V374.136C205.899 374.723 206.022 375.165 206.267 375.464C206.512 375.763 206.918 375.912 207.483 375.912C207.686 375.912 207.856 375.896 207.995 375.864C208.134 375.821 208.256 375.8 208.363 375.8C208.459 375.789 208.539 375.821 208.603 375.896C208.678 375.971 208.715 376.109 208.715 376.312C208.715 376.461 208.688 376.6 208.635 376.728C208.592 376.845 208.502 376.925 208.363 376.968C208.235 377.011 208.064 377.048 207.851 377.08C207.638 377.123 207.446 377.144 207.275 377.144ZM212.465 377.144C211.985 377.144 211.5 377.091 211.009 376.984C210.529 376.867 210.076 376.669 209.649 376.392C209.532 376.317 209.447 376.227 209.393 376.12C209.351 376.003 209.335 375.891 209.345 375.784C209.367 375.667 209.415 375.565 209.489 375.48C209.564 375.395 209.655 375.347 209.761 375.336C209.879 375.315 210.001 375.341 210.129 375.416C210.545 375.651 210.945 375.816 211.329 375.912C211.724 376.008 212.113 376.056 212.497 376.056C213.084 376.056 213.527 375.949 213.825 375.736C214.124 375.523 214.273 375.24 214.273 374.888C214.273 374.589 214.172 374.36 213.969 374.2C213.777 374.029 213.473 373.901 213.057 373.816L211.569 373.512C210.908 373.363 210.407 373.117 210.065 372.776C209.735 372.424 209.569 371.976 209.569 371.432C209.569 370.952 209.697 370.536 209.953 370.184C210.22 369.821 210.588 369.544 211.057 369.352C211.527 369.16 212.065 369.064 212.673 369.064C213.143 369.064 213.585 369.128 214.001 369.256C214.428 369.373 214.812 369.555 215.153 369.8C215.281 369.875 215.361 369.971 215.393 370.088C215.436 370.195 215.441 370.307 215.409 370.424C215.388 370.531 215.34 370.621 215.265 370.696C215.191 370.771 215.095 370.819 214.977 370.84C214.86 370.851 214.732 370.819 214.593 370.744C214.284 370.531 213.964 370.381 213.633 370.296C213.313 370.2 212.993 370.152 212.673 370.152C212.097 370.152 211.66 370.264 211.361 370.488C211.073 370.712 210.929 371.005 210.929 371.368C210.929 371.645 211.015 371.875 211.185 372.056C211.367 372.237 211.649 372.371 212.033 372.456L213.521 372.76C214.215 372.909 214.737 373.149 215.089 373.48C215.441 373.8 215.617 374.237 215.617 374.792C215.617 375.517 215.329 376.093 214.753 376.52C214.188 376.936 213.425 377.144 212.465 377.144Z" fill="#1F1F23"/>
</svg>
