<svg width="91" height="138" viewBox="0 0 91 138" fill="none" xmlns="http://www.w3.org/2000/svg">
<g id="MFS Logo">
<g id="Group">
<g id="Group_2">
<g id="Group_3">
<path id="Vector" d="M49.8047 137.974C59.8113 135.56 70.7633 129.059 76.6784 122.885C86.4879 109.986 71.9959 80.653 51.6957 65.6094C72.992 99.141 68.5065 121.039 49.8047 137.974Z" fill="url(#paint0_linear_4778_146176)"/>
<path id="Vector_2" d="M67.5286 34.5078C67.5286 34.5078 81.6942 54.369 88.2058 77.1567C92.1116 90.8271 90.8172 106.794 76.6741 122.884C87.4686 108.73 57.325 69.8741 51.6914 65.6081L67.5286 34.5078Z" fill="url(#paint1_linear_4778_146176)"/>
</g>
<g id="Group_4">
<path id="Vector_3" d="M0.795742 83.7812C-1.49485 102.494 8.36539 122.26 36.1452 137.968L44.9473 129.148C27.8157 119.66 10.6222 103.766 0.795742 83.7812Z" fill="url(#paint2_linear_4778_146176)"/>
</g>
<g id="Group_5">
<path id="Vector_4" d="M49.0391 129.151C54.3857 122.088 58.3928 118.216 51.9544 101.765L37.4961 90.8359C42.7583 97.3363 49.343 119.117 49.0391 129.151Z" fill="url(#paint3_linear_4778_146176)"/>
</g>
<g id="Group_6">
<path id="Vector_5" d="M54.3806 120.716C52.6922 97.8947 30.0508 91.5238 20.759 79.3167C14.6751 65.3762 22.0478 62.489 47.4526 38.4688C20.7646 68.3478 44.8918 82.7329 53.6996 100.866C56.6318 106.905 57.7124 113.299 54.3806 120.716Z" fill="url(#paint4_linear_4778_146176)"/>
<path id="Vector_6" d="M47.1427 0.664062C47.1427 0.664062 -14.5458 41.3882 20.753 79.3153C15.3164 63.6694 62.4395 25.0783 62.4395 25.0783L47.1427 0.664062Z" fill="url(#paint5_linear_4778_146176)"/>
<path id="Vector_7" d="M1.5103 76.7734C1.5103 76.7734 -12.5203 115.635 44.9472 129.148C28.5078 119.259 16.0756 82.4802 16.0756 82.4802L1.5103 76.7734Z" fill="url(#paint6_linear_4778_146176)"/>
</g>
</g>
</g>
<g id="Group_7">
<g id="Group_8">
<path id="Vector_8" d="M50.1309 88.5886L49.8945 88.1215L55.3649 86.8271L55.6069 87.3167L50.1309 88.5886ZM50.8569 90.0294L50.6205 89.5567L56.0966 88.2679L56.3442 88.7575L50.8569 90.0294ZM52.7029 90.5078L51.0314 87.1873L51.5604 86.9228L53.2319 90.2433L52.7029 90.5078ZM54.5264 90.0294L52.8436 86.6864L53.3726 86.4219L55.0554 89.7649L54.5264 90.0294Z" fill="#231F20"/>
<path id="Vector_9" d="M49.3421 81.3263C48.4528 81.8835 47.5467 82.4407 47.0289 82.7333L47.0458 82.7615C47.9519 82.4801 50.4845 81.9679 52.3305 81.5683L52.6907 82.1368C51.7283 83.3186 49.9274 85.5642 49.2464 86.2902L49.2576 86.3127C49.7867 85.93 50.8391 85.249 51.6552 84.7313L53.563 83.5325L53.9401 84.1291L49.162 87.1288L48.571 86.1833C49.7135 84.7087 51.2105 82.8459 51.7171 82.3L51.7114 82.2887C51.1824 82.4632 48.5879 82.9978 46.7926 83.3468L46.2129 82.4294L50.9911 79.4297L51.3794 80.0488L49.3421 81.3263Z" fill="#231F20"/>
<path id="Vector_10" d="M46.6077 80.2531C47.964 78.6772 48.7125 77.8049 49.0165 77.4953L49.0108 77.4897C48.5437 77.6135 47.5813 77.8443 45.4596 78.3226L45.0938 77.7036L49.5511 76.775C50.8005 76.5161 51.217 76.6286 51.6504 77.3546C51.7179 77.4672 51.7854 77.6023 51.853 77.7486L51.3239 78.0638C51.2845 77.9681 51.2283 77.8612 51.172 77.7598C50.9075 77.3096 50.6092 77.259 49.8944 77.3997L47.0073 80.9059L46.6077 80.2531Z" fill="#231F20"/>
<path id="Vector_11" d="M43.0897 77.1239L41.7559 73.7527L42.3524 73.5163L43.4105 76.2065L45.1158 75.5312L44.1196 73.0098L44.7162 72.7734L45.7123 75.2948L48.0648 74.3662L48.335 75.0528L43.0897 77.1239Z" fill="#231F20"/>
<path id="Vector_12" d="M45.6564 68.2604C46.0278 68.2098 46.4218 68.1253 46.54 68.0859L46.63 68.7613C46.5456 68.8063 46.3543 68.857 46.1066 68.902C46.3993 69.0089 46.7989 69.2847 46.9058 70.0782C47.0353 71.0406 46.4612 71.5303 45.8421 71.6147C44.9304 71.7329 44.4239 71.0744 44.2607 69.8644C44.2213 69.583 44.1875 69.3241 44.1706 69.1665L43.8217 69.2115C43.4615 69.2566 43.0394 69.431 43.1407 70.1964C43.2307 70.8774 43.5853 70.945 43.9117 70.9787L44.0018 71.6597C43.4333 71.6822 42.7355 71.4177 42.5835 70.2471C42.4541 69.2509 42.7861 68.6431 43.7147 68.5249L45.6564 68.2604ZM44.649 69.0933C44.6659 69.2228 44.7053 69.5323 44.739 69.7518C44.846 70.5623 45.1274 70.9675 45.7014 70.8943C46.1235 70.838 46.3937 70.506 46.3261 70.0051C46.1967 69.0258 45.5157 68.9808 44.7784 69.0765L44.649 69.0933Z" fill="#231F20"/>
<path id="Vector_13" d="M42.4593 66.7081C44.1646 66.2354 45.4365 65.8864 45.9543 65.7851V65.7795C45.4984 65.6557 44.294 65.1661 42.5606 64.4626L42.5944 63.7422L46.6297 65.4418L46.5959 66.2241L42.4199 67.4679L42.4593 66.7081Z" fill="#231F20"/>
<path id="Vector_14" d="M45.481 59.5678C46.6404 59.8041 47.4677 60.6596 47.2144 61.8921C46.9837 63.0459 45.9481 63.5636 44.7381 63.3216C43.5506 63.0853 42.7627 62.2129 43.0047 60.9973C43.2298 59.8773 44.2147 59.3145 45.481 59.5678ZM44.8788 62.6013C45.7624 62.7813 46.494 62.4662 46.6404 61.7458C46.7867 61.0085 46.2633 60.4682 45.3459 60.2881C44.4398 60.1024 43.7307 60.3895 43.5787 61.1492C43.4268 61.8978 43.9558 62.4212 44.8788 62.6013Z" fill="#231F20"/>
<path id="Vector_15" d="M44.9192 58.3225C44.3732 58.148 44.0637 58.0524 43.8555 57.9848L44.0693 57.3207C44.1819 57.3432 44.4914 57.4333 44.8741 57.5571C44.4126 57.18 44.2213 56.606 44.407 55.9531L45.0824 56.1726C44.846 56.983 45.0993 57.6303 46.0898 57.9511L47.9864 58.5645L47.7669 59.2399L44.9192 58.3225Z" fill="#231F20"/>
<path id="Vector_16" d="M43.1348 54.4241L43.3993 53.7656L44.221 54.092L43.9564 54.7505L43.1348 54.4241ZM44.8457 55.1107L45.1102 54.4522L48.926 55.9774L48.6614 56.6359L44.8457 55.1107Z" fill="#231F20"/>
<path id="Vector_17" d="M45.4264 53.6596L45.7303 53.018L44.6328 52.5002L44.9367 51.8586L46.0342 52.3764L46.4169 51.5547L46.9403 51.8023L46.5576 52.624L48.7356 53.6483C49.0958 53.8171 49.3209 53.8171 49.4841 53.4795C49.5292 53.3894 49.5855 53.2543 49.608 53.1418L50.092 53.3669C50.0751 53.5526 49.985 53.7777 49.9006 53.9578C49.6305 54.5375 49.2084 54.6501 48.5893 54.3631L46.2593 53.2712L45.9554 53.9128L45.4264 53.6596Z" fill="#231F20"/>
<path id="Vector_18" d="M48.9711 51.3554C49.7027 51.7663 50.4231 51.6931 50.7721 51.0853C51.0929 50.5225 50.9071 50.1736 50.7101 49.909L51.0647 49.29C51.4418 49.6895 51.8358 50.4212 51.2786 51.4005C50.637 52.5261 49.4664 52.4641 48.5434 51.9407C47.4797 51.3329 46.9394 50.3199 47.5585 49.2337C48.217 48.0799 49.3538 48.2319 50.1192 48.6653C50.2261 48.7272 50.3162 48.7778 50.4119 48.8453L48.9711 51.3554ZM49.6239 49.2055C49.033 48.8791 48.3914 48.9073 48.0425 49.5151C47.6823 50.1454 47.9637 50.6688 48.549 51.0853L49.6239 49.2055Z" fill="#231F20"/>
<path id="Vector_19" d="M51.5043 47.8221C52.1459 48.081 52.7087 47.9121 53.1758 47.2424C53.6767 46.522 53.5416 45.9986 53.1027 45.6947C52.6412 45.3683 52.2191 45.4189 51.3467 46.1843C50.3224 47.0904 49.6808 47.2086 49.0336 46.7528C48.347 46.2744 48.1388 45.3739 48.8648 44.344C49.6358 43.2409 50.5869 43.2353 51.2398 43.5955L50.8064 44.2202C50.3393 44.0176 49.8215 44.0344 49.3488 44.7098C48.9548 45.2726 48.9886 45.7679 49.4276 46.0718C49.8609 46.3757 50.2155 46.235 50.9753 45.5596C52.2191 44.4678 52.8944 44.5916 53.4854 45.0081C54.2339 45.5259 54.4309 46.4882 53.6373 47.6195C52.8269 48.7845 51.842 48.8407 51.0653 48.4412L51.5043 47.8221Z" fill="#231F20"/>
<path id="Vector_20" d="M55.3577 44.3544L56.9954 45.7107L56.5452 46.2566L52.9095 43.2457C52.6506 43.0318 52.3804 42.8123 52.1328 42.6153L52.5718 42.0807C52.69 42.1538 52.887 42.3058 53.0839 42.4746C52.9038 42.0413 52.9207 41.5066 53.3653 40.9663C53.9732 40.2347 55.0256 40.2122 55.988 41.0057C57.1192 41.94 57.2205 43.0543 56.5902 43.8197C56.1681 44.3319 55.7291 44.4219 55.3577 44.3544ZM55.5434 41.5854C54.8736 41.0282 54.1589 40.9551 53.7143 41.4954C53.1684 42.1538 53.371 42.756 54.142 43.392C54.8905 44.0111 55.5209 44.1743 56.0668 43.5158C56.5452 42.9305 56.3257 42.227 55.5434 41.5854Z" fill="#231F20"/>
<path id="Vector_21" d="M59.1512 37.7758C60.0123 38.5918 60.2543 39.7568 59.3876 40.6685C58.5771 41.524 57.4234 41.4114 56.5286 40.5672C55.645 39.7343 55.4423 38.5749 56.2922 37.6745C57.0801 36.8415 58.2169 36.8865 59.1512 37.7758ZM57.0294 40.027C57.6823 40.646 58.4702 40.7698 58.9767 40.2352C59.4945 39.6893 59.3313 38.952 58.6559 38.3104C57.9862 37.6744 57.2321 37.5394 56.703 38.1022C56.174 38.6594 56.3485 39.3797 57.0294 40.027Z" fill="#231F20"/>
<path id="Vector_22" d="M59.2083 36.4359C58.8087 36.0195 58.5836 35.7887 58.4316 35.6367L58.9325 35.1584C59.0226 35.2315 59.2533 35.4567 59.5291 35.7493C59.2983 35.1978 59.4053 34.6012 59.8837 34.1172L60.3733 34.6293C59.7824 35.2315 59.6923 35.9238 60.4127 36.6723L61.7916 38.1131L61.2794 38.6027L59.2083 36.4359Z" fill="#231F20"/>
<path id="Vector_23" d="M60.1879 33.961L60.7169 33.4882L59.9121 32.5821L60.4411 32.1094L61.2459 33.0155L61.9213 32.4133L62.3096 32.8466L61.6343 33.4488L63.2383 35.2442C63.5028 35.5424 63.711 35.6325 63.9924 35.3849C64.0656 35.3173 64.1725 35.216 64.2344 35.1203L64.589 35.5199C64.5045 35.6831 64.3245 35.852 64.1838 35.9871C63.7054 36.4148 63.272 36.3529 62.8218 35.8407L61.1109 33.916L60.5818 34.3887L60.1879 33.961Z" fill="#231F20"/>
</g>
</g>
<g id="Group_9">
<g id="Group_10">
<path id="Vector_24" d="M37.3008 115.643L40.9759 112.711L41.3642 113.201L37.6891 116.133L37.3008 115.643Z" fill="#231F20"/>
<path id="Vector_25" d="M36.7042 109.722C37.4415 109.356 38.2801 109.418 38.9779 110.223C39.9009 111.287 39.5576 112.519 38.5558 113.392C37.5935 114.23 36.254 114.45 35.3197 113.369C34.5937 112.531 34.6782 111.664 35.179 111.045L35.5899 111.518C35.3141 111.979 35.2409 112.491 35.7306 113.048C36.4116 113.831 37.3965 113.532 38.1169 112.908C38.8147 112.3 39.2818 111.36 38.5727 110.544C38.1 109.998 37.5766 110.032 37.1151 110.195L36.7042 109.722Z" fill="#231F20"/>
<path id="Vector_26" d="M35.6059 108.56L37.0298 108.104L37.4068 108.594L32.6624 110.125L32.1953 109.517L34.863 105.273L35.2682 105.802L34.469 107.074L35.6059 108.56ZM34.137 107.525C33.4278 108.633 33.0564 109.224 32.8369 109.523L32.8425 109.528C33.2309 109.376 34.0244 109.112 35.0825 108.757L34.137 107.525Z" fill="#231F20"/>
<path id="Vector_27" d="M30.541 107.222L28.9258 104.673L29.376 104.386L30.6648 106.417L31.9536 105.601L30.7493 103.693L31.1995 103.406L32.4039 105.314L34.1823 104.189L34.5088 104.706L30.541 107.222Z" fill="#231F20"/>
<path id="Vector_28" d="M32.6919 101.726L31.8195 102.21L31.5156 101.669L32.388 101.18L32.6919 101.726Z" fill="#231F20"/>
<path id="Vector_29" d="M29.1343 98.5844C30.0179 98.151 30.9971 98.2974 31.4642 99.2372C31.8976 100.115 31.4811 100.988 30.5525 101.443C29.6464 101.888 28.684 101.719 28.2282 100.791C27.8061 99.9351 28.1719 99.0628 29.1343 98.5844ZM30.2824 100.897C30.9577 100.565 31.2842 99.9858 31.0084 99.4342C30.7326 98.8714 30.1079 98.787 29.41 99.1303C28.7178 99.468 28.397 100.02 28.684 100.594C28.9654 101.168 29.5789 101.241 30.2824 100.897Z" fill="#231F20"/>
<path id="Vector_30" d="M28.1135 98.1524C27.6745 98.3381 27.4269 98.445 27.2581 98.5182L27.0329 97.9835C27.1174 97.9385 27.3594 97.8259 27.6689 97.6965C27.1736 97.7134 26.7403 97.4545 26.5039 96.9367L27.0442 96.706C27.3368 97.3419 27.849 97.6177 28.6482 97.28L30.179 96.6328L30.4097 97.1787L28.1135 98.1524Z" fill="#231F20"/>
<path id="Vector_31" d="M28.2837 92.4939C29.3193 92.1281 30.0566 92.3419 30.4336 93.3944C30.7826 94.3736 30.3436 94.8689 29.9271 95.0828L29.7245 94.5143C30.0453 94.2948 30.1297 93.9459 29.9834 93.5294C29.7245 92.7978 29.1955 92.7809 28.4526 93.0454L28.1937 93.1411C28.6158 93.1861 28.9253 93.4056 29.1167 93.9459C29.3981 94.7395 28.9478 95.5105 28.0023 95.8482C26.9499 96.2253 26.0888 95.8369 25.8131 95.0603C25.5936 94.4468 25.7905 94.081 25.9763 93.929C25.8299 93.9741 25.6105 94.036 25.5373 94.0528L25.3516 93.5238C25.5373 93.4619 25.9763 93.3099 26.2858 93.203L28.2837 92.4939ZM27.7603 95.2797C28.4413 95.0377 28.779 94.52 28.5877 93.9909C28.34 93.2931 27.7997 93.2593 27.085 93.5126C26.359 93.7714 25.9988 94.1148 26.2408 94.807C26.4547 95.4036 27.0625 95.5274 27.7603 95.2797Z" fill="#231F20"/>
</g>
</g>
</g>
<defs>
<linearGradient id="paint0_linear_4778_146176" x1="35.1323" y1="123.304" x2="72.7914" y2="85.6452" gradientUnits="userSpaceOnUse">
<stop offset="0.5027" stop-color="#FF003F"/>
<stop offset="1" stop-color="#BE1E2D"/>
</linearGradient>
<linearGradient id="paint1_linear_4778_146176" x1="49.7478" y1="60.4574" x2="94.3173" y2="96.8167" gradientUnits="userSpaceOnUse">
<stop offset="0.2966" stop-color="#FF9D00"/>
<stop offset="0.4416" stop-color="#FFA203"/>
<stop offset="0.6078" stop-color="#FEB00C"/>
<stop offset="0.7845" stop-color="#FCC71A"/>
<stop offset="0.9675" stop-color="#F9E72E"/>
<stop offset="1" stop-color="#F9ED32"/>
</linearGradient>
<linearGradient id="paint2_linear_4778_146176" x1="3.96593" y1="104.579" x2="71.8786" y2="134.056" gradientUnits="userSpaceOnUse">
<stop offset="0.4167" stop-color="#22272A"/>
<stop offset="0.8734" stop-color="#FF003F"/>
</linearGradient>
<linearGradient id="paint3_linear_4778_146176" x1="35.8459" y1="96.3315" x2="60.1474" y2="128.051" gradientUnits="userSpaceOnUse">
<stop offset="0.2966" stop-color="#FF9D00"/>
<stop offset="0.4416" stop-color="#FFA203"/>
<stop offset="0.6078" stop-color="#FEB00C"/>
<stop offset="0.7845" stop-color="#FCC71A"/>
<stop offset="0.9675" stop-color="#F9E72E"/>
<stop offset="1" stop-color="#F9ED32"/>
</linearGradient>
<linearGradient id="paint4_linear_4778_146176" x1="30.0647" y1="57.0243" x2="73.4074" y2="103.936" gradientUnits="userSpaceOnUse">
<stop offset="0.3556" stop-color="#009A45"/>
<stop offset="0.8042" stop-color="#006838"/>
</linearGradient>
<linearGradient id="paint5_linear_4778_146176" x1="6.9938" y1="65.5549" x2="59.5128" y2="13.036" gradientUnits="userSpaceOnUse">
<stop offset="0.3391" stop-color="#0078C2"/>
<stop offset="1" stop-color="#2E3192"/>
</linearGradient>
<linearGradient id="paint6_linear_4778_146176" x1="-0.00131768" y1="102.964" x2="44.9455" y2="102.964" gradientUnits="userSpaceOnUse">
<stop stop-color="#BE1E2D"/>
<stop offset="0.7609" stop-color="#FF003F"/>
</linearGradient>
</defs>
</svg>
