<svg width="100" height="100" viewBox="0 0 100 100" fill="none" xmlns="http://www.w3.org/2000/svg">
<g clip-path="url(#clip0_2812_24100)">
<path d="M15.1889 30.671C15.2011 30.6356 0.000940323 59.2035 14.1409 55.6419C19.1315 54.3846 28.7528 46.1237 42.2292 46.1237C60.9964 46.1237 74.2036 60.873 61.085 73.5794C53.6417 80.7879 36.7511 81.9345 38.8216 86.2294C39.3046 87.232 40.7713 87.7382 42.7498 88.0805C47.7161 88.9391 55.9083 88.7663 59.8764 92.843C51.9158 88.2877 45.3476 92.6447 39.7732 91.3563C33.5673 89.9217 30.9872 85.6589 33.4288 81.6609C34.3859 80.0944 36.2936 78.7717 38.6632 77.6296C44.0958 75.0107 52.8363 73.2682 56.9263 69.3056C67.6022 58.9642 51.5303 51.5431 42.2292 52.1036C30.2782 52.8237 21.9143 60.555 14.9817 61.551C8.35264 62.5026 4.71795 59.1371 4.33022 53.6512C3.7874 45.9675 10.3999 37.4696 15.1889 30.6699" fill="#231F20"/>
<path fill-rule="evenodd" clip-rule="evenodd" d="M32.9472 7.15736C19.37 12.4526 14.5312 20.3302 18.4295 30.7878C20.7736 29.577 22.8806 29.7177 24.7517 31.2088C28.2634 28.4991 29.5695 24.2607 28.6678 18.4924C31.0329 24.4656 29.9972 29.1261 25.5615 32.4739L26.4267 34.0636C32.9162 31.3451 34.4605 24.819 31.0551 14.4855C30.4602 11.2352 31.0917 8.79136 32.9472 7.15625" fill="#EE4223"/>
<path fill-rule="evenodd" clip-rule="evenodd" d="M6.8924 76.7257L3.72853 88.8683C3.0716 91.3896 5.66718 92.6293 6.4371 90.1334C7.20923 87.6276 8.23506 84.4304 9.51124 80.5432C8.5818 79.3135 7.70885 78.0395 6.8924 76.7257ZM18.326 32.8047C18.326 32.8047 15.0934 45.2453 8.27605 71.416C9.08806 72.9979 9.99646 74.5433 11.0001 76.0433C14.3523 65.9623 19.035 52.2389 25.0481 34.8686L23.7199 32.4259C22.1933 31.2306 19.549 31.3458 18.326 32.8047Z" fill="#CCC9B4"/>
<path d="M74.2174 79.5175C84.0945 60.5508 74.8089 38.8534 52.2441 45.2011C67.3689 40.9461 79.1437 58.5291 71.0358 71.99L74.2163 79.5175H74.2174Z" fill="#231F20"/>
<path fill-rule="evenodd" clip-rule="evenodd" d="M96.3569 70.5963C96.3702 70.7646 96.3757 70.9341 96.3757 71.1058C96.3757 73.553 95.0364 75.6888 93.0501 76.8177C94.2898 74.8314 95.3964 72.7543 96.3569 70.5974M88.0362 77.4281C85.2723 76.6537 83.2461 74.1168 83.2461 71.1058C83.2461 67.48 86.1862 64.541 89.8109 64.541C91.4272 64.541 92.9061 65.1248 94.0494 66.093C92.5992 70.0689 90.5963 73.8864 88.0362 77.4269V77.4281Z" fill="#005AA9"/>
<path fill-rule="evenodd" clip-rule="evenodd" d="M85.6323 55.782C82.0065 55.782 79.0664 52.843 79.0664 49.2172C79.0664 45.5913 82.0065 42.6523 85.6323 42.6523C89.2582 42.6523 92.1972 45.5913 92.1972 49.2172C92.1972 52.843 89.2582 55.782 85.6323 55.782Z" fill="#FAB217"/>
<path fill-rule="evenodd" clip-rule="evenodd" d="M65.4527 39.5359C61.8268 39.5359 58.8867 36.5969 58.8867 32.9711C58.8867 29.3452 61.8257 26.4062 65.4527 26.4062C69.0796 26.4062 72.0175 29.3452 72.0175 32.9711C72.0175 36.5969 69.0785 39.5359 65.4527 39.5359Z" fill="#EE4223"/>
<path fill-rule="evenodd" clip-rule="evenodd" d="M42.8285 40.2546C39.2027 40.2546 36.2637 37.3156 36.2637 33.6898C36.2637 30.064 39.2027 27.125 42.8285 27.125C46.4543 27.125 49.3933 30.064 49.3933 33.6898C49.3933 37.3156 46.4543 40.2546 42.8285 40.2546Z" fill="#60AC46"/>
<path d="M83.6633 16.3356C65.0722 -2.25659 34.9267 -2.25659 16.3356 16.3356C-2.25548 34.9267 -2.25548 65.0722 16.3356 83.6633C34.9278 102.255 65.0722 102.255 83.6633 83.6633C102.255 65.0711 102.255 34.9278 83.6633 16.3356ZM50.0006 0C77.6147 0 100 22.3864 100 50.0006C100 77.6147 77.6136 100 50.0006 100C22.3875 100 0 77.6136 0 50.0006C0 22.3875 22.3853 0 50.0006 0Z" fill="#004353"/>
</g>
<defs>
<clipPath id="clip0_2812_24100">
<rect width="100" height="100" fill="white"/>
</clipPath>
</defs>
</svg>
