<svg width="657" height="842" viewBox="0 0 657 842" fill="none" xmlns="http://www.w3.org/2000/svg">
<g opacity="0.5">
<path d="M63.7132 78.6136C99.1638 68.9385 136.349 64.4351 172.899 67.4509C205.068 70.3069 245.189 76.7583 261.833 108.166C296.935 173.962 238.915 253.731 389.524 251.231C540.133 248.73 534.233 290.194 539.225 339.537C544.216 388.88 522.404 488.479 400.13 459.71C344.221 451.12 299.265 488.244 288.133 535.587C279.908 569.964 264.957 640.455 238.324 659.647C194.693 690.93 135.182 706.969 81.7986 698.321C-5.05484 684.606 -130.376 584.509 -88.6893 484.582C-78.5145 460.192 -60.3483 439.971 -39.8548 423.5C1.07245 391.367 75.9207 372.552 38.9475 297.913C20.0172 259.991 -7.38113 224.375 -17.4877 182.628C-31.7113 122.762 12.2349 92.7224 63.7132 78.6136Z" fill="#FBB22E"/>
<path d="M149.419 99.0737C149.419 99.0737 266.787 62.9679 299.293 152.979C331.7 243.228 463.331 222.246 495.123 228.003C526.916 233.76 629.97 253.956 599.995 380.453C570.02 506.949 507.631 511.225 496.54 510.489C485.448 509.754 381.129 494.591 350.533 549.938C319.938 605.285 303.018 754.464 172.274 689.357C41.1938 624.387 -27.9714 600.259 -24.8873 542.887C-21.8032 485.515 24.736 483.246 98.0254 418.187C171.552 353.228 139.74 300.202 119.7 272.938C99.5607 245.91 18.3146 136.121 149.419 99.0737Z" stroke="#EE2F4D" stroke-miterlimit="10" stroke-linecap="round" stroke-linejoin="round"/>
</g>
</svg>
