<svg width="527" height="444" viewBox="0 0 527 444" fill="none" xmlns="http://www.w3.org/2000/svg">
<path d="M387.203 443.903C333.491 443.254 286.643 430.931 242.625 413.689C197.297 395.936 162.645 372.264 136.918 344.077C110.467 315.094 84.4131 285.947 60.1699 256.297C32.2475 222.144 12.0186 186.289 4.608 148.375C-0.716558 121.135 -1.1989 93.8544 9.23696 66.8542C18.3571 43.2415 41.5513 25.0441 72.4602 10.5451C98.9706 -1.88763 129.403 -2.03643 160.396 5.09226C197.408 13.6076 224.813 28.8322 246.459 48.2656C253.705 54.7709 261.232 61.1804 269.186 67.3836C291.904 85.1065 321.207 92.0338 358.607 88.166C378.347 86.1242 398.971 85.0327 418.871 85.9854C460.599 87.9854 489.876 102.328 508.796 123.911C530.159 148.284 531.288 173.795 514.348 199.086C506.477 210.836 497.312 222.741 484.741 232.798C461.149 251.674 457.863 270.055 476.209 291.182C490.385 307.508 502.131 324.71 512.469 342.048C522.431 358.756 522.922 376.289 514.419 393.422C501.119 420.224 455.732 441.029 406.789 443.259C400.28 443.56 393.736 443.692 387.203 443.903Z" fill="#CCEBFF"/>
</svg>
