<svg width="343" height="326" viewBox="0 0 343 326" fill="none" xmlns="http://www.w3.org/2000/svg">
<path d="M63.3861 265.084C35.7676 237.521 17.683 212.61 7.51781 183.009C-7.49939 139.289 0.600801 97.8075 29.2773 58.9641C46.794 35.2358 69.2924 17.2096 98.017 7.9848C110.619 3.93831 124.082 1.75939 137.231 0.678031C156.718 -0.923487 173.601 6.48537 188.699 16.7426C201.359 25.3469 215.564 30.8689 229.569 37.0314C248.353 45.2978 267.509 53.3051 284.817 63.848C310.458 79.4691 326.425 103.145 335.288 130.999C351.343 181.445 339.93 227.732 303.504 269.595C285.82 289.918 264.156 305.409 238.834 315.65C203.049 330.122 168.315 327.548 134.953 312.77C105.704 299.814 80.6386 281.251 63.3861 265.084Z" fill="#E4F9EA"/>
</svg>
