<svg width="237" height="169" viewBox="0 0 237 169" fill="none" xmlns="http://www.w3.org/2000/svg">
<path fill-rule="evenodd" clip-rule="evenodd" d="M82.9321 150.612C64.1042 154.812 44.5898 157.721 27.7855 167.794C26.7831 168.391 25.4867 168.067 24.8828 167.062C24.2871 166.055 24.6073 164.754 25.608 164.15C42.8056 153.843 62.7431 150.764 82.0089 146.468C83.1469 146.208 84.2818 146.935 84.534 148.08C84.7945 149.222 84.07 150.352 82.9321 150.612Z" fill="#EE2F4D"/>
<path fill-rule="evenodd" clip-rule="evenodd" d="M79.1771 122.703C72.2025 118.422 64.959 115.615 56.7792 115.131C55.6108 115.063 54.7225 114.057 54.7844 112.889C54.8546 111.719 55.8586 110.826 57.0187 110.896C65.9134 111.42 73.7918 114.432 81.3741 119.083C82.3739 119.694 82.6928 121 82.0805 122.001C81.4764 122.998 80.1686 123.315 79.1771 122.703Z" fill="#168C39"/>
<path fill-rule="evenodd" clip-rule="evenodd" d="M83.8166 59.9864C79.2719 51.2161 72.5072 44.9903 63.306 41.3482C62.2212 40.9182 61.6842 39.685 62.115 38.5952C62.5375 37.507 63.7675 36.9712 64.8523 37.4013C75.0358 41.4348 82.5346 48.3219 87.5669 58.0322C88.1085 59.0707 87.6988 60.3545 86.6675 60.8925C85.6282 61.4329 84.3498 61.0265 83.8166 59.9864Z" fill="#FBB22E"/>
<path fill-rule="evenodd" clip-rule="evenodd" d="M174.502 28.922C176.487 30.5047 178.335 32.2675 179.994 34.2055C180.734 35.0681 182.104 36.9411 182.603 38.681C183.142 40.5333 182.818 42.2501 181.342 43.4127C179.38 44.955 177.616 45.1838 176.139 44.7776C174.718 44.3883 173.455 43.3203 172.48 41.7463C170.618 38.7376 169.818 33.7346 169.896 30.7738C167.827 29.3349 165.625 28.0944 163.326 27.0593C146.201 19.3501 124.96 27.644 111.174 46.9635C106.35 53.7272 105.819 66.0323 106.841 78.9934C108.429 99.1747 114.105 120.943 115.565 127.361C115.921 128.946 115.959 129.922 115.914 130.127C115.708 131.134 115.067 131.511 114.604 131.698C113.932 131.961 113.35 131.938 112.856 131.793C112.187 131.593 111.578 131.129 111.174 130.306C110.955 129.851 110.79 129.19 110.666 128.475C110.584 127.978 110.577 127.418 110.408 127.084C109.312 124.946 108.095 122.887 106.891 120.808C102.862 113.819 98.1804 107.448 93.1353 101.158C77.1067 81.1715 61.2102 59.8475 38.8001 46.6374C37.7951 46.0445 37.4515 44.7436 38.0446 43.7334C38.6293 42.7247 39.9243 42.3872 40.9377 42.9793C63.7958 56.4495 80.0795 78.1182 96.4275 98.5005C100.718 103.851 104.753 109.261 108.361 115.041C105.934 104.034 102.998 88.7142 102.335 74.7763C101.744 62.3806 103.048 51.0647 107.737 44.4895C122.839 23.3255 146.298 14.7416 165.051 23.1886C167.057 24.0931 169.005 25.139 170.86 26.3243C176.376 9.03105 193.552 -0.860724 211.3 3.37749C212.44 3.64787 213.14 4.79333 212.874 5.93186C212.6 7.07202 211.464 7.77617 210.324 7.50579C194.331 3.68701 178.888 12.9737 174.502 28.922ZM174.332 34.3799C175.192 35.1996 176.01 36.0641 176.792 36.9701C177.208 37.4573 177.947 38.4056 178.375 39.3921C178.472 39.6238 178.555 40.0002 178.59 40.175C178.074 40.5713 177.653 40.7965 177.251 40.6847C176.75 40.5484 176.413 40.0615 176.071 39.5104C175.211 38.1282 174.637 36.1841 174.332 34.3799Z" fill="#0286C3"/>
</svg>
