<svg width="54" height="53" viewBox="0 0 54 53" fill="none" xmlns="http://www.w3.org/2000/svg">
<path d="M15.7659 22.0851L27.5106 15.7234" stroke="#F9FAF6"/>
<path d="M18.702 27.9574L30.4467 21.5957" stroke="#F9FAF6"/>
<path d="M21.6382 33.8298L33.3829 27.4681" stroke="#F9FAF6"/>
<path d="M35.3403 33.8298L38.7659 35.2979L40.2339 27.4681" stroke="#F9FAF6"/>
<path d="M27.6117 3.95194L6.74888 15.8574C5.78492 16.4075 5.45323 17.6373 6.00983 18.5975L22.6398 47.286C23.1901 48.2352 24.4023 48.5639 25.3567 48.0227L47.2261 35.6205C48.2164 35.0589 48.5388 33.7852 47.9351 32.82L30.2985 4.62829C29.7294 3.71855 28.5437 3.42008 27.6117 3.95194Z" fill="#1B2F79"/>
<path d="M15.766 22.0852L27.5107 15.7234" stroke="#F9FAF6"/>
<path d="M18.7021 27.9574L30.4468 21.5957" stroke="#F9FAF6"/>
<path d="M21.6383 33.8298L33.383 27.4681" stroke="#F9FAF6"/>
<path d="M35.3406 33.8298L38.7661 35.2979L40.2342 27.4681" stroke="#F9FAF6"/>
</svg>
