<svg width="48" height="48" viewBox="0 0 48 48" fill="none" xmlns="http://www.w3.org/2000/svg">
<mask id="mask0_3593_33734" style="mask-type:alpha" maskUnits="userSpaceOnUse" x="0" y="0" width="48" height="48">
<rect width="48" height="48" fill="#D9D9D9"/>
</mask>
<g mask="url(#mask0_3593_33734)">
<path d="M22.6516 33.3016C20.3516 32.9349 18.4349 31.8849 16.9016 30.1516C15.3682 28.4182 14.6016 26.3682 14.6016 24.0016C14.6016 21.3905 15.5154 19.171 17.3432 17.3432C19.171 15.5154 21.3905 14.6016 24.0016 14.6016C26.3682 14.6016 28.4182 15.3599 30.1516 16.8766C31.8849 18.3932 32.9349 20.3016 33.3016 22.6016L31.7516 22.1516C31.321 20.3516 30.3936 18.8766 28.9695 17.7266C27.5454 16.5766 25.8894 16.0016 24.0016 16.0016C21.8016 16.0016 19.9182 16.7849 18.3516 18.3516C16.7849 19.9182 16.0016 21.8016 16.0016 24.0016C16.0016 25.9016 16.5849 27.5682 17.7516 29.0016C18.9182 30.4349 20.3849 31.3682 22.1516 31.8016L22.6516 33.3016ZM25.0516 41.3516C24.8766 41.3849 24.7016 41.4016 24.5266 41.4016H24.0016C21.5946 41.4016 19.3326 40.945 17.2156 40.032C15.0986 39.1189 13.2571 37.8798 11.6911 36.3146C10.1251 34.7494 8.88531 32.9088 7.97181 30.7929C7.05831 28.6769 6.60156 26.4161 6.60156 24.0103C6.60156 21.6045 7.05808 19.3423 7.97111 17.2237C8.88418 15.105 10.1233 13.2621 11.6885 11.695C13.2537 10.1278 15.0943 8.88706 17.2103 7.97286C19.3262 7.05866 21.5871 6.60156 23.9929 6.60156C26.3987 6.60156 28.6609 7.05831 30.7795 7.97181C32.8981 8.88531 34.741 10.1251 36.3082 11.6911C37.8754 13.2571 39.1161 15.0986 40.0303 17.2156C40.9445 19.3326 41.4016 21.5946 41.4016 24.0016V24.5016C41.4016 24.6682 41.3849 24.8349 41.3516 25.0016L40.0016 24.6016V24.0016C40.0016 19.5349 38.4516 15.7516 35.3516 12.6516C32.2516 9.55156 28.4682 8.00156 24.0016 8.00156C19.5349 8.00156 15.7516 9.55156 12.6516 12.6516C9.55156 15.7516 8.00156 19.5349 8.00156 24.0016C8.00156 28.4682 9.55156 32.2516 12.6516 35.3516C15.7516 38.4516 19.5349 40.0016 24.0016 40.0016H24.6016L25.0516 41.3516ZM39.0516 40.5516L29.1516 30.6016L27.5016 35.6016L24.0016 24.0016L35.6016 27.5016L30.6016 29.1516L40.5516 39.0516L39.0516 40.5516Z" fill="#121212"/>
</g>
</svg>
