<svg width="814" height="668" viewBox="0 0 814 668" fill="none" xmlns="http://www.w3.org/2000/svg">
<path d="M-70.6767 82.4612C-22.3937 38.6111 36.1012 17.7884 98.9515 6.61513C163.671 -4.89386 227.22 1.27751 289.187 21.5844C352.901 42.4679 416.493 63.924 479.189 87.6366C551.404 114.953 619.205 151.211 678.566 201.213C721.216 237.139 759.652 277.164 788.065 325.883C812.92 368.484 817.814 414.801 810.75 462.075C804.688 502.616 778.051 528.226 740.78 543.519C696.267 561.779 650.88 562.081 604.71 551.342C589.255 547.747 573.685 544.528 558.026 541.971C513.293 534.661 477.793 548.843 450.191 585.777C435.624 605.271 418.951 624.096 400.07 639.286C360.475 671.136 314.666 674.307 267.906 658.107C215.103 639.812 178.563 602.947 158.268 551.337C148.839 527.357 140.338 502.068 137.415 476.677C131.925 429.022 109.214 399.041 63.5952 383.038C28.344 370.672 -5.98563 354.979 -39.2618 337.91C-71.3279 321.461 -96.1897 295.889 -112.56 263.406C-138.172 212.59 -127.123 143.893 -87.0567 99.7555C-81.7337 93.8798 -76.1453 88.224 -70.6767 82.4612Z" fill="#CCEBFF"/>
</svg>
