<svg width="941" height="668" viewBox="0 0 941 668" fill="none" xmlns="http://www.w3.org/2000/svg">
<path d="M56.3235 82.4612C104.607 38.6111 163.101 17.7884 225.952 6.61512C290.671 -4.89384 354.22 1.2775 416.187 21.5844C479.901 42.4679 543.493 63.924 606.189 87.6366C678.404 114.953 746.205 151.211 805.566 201.213C848.217 237.139 886.652 277.164 915.065 325.883C939.92 368.484 944.814 414.801 937.751 462.075C931.688 502.616 905.051 528.226 867.78 543.519C823.267 561.779 777.881 562.081 731.71 551.342C716.255 547.747 700.685 544.528 685.026 541.971C640.294 534.661 604.793 548.843 577.192 585.777C562.624 605.271 545.951 624.096 527.071 639.286C487.475 671.136 441.667 674.307 394.906 658.107C342.103 639.812 305.563 602.947 285.269 551.337C275.839 527.357 267.338 502.068 264.415 476.677C258.925 429.022 236.214 399.041 190.595 383.038C155.344 370.672 121.015 354.979 87.7384 337.91C55.6723 321.461 30.8106 295.889 14.4405 263.406C-11.1716 212.59 -0.122848 143.893 39.9435 99.7554C45.2665 93.8798 50.8549 88.224 56.3235 82.4612Z" fill="#CCEBFF"/>
</svg>
