<svg width="100" height="100" viewBox="0 0 100 100" fill="none" xmlns="http://www.w3.org/2000/svg">
<circle cx="50" cy="50" r="50" fill="#5F7AA2"/>
<path d="M73.9993 24.9604C74.0468 24.9131 74.1207 24.7736 74.2283 24.7427C75.3763 24.4121 75.9847 23.5961 76.4144 22.5902C76.6001 22.1553 76.6805 21.7187 76.6615 21.2557C76.6497 20.9676 76.6447 20.6789 76.6506 20.3907C76.6552 20.1614 76.7815 20.0138 76.9709 20.0003C77.1942 19.9844 77.2959 20.1193 77.36 20.3021C77.5814 20.9342 77.7785 21.5757 78.036 22.1942C78.578 23.4959 78.9691 23.7038 80.5606 23.7584C80.6626 23.7619 80.7657 23.7398 80.8675 23.7438C81.054 23.7511 81.2191 23.8035 81.269 24.0042C81.3125 24.1798 81.218 24.314 80.991 24.3985C80.63 24.5328 80.2603 24.6469 79.9061 24.7954C78.7478 25.2815 78.1396 26.1396 78.0682 27.3502C78.0549 27.5748 78.0391 27.7992 78.0227 28.0238C78.0096 28.2058 77.9335 28.3545 77.7456 28.4174C77.5289 28.4901 77.3643 28.3621 77.2816 28.0905C77.1236 27.5717 76.9698 27.0512 76.7895 26.5394C76.7108 26.3158 76.5899 26.1006 76.456 25.9015C76.1564 25.4558 75.6794 25.3572 75.1708 25.3504C74.9297 25.3471 74.6883 25.3699 74.4469 25.3742C74.1757 25.3794 74.0009 25.2456 73.9993 24.9604Z" fill="#FFEA8B"/>
<path d="M79.72 31.5085C79.7705 31.4537 79.845 31.3233 79.9591 31.2591C80.2334 31.1045 80.5162 30.9534 80.8135 30.8501C81.8171 30.5015 82.2138 29.7409 82.3381 28.7843C82.3752 28.4986 82.4027 28.2117 82.4365 27.9255C82.4441 27.8613 82.4554 27.7969 82.4727 27.7346C82.5171 27.5747 82.6162 27.4619 82.7919 27.4468C82.9694 27.4316 83.0914 27.5264 83.151 27.6816C83.2571 27.9577 83.3669 28.2342 83.448 28.5177C83.8148 29.7996 84.7115 30.4832 86.0189 30.7252C86.2556 30.7691 86.4873 30.8522 86.7119 30.9402C86.8855 31.0083 86.9994 31.1478 87 31.3411C87.0006 31.5275 86.8744 31.6283 86.7071 31.6776C86.3565 31.7809 85.9971 31.8592 85.653 31.9791C85.2592 32.1164 84.8644 32.2627 84.4953 32.4517C84.1079 32.65 83.9295 33.0062 83.8971 33.4292C83.8827 33.616 83.8711 33.8031 83.8543 33.9898C83.8336 34.2184 83.7136 34.363 83.5186 34.3896C83.3051 34.4186 83.1614 34.3187 83.0788 34.1348C82.9219 33.7851 82.7769 33.4302 82.6147 33.083C82.5232 32.8872 82.4167 32.6966 82.3007 32.5134C82.0843 32.1722 81.7721 31.9765 81.3517 31.9658C80.9525 31.9556 80.5533 31.9481 80.1543 31.9354C79.8941 31.9277 79.7273 31.7916 79.72 31.5085Z" fill="#FFEA8B"/>
<path d="M80.2773 41.8398C80.1775 41.7401 80.0476 41.6554 79.9834 41.5376C79.7811 41.1657 79.6309 40.7658 79.4093 40.406C79.1627 40.0057 78.8679 39.6318 78.5797 39.2567C78.2188 38.7869 77.6856 38.6767 77.1208 38.6416C77.0234 38.6356 76.9023 38.6393 76.8366 38.5869C76.7321 38.5037 76.6066 38.3805 76.5996 38.2679C76.5935 38.1695 76.7156 38.021 76.8211 37.9671C77.0937 37.8277 77.3884 37.7282 77.6745 37.6131C78.0927 37.4448 78.4372 37.174 78.7468 36.8663C79.0307 36.5839 79.1767 36.2303 79.1932 35.8376C79.2071 35.506 79.1972 35.1733 79.2 34.8413C79.2021 34.5887 79.3035 34.4391 79.4911 34.4041C79.6996 34.3653 79.8528 34.4368 79.9435 34.6795C80.0429 34.9453 80.1047 35.225 80.171 35.5012C80.2912 36.0035 80.4152 36.5013 80.6816 36.9587C80.9147 37.3589 81.2461 37.6312 81.6958 37.7682C82.1322 37.9013 82.5725 38.0225 83.0115 38.1477C83.201 38.2018 83.3508 38.2956 83.359 38.5052C83.3673 38.7142 83.2177 38.7999 83.0359 38.8511C82.583 38.9788 82.1268 39.0968 81.678 39.237C81.4314 39.3141 81.1964 39.4264 80.9574 39.5261C80.6958 39.635 80.5618 39.8438 80.56 40.1029C80.5579 40.4265 80.5997 40.7503 80.6223 41.074C80.6317 41.2089 80.6553 41.3447 80.6462 41.4785C80.6335 41.6651 80.4907 41.7935 80.2773 41.8398Z" fill="#FFEA8B"/>
<path d="M27.0007 75.8794C26.9532 75.9268 26.8793 76.0663 26.7717 76.0972C25.6237 76.4277 25.0153 77.2438 24.5856 78.2496C24.3999 78.6845 24.3195 79.1211 24.3385 79.5842C24.3503 79.8722 24.3553 80.161 24.3494 80.4491C24.3448 80.6785 24.2185 80.8261 24.0291 80.8395C23.8058 80.8554 23.7041 80.7206 23.64 80.5377C23.4186 79.9057 23.2215 79.2641 22.964 78.6457C22.422 77.344 22.0309 77.136 20.4394 77.0815C20.3374 77.0779 20.2343 77.1 20.1325 77.0961C19.946 77.0887 19.7809 77.0364 19.731 76.8357C19.6875 76.66 19.782 76.5258 20.009 76.4413C20.37 76.3071 20.7397 76.193 21.0939 76.0444C22.2522 75.5584 22.8604 74.7002 22.9318 73.4897C22.9451 73.265 22.9609 73.0406 22.9773 72.8161C22.9904 72.6341 23.0665 72.4854 23.2544 72.4225C23.4711 72.3497 23.6357 72.4777 23.7184 72.7493C23.8764 73.2681 24.0302 73.7886 24.2105 74.3005C24.2892 74.524 24.4101 74.7392 24.544 74.9384C24.8436 75.384 25.3206 75.4827 25.8292 75.4895C26.0703 75.4927 26.3117 75.4699 26.5531 75.4657C26.8243 75.4604 26.9991 75.5942 27.0007 75.8794Z" fill="#FFEA8B"/>
<path d="M21.28 69.3314C21.2295 69.3861 21.155 69.5166 21.0409 69.5808C20.7666 69.7353 20.4838 69.8864 20.1865 69.9897C19.1829 70.3384 18.7862 71.099 18.6619 72.0555C18.6248 72.3413 18.5973 72.6282 18.5635 72.9144C18.5559 72.9786 18.5446 73.0429 18.5273 73.1052C18.4829 73.2652 18.3838 73.3779 18.2081 73.393C18.0306 73.4083 17.9086 73.3134 17.849 73.1583C17.7429 72.8821 17.6331 72.6057 17.552 72.3221C17.1852 71.0403 16.2885 70.3567 14.9811 70.1146C14.7444 70.0708 14.5127 69.9877 14.2881 69.8996C14.1145 69.8315 14.0006 69.6921 14 69.4987C13.9994 69.3123 14.1256 69.2115 14.2929 69.1623C14.6435 69.059 15.0029 68.9807 15.347 68.8607C15.7408 68.7234 16.1356 68.5771 16.5047 68.3881C16.8921 68.1899 17.0705 67.8337 17.1029 67.4106C17.1173 67.2238 17.1289 67.0367 17.1457 66.8501C17.1664 66.6214 17.2864 66.4769 17.4814 66.4503C17.6949 66.4212 17.8386 66.5212 17.9212 66.7051C18.0781 67.0547 18.2231 67.4096 18.3853 67.7568C18.4768 67.9526 18.5833 68.1432 18.6993 68.3264C18.9157 68.6676 19.2279 68.8633 19.6483 68.8741C20.0475 68.8842 20.4467 68.8918 20.8457 68.9044C21.1059 68.9121 21.2727 69.0482 21.28 69.3314Z" fill="#FFEA8B"/>
<path d="M20.7227 59C20.8225 59.0998 20.9524 59.1845 21.0166 59.3023C21.2189 59.6741 21.3691 60.074 21.5907 60.4338C21.8373 60.8341 22.1321 61.208 22.4203 61.5831C22.7812 62.053 23.3144 62.1631 23.8792 62.1982C23.9766 62.2042 24.0977 62.2006 24.1634 62.2529C24.2679 62.3361 24.3934 62.4594 24.4004 62.572C24.4065 62.6704 24.2844 62.8188 24.1789 62.8728C23.9063 63.0122 23.6116 63.1117 23.3255 63.2267C22.9073 63.3951 22.5628 63.6658 22.2532 63.9736C21.9693 64.2559 21.8233 64.6096 21.8068 65.0022C21.7929 65.3339 21.8028 65.6665 21.8 65.9986C21.7979 66.2511 21.6965 66.4008 21.5089 66.4358C21.3004 66.4746 21.1472 66.4031 21.0565 66.1604C20.9571 65.8946 20.8953 65.6148 20.829 65.3387C20.7088 64.8363 20.5848 64.3386 20.3184 63.8812C20.0853 63.4809 19.7539 63.2087 19.3042 63.0716C18.8678 62.9385 18.4275 62.8173 17.9885 62.6921C17.799 62.638 17.6492 62.5443 17.641 62.3346C17.6327 62.1257 17.7823 62.04 17.9641 61.9887C18.417 61.8611 18.8732 61.743 19.322 61.6028C19.5686 61.5257 19.8036 61.4134 20.0426 61.3138C20.3042 61.2049 20.4382 60.996 20.44 60.7369C20.4421 60.4133 20.4003 60.0896 20.3777 59.7658C20.3683 59.631 20.3447 59.4951 20.3538 59.3613C20.3665 59.1748 20.5093 59.0463 20.7227 59Z" fill="#FFEA8B"/>
<path d="M57 54.668C57.4667 52.3346 58.6333 50.7013 60.5 48.8346C62.8333 46.7346 64 43.7013 64 40.668C64 36.9549 62.525 33.394 59.8995 30.7685C57.274 28.143 53.713 26.668 50 26.668C46.287 26.668 42.726 28.143 40.1005 30.7685C37.475 33.394 36 36.9549 36 40.668C36 43.0013 36.4667 45.8013 39.5 48.8346C41.1333 50.468 42.5333 52.3346 43 54.668" stroke="white" stroke-width="2" stroke-linecap="round" stroke-linejoin="round"/>
<path d="M43 64H57" stroke="white" stroke-width="2" stroke-linecap="round" stroke-linejoin="round"/>
<path d="M45.3335 73.332H54.6668" stroke="white" stroke-width="2" stroke-linecap="round" stroke-linejoin="round"/>
</svg>
