<svg width="56" height="57" viewBox="0 0 56 57" fill="none" xmlns="http://www.w3.org/2000/svg">
<rect y="0.734375" width="56" height="56" rx="8" fill="#0286C3"/>
<path d="M34.9993 5.40088H20.9993C19.7107 5.40088 18.666 6.44555 18.666 7.73421V12.4009C18.666 13.6895 19.7107 14.7342 20.9993 14.7342H34.9993C36.288 14.7342 37.3327 13.6895 37.3327 12.4009V7.73421C37.3327 6.44555 36.288 5.40088 34.9993 5.40088Z" stroke="#F9F9F9" stroke-width="2" stroke-linecap="round" stroke-linejoin="round"/>
<path d="M24.314 30.1579C24.769 29.7029 25.3092 29.3419 25.9037 29.0957C26.4983 28.8494 27.1355 28.7227 27.779 28.7227C28.4225 28.7227 29.0597 28.8494 29.6542 29.0957C30.2488 29.3419 30.789 29.7029 31.244 30.1579C31.699 30.6129 32.06 31.1531 32.3062 31.7477C32.5525 32.3422 32.6792 32.9794 32.6792 33.6229C32.6792 34.2664 32.5525 34.9036 32.3062 35.4981C32.06 36.0927 31.699 36.6329 31.244 37.0879L18.5507 49.7346L9.33398 52.0679L11.644 42.8512L24.314 30.1579Z" stroke="#F9F9F9" stroke-width="2" stroke-linecap="round" stroke-linejoin="round"/>
<path d="M37.3327 10.0679H41.9993C43.237 10.0679 44.424 10.5595 45.2992 11.4347C46.1743 12.3099 46.666 13.4969 46.666 14.7345V47.4012C46.666 48.6389 46.1743 49.8259 45.2992 50.701C44.424 51.5762 43.237 52.0679 41.9993 52.0679H29.166" stroke="#F9F9F9" stroke-width="2" stroke-linecap="round" stroke-linejoin="round"/>
<path d="M9.33398 32.2345V14.7345C9.33398 13.4969 9.82565 12.3099 10.7008 11.4347C11.576 10.5595 12.763 10.0679 14.0007 10.0679H18.6673" stroke="#F9F9F9" stroke-width="2" stroke-linecap="round" stroke-linejoin="round"/>
</svg>
