<svg width="14" height="16" viewBox="0 0 14 16" fill="none" xmlns="http://www.w3.org/2000/svg">
<path d="M2.80078 15.7016C2.38411 15.7016 2.02995 15.5557 1.73828 15.2641C1.44661 14.9724 1.30078 14.6182 1.30078 14.2016V2.00156H0.300781V1.30156H4.00078V0.601562H10.0008V1.30156H13.7008V2.00156H12.7008V14.2016C12.7008 14.6349 12.5591 14.9932 12.2758 15.2766C11.9924 15.5599 11.6341 15.7016 11.2008 15.7016H2.80078ZM12.0008 2.00156H2.00078V14.2016C2.00078 14.4349 2.07578 14.6266 2.22578 14.7766C2.37578 14.9266 2.56745 15.0016 2.80078 15.0016H11.2008C11.4008 15.0016 11.5841 14.9182 11.7508 14.7516C11.9174 14.5849 12.0008 14.4016 12.0008 14.2016V2.00156ZM5.05078 13.0016H5.75078V4.00156H5.05078V13.0016ZM8.25078 13.0016H8.95078V4.00156H8.25078V13.0016Z" fill="#C4384E"/>
</svg>
