<svg width="48" height="48" viewBox="0 0 48 48" fill="none" xmlns="http://www.w3.org/2000/svg">
<mask id="mask0_3593_33745" style="mask-type:alpha" maskUnits="userSpaceOnUse" x="0" y="0" width="48" height="48">
<rect width="48" height="48" fill="#D9D9D9"/>
</mask>
<g mask="url(#mask0_3593_33745)">
<path d="M4.99961 26.9516C4.19961 25.6849 3.59961 24.3932 3.19961 23.0766C2.79961 21.7599 2.59961 20.4682 2.59961 19.2016C2.59961 16.2682 3.63294 13.7682 5.69961 11.7016C7.76628 9.6349 10.2663 8.60156 13.1996 8.60156C15.1996 8.60156 17.1246 9.15156 18.9746 10.2516C20.8246 11.3516 22.4996 12.9516 23.9996 15.0516C25.4996 12.9516 27.1746 11.3516 29.0246 10.2516C30.8746 9.15156 32.7996 8.60156 34.7996 8.60156C37.7329 8.60156 40.2329 9.6349 42.2996 11.7016C44.3663 13.7682 45.3996 16.2682 45.3996 19.2016C45.3996 20.4016 45.1996 21.6432 44.7996 22.9266C44.3996 24.2099 43.7996 25.5349 42.9996 26.9016C42.8386 26.7335 42.6484 26.5832 42.4289 26.4506C42.2094 26.3179 41.9996 26.2016 41.7996 26.1016C42.5329 24.8682 43.0829 23.6766 43.4496 22.5266C43.8163 21.3766 43.9996 20.2682 43.9996 19.2016C43.9996 16.6349 43.1079 14.4599 41.3246 12.6766C39.5413 10.8932 37.3663 10.0016 34.7996 10.0016C32.9329 10.0016 31.1246 10.5849 29.3746 11.7516C27.6246 12.9182 25.8329 14.7349 23.9996 17.2016C22.1663 14.7349 20.3746 12.9182 18.6246 11.7516C16.8746 10.5849 15.0663 10.0016 13.1996 10.0016C10.6329 10.0016 8.45794 10.8932 6.67461 12.6766C4.89128 14.4599 3.99961 16.6349 3.99961 19.2016C3.99961 20.3349 4.18294 21.4849 4.54961 22.6516C4.91628 23.8182 5.44961 24.9849 6.14961 26.1516C5.94961 26.2849 5.74961 26.4099 5.54961 26.5266C5.34961 26.6432 5.16628 26.7849 4.99961 26.9516ZM2.59961 41.5016V40.2016C2.59961 39.0349 3.22553 38.0599 4.47736 37.2766C5.72919 36.4932 7.35376 36.1016 9.35106 36.1016C9.71676 36.1016 10.0663 36.1182 10.3996 36.1516C10.7329 36.1849 11.0496 36.2349 11.3496 36.3016C11.1163 36.7682 10.9329 37.2534 10.7996 37.757C10.6663 38.2607 10.5996 38.7972 10.5996 39.3665V41.5016H2.59961ZM14.5996 41.5016V39.5516C14.5996 38.0516 15.4691 36.8682 17.208 36.0016C18.9469 35.1349 21.2154 34.7016 24.0134 34.7016C26.8375 34.7016 29.1079 35.1349 30.8246 36.0016C32.5413 36.8682 33.3996 38.0516 33.3996 39.5516V41.5016H14.5996ZM37.3996 41.5016V39.3665C37.3996 38.7972 37.3413 38.2607 37.2246 37.757C37.1079 37.2534 36.9329 36.7682 36.6996 36.3016C36.9996 36.2349 37.3194 36.1849 37.6589 36.1516C37.9984 36.1182 38.3453 36.1016 38.6996 36.1016C40.7096 36.1016 42.3288 36.4932 43.5571 37.2766C44.7854 38.0599 45.3996 39.0349 45.3996 40.2016V41.5016H37.3996ZM23.9935 36.1016C21.6309 36.1016 19.7079 36.4182 18.2246 37.0516C16.7413 37.6849 15.9996 38.5182 15.9996 39.5516V40.1016H31.9996V39.5516C31.9996 38.5182 31.2663 37.6849 29.7996 37.0516C28.3329 36.4182 26.3976 36.1016 23.9935 36.1016ZM9.34961 34.2516C8.66211 34.2516 8.07358 34.0068 7.58401 33.5172C7.09441 33.0276 6.84961 32.4391 6.84961 31.7516C6.84961 31.0849 7.09441 30.5099 7.58401 30.0266C8.07358 29.5432 8.66211 29.3016 9.34961 29.3016C10.0163 29.3016 10.5996 29.5432 11.0996 30.0266C11.5996 30.5099 11.8496 31.0849 11.8496 31.7516C11.8496 32.4391 11.5996 33.0276 11.0996 33.5172C10.5996 34.0068 10.0163 34.2516 9.34961 34.2516ZM38.6996 34.2516C38.0329 34.2516 37.4496 34.0068 36.9496 33.5172C36.4496 33.0276 36.1996 32.4391 36.1996 31.7516C36.1996 31.0849 36.4496 30.5099 36.9496 30.0266C37.4496 29.5432 38.0362 29.3016 38.7093 29.3016C39.4028 29.3016 39.9913 29.5432 40.4746 30.0266C40.9579 30.5099 41.1996 31.0849 41.1996 31.7516C41.1996 32.4391 40.96 33.0276 40.4809 33.5172C40.0017 34.0068 39.4079 34.2516 38.6996 34.2516ZM24.0173 33.2016C22.9388 33.2016 22.0163 32.8224 21.2496 32.0641C20.4829 31.3057 20.0996 30.3849 20.0996 29.3016C20.0996 28.1966 20.4788 27.2703 21.2371 26.5228C21.9954 25.7753 22.9163 25.4016 23.9996 25.4016C25.1046 25.4016 26.0309 25.7736 26.7784 26.5178C27.5259 27.2619 27.8996 28.1839 27.8996 29.2839C27.8996 30.3623 27.5276 31.2849 26.7835 32.0516C26.0393 32.8182 25.1173 33.2016 24.0173 33.2016ZM23.9996 26.8016C23.3329 26.8016 22.7496 27.0411 22.2496 27.5203C21.7496 27.9995 21.4996 28.5932 21.4996 29.3016C21.4996 29.9682 21.7496 30.5516 22.2496 31.0516C22.7496 31.5516 23.3413 31.8016 24.0246 31.8016C24.7079 31.8016 25.2913 31.5516 25.7746 31.0516C26.2579 30.5516 26.4996 29.9599 26.4996 29.2766C26.4996 28.5932 26.26 28.0099 25.7809 27.5266C25.3017 27.0432 24.7079 26.8016 23.9996 26.8016Z" fill="#121212"/>
</g>
</svg>
