<svg width="16" height="16" viewBox="0 0 16 16" fill="none" xmlns="http://www.w3.org/2000/svg">
<path d="M0.996875 14.9969H1.99688L12.9719 4.02188L11.9719 3.02188L0.996875 13.9969V14.9969ZM0.296875 15.6969V13.6969L13.4719 0.496875C13.545 0.433108 13.6258 0.383833 13.7143 0.349049C13.8027 0.314266 13.8942 0.296875 13.9888 0.296875C14.0834 0.296875 14.1751 0.309375 14.2638 0.334375C14.3525 0.359375 14.4385 0.413542 14.5219 0.496875L15.4969 1.47188C15.5802 1.55521 15.6344 1.64196 15.6594 1.73212C15.6844 1.82229 15.6969 1.91245 15.6969 2.0026C15.6969 2.09878 15.6809 2.19108 15.649 2.2795C15.6172 2.36792 15.5664 2.44871 15.4969 2.52188L2.29688 15.6969H0.296875ZM12.4631 3.53065L11.9719 3.02188L12.9719 4.02188L12.4631 3.53065Z" fill="#134380"/>
</svg>
