<svg width="56" height="56" viewBox="0 0 56 56" fill="none" xmlns="http://www.w3.org/2000/svg">
<g id="heart-handshake">
<rect width="56" height="56" rx="8" fill="#168C39"/>
<path id="Vector" d="M44.3327 32.6667C47.8094 29.26 51.3327 25.1767 51.3327 19.8333C51.3327 16.4297 49.9806 13.1655 47.5739 10.7588C45.1672 8.35208 41.903 7 38.4994 7C34.3927 7 31.4994 8.16667 27.9994 11.6667C24.4994 8.16667 21.606 7 17.4993 7C14.0957 7 10.8315 8.35208 8.42481 10.7588C6.0181 13.1655 4.66602 16.4297 4.66602 19.8333C4.66602 25.2 8.16602 29.2833 11.666 32.6667L27.9994 49L44.3327 32.6667Z" stroke="#F9F9F9" stroke-width="2" stroke-linecap="round" stroke-linejoin="round"/>
<path id="Vector_2" d="M28.0004 11.667L21.0937 18.5737C20.6197 19.0443 20.2434 19.6041 19.9866 20.2208C19.7298 20.8375 19.5977 21.499 19.5977 22.167C19.5977 22.835 19.7298 23.4964 19.9866 24.1132C20.2434 24.7299 20.6197 25.2897 21.0937 25.7603C23.0071 27.6737 26.0637 27.7437 28.0937 25.9237L32.9237 21.4903C34.1344 20.3918 35.7106 19.7832 37.3454 19.7832C38.9802 19.7832 40.5564 20.3918 41.7671 21.4903L48.6737 27.697" stroke="#F9F9F9" stroke-width="2" stroke-linecap="round" stroke-linejoin="round"/>
<path id="Vector_3" d="M42.0007 34.9997L37.334 30.333" stroke="#F9F9F9" stroke-width="2" stroke-linecap="round" stroke-linejoin="round"/>
<path id="Vector_4" d="M35.0007 41.9997L30.334 37.333" stroke="#F9F9F9" stroke-width="2" stroke-linecap="round" stroke-linejoin="round"/>
</g>
</svg>
