<svg width="32" height="32" viewBox="0 0 32 32" fill="none" xmlns="http://www.w3.org/2000/svg">
<path d="M15.9458 31.1186C12.0446 31.1186 8.64367 29.8567 5.74285 27.3328C2.84202 24.8089 1.15821 21.6209 0.691406 17.7686H2.09181C2.65863 21.1891 4.23408 24.0368 6.81815 26.3116C9.40222 28.5864 12.4448 29.7238 15.9458 29.7238C19.8469 29.7238 23.1561 28.3706 25.8736 25.664C28.591 22.9575 29.9497 19.6615 29.9497 15.7761C29.9497 11.8907 28.591 8.59468 25.8736 5.88815C23.1561 3.18163 19.8469 1.82837 15.9458 1.82837C13.9452 1.82837 12.0613 2.23518 10.2941 3.04879C8.52697 3.86241 6.94319 4.98321 5.54279 6.41119H10.3442V7.80596H3.1421V0.632847H4.5425V5.41493C6.04293 3.85411 7.77676 2.63368 9.74399 1.75365C11.7112 0.873611 13.7785 0.433594 15.9458 0.433594C18.0797 0.433594 20.0803 0.8321 21.9475 1.62911C23.8147 2.42613 25.4485 3.52202 26.8489 4.91679C28.2493 6.31156 29.3496 7.9388 30.1498 9.7985C30.95 11.6582 31.3501 13.6507 31.3501 15.7761C31.3501 17.9015 30.95 19.894 30.1498 21.7537C29.3496 23.6134 28.2493 25.2406 26.8489 26.6354C25.4485 28.0302 23.8147 29.1261 21.9475 29.9231C20.0803 30.7201 18.0797 31.1186 15.9458 31.1186ZM22.5976 23.2481L15.3956 16.075V5.81343H16.796V15.4772L23.5979 22.2518L22.5976 23.2481Z" fill="#121212"/>
</svg>
