<svg width="32" height="32" viewBox="0 0 32 32" fill="none" xmlns="http://www.w3.org/2000/svg">
<rect x="0.00195312" width="32" height="32" rx="16" fill="url(#paint0_linear_5_66500)"/>
<path d="M13.337 16.0384C13.337 14.5643 14.5312 13.3691 16.0048 13.3691C17.4784 13.3691 18.6733 14.5643 18.6733 16.0384C18.6733 17.5124 17.4784 18.7076 16.0048 18.7076C14.5312 18.7076 13.337 17.5124 13.337 16.0384ZM11.8944 16.0384C11.8944 18.3092 13.7346 20.1499 16.0048 20.1499C18.275 20.1499 20.1152 18.3092 20.1152 16.0384C20.1152 13.7675 18.275 11.9268 16.0048 11.9268C13.7346 11.9268 11.8944 13.7675 11.8944 16.0384ZM19.3173 11.7638C19.3172 11.9538 19.3735 12.1396 19.479 12.2977C19.5845 12.4557 19.7344 12.5789 19.9099 12.6517C20.0854 12.7245 20.2786 12.7436 20.4649 12.7066C20.6513 12.6696 20.8225 12.5782 20.9568 12.4439C21.0912 12.3095 21.1828 12.1384 21.2199 11.952C21.2571 11.7656 21.2381 11.5724 21.1655 11.3968C21.0929 11.2212 20.9698 11.0711 20.8119 10.9655C20.654 10.8598 20.4683 10.8034 20.2783 10.8033H20.2779C20.0232 10.8034 19.779 10.9046 19.5989 11.0847C19.4188 11.2648 19.3175 11.509 19.3173 11.7638ZM12.7709 22.556C11.9904 22.5204 11.5662 22.3904 11.2843 22.2805C10.9106 22.135 10.644 21.9616 10.3636 21.6816C10.0832 21.4015 9.90969 21.135 9.76483 20.7612C9.65494 20.4794 9.52495 20.0549 9.48947 19.2743C9.45066 18.4302 9.44291 18.1767 9.44291 16.0384C9.44291 13.9001 9.4513 13.6473 9.48947 12.8026C9.52501 12.0219 9.65597 11.5983 9.76483 11.3156C9.91033 10.9418 10.0836 10.6751 10.3636 10.3946C10.6436 10.1142 10.91 9.94059 11.2843 9.7957C11.5661 9.68578 11.9904 9.55574 12.7709 9.52025C13.6146 9.48143 13.8681 9.47368 16.0048 9.47368C18.1415 9.47368 18.3952 9.48207 19.2397 9.52025C20.0201 9.5558 20.4436 9.6868 20.7262 9.7957C21.1 9.94059 21.3666 10.1146 21.647 10.3946C21.9273 10.6747 22.1002 10.9418 22.2457 11.3156C22.3556 11.5975 22.4856 12.0219 22.5211 12.8026C22.5599 13.6473 22.5676 13.9001 22.5676 16.0384C22.5676 18.1767 22.5599 18.4295 22.5211 19.2743C22.4856 20.0549 22.3549 20.4792 22.2457 20.7612C22.1002 21.135 21.9269 21.4018 21.647 21.6816C21.367 21.9614 21.1 22.135 20.7262 22.2805C20.4445 22.3904 20.0201 22.5205 19.2397 22.556C18.3959 22.5948 18.1425 22.6025 16.0048 22.6025C13.8671 22.6025 13.6144 22.5948 12.7709 22.556ZM12.7046 8.07974C11.8524 8.11856 11.2701 8.25372 10.7616 8.45166C10.2349 8.65606 9.7891 8.93029 9.34359 9.37523C8.89807 9.82017 8.62463 10.2668 8.42028 10.7936C8.22241 11.3026 8.08728 11.8848 8.04848 12.7372C8.00903 13.5909 8 13.8639 8 16.0384C8 18.2128 8.00903 18.4858 8.04848 19.3395C8.08728 20.192 8.22241 20.7741 8.42028 21.2831C8.62463 21.8096 8.89814 22.2567 9.34359 22.7015C9.78904 23.1462 10.2349 23.4201 10.7616 23.6251C11.2711 23.823 11.8524 23.9582 12.7046 23.997C13.5585 24.0358 13.831 24.0455 16.0048 24.0455C18.1786 24.0455 18.4515 24.0364 19.305 23.997C20.1572 23.9582 20.7392 23.823 21.248 23.6251C21.7743 23.4201 22.2205 23.1464 22.666 22.7015C23.1115 22.2566 23.3844 21.8096 23.5893 21.2831C23.7872 20.7741 23.923 20.1919 23.9611 19.3395C23.9999 18.4851 24.009 18.2128 24.009 16.0384C24.009 13.8639 23.9999 13.5909 23.9611 12.7372C23.9223 11.8847 23.7872 11.3023 23.5893 10.7936C23.3844 10.2672 23.1108 9.82087 22.666 9.37523C22.2212 8.92958 21.7743 8.65606 21.2486 8.45166C20.7392 8.25372 20.1572 8.11792 19.3057 8.07974C18.4522 8.04092 18.1793 8.03125 16.0054 8.03125C13.8316 8.03125 13.5585 8.04028 12.7046 8.07974Z" fill="white"/>
<defs>
<linearGradient id="paint0_linear_5_66500" x1="31.3869" y1="32" x2="-0.613086" y2="-8.6135e-07" gradientUnits="userSpaceOnUse">
<stop stop-color="#FBE18A"/>
<stop offset="0.21" stop-color="#FCBB45"/>
<stop offset="0.38" stop-color="#F75274"/>
<stop offset="0.52" stop-color="#D53692"/>
<stop offset="0.74" stop-color="#8F39CE"/>
<stop offset="1" stop-color="#5B4FE9"/>
</linearGradient>
</defs>
</svg>
