<svg width="172" height="153" viewBox="0 0 172 153" fill="none" xmlns="http://www.w3.org/2000/svg">
<path d="M112.936 143.745C94.6933 150.628 79.5689 153.869 63.8418 152.812C40.6123 151.254 23.0018 140.091 10.6919 120.499C3.172 108.531 -0.71904 95.4564 0.701166 81.3076C1.32451 75.1004 2.98368 68.8646 5.08901 62.9674C8.20973 54.2278 14.9882 48.2789 22.7324 43.6289C29.2276 39.7304 34.6012 34.594 40.2318 29.6622C47.7844 23.0478 55.2906 16.2244 63.6052 10.6695C75.9238 2.44071 90.0565 -0.110122 104.716 1.18777C131.267 3.53766 150.447 17.0224 162.62 40.5295C168.529 51.9417 171.411 64.1871 171.136 77.049C170.747 95.2251 162.67 109.801 149.211 121.531C137.412 131.815 123.845 139.252 112.936 143.745Z" fill="#F9E4EE"/>
</svg>
