<svg width="241" height="261" viewBox="0 0 241 261" fill="none" xmlns="http://www.w3.org/2000/svg">
<path d="M39.6566 164.789C31.1061 142.589 27.0254 124.163 28.1822 104.965C29.8892 76.6093 43.3615 55.029 67.1631 39.8453C81.7023 30.5699 97.6222 25.7129 114.897 27.3271C122.476 28.0357 130.098 30.0078 137.311 32.5272C148.001 36.2616 155.316 44.4822 161.054 53.8921C165.865 61.7844 172.177 68.2977 178.242 75.1264C186.375 84.286 194.764 93.3873 201.611 103.485C211.754 118.447 214.985 135.669 213.524 153.566C210.879 185.981 194.587 209.496 166.008 224.545C152.133 231.85 137.217 235.469 121.521 235.241C99.341 234.919 81.4891 225.186 67.0639 208.863C54.4177 194.553 45.2301 178.062 39.6566 164.789Z" fill="#FFEA8B"/>
</svg>
