<svg width="186" height="209" viewBox="0 0 186 209" fill="none" xmlns="http://www.w3.org/2000/svg">
<path d="M11.6574 137.923C3.10691 115.723 -0.973772 97.2966 0.183053 78.0989C1.89002 49.7431 15.3624 28.1627 39.1639 12.9791C53.7031 3.70372 69.623 -1.15334 86.8981 0.460935C94.4768 1.16949 102.099 3.14161 109.312 5.66096C120.002 9.39536 127.317 17.616 133.055 27.0259C137.866 34.9182 144.178 41.4314 150.243 48.2602C158.376 57.4198 166.764 66.521 173.612 76.6192C183.755 91.5804 186.986 108.803 185.525 126.7C182.88 159.115 166.588 182.63 138.009 197.678C124.134 204.984 109.217 208.603 93.5221 208.375C71.3418 208.053 53.4899 198.32 39.0648 181.997C26.4185 167.687 17.2309 151.196 11.6574 137.923Z" fill="#FFEA8B"/>
</svg>
