<svg width="129" height="201" viewBox="0 0 129 201" fill="none" xmlns="http://www.w3.org/2000/svg">
<path d="M-26.4031 127.138C-33 110.01 -36.1484 95.7938 -35.2558 80.9823C-33.9389 59.1052 -23.5447 42.4555 -5.18125 30.741C6.03607 23.5848 18.3186 19.8375 31.6467 21.0829C37.4939 21.6296 43.3746 23.1511 48.9395 25.0949C57.1868 27.976 62.8305 34.3184 67.2578 41.5783C70.9697 47.6674 75.8396 52.6926 80.5184 57.9611C86.7937 65.0279 93.2654 72.0498 98.5482 79.8407C106.374 91.3836 108.867 104.671 107.74 118.479C105.699 143.488 93.1292 161.63 71.0796 173.24C60.375 178.877 48.8665 181.669 36.7573 181.493C19.6447 181.245 5.87159 173.736 -5.25775 161.142C-15.0146 150.102 -22.103 137.378 -26.4031 127.138Z" fill="#FFEA8B"/>
</svg>
