<svg width="100" height="100" viewBox="0 0 100 100" fill="none" xmlns="http://www.w3.org/2000/svg">
<circle cx="49.9998" cy="50" r="50" fill="#A25F9D"/>
<path d="M38.0382 56.2161L27.4215 37.8761C26.9637 37.0848 26.7484 36.1765 26.8023 35.2639C26.8562 34.3513 27.177 33.4747 27.7248 32.7428L31.4815 27.7495C31.9162 27.1699 32.4798 26.6995 33.1278 26.3755C33.7758 26.0515 34.4903 25.8828 35.2148 25.8828H63.2148C63.9393 25.8828 64.6538 26.0515 65.3018 26.3755C65.9498 26.6995 66.5135 27.1699 66.9482 27.7495L70.6815 32.7428C71.2329 33.4723 71.5578 34.3478 71.6159 35.2604C71.674 36.173 71.4627 37.0826 71.0082 37.8761L60.3915 56.2161" stroke="#FAFAFA" stroke-width="2" stroke-linecap="round" stroke-linejoin="round"/>
<path d="M46.8814 49.2143L33.1614 26.3477" stroke="#FAFAFA" stroke-width="2" stroke-linecap="round" stroke-linejoin="round"/>
<path d="M51.5481 49.2143L65.2681 26.3477" stroke="#FAFAFA" stroke-width="2" stroke-linecap="round" stroke-linejoin="round"/>
<path d="M39.8811 37.5469H58.5478" stroke="#FAFAFA" stroke-width="2" stroke-linecap="round" stroke-linejoin="round"/>
<path d="M49.2145 72.5482C55.6578 72.5482 60.8812 67.3248 60.8812 60.8815C60.8812 54.4382 55.6578 49.2148 49.2145 49.2148C42.7712 49.2148 37.5479 54.4382 37.5479 60.8815C37.5479 67.3248 42.7712 72.5482 49.2145 72.5482Z" stroke="#FAFAFA" stroke-width="2" stroke-linecap="round" stroke-linejoin="round"/>
<path d="M49.2148 63.2135V58.5469H48.0481" stroke="#FAFAFA" stroke-width="2" stroke-linecap="round" stroke-linejoin="round"/>
<path d="M30.0005 69.8794C29.9529 69.9268 29.8791 70.0663 29.7715 70.0972C28.6234 70.4277 28.015 71.2438 27.5854 72.2496C27.3997 72.6845 27.3192 73.1211 27.3383 73.5842C27.3501 73.8722 27.3551 74.161 27.3492 74.4491C27.3446 74.6785 27.2182 74.8261 27.0288 74.8395C26.8056 74.8554 26.7039 74.7206 26.6398 74.5377C26.4183 73.9057 26.2212 73.2641 25.9638 72.6457C25.4218 71.344 25.0307 71.136 23.4392 71.0815C23.3371 71.0779 23.2341 71.1 23.1322 71.0961C22.9457 71.0887 22.7807 71.0364 22.7308 70.8357C22.6872 70.66 22.7817 70.5258 23.0088 70.4413C23.3698 70.3071 23.7394 70.193 24.0936 70.0444C25.252 69.5584 25.8601 68.7002 25.9316 67.4897C25.9449 67.265 25.9607 67.0406 25.977 66.8161C25.9902 66.6341 26.0662 66.4854 26.2542 66.4225C26.4709 66.3497 26.6355 66.4777 26.7182 66.7493C26.8762 67.2681 27.03 67.7886 27.2103 68.3005C27.2889 68.524 27.4099 68.7392 27.5438 68.9384C27.8433 69.384 28.3203 69.4827 28.829 69.4895C29.07 69.4927 29.3114 69.4699 29.5528 69.4657C29.824 69.4604 29.9988 69.5942 30.0005 69.8794Z" fill="#FFEA8B"/>
<path d="M24.2798 63.3314C24.2292 63.3861 24.1547 63.5166 24.0407 63.5808C23.7663 63.7353 23.4836 63.8864 23.1863 63.9897C22.1827 64.3384 21.7859 65.099 21.6616 66.0555C21.6245 66.3413 21.5971 66.6282 21.5633 66.9144C21.5557 66.9786 21.5443 67.0429 21.527 67.1052C21.4826 67.2652 21.3835 67.3779 21.2078 67.393C21.0303 67.4083 20.9084 67.3134 20.8488 67.1583C20.7427 66.8821 20.6328 66.6057 20.5518 66.3221C20.185 65.0403 19.2882 64.3567 17.9809 64.1146C17.7442 64.0708 17.5124 63.9877 17.2878 63.8996C17.1142 63.8315 17.0004 63.6921 16.9998 63.4987C16.9992 63.3123 17.1254 63.2115 17.2926 63.1623C17.6433 63.059 18.0026 62.9807 18.3468 62.8607C18.7405 62.7234 19.1353 62.5771 19.5045 62.3881C19.8918 62.1899 20.0702 61.8337 20.1027 61.4106C20.117 61.2238 20.1286 61.0367 20.1455 60.8501C20.1662 60.6214 20.2862 60.4769 20.4811 60.4503C20.6947 60.4212 20.8383 60.5212 20.9209 60.7051C21.0779 61.0547 21.2229 61.4096 21.385 61.7568C21.4765 61.9526 21.5831 62.1432 21.699 62.3264C21.9154 62.6676 22.2277 62.8633 22.6481 62.8741C23.0472 62.8842 23.4465 62.8918 23.8455 62.9044C24.1057 62.9121 24.2725 63.0482 24.2798 63.3314Z" fill="#FFEA8B"/>
<path d="M23.7225 53C23.8223 53.0998 23.9522 53.1845 24.0163 53.3023C24.2186 53.6741 24.3689 54.074 24.5905 54.4338C24.837 54.8341 25.1318 55.208 25.42 55.5831C25.781 56.053 26.3142 56.1631 26.879 56.1982C26.9764 56.2042 27.0975 56.2006 27.1632 56.2529C27.2677 56.3361 27.3932 56.4594 27.4002 56.572C27.4063 56.6704 27.2842 56.8188 27.1787 56.8728C26.906 57.0122 26.6113 57.1117 26.3253 57.2267C25.9071 57.3951 25.5626 57.6658 25.253 57.9736C24.9691 58.2559 24.8231 58.6096 24.8066 59.0022C24.7927 59.3339 24.8026 59.6665 24.7998 59.9986C24.7976 60.2511 24.6963 60.4008 24.5086 60.4358C24.3002 60.4746 24.147 60.4031 24.0563 60.1604C23.9569 59.8946 23.895 59.6148 23.8288 59.3387C23.7085 58.8363 23.5846 58.3386 23.3182 57.8812C23.085 57.4809 22.7536 57.2087 22.304 57.0716C21.8676 56.9385 21.4273 56.8173 20.9883 56.6921C20.7988 56.638 20.649 56.5443 20.6407 56.3346C20.6325 56.1257 20.782 56.04 20.9638 55.9887C21.4168 55.8611 21.873 55.743 22.3218 55.6028C22.5684 55.5257 22.8034 55.4134 23.0424 55.3138C23.3039 55.2049 23.438 54.996 23.4397 54.7369C23.4418 54.4133 23.4 54.0896 23.3774 53.7658C23.3681 53.631 23.3445 53.4951 23.3536 53.3613C23.3662 53.1748 23.5091 53.0463 23.7225 53Z" fill="#FFEA8B"/>
<path d="M73.9991 27.9604C74.0466 27.9131 74.1204 27.7736 74.228 27.7427C75.3761 27.4121 75.9845 26.5961 76.4141 25.5902C76.5998 25.1553 76.6803 24.7187 76.6613 24.2557C76.6494 23.9676 76.6444 23.6789 76.6503 23.3907C76.6549 23.1614 76.7813 23.0138 76.9707 23.0003C77.1939 22.9844 77.2957 23.1193 77.3597 23.3021C77.5812 23.9342 77.7783 24.5757 78.0358 25.1942C78.5777 26.4959 78.9688 26.7038 80.5604 26.7584C80.6624 26.7619 80.7654 26.7398 80.8673 26.7438C81.0538 26.7511 81.2188 26.8035 81.2687 27.0042C81.3123 27.1798 81.2178 27.314 80.9907 27.3985C80.6298 27.5328 80.2601 27.6469 79.9059 27.7954C78.7475 28.2815 78.1394 29.1396 78.0679 30.3502C78.0547 30.5748 78.0389 30.7992 78.0225 31.0238C78.0093 31.2058 77.9333 31.3545 77.7454 31.4174C77.5286 31.4901 77.364 31.3621 77.2813 31.0905C77.1234 30.5717 76.9695 30.0512 76.7893 29.5394C76.7106 29.3158 76.5896 29.1006 76.4557 28.9015C76.1562 28.4558 75.6792 28.3572 75.1706 28.3504C74.9295 28.3471 74.6881 28.3699 74.4467 28.3742C74.1755 28.3794 74.0007 28.2456 73.9991 27.9604Z" fill="#FFEA8B"/>
<path d="M79.7198 34.5085C79.7703 34.4537 79.8448 34.3233 79.9588 34.2591C80.2332 34.1045 80.5159 33.9534 80.8132 33.8501C81.8168 33.5015 82.2136 32.7409 82.3379 31.7843C82.375 31.4986 82.4024 31.2117 82.4362 30.9255C82.4438 30.8613 82.4552 30.7969 82.4725 30.7346C82.5169 30.5747 82.616 30.4619 82.7917 30.4468C82.9692 30.4316 83.0911 30.5264 83.1507 30.6816C83.2568 30.9577 83.3667 31.2342 83.4478 31.5177C83.8145 32.7996 84.7113 33.4832 86.0186 33.7252C86.2553 33.7691 86.4871 33.8522 86.7117 33.9402C86.8853 34.0083 86.9992 34.1478 86.9998 34.3411C87.0004 34.5275 86.8741 34.6283 86.7069 34.6776C86.3562 34.7809 85.9969 34.8592 85.6528 34.9791C85.259 35.1164 84.8642 35.2627 84.495 35.4517C84.1077 35.65 83.9293 36.0062 83.8968 36.4292C83.8825 36.616 83.8709 36.8031 83.854 36.9898C83.8333 37.2184 83.7133 37.363 83.5184 37.3896C83.3048 37.4186 83.1612 37.3187 83.0786 37.1348C82.9217 36.7851 82.7766 36.4302 82.6145 36.083C82.523 35.8872 82.4164 35.6966 82.3005 35.5134C82.0841 35.1722 81.7718 34.9765 81.3514 34.9658C80.9523 34.9556 80.553 34.9481 80.154 34.9354C79.8938 34.9277 79.7271 34.7916 79.7198 34.5085Z" fill="#FFEA8B"/>
<path d="M80.277 44.8398C80.1773 44.7401 80.0473 44.6554 79.9832 44.5376C79.7809 44.1657 79.6306 43.7658 79.409 43.406C79.1625 43.0057 78.8677 42.6318 78.5795 42.2567C78.2186 41.7869 77.6853 41.6767 77.1205 41.6416C77.0231 41.6356 76.902 41.6393 76.8363 41.5869C76.7318 41.5037 76.6063 41.3805 76.5994 41.2679C76.5932 41.1695 76.7154 41.021 76.8208 40.9671C77.0935 40.8277 77.3882 40.7282 77.6742 40.6131C78.0925 40.4448 78.4369 40.174 78.7465 39.8663C79.0304 39.5839 79.1764 39.2303 79.1929 38.8376C79.2069 38.506 79.1969 38.1733 79.1998 37.8413C79.2019 37.5887 79.3032 37.4391 79.4909 37.4041C79.6993 37.3653 79.8526 37.4368 79.9433 37.6795C80.0426 37.9453 80.1045 38.225 80.1707 38.5012C80.291 39.0035 80.4149 39.5013 80.6814 39.9587C80.9145 40.3589 81.2459 40.6312 81.6955 40.7682C82.132 40.9013 82.5722 41.0225 83.0112 41.1477C83.2007 41.2018 83.3506 41.2956 83.3588 41.5052C83.3671 41.7142 83.2175 41.7999 83.0357 41.8511C82.5828 41.9788 82.1266 42.0968 81.6778 42.237C81.4311 42.3141 81.1961 42.4264 80.9571 42.5261C80.6956 42.635 80.5615 42.8438 80.5598 43.1029C80.5577 43.4265 80.5995 43.7503 80.6221 44.074C80.6315 44.2089 80.6551 44.3447 80.646 44.4785C80.6333 44.6651 80.4904 44.7935 80.277 44.8398Z" fill="#FFEA8B"/>
</svg>
