<svg width="695" height="705" viewBox="110 100 550 550" fill="none" xmlns="http://www.w3.org/2000/svg">
  <path fill-rule="evenodd" clip-rule="evenodd" d="M501.736 136.975C572.108 186.381 615.598 273.351 612.57 355.943C609.855 429.995 535.669 469.797 487.538 524.226C443.969 573.496 416.705 650.255 348.878 654.139C281.571 657.994 230.072 592.946 183.749 541.624C147.287 501.228 126.772 452.65 119.681 400.21C112.721 348.739 121.806 299.922 144.998 255.046C174.817 197.347 205.072 134.54 267.692 113.814C343.212 88.8193 433.839 89.307 501.736 136.975Z" fill="#E5F5FF"/>
  <mask id="mask0_1775_40722" style="mask-type:alpha" maskUnits="userSpaceOnUse" x="160" y="213" width="375" height="375">
    <rect x="160" y="213" width="375" height="375" fill="#D9D9D9"/>
  </mask>
  <g mask="url(#mask0_1775_40722)">
    <path d="M238.125 275.5V369.641V369.25V525.5V275.5ZM269.375 431.75H324.062C326.406 425.76 329.271 420.161 332.656 414.953C336.042 409.745 339.948 404.927 344.375 400.5H269.375V431.75ZM269.375 494.25H318.984C317.682 489.042 316.836 483.833 316.445 478.625C316.055 473.417 316.12 468.208 316.641 463H269.375V494.25ZM238.125 556.75C229.531 556.75 222.174 553.69 216.055 547.57C209.935 541.451 206.875 534.094 206.875 525.5V275.5C206.875 266.906 209.935 259.549 216.055 253.43C222.174 247.31 229.531 244.25 238.125 244.25H363.125L456.875 338V377.062C451.927 374.979 446.849 373.352 441.641 372.18C436.432 371.008 431.094 370.161 425.625 369.641V353.625H347.5V275.5H238.125V525.5H332.266C336.432 531.75 341.12 537.544 346.328 542.883C351.536 548.221 357.266 552.844 363.516 556.75H238.125ZM417.812 509.875C428.75 509.875 437.995 506.099 445.547 498.547C453.099 490.995 456.875 481.75 456.875 470.812C456.875 459.875 453.099 450.63 445.547 443.078C437.995 435.526 428.75 431.75 417.812 431.75C406.875 431.75 397.63 435.526 390.078 443.078C382.526 450.63 378.75 459.875 378.75 470.812C378.75 481.75 382.526 490.995 390.078 498.547C397.63 506.099 406.875 509.875 417.812 509.875ZM497.5 572.375L455.313 530.188C449.844 533.833 443.919 536.568 437.539 538.391C431.159 540.214 424.583 541.125 417.812 541.125C398.281 541.125 381.68 534.289 368.008 520.617C354.336 506.945 347.5 490.344 347.5 470.812C347.5 451.281 354.336 434.68 368.008 421.008C381.68 407.336 398.281 400.5 417.812 400.5C437.344 400.5 453.945 407.336 467.617 421.008C481.289 434.68 488.125 451.281 488.125 470.812C488.125 477.583 487.214 484.159 485.391 490.539C483.568 496.919 480.833 502.844 477.188 508.312L519.375 550.5L497.5 572.375Z" fill="#134380"/>
  </g>
</svg>
