<svg width="314" height="329" viewBox="0 0 314 329" fill="none" xmlns="http://www.w3.org/2000/svg">
<path d="M32.125 31.5V125.641V125.25V281.5V31.5ZM63.375 187.75H118.062C120.406 181.76 123.271 176.161 126.656 170.953C130.042 165.745 133.948 160.927 138.375 156.5H63.375V187.75ZM63.375 250.25H112.984C111.682 245.042 110.836 239.833 110.445 234.625C110.055 229.417 110.12 224.208 110.641 219H63.375V250.25ZM32.125 312.75C23.5312 312.75 16.1745 309.69 10.0547 303.57C3.9349 297.451 0.875 290.094 0.875 281.5V31.5C0.875 22.9062 3.9349 15.5495 10.0547 9.42969C16.1745 3.3099 23.5312 0.25 32.125 0.25H157.125L250.875 94V133.062C245.927 130.979 240.849 129.352 235.641 128.18C230.432 127.008 225.094 126.161 219.625 125.641V109.625H141.5V31.5H32.125V281.5H126.266C130.432 287.75 135.12 293.544 140.328 298.883C145.536 304.221 151.266 308.844 157.516 312.75H32.125ZM211.812 265.875C222.75 265.875 231.995 262.099 239.547 254.547C247.099 246.995 250.875 237.75 250.875 226.812C250.875 215.875 247.099 206.63 239.547 199.078C231.995 191.526 222.75 187.75 211.812 187.75C200.875 187.75 191.63 191.526 184.078 199.078C176.526 206.63 172.75 215.875 172.75 226.812C172.75 237.75 176.526 246.995 184.078 254.547C191.63 262.099 200.875 265.875 211.812 265.875ZM291.5 328.375L249.313 286.188C243.844 289.833 237.919 292.568 231.539 294.391C225.159 296.214 218.583 297.125 211.812 297.125C192.281 297.125 175.68 290.289 162.008 276.617C148.336 262.945 141.5 246.344 141.5 226.812C141.5 207.281 148.336 190.68 162.008 177.008C175.68 163.336 192.281 156.5 211.812 156.5C231.344 156.5 247.945 163.336 261.617 177.008C275.289 190.68 282.125 207.281 282.125 226.812C282.125 233.583 281.214 240.159 279.391 246.539C277.568 252.919 274.833 258.844 271.188 264.312L313.375 306.5L291.5 328.375Z" fill="#134380"/>
</svg>
