<svg width="89" height="88" viewBox="0 0 89 88" fill="none" xmlns="http://www.w3.org/2000/svg">
<g clip-path="url(#clip0_2375_5269)">
<path d="M13.5183 26.9375C13.5292 26.9064 0.0010519 51.9965 12.5856 48.8685C17.0273 47.7642 25.5902 40.509 37.5842 40.509C54.287 40.509 66.0414 53.4627 54.3659 64.6223C47.7413 70.9532 32.7087 71.9602 34.5514 75.7323C34.9813 76.6128 36.2867 77.0574 38.0476 77.358C42.4675 78.1121 49.7586 77.9603 53.2902 81.5407C46.2052 77.54 40.3596 81.3665 35.3983 80.235C29.8751 78.9751 27.5788 75.2312 29.7518 71.7199C30.6037 70.3441 32.3015 69.1824 34.4104 68.1793C39.2455 65.8793 47.0246 64.3489 50.6647 60.8687C60.1662 51.7863 45.8621 45.2686 37.5842 45.7609C26.9478 46.3933 19.504 53.1835 13.3339 54.0581C7.43407 54.8939 4.19919 51.9381 3.85411 47.1201C3.371 40.3718 9.25609 32.9084 13.5183 26.9365" fill="#231F20"/>
<path fill-rule="evenodd" clip-rule="evenodd" d="M29.324 6.28515C17.2403 10.9358 12.9337 17.8544 16.4032 27.0389C18.4894 25.9755 20.3647 26.099 22.03 27.4086C25.1554 25.0288 26.3178 21.3063 25.5153 16.2402C27.6203 21.4863 26.6984 25.5795 22.7507 28.5197L23.5207 29.9159C29.2964 27.5283 30.6708 21.7967 27.64 12.7211C27.1105 9.86654 27.6725 7.72024 29.324 6.28418" fill="#EE4223"/>
<path fill-rule="evenodd" clip-rule="evenodd" d="M6.13434 67.3859L3.31849 78.0502C2.73382 80.2646 5.04389 81.3534 5.72912 79.1613C6.41632 76.9605 7.3293 74.1526 8.4651 70.7386C7.6379 69.6586 6.86098 68.5398 6.13434 67.3859ZM16.3102 28.8118C16.3102 28.8118 13.4333 39.7379 7.36578 62.7226C8.08847 64.1119 8.89695 65.4692 9.79021 66.7865C12.7737 57.9328 16.9412 45.88 22.2929 30.6244L21.1108 28.4791C19.7522 27.4293 17.3987 27.5304 16.3102 28.8118Z" fill="#CCC9B4"/>
<path d="M66.0542 69.8364C74.8449 53.1788 66.5807 34.1228 46.498 39.6977C59.9591 35.9607 70.4387 51.4031 63.2226 63.2253L66.0532 69.8364H66.0542Z" fill="#231F20"/>
<path fill-rule="evenodd" clip-rule="evenodd" d="M85.7585 62.0017C85.7703 62.1496 85.7752 62.2984 85.7752 62.4492C85.7752 64.5984 84.5832 66.4743 82.8154 67.4657C83.9187 65.7212 84.9037 63.897 85.7585 62.0026M78.3531 68.0018C75.8931 67.3217 74.0898 65.0937 74.0898 62.4492C74.0898 59.2648 76.7065 56.6836 79.9325 56.6836C81.371 56.6836 82.6873 57.1963 83.7047 58.0467C82.4141 61.5386 80.6316 64.8913 78.3531 68.0008V68.0018Z" fill="#005AA9"/>
<path fill-rule="evenodd" clip-rule="evenodd" d="M76.2128 48.9902C72.9858 48.9902 70.3691 46.409 70.3691 43.2246C70.3691 40.0402 72.9858 37.459 76.2128 37.459C79.4398 37.459 82.0555 40.0402 82.0555 43.2246C82.0555 46.409 79.4398 48.9902 76.2128 48.9902Z" fill="#FAB217"/>
<path fill-rule="evenodd" clip-rule="evenodd" d="M58.2538 34.7227C55.0268 34.7227 52.4102 32.1415 52.4102 28.957C52.4102 25.7726 55.0259 23.1914 58.2538 23.1914C61.4818 23.1914 64.0965 25.7726 64.0965 28.957C64.0965 32.1415 61.4808 34.7227 58.2538 34.7227Z" fill="#EE4223"/>
<path fill-rule="evenodd" clip-rule="evenodd" d="M38.1181 35.3535C34.8911 35.3535 32.2754 32.7723 32.2754 29.5879C32.2754 26.4035 34.8911 23.8223 38.1181 23.8223C41.3451 23.8223 43.9608 26.4035 43.9608 29.5879C43.9608 32.7723 41.3451 35.3535 38.1181 35.3535Z" fill="#60AC46"/>
<path d="M74.4603 14.3469C57.9142 -1.98187 31.0848 -1.98187 14.5387 14.3469C-2.00738 30.6748 -2.00738 57.1503 14.5387 73.4782C31.0858 89.807 57.9142 89.807 74.4603 73.4782C91.0074 57.1494 91.0074 30.6757 74.4603 14.3469ZM44.5005 0C69.0771 0 89 19.6611 89 43.9135C89 68.1659 69.0761 87.8261 44.5005 87.8261C19.9249 87.8261 0 68.165 0 43.9135C0 19.6621 19.9229 0 44.5005 0Z" fill="#004353"/>
</g>
<defs>
<clipPath id="clip0_2375_5269">
<rect width="89" height="87.8261" fill="white"/>
</clipPath>
</defs>
</svg>
