<svg width="912" height="405" viewBox="0 0 912 405" fill="none" xmlns="http://www.w3.org/2000/svg">
<path fill-rule="evenodd" clip-rule="evenodd" d="M362.297 51.1396C423.247 37.6075 481.706 20.8458 542.705 14.1659C621.192 5.57104 708.282 -8.40722 767.181 6.80164C828.156 22.5467 842.514 61.7639 861.025 96.3621C881.646 134.904 951.264 180.685 881.063 219.652C793.515 268.248 649.838 232.314 546.04 271.203C472.924 298.597 505.094 359.579 432.733 387.625C366.652 413.237 285.266 404.938 224.282 395.912C167.043 387.44 154.044 352.727 103.76 338.933C35.9891 320.341 -87.6118 337.384 -119.474 301.608C-149.794 267.564 -104.508 212.335 -44.948 171.959C12.2009 133.217 107.254 116.913 188.549 92.7946C246.001 75.7501 303.07 64.2889 362.297 51.1396Z" fill="#F9E4EE"/>
</svg>
