<svg width="62" height="65" viewBox="0 0 62 65" fill="none" xmlns="http://www.w3.org/2000/svg">
<path id="Vector" d="M9.76495 15.2058C14.6217 9.46187 19.111 5.53076 24.61 2.93473C32.7319 -0.900197 40.7627 -0.443337 48.5892 3.84954C53.3701 6.47178 57.1357 10.1482 59.3128 15.1835C60.2678 17.3926 60.8791 19.8058 61.2764 22.1886C61.865 25.7201 60.697 28.9974 58.9596 32.0183C57.5022 34.5514 56.6552 37.2913 55.6831 40.0104C54.379 43.6574 53.1299 47.3661 51.3701 50.799C48.7627 55.8847 44.4782 59.3972 39.2935 61.7114C29.9037 65.903 20.908 64.9581 12.393 59.3199C8.25915 56.5827 4.98927 52.9964 2.66788 48.6097C-0.612769 42.4105 -0.626356 35.9817 1.70806 29.5018C3.75461 23.821 6.93142 18.7679 9.76495 15.2058Z" fill="#F9E4EE"/>
</svg>
