<svg width="14" height="14" viewBox="0 0 14 14" fill="none" xmlns="http://www.w3.org/2000/svg">
<path d="M6.65078 10.4469V1.64688L4.40078 3.89688L3.90078 3.39688L7.00078 0.296875L10.1008 3.39688L9.60078 3.89688L7.35078 1.64688V10.4469H6.65078ZM1.80078 13.6969C1.36745 13.6969 1.00911 13.5552 0.725781 13.2719C0.442448 12.9885 0.300781 12.6302 0.300781 12.1969V9.94688H1.00078V12.1969C1.00078 12.3969 1.08411 12.5802 1.25078 12.7469C1.41745 12.9135 1.60078 12.9969 1.80078 12.9969H12.2008C12.4008 12.9969 12.5841 12.9135 12.7508 12.7469C12.9174 12.5802 13.0008 12.3969 13.0008 12.1969V9.94688H13.7008V12.1969C13.7008 12.6302 13.5591 12.9885 13.2758 13.2719C12.9924 13.5552 12.6341 13.6969 12.2008 13.6969H1.80078Z" fill="#FEFEFE"/>
</svg>
