<svg width="537" height="486" viewBox="0 0 537 486" fill="none" xmlns="http://www.w3.org/2000/svg">
<path d="M519.605 236.84C499.029 286.459 470.168 325.364 437.794 359.814C404.458 395.29 369.597 418.653 333.864 432.053C297.123 445.828 260.378 459.175 223.839 470.654C181.752 483.873 140.945 489.317 102.995 482.097C75.728 476.91 50.2244 467.213 29.0414 447.485C10.5137 430.238 2.24668 401.94 0.281753 367.856C-1.4008 338.623 9.77797 310.318 27.921 284.199C49.5895 253.008 73.9135 233.23 100.003 220.362C108.736 216.056 117.485 211.452 126.201 206.376C151.101 191.878 168.429 167.252 178.747 131.096C184.192 112.012 190.849 92.461 199.133 74.3429C216.507 36.3509 240.709 14.5071 267.78 4.97032C298.349 -5.79717 322.45 2.64256 339.628 27.7719C347.609 39.4482 355.251 52.3836 359.912 67.7924C368.661 96.7118 384.502 106.598 410.936 97.4246C431.362 90.3364 451.7 85.8296 471.639 82.6809C490.853 79.6465 507.311 85.7107 520.053 99.9751C539.987 122.288 542.422 172.157 526.291 218.42C524.149 224.574 521.839 230.698 519.605 236.84Z" fill="#F9E4EE"/>
</svg>
