<svg width="867" height="622" viewBox="0 0 867 622" fill="none" xmlns="http://www.w3.org/2000/svg">
<path d="M808.042 412.204C760.667 472.28 704.978 514.626 645.734 549.57C584.727 585.558 525.747 604.43 468.989 609.369C410.631 614.443 352.417 618.931 295.159 620.944C229.207 623.259 167.846 615.433 115.088 591.379C77.1817 574.097 43.4254 551.314 19.4808 516.446C-1.46525 485.96 -3.58769 444.217 5.5 396.929C13.2981 356.372 39.5088 321.893 75.0994 293.003C117.604 258.504 159.977 240.587 202.498 232.77C216.732 230.154 231.092 227.137 245.571 223.464C286.931 212.974 320.81 185.82 348.519 140.295C363.143 116.266 379.696 92.0514 398.119 70.4031C436.752 25.0096 479.67 4.22546 522.453 1.32394C570.765 -1.95022 602.92 18.591 619.135 59.3381C626.668 78.2709 633.267 98.797 634.655 121.586C637.262 164.358 656.874 183.785 698.602 181.142C730.847 179.1 762.057 180.55 792.21 183.707C821.267 186.748 843.119 201.186 856.681 225.434C877.901 263.366 863.963 332.39 824.241 389.545C818.963 397.149 813.449 404.65 808.042 412.204Z" fill="#FFE0CC"/>
</svg>