<svg width="165" height="109" viewBox="0 0 165 109" fill="none" xmlns="http://www.w3.org/2000/svg">
<path id="Vector" d="M42.4493 30.9615C42.508 30.8668 42.5463 30.7387 42.6289 30.681C43.413 30.1297 44.071 29.4161 44.7448 28.7156C45.273 28.1668 45.873 27.7291 46.5777 27.475L46.5586 27.4633C46.9063 27.5383 47.2254 27.5088 47.4789 27.2638C47.6365 27.1119 47.8167 26.9703 47.9228 26.7734C48.4873 25.7321 49.406 25.1456 50.219 24.4204C50.6348 24.0489 51.108 23.8068 51.6701 23.7728C52.2916 23.7357 52.7897 23.4384 53.2656 23.0561C54.0705 22.4114 54.8805 21.7695 55.8141 21.3406C56.0526 21.2312 56.2814 21.0564 56.4483 20.841C57.0754 20.0313 57.9 19.5322 58.72 19.0127C59.1367 18.7476 59.5624 18.5458 60.0631 18.5008C60.2911 18.4803 60.4716 18.3535 60.5527 18.1126C60.7864 17.4238 61.2627 17.1134 61.9058 17.0796C62.2579 17.0608 62.5243 16.9171 62.7172 16.611C62.9369 16.2637 63.2637 16.0768 63.602 15.9073C64.3213 15.5452 65.0505 15.2062 65.7001 14.7049C66.0045 14.4704 66.3801 14.3645 66.7831 14.4457C67.9209 14.67 68.7701 14.0486 69.6801 13.6025C69.7382 13.5727 69.7608 13.3842 69.7383 13.2795C69.6905 13.0539 69.7315 12.8848 69.8923 12.8161C70.533 12.5447 71.1799 12.2831 71.8314 12.0369C72.03 11.962 72.2867 12.0038 72.4597 11.8926C73.7944 11.0438 75.4384 10.9897 76.8155 10.2495C77.4311 9.91928 78.0621 9.63958 78.6303 9.2079C79.4544 8.57985 80.3647 8.14857 81.4721 8.20694C82.0206 8.23586 82.4963 7.94305 82.9666 7.67993C84.0453 7.07475 85.2038 6.65162 86.3489 6.19696C86.5586 6.11479 86.777 6.18543 86.9883 6.34853C87.1507 6.47291 87.3125 6.46334 87.4539 6.36812C87.5434 6.30754 87.6292 6.23856 87.7001 6.15359C88.2455 5.50304 88.9492 5.33641 89.782 5.5569C90.0806 5.63548 90.3539 5.59324 90.484 5.29167C90.6611 4.87306 90.9621 4.68725 91.3629 4.64513C91.4713 4.63359 91.5793 4.60231 91.688 4.6105C92.0833 4.6453 92.4961 4.1533 92.879 4.8692C92.9093 4.92583 93.0999 4.93627 93.1898 4.90035C93.5354 4.75757 93.9083 4.6454 94.199 4.41184C94.5551 4.12793 94.8528 3.85408 95.3659 4.22611C95.4828 4.31031 95.6991 4.25762 95.8367 4.19629C96.2249 4.02044 96.6419 3.86952 96.9663 3.59174C97.6269 3.02612 98.3875 2.81284 99.2545 3.01871C99.8532 3.16034 100.347 3.08579 100.784 2.70055C100.904 2.59437 101.047 2.49348 101.201 2.4601C102.413 2.20037 103.619 1.91112 104.903 1.97593C105.819 2.33471 106.676 2.14738 107.526 1.99754C108.113 1.89335 108.7 1.82864 109.307 1.81789C110.35 1.7969 111.379 1.67743 112.415 1.60227C112.71 1.58082 112.881 1.39561 113.047 1.14353C113.299 0.757608 113.727 0.741173 114.081 1.03953C114.396 1.30464 114.684 1.43271 115.022 1.42468C115.627 1.40973 116.231 1.38778 116.834 1.36863C117.055 1.36099 117.284 1.3349 117.403 1.1202C117.587 0.788186 117.861 0.663379 118.211 0.657996C119.312 0.644569 120.411 0.622059 121.513 0.610733C121.959 0.606696 122.395 0.713464 122.839 0.911035C123.963 1.41464 125.043 1.44241 126.077 1.00569C126.318 0.902584 126.592 0.844775 126.862 0.846261C127.524 0.851579 128.191 0.887151 128.858 0.947368C129.582 1.01305 130.303 1.13233 131.005 1.55008C131.497 1.8442 131.996 1.86684 132.453 1.6293C132.814 1.44049 133.193 1.472 133.577 1.70293C134.011 1.96481 134.435 1.99002 134.888 2.02462C135.658 2.08326 136.431 2.25744 137.199 2.19485C137.504 2.17112 137.854 2.38213 138.181 2.50044C138.619 2.65864 139.054 2.89517 139.493 2.98357C142.455 3.57589 145.374 4.63405 148.31 5.50097C148.808 5.64838 149.306 5.80568 149.804 5.96296C152.02 6.6605 154.205 7.53545 156.348 8.6197C156.668 8.78113 156.998 8.94312 157.288 9.17197C158.276 9.94976 159.343 10.4923 160.391 11.1028C161.229 11.5896 162.032 12.1757 162.848 12.7264C163.513 13.175 163.862 13.8456 164.021 14.6474C163.764 15.0652 163.53 15.4536 163.287 15.8359C163.052 16.2046 162.697 16.3412 162.285 16.2094C161.846 16.0688 161.405 15.8846 160.985 15.6592C158.969 14.573 156.923 13.6063 154.858 12.7176C153.99 12.3432 153.13 11.9181 152.258 11.5628C149.8 10.5589 147.306 9.78096 144.815 9.04465C141.99 8.20703 139.151 7.46271 136.304 7.05965C134.855 6.85428 133.408 6.73696 131.962 6.58229C131.295 6.51221 130.628 6.46683 129.96 6.37492C128.621 6.18689 127.284 6.01782 125.962 6.05862C125.743 6.06552 125.52 6.05133 125.297 6.0322C122.454 5.76159 119.64 5.70976 116.874 6.03501C116.496 6.07959 116.108 6.07146 115.723 6.08444C115.339 6.09951 114.943 6.06261 114.574 6.13103C112.599 6.49061 110.545 6.43699 108.542 6.6518C105.886 6.93728 103.277 7.41162 100.673 7.90847C99.558 8.12159 98.448 8.36003 97.3397 8.59772C96.9705 8.676 96.5944 8.7523 96.2505 8.89434C95.1529 9.35109 93.9939 9.60294 92.8132 9.78958C92.0587 9.90834 91.3467 10.1407 90.6349 10.3878C89.9248 10.6341 89.1966 10.8286 88.4766 11.0469C88.168 11.1391 87.846 11.2047 87.5517 11.3304C86.2183 11.9029 84.8405 12.3576 83.4474 12.7717C82.7256 12.9858 82.0208 13.2398 81.4113 13.7214C81.1623 13.9198 80.8467 14.0572 80.5339 14.1064C79.5517 14.2604 78.696 14.7057 77.86 15.1972C77.3908 15.4723 76.8985 15.6553 76.3636 15.7672C75.8923 15.8668 75.437 16.0465 74.9947 16.2331C74.0058 16.6508 73.0286 17.0958 72.0504 17.5338C71.8555 17.6221 71.6465 17.6965 71.4773 17.826C70.2577 18.7548 68.8218 19.2344 67.4565 19.8602C66.6247 20.243 65.8094 20.6313 65.0944 21.24C64.7284 21.553 64.2789 21.77 63.8319 21.9361C63.2669 22.1478 62.7668 22.4312 62.3739 22.9271C62.239 23.0991 62.0569 23.2365 61.869 23.3317C60.9568 23.7962 60.0915 24.3375 59.2717 24.9662C58.9732 25.1956 58.619 25.342 58.2762 25.496C57.6853 25.761 57.1477 26.1126 56.6254 26.5048C55.9763 26.9934 55.2945 27.4289 54.618 27.8721C54.0309 28.2548 53.4436 28.6226 52.9559 29.1714C52.6693 29.4952 52.2714 29.7001 51.894 29.9011C51.3202 30.206 50.8011 30.5869 50.3248 31.0489C49.9714 31.3912 49.5775 31.6814 49.2021 31.9959C48.6177 32.4842 48.0351 32.9767 47.4472 33.4616C46.9867 33.8423 46.5174 34.2118 46.0526 34.5869C45.8002 34.7917 45.5302 34.9742 45.2937 35.202C44.4249 36.0379 43.5827 36.9123 42.6989 37.7273C42.056 38.3202 41.3787 38.8705 40.6845 39.3859C40.2004 39.7444 39.7607 40.1311 39.4334 40.686C39.2307 41.026 38.9892 41.3603 38.6915 41.582C37.9472 42.1412 37.3037 42.8038 36.7855 43.6316C36.6362 43.8693 36.4381 44.0732 36.2353 44.2519C34.9621 45.3725 33.8543 46.6908 32.722 47.9848C31.5171 49.3644 30.3754 50.8115 29.2178 52.2405C28.8323 52.7159 28.4941 53.2406 28.1305 53.7389C27.9318 54.0127 27.7525 54.3079 27.5196 54.5392C26.8529 55.2043 26.3168 55.9949 25.7923 56.808C24.8381 58.2867 23.8506 59.73 22.9962 61.3003C22.612 62.0061 22.1107 62.613 21.7152 63.3113C21.1223 64.3573 20.5453 65.4214 20.0135 66.5158C18.9502 68.7096 17.9227 70.9303 16.8742 73.1351C16.5989 73.7124 16.2879 74.2627 16.024 74.8476C15.1592 76.7627 14.3841 78.7363 13.745 80.796C13.4438 81.767 13.0991 82.7119 12.7292 83.6452C12.2966 84.7395 12.0025 85.9212 11.637 87.0589C11.3819 87.8537 11.0902 88.6293 10.8438 89.4304C10.5067 90.5161 10.1783 91.6081 9.88463 92.7151C9.63623 93.6487 9.43128 94.6034 9.22282 95.5547C9.16297 95.8312 8.95646 96.1481 9.22574 96.4231C9.42048 96.6231 9.60736 96.3171 9.80763 96.2886C10.0157 96.2593 10.2385 96.2933 10.4567 96.3019L10.4384 96.2923C11.6722 95.0369 12.9078 93.7858 14.1381 92.527C14.9849 91.6631 15.8166 90.7784 16.6757 89.9292C16.9875 89.622 17.3562 89.3724 17.8414 89.4756C17.9175 89.4927 18.0542 89.6704 18.0494 89.7445C18.037 89.9237 17.9579 90.0842 17.9065 90.2478C18.1092 90.6134 18.4175 90.5015 18.6687 90.6252C18.8816 90.7305 19.1052 90.8039 19.3231 90.8971C19.4863 90.9665 19.647 91.0443 19.8078 91.1222C19.9825 91.2091 20.1439 91.5773 20.1175 91.7949C20.0556 92.2984 19.9004 92.7399 19.59 93.0788C19.5155 93.1603 19.4376 93.2383 19.3535 93.3066C17.7918 94.5853 16.4248 96.1113 15.0455 97.6227C14.9711 97.7042 14.9011 97.7913 14.8223 97.8672C12.9478 99.6449 11.3705 101.763 9.68328 103.756C9.1504 104.384 8.79829 105.051 8.89356 106.027C8.90415 106.141 8.83458 106.253 8.80207 106.366C7.95997 106.701 7.96607 106.706 7.41082 107.386C7.20068 107.642 6.96251 107.871 6.72864 108.1C6.59306 108.232 6.26593 108.201 6.10292 108.042C5.74533 107.693 5.47245 107.211 4.97983 107.076C4.39283 106.914 4.10299 106.397 3.971 105.79C3.8764 105.351 3.81411 104.888 3.83424 104.457C3.85994 103.949 3.81417 103.445 3.77778 102.933C3.73197 102.277 3.58678 101.653 3.31342 101.042C2.85458 100.021 2.38038 99.0061 1.93011 97.9811C1.71935 97.5022 1.49031 97.0137 1.36793 96.5144C1.07309 95.3087 0.770359 94.0939 0.589114 92.8793C0.227255 90.4376 0.115505 88.0082 0.118574 85.5918C0.118729 85.1519 0.144479 84.6962 0.253037 84.297C0.496923 83.4001 0.572498 82.4882 0.325323 81.4981C0.242037 81.166 0.271784 80.8427 0.47575 80.6288C0.803329 80.2875 0.909164 79.8298 0.932977 79.3128C0.952943 78.8719 0.947802 78.4244 0.998973 77.9951C1.09371 77.1943 1.18927 76.3907 1.34995 75.6163C1.43513 75.2097 1.63386 74.8415 1.82598 74.4911C2.07989 74.0248 2.50127 73.9266 2.96139 74.1747C3.06664 74.2316 3.16627 74.3132 3.27233 74.3673C4.66619 75.0958 4.83975 75.2179 4.56913 77.0604C3.88146 81.7472 4.0556 86.5899 4.41725 91.4642C4.50805 92.6802 4.6404 93.9081 5.21789 95.0651C5.26783 95.163 5.4001 95.2879 5.47498 95.2832C5.56193 95.2783 5.66591 95.1618 5.69174 95.0614C5.87091 94.3586 6.03099 93.6492 6.19709 92.9396L6.21275 92.9478C6.10377 92.9248 5.99164 92.9181 5.88656 92.8711C5.71033 92.7949 5.60736 92.6202 5.60746 92.4264C5.60864 92.2445 5.65381 92.0662 5.70085 91.897C5.82479 91.439 6.0008 91.0035 6.08306 90.5286C6.23058 89.6903 6.39743 88.8736 6.79718 88.171C6.90419 87.9811 6.95412 87.7288 6.9836 87.4901C7.04168 87.0105 7.26829 86.7597 7.67249 86.6639C7.84497 86.6225 7.87128 86.4 7.78524 86.2082C7.59333 85.7734 7.45946 85.3561 7.7095 84.966L7.70298 84.9886C7.76162 84.2927 7.93063 83.6515 8.2835 83.1279C8.57841 82.6913 8.71516 82.1782 8.76747 81.6142C8.83974 80.8602 9.05478 80.1894 9.35915 79.5524C9.65767 78.9254 9.88199 78.2432 10.177 77.6127C10.3782 77.1888 10.5126 76.7363 10.6303 76.2686C10.8077 75.5666 10.9999 74.8707 11.2191 74.1907C11.3459 73.7961 11.4933 73.4026 11.7013 73.0702C12.6999 71.4731 13.4378 69.6918 14.0475 67.8236C14.3445 66.914 14.7137 66.0878 15.2148 65.3146C15.6999 64.5655 16.0841 63.7082 16.5313 62.9132C16.727 62.5662 16.9672 62.2573 17.1725 61.9186C17.2889 61.7272 17.4026 61.5246 17.4763 61.3042C17.9787 59.8049 17.976 59.8036 19.0327 58.9668C19.0544 58.8805 19.1051 58.7669 19.1072 58.6443C19.1226 57.8376 19.458 57.2495 19.9156 56.7533C20.2912 56.3493 20.6705 55.9586 20.8628 55.372C20.9619 55.0688 21.2151 54.9655 21.4908 54.9098C21.7218 54.8632 21.8487 54.6773 21.8838 54.4187C21.936 54.0486 21.9882 53.6784 22.2382 53.4349C22.5992 53.0818 22.8151 52.6119 23.0116 52.1154C23.2131 51.6069 23.5321 51.2171 24.0414 51.1212C24.6065 51.0138 24.9808 50.6302 25.3122 50.1656C25.5731 49.8006 25.8566 49.4558 26.0955 49.068C26.663 48.1471 27.2612 47.2652 27.9804 46.4957C28.2359 46.2225 28.457 45.8547 28.5648 45.4632C28.7165 44.9139 28.9412 44.5023 29.3846 44.2333C29.6549 44.0705 29.8946 43.8265 30.0951 43.5619C30.7843 42.6561 31.6277 41.9974 32.6357 41.5864C32.6904 41.7146 32.7469 41.842 32.8026 41.9723C32.6536 42.1776 32.5029 42.3836 32.3549 42.591C31.8142 42.8693 31.4002 43.2922 31.1944 43.9517C31.0437 44.1577 30.8948 44.363 30.7441 44.569C30.7208 44.6187 30.6967 44.6664 30.6751 44.7153C30.6932 44.6629 30.7112 44.6104 30.7293 44.558C30.8799 44.352 31.0289 44.1467 31.177 43.9393C31.7202 43.6623 32.1528 43.2638 32.3348 42.5772C32.4838 42.3719 32.6345 42.1659 32.7825 41.9584C32.8627 41.9093 32.9472 41.8657 33.0221 41.8089C33.0569 41.7815 33.094 41.731 33.0932 41.6866C33.0938 41.5695 33.0161 41.5108 32.8967 41.5345C32.8031 41.5521 32.7158 41.5894 32.6258 41.6155C33.0736 40.7508 33.5829 39.9542 34.3757 39.4612C34.7466 39.2307 34.9759 38.8394 35.1179 38.3763L35.1105 38.4018C35.3651 38.3252 35.6161 38.2875 35.9087 38.3662C36.5268 38.5343 36.617 38.4659 36.6165 37.84C36.6171 37.5764 36.6368 37.3667 36.7616 37.1618C37.0265 36.7306 37.2537 36.2682 37.5221 35.8404C37.6378 35.6568 37.7853 35.4621 37.9674 35.3818C38.4814 35.1546 38.8218 34.7582 39.0211 34.1736C39.1211 33.8823 39.3407 33.7238 39.6075 33.6521C40.0697 33.5265 40.5329 33.4031 40.9952 33.2776C41.2837 33.517 41.5977 33.6363 41.9268 33.7341C42.191 33.8125 42.2056 33.8658 42.2383 34.3115C42.2429 34.3742 42.2319 34.4336 42.2251 34.4936C42.1149 34.5954 42.0019 34.6909 41.8961 34.7982C41.8639 34.8319 41.846 34.8942 41.8443 34.9471C41.8434 34.9922 41.8762 35.0452 41.8943 35.0971C41.9677 35.0558 42.0803 35.04 42.1076 34.9712C42.1636 34.823 42.1752 34.6466 42.2034 34.4805C43.0842 34.1935 43.7697 33.5725 44.4517 32.948C44.5026 32.9014 44.4702 32.7215 44.4501 32.6034C44.4434 32.564 44.3638 32.4961 44.3189 32.4905C43.1922 32.3161 42.1097 32.3018 41.2678 33.1437C41.1924 33.2181 41.0826 33.2501 40.9896 33.3023C41.1498 33.0003 41.2545 32.6251 41.4818 32.4136C41.8133 32.1005 42.0279 31.7553 42.087 31.2356C42.1028 31.1022 42.3222 31.0332 42.4488 30.9319C42.455 30.9416 42.4493 30.9615 42.4493 30.9615ZM9.57043 88.4913L9.55215 88.4817C9.5993 88.3175 9.64643 88.1532 9.69447 87.9911C9.74161 87.8268 9.78703 87.6633 9.83508 87.5011C9.88222 87.3369 9.93025 87.1747 9.9774 87.0105C10.0245 86.8462 10.0726 86.684 10.1197 86.5198C10.1669 86.3555 10.2123 86.192 10.2594 86.0277C10.3066 85.8635 10.352 85.7 10.4001 85.5378L10.4157 85.546C10.3686 85.7103 10.3222 85.8717 10.2751 86.036C10.228 86.2002 10.1799 86.3624 10.1328 86.5266C10.0856 86.6909 10.0402 86.8544 9.99306 87.0187C9.94593 87.1829 9.90049 87.3465 9.85335 87.5107C9.80622 87.675 9.75818 87.8371 9.71274 88.0007C9.66472 88.1628 9.61757 88.3271 9.57043 88.4913ZM12.6973 79.4052C12.6485 79.5702 12.6005 79.7373 12.5517 79.9023C12.5267 79.9527 12.5026 80.0052 12.4776 80.0557C12.4974 80.0025 12.5189 79.9486 12.5386 79.8954C12.5849 79.729 12.6328 79.562 12.6791 79.3956C12.7262 79.2313 12.7725 79.0699 12.8197 78.9057C13.2227 78.5942 13.4237 78.1083 13.5889 77.5954C14.242 75.5447 15.1044 73.6431 16.1299 71.8531C16.4152 71.356 16.6594 70.8292 16.7035 70.1892C16.7077 70.1328 16.6748 70.0226 16.6462 70.0124C16.5499 69.9766 16.4102 69.9195 16.3559 69.9676C15.9002 70.3736 15.6101 70.9398 15.3688 71.5398C14.779 73.0094 14.1856 74.4756 13.6298 75.9679C13.2815 76.9044 12.8968 77.8316 12.8363 78.916C12.7925 79.0788 12.7445 79.2409 12.6973 79.4052ZM12.9047 74.1485C12.8567 74.3156 12.8096 74.4798 12.7616 74.6469C12.6524 74.7607 12.5301 74.8627 12.4359 74.9924C12.3475 75.1122 12.3856 75.2251 12.5101 75.2514C12.5439 75.2593 12.5988 75.1936 12.6134 75.1426C12.6648 74.979 12.7024 74.8064 12.746 74.6387C12.7939 74.4716 12.8411 74.3074 12.889 74.1403C12.9362 73.976 12.9842 73.8139 13.0314 73.6496C13.0785 73.4853 13.1239 73.3218 13.1711 73.1576C13.6395 72.7908 13.8349 72.2303 13.8872 71.5669C13.9361 71.4019 13.984 71.2348 14.0329 71.0698C14.08 70.9056 14.1281 70.7434 14.1752 70.5792C14.3208 70.3753 14.4663 70.1715 14.6101 69.9684C14.6564 69.802 14.7043 69.6349 14.7515 69.4707C14.7986 69.3064 14.844 69.1429 14.8921 68.9807C15.0359 68.7776 15.1815 68.5737 15.3253 68.3706C15.3733 68.2035 15.4204 68.0393 15.4683 67.8722C15.6148 67.6705 15.7603 67.4666 15.9068 67.2649C15.9547 67.0978 16.0019 66.9335 16.0498 66.7665C16.097 66.6022 16.1424 66.4387 16.1895 66.2744C16.3351 66.0706 16.4798 65.8696 16.6254 65.6657C16.6733 65.4987 16.7205 65.3344 16.7684 65.1673C16.914 64.9635 17.0578 64.7604 17.2034 64.5565C17.2496 64.3902 17.2976 64.2231 17.3447 64.0588C17.4902 63.855 17.635 63.654 17.7806 63.4501C17.8285 63.2831 17.8748 63.1167 17.9227 62.9496C18.07 62.745 18.2172 62.5405 18.3645 62.3359C18.7048 62.0861 18.8862 61.7104 18.9365 61.2317L18.9522 61.2399C18.6275 61.5029 18.4252 61.8627 18.381 62.3462C18.2337 62.5508 18.0865 62.7554 17.9383 62.9578C17.8895 63.1228 17.8415 63.2899 17.7944 63.4542C17.6489 63.658 17.505 63.8611 17.3595 64.0649C17.3115 64.232 17.2627 64.397 17.2164 64.5634C17.0709 64.7672 16.927 64.9703 16.7806 65.1721C16.7326 65.3392 16.6855 65.5034 16.6375 65.6705C16.4937 65.8736 16.3481 66.0774 16.2043 66.2805C16.1572 66.4448 16.1091 66.607 16.062 66.7712C16.0158 66.9376 15.9669 67.1026 15.9189 67.2697C15.7751 67.4728 15.6304 67.6787 15.4866 67.8818C15.4386 68.0489 15.3915 68.2132 15.3436 68.3802C15.198 68.5841 15.0516 68.7858 14.9077 68.9889C14.8606 69.1532 14.8126 69.3153 14.7671 69.4788C14.7192 69.6459 14.672 69.8102 14.6241 69.9773C14.4785 70.1811 14.333 70.385 14.1891 70.5881C14.142 70.7523 14.0966 70.9159 14.0494 71.0802C14.0032 71.2465 13.9552 71.4136 13.909 71.5799C13.417 71.9294 13.2399 72.5045 13.1911 73.1714C13.144 73.3356 13.0959 73.4978 13.0488 73.662C12.9982 73.8228 12.951 73.9871 12.9047 74.1485ZM35.2752 39.606C35.2994 39.5584 35.3253 39.51 35.3495 39.4624C35.3305 39.5128 35.3107 39.566 35.2918 39.6163C35.2668 39.6667 35.2409 39.715 35.216 39.7655C35.2357 39.7123 35.2555 39.6591 35.2752 39.606ZM26.3447 49.8783C26.4937 49.673 26.6444 49.4669 26.7933 49.2616C27.0981 49.0941 27.3658 48.8778 27.5207 48.5209L27.539 48.5305C27.2273 48.6911 26.9666 48.9143 26.8125 49.2733C26.6635 49.4786 26.5138 49.6868 26.3648 49.8921C26.2175 50.0966 26.0712 50.3033 25.9239 50.5079C25.7775 50.7145 25.632 50.9184 25.4856 51.125C25.341 51.331 25.1946 51.5376 25.0491 51.7415C24.9044 51.9474 24.758 52.1541 24.6134 52.36C24.4687 52.566 24.3224 52.7726 24.1768 52.9765C24.0322 53.1824 23.8858 53.3891 23.7403 53.5929C23.5939 53.7996 23.4483 54.0034 23.302 54.2101C23.1573 54.416 23.0127 54.622 22.868 54.8279C22.7234 55.0338 22.5761 55.2384 22.4298 55.4451C22.2868 55.6503 22.1413 55.8542 21.9983 56.0594L21.9801 56.0498C22.123 55.8446 22.2677 55.6386 22.4106 55.4334C22.5553 55.2275 22.7016 55.0208 22.8489 54.8162C22.9935 54.6103 23.1408 54.4057 23.2854 54.1998C23.4301 53.9939 23.5765 53.7872 23.7211 53.5813C23.8658 53.3753 24.013 53.1707 24.1594 52.9641C24.304 52.7581 24.4504 52.5515 24.596 52.3476C24.7423 52.141 24.8879 51.9371 25.0342 51.7304C25.1789 51.5245 25.3252 51.3178 25.4708 51.114C25.6171 50.9073 25.7627 50.7035 25.9091 50.4968C26.0537 50.2909 26.2001 50.0842 26.3447 49.8783ZM21.4005 57.1646L21.4187 57.1742C21.2715 57.3788 21.1225 57.5841 20.9752 57.7887C20.8306 57.9946 20.6842 58.2013 20.5396 58.4072C20.3957 58.6103 20.2502 58.8142 20.1072 59.0194C20.0593 59.1865 20.0121 59.3507 19.9642 59.5178C19.8213 59.723 19.6774 59.9261 19.5328 60.1321L19.5119 60.1211C19.6583 59.9193 19.8039 59.7155 19.952 59.5131C20 59.346 20.0471 59.1817 20.0951 59.0146C20.238 58.8094 20.381 58.6042 20.5222 58.3997C20.6686 58.193 20.8141 57.9892 20.9605 57.7825C21.1059 57.5738 21.2532 57.3692 21.4005 57.1646ZM31.3802 46.024L31.3593 46.013C31.404 45.9094 31.4558 45.8128 31.4875 45.7023C31.4981 45.6704 31.4514 45.6084 31.4307 45.5601C31.2689 45.669 31.3644 45.8593 31.3802 46.024ZM33.4293 45.1282C33.5782 44.9229 33.728 44.7148 33.877 44.5095C34.186 44.3426 34.4528 44.1243 34.6112 43.7658C34.9203 43.6039 35.188 43.3876 35.3369 43.0258L35.3552 43.0354C35.0311 43.1813 34.7704 43.4046 34.6286 43.7782C34.3064 43.9284 34.0484 44.158 33.8935 44.5199C33.7429 44.7259 33.5939 44.9312 33.4432 45.1372C33.1439 45.3173 32.878 45.5378 32.709 45.8809C31.9465 46.2888 31.4265 46.9608 31.1155 47.8615C30.9712 47.9405 30.9465 48.0057 31.0352 48.0051C31.062 48.0061 31.0765 47.9029 31.0954 47.8477C31.835 47.4147 32.384 46.7726 32.6915 45.8684C33.0006 45.7016 33.2639 45.4797 33.4293 45.1282ZM39.7335 38.5575C39.8172 38.5118 39.9027 38.4704 39.9845 38.4205C40.1064 38.346 40.1136 38.2634 39.9982 38.2158C39.9687 38.2036 39.9119 38.2552 39.8884 38.2951C39.8365 38.3819 39.7994 38.4797 39.7545 38.5734C39.0879 38.841 38.5446 39.2645 38.299 40.0627C38.2171 40.1077 38.1368 40.1519 38.0558 40.1989C37.9337 40.2685 37.923 40.3427 38.0324 40.3904C38.0619 40.4026 38.1153 40.3524 38.1404 40.3118C38.1925 40.23 38.2348 40.1398 38.2815 40.0503C38.8768 39.6915 39.4043 39.2499 39.7335 38.5575ZM29.483 49.8313C29.6837 49.676 29.8871 49.527 30.0807 49.3647C30.1122 49.3388 30.1253 49.2512 30.1107 49.2028C30.0624 49.052 29.9496 49.0058 29.8724 49.1282C29.7332 49.3517 29.6212 49.6008 29.4996 49.8417C28.703 50.217 28.197 50.9078 27.8914 51.8211C27.423 52.0411 26.9492 52.2486 26.4897 52.4848C26.3419 52.5604 26.2968 52.7387 26.3642 52.9485C26.439 53.1898 26.5155 53.4303 26.5912 53.6738C26.5654 53.7221 26.5369 53.7691 26.511 53.8174C26.5317 53.7664 26.5514 53.7132 26.5721 53.6621C27.1603 53.197 27.6223 52.607 27.8722 51.8094C28.646 51.4091 29.1888 50.7572 29.483 49.8313ZM19.2837 64.5196C19.7214 64.3176 20.0569 63.9903 20.2605 63.5008C20.3035 63.3979 20.3559 63.2885 20.3608 63.1721C20.3658 63.0656 20.338 62.9011 20.275 62.8485C20.2103 62.7917 20.0517 62.7899 19.9906 62.8409C19.5253 63.2435 19.3479 63.8461 19.3038 64.5334C19.0759 64.663 18.8321 64.7648 18.6238 64.9259C18.2309 65.228 18.0208 65.6879 17.9521 66.2515C17.9326 66.4189 18.0329 66.6866 18.1553 66.7411C18.3316 66.8173 18.4709 66.7503 18.5782 66.6274C18.6838 66.5053 18.7823 66.3713 18.8607 66.2234C19.1347 65.7188 19.2756 65.1491 19.2837 64.5196ZM55.0127 24.2796C55.6354 23.9662 56.0286 23.3857 56.4006 22.7695C56.3367 22.7148 56.2881 22.6437 56.2511 22.6471C55.5278 22.678 55.0776 23.0493 55.0436 23.926C55.0397 24.0494 55.0392 24.1714 55.0353 24.2948C54.5974 24.1838 54.1584 24.0609 53.7173 23.9662C53.5564 23.9306 53.385 23.9367 53.2341 23.9764C53.15 23.9974 53.0891 24.1154 53.0373 24.2071C53.0189 24.2398 53.0465 24.3423 53.0808 24.3799C53.375 24.7038 53.687 25.0077 53.9695 25.3467C54.2827 25.7197 53.9792 26.2072 54.3041 26.6597C55.0315 26.5152 55.6683 26.1734 56.1696 25.5616C56.2017 25.523 56.2306 25.4486 56.2185 25.3966C56.185 25.2519 56.0895 25.2132 55.9553 25.2258C55.7428 25.2446 55.527 25.2698 55.311 25.2379C55.1365 25.2131 54.9949 25.0475 54.9775 24.8363C54.9639 24.6483 55.0003 24.4638 55.0127 24.2796ZM42.8367 36.0286C42.827 36.0153 42.819 36.0014 42.8102 35.9902C43.2594 35.6069 43.7139 35.2312 44.156 34.8361C44.3138 34.6941 44.4487 34.5172 44.5836 34.3452C44.6072 34.3152 44.6003 34.2139 44.5729 34.1783C44.5412 34.1372 44.4553 34.1019 44.4229 34.1207C43.1783 34.8539 42.2384 36.011 41.1863 37.0098C41.16 37.0335 41.1645 37.1433 41.191 37.1817C41.2175 37.2201 41.3121 37.2567 41.3393 37.2351C41.8417 36.839 42.3379 36.4331 42.8367 36.0286ZM21.0255 61.6979C21.0769 61.7281 21.1392 61.7934 21.1778 61.7843C21.5269 61.6923 21.6186 61.3102 21.7998 61.029C22.1204 60.5342 22.2473 59.9457 22.1971 59.2839C22.1894 59.1903 22.0781 59.0813 22 58.998C21.978 58.975 21.8811 58.9991 21.8568 59.0369C21.704 59.2711 21.5139 59.489 21.4247 59.7632C21.2431 60.3278 21.1148 60.9268 20.9732 61.514C20.9628 61.5607 21.0072 61.6361 21.0255 61.6979ZM11.535 82.0015C11.4905 82.0206 11.4173 82.0245 11.405 82.0621C11.2626 82.4956 11.1271 82.9312 10.9977 83.3717C10.9871 83.4085 11.0487 83.5288 11.059 83.5293C11.1476 83.5188 11.2829 83.523 11.3103 83.4592C11.4867 83.0483 11.6804 82.64 11.6448 82.126C11.6415 82.0852 11.5727 82.0425 11.535 82.0015ZM93.6331 6.72342C93.5928 6.83259 93.5558 6.88321 93.561 6.93811C93.5637 6.99164 93.5971 7.08418 93.6328 7.10125C93.9709 7.27226 94.2721 7.2479 94.5158 6.98969C94.5497 6.95533 94.5666 6.88598 94.5664 6.82889C94.5674 6.68437 94.4843 6.5658 94.3631 6.58035C94.1034 6.61184 93.853 6.67915 93.6331 6.72342ZM95.1877 5.33344C95.179 5.27507 95.1702 5.2167 95.1597 5.15906C95.0571 5.1557 94.941 5.11589 94.8554 5.15245C94.5209 5.28801 94.1891 5.43477 93.8715 5.60531C93.74 5.67642 93.7695 5.78808 93.962 5.85983C94.3443 5.69393 94.7669 5.51332 95.1877 5.33344ZM72.7219 14.6031C72.6305 14.6496 72.5207 14.6767 72.4539 14.7524C72.3956 14.8196 72.3345 14.97 72.3674 15.0329C72.4103 15.119 72.5408 15.1924 72.635 15.2093C72.8563 15.2489 73.0639 15.1949 73.1836 14.9922C73.2263 14.9217 73.1936 14.7742 73.1727 14.6639C73.1661 14.6294 73.0799 14.5793 73.0342 14.5764C72.9299 14.5738 72.8269 14.593 72.7219 14.6031ZM38.9357 37.5146C38.9795 37.5555 39.0192 37.6106 39.0643 37.6261C39.112 37.643 39.1887 37.6425 39.2097 37.6112C39.3212 37.4318 39.43 37.2462 39.5187 37.0467C39.5743 36.9211 39.5129 36.8058 39.3908 36.771C39.3449 36.7583 39.2841 36.7818 39.2493 36.8141C39.0488 36.9793 38.8598 37.157 38.9357 37.5146ZM66.806 18.22C66.8666 18.1345 66.9524 18.0606 66.9807 17.9566C67.0237 17.8015 66.8013 17.6456 66.5971 17.6981C66.4967 17.7236 66.4003 17.7773 66.3152 17.8385C66.2777 17.8644 66.2381 17.9659 66.2531 17.9868C66.3194 18.0802 66.3989 18.1953 66.4856 18.2278C66.5854 18.2672 66.6993 18.2259 66.806 18.22ZM49.5168 29.6649C49.5486 29.711 49.5828 29.7957 49.6096 29.7967C49.9131 29.8111 50.044 29.5539 50.1918 29.3317C50.2145 29.2997 50.2077 29.2032 50.1812 29.1698C50.1513 29.1329 50.0759 29.1079 50.0348 29.1205C49.7767 29.1936 49.5733 29.3426 49.5168 29.6649ZM58.1488 21.4633C57.9905 21.5284 57.946 21.6941 58.0449 21.8829C58.0689 21.9297 58.1284 21.9788 58.1725 21.9873C58.3125 22.0119 58.4427 21.8196 58.3835 21.6337C58.3607 21.5615 58.2299 21.5205 58.1488 21.4633ZM38.1773 36.507C38.204 36.5602 38.2199 36.6304 38.2584 36.6637C38.2978 36.699 38.3627 36.7184 38.4074 36.7093C38.5928 36.6698 38.6891 36.5069 38.6293 36.3387C38.6139 36.2931 38.5464 36.2299 38.5094 36.2284C38.3352 36.2233 38.2214 36.3167 38.1773 36.507ZM33.8584 42.8329C33.9448 42.8506 34.0333 42.8823 34.1168 42.8789C34.1443 42.8771 34.1819 42.7567 34.1758 42.7519C34.1048 42.6853 34.0263 42.6294 33.9486 42.5707C33.9191 42.6579 33.8879 42.7457 33.8584 42.8329ZM36.5616 41.4464C36.5113 41.5747 36.4568 41.7123 36.404 41.8491C36.4518 41.871 36.5164 41.9228 36.542 41.9069C36.6213 41.8556 36.6933 41.7876 36.7496 41.7064C36.7724 41.6743 36.7665 41.5849 36.7416 41.5409C36.722 41.5045 36.6564 41.4928 36.5616 41.4464ZM69.2794 16.2435C69.2291 16.2253 69.1758 16.1859 69.1311 16.1901C69.0847 16.1951 69.0122 16.2385 69.012 16.2759C69.0112 16.4302 69.0956 16.4761 69.2189 16.3861C69.2522 16.3645 69.2578 16.2925 69.2794 16.2435ZM37.5389 39.0608L37.581 39.2018L37.6587 39.109L37.5389 39.0608ZM68.0991 17.553L68.0856 17.6682L68.1891 17.6264L68.0991 17.553ZM22.9281 58.5565L23.0381 58.6387L23.0356 58.4957L22.9281 58.5565ZM24.175 57.0098L24.2271 56.8857L24.1098 56.8762L24.175 57.0098Z" fill="#0286C3"/>
</svg>
