<svg width="22" height="18" viewBox="0 0 22 18" fill="none" xmlns="http://www.w3.org/2000/svg">
<path d="M0.160392 5.72428C1.9903 -3.18407 15.2399 -1.05449 14.3726 7.70038C14.3686 7.73876 14.4041 7.67584 14.3726 7.70038C14.3411 7.72491 14.4132 7.70397 14.3726 7.70038C14.3455 7.69649 13.9723 7.7201 13.9546 7.70038C13.9368 7.68065 13.9543 7.72626 13.9546 7.70038C14.2213 4.5202 11.9907 1.32617 8.52051 0.981647C6.06171 0.558769 3.55587 1.26218 2.25042 3.35296C1.22876 4.90602 0.605902 6.71451 0.996403 8.49081C3.00339 16.1488 14.1585 16.1696 20.6427 14.4191C19.9376 14.4386 19.1838 14.3217 18.5526 14.0239C18.5241 14.0102 18.5671 13.6557 18.5526 13.6287C18.5382 13.6017 18.5475 13.6586 18.5526 13.6287C18.5543 13.6194 18.5471 13.6365 18.5526 13.6287C18.5582 13.6209 18.5441 13.6336 18.5526 13.6287C18.5612 13.6238 18.5427 13.6298 18.5526 13.6287C18.5625 13.6276 18.5432 13.6258 18.5526 13.6287C21.0784 14.366 21.58 13.3732 21.8967 13.6287C22.0874 13.7843 21.9693 13.9348 21.8967 14.0239C21.1883 14.7602 20.6711 15.7686 20.6427 16.7904C20.6423 16.8139 20.6591 16.7729 20.6427 16.7904C20.6262 16.808 20.6673 16.7873 20.6427 16.7904C20.6121 16.7978 20.672 16.8014 20.6427 16.7904C20.6133 16.7794 20.6596 16.8156 20.6427 16.7904C20.4985 16.4684 20.3123 15.4164 20.6427 14.8143C15.926 16.8793 9.97031 17.3679 5.17646 15.2095C1.51438 13.5234 -0.62061 9.50442 0.160392 5.72428Z" fill="#134380"/>
<path d="M4.65298 2.00126C2.14507 2.68837 1.45429 5.23731 1.76062 7.59715C1.76062 7.6055 1.75452 7.59125 1.76062 7.59715C1.76672 7.60305 1.75199 7.59715 1.76062 7.59715C1.76925 7.59715 1.75452 7.60305 1.76062 7.59715C1.76672 7.59125 1.76062 7.6055 1.76062 7.59715C1.87283 5.29376 2.37847 3.02812 4.65298 2.00126C4.65711 1.99976 4.64976 2.00417 4.65298 2.00126C4.6562 1.99835 4.65116 2.00514 4.65298 2.00126C4.65481 1.99738 4.65283 2.00552 4.65298 2.00126C4.65313 1.997 4.65453 2.00525 4.65298 2.00126C4.65144 1.99727 4.65599 2.00437 4.65298 2.00126C4.64997 1.99814 4.65699 2.00302 4.65298 2.00126C4.64897 1.99949 4.65739 2.0014 4.65298 2.00126C4.64858 2.00111 4.65711 1.99976 4.65298 2.00126Z" fill="#134380"/>
<path d="M1.65767 8.40524C1.60757 8.74077 1.45954 8.92285 1.65767 9.20522C1.66741 9.21695 1.64237 9.20158 1.65767 9.20522C1.67296 9.20887 1.64321 9.21119 1.65767 9.20522C1.67212 9.19926 1.65009 9.2183 1.65767 9.20522C1.66524 9.19214 1.66014 9.21995 1.65767 9.20522C1.60002 8.89522 1.75916 8.70501 1.65767 8.40524C1.65645 8.39055 1.66952 8.41482 1.65767 8.40524C1.64581 8.39567 1.67321 8.40409 1.65767 8.40524C1.64212 8.4064 1.66779 8.39404 1.65767 8.40524C1.64754 8.41645 1.65645 8.39055 1.65767 8.40524Z" fill="#134380"/>
<path d="M12.2673 17.8498C11.4837 17.8661 8.90778 17.828 7.65373 17.6091C7.6002 17.5999 7.60589 17.5934 7.65373 17.6091C9.07635 18.0666 10.8549 18.0877 12.2673 17.8498C12.2737 17.8487 12.2638 17.853 12.2673 17.8498C12.2709 17.8465 12.2684 17.8535 12.2673 17.8498C12.2662 17.846 12.2725 17.8522 12.2673 17.8498C12.2621 17.8474 12.274 17.8496 12.2673 17.8498Z" fill="#134380"/>
</svg>
