<svg width="640" height="1074" viewBox="0 0 640 1074" fill="none" xmlns="http://www.w3.org/2000/svg">
<path d="M351.058 275.53C346.29 264.802 330.795 250.499 329.603 239.772C324.835 206.397 342.714 218.317 365.361 209.973C378.473 205.205 390.392 199.245 401.12 188.517C447.605 140.84 429.726 68.1315 383.24 28.7974C311.724 -33.1837 247.359 19.2618 184.186 64.5557C172.266 63.3637 112.669 40.717 97.174 43.1008C67.3754 46.6767 41.1525 62.1719 23.2733 84.8189C-16.0608 133.689 -0.565238 204.013 45.9206 243.347C54.2642 250.499 64.9912 256.459 74.5268 261.226C85.2543 265.994 125.78 267.186 131.74 275.53C142.467 287.449 115.053 336.319 118.629 360.158C128.164 420.947 191.337 457.897 249.743 451.937C310.532 445.978 358.21 395.916 361.786 333.935C361.786 311.288 358.209 293.409 351.058 275.53Z" fill="#E5F5FF"/>
<path d="M613.286 562.848C601.367 542.585 576.336 539.009 564.417 522.322C552.497 505.634 565.608 480.604 557.265 460.341C539.386 417.431 476.212 410.28 435.686 406.704C426.151 405.512 419 409.087 413.04 413.855C388.009 412.663 364.17 428.158 352.25 453.189C342.715 469.876 341.523 490.139 346.291 509.211C352.25 531.857 377.281 554.504 366.554 578.343C359.402 595.03 342.715 602.182 339.139 622.445C335.563 640.324 341.523 658.204 352.25 672.507C378.473 705.881 435.687 722.568 476.213 718.992C538.194 714.225 657.388 637.94 613.286 562.848Z" fill="#E5F5FF"/>
<path d="M660.949 904.954C654.989 898.994 646.646 894.226 639.494 888.266C640.686 882.307 640.686 875.155 635.918 868.003C601.352 809.598 514.34 819.134 480.966 873.963C466.662 897.802 460.702 931.176 479.773 953.823C489.309 964.551 502.42 970.511 515.532 971.703C538.179 974.086 551.29 964.551 542.946 994.35C534.603 1022.96 532.219 1050.37 563.209 1067.06C595.392 1083.75 631.15 1065.87 651.413 1039.64C670.485 1014.61 680.02 980.046 677.636 947.864C678.828 932.368 672.868 918.065 660.949 904.954Z" fill="#E5F5FF"/>
</svg>
