<svg width="408" height="702" viewBox="0 0 408 702" fill="none" xmlns="http://www.w3.org/2000/svg">
<path d="M-24.9287 193.131C-27.9657 186.298 -37.8358 177.187 -38.595 170.354C-41.632 149.095 -30.2434 156.687 -15.8177 151.373C-7.46603 148.336 0.126419 144.539 6.95961 137.706C36.5701 107.336 25.1815 61.0224 -4.42905 35.9674C-49.9837 -3.51333 -90.983 29.8934 -131.223 58.7447C-138.815 57.9854 -176.777 43.5599 -186.648 45.0784C-205.629 47.3561 -222.332 57.2263 -233.721 71.6519C-258.776 102.781 -248.906 147.576 -219.295 172.631C-213.98 177.187 -207.147 180.983 -201.073 184.02C-194.24 187.057 -168.426 187.816 -164.63 193.131C-157.797 200.723 -175.259 231.852 -172.981 247.037C-166.907 285.759 -126.667 309.295 -89.4645 305.499C-50.743 301.703 -20.3731 269.814 -18.0954 230.334C-18.0954 215.908 -20.3733 204.52 -24.9287 193.131Z" fill="#E5F5FF"/>
<path d="M142.104 376.137C134.511 363.23 118.567 360.952 110.975 350.323C103.383 339.693 111.734 323.75 106.419 310.842C95.0306 283.51 54.7905 278.954 28.9762 276.676C22.9023 275.917 18.3471 278.195 14.5509 281.232C-1.39326 280.472 -16.5784 290.343 -24.1709 306.287C-30.2448 316.916 -31.0041 329.823 -27.9671 341.971C-24.1709 356.397 -8.22664 370.822 -15.0598 386.007C-19.6153 396.637 -30.2446 401.192 -32.5224 414.099C-34.8001 425.488 -31.0041 436.877 -24.1709 445.988C-7.46749 467.247 28.9764 477.876 54.7907 475.598C94.2714 472.561 170.196 423.97 142.104 376.137Z" fill="#E5F5FF"/>
<path d="M172.466 594.053C168.67 590.257 163.356 587.22 158.8 583.423C159.559 579.627 159.559 575.072 156.522 570.516C134.504 533.313 79.0795 539.387 57.8207 574.312C48.7098 589.497 44.9133 610.756 57.0612 625.182C63.1351 632.015 71.4868 635.811 79.8385 636.571C94.2641 638.089 102.616 632.015 97.301 650.996C91.9863 669.218 90.4679 686.681 110.208 697.31C130.708 707.94 153.485 696.551 166.393 679.848C178.54 663.903 184.614 641.885 183.096 621.386C183.855 611.516 180.059 602.405 172.466 594.053Z" fill="#E5F5FF"/>
<path d="M281.803 288.802C264.341 276.654 246.878 293.358 246.878 310.82C245.359 312.339 243.841 315.376 243.081 318.413C239.285 333.597 239.285 349.542 234.73 363.967C227.897 385.985 224.1 386.744 204.36 392.818C184.62 398.133 171.712 412.559 167.157 431.54C155.009 477.854 175.509 518.093 225.619 513.538C279.525 508.983 317.487 463.428 336.468 416.355C357.727 364.726 324.321 318.412 281.803 288.802Z" fill="#E5F5FF"/>
<path d="M110.978 177.218C135.273 182.533 141.347 187.089 148.18 212.144C155.773 240.236 167.921 266.05 199.05 272.883C225.623 278.198 251.437 266.05 264.345 243.273C283.326 210.625 262.067 184.811 262.826 151.404C264.345 114.201 277.252 86.1089 259.789 50.4245C246.123 22.3324 221.827 1.07377 189.939 0.314528C186.902 -0.444717 183.106 0.314342 179.31 1.07359C175.513 2.59207 173.236 3.35132 170.199 4.86981C161.088 -1.20415 148.94 1.07396 143.625 14.7404C137.551 30.6845 136.792 52.7026 123.125 64.0912C110.977 74.7206 95.0334 74.7204 82.8855 86.109C63.1452 105.849 62.3859 136.978 79.0893 158.237C88.2002 167.348 98.8297 174.181 110.978 177.218Z" fill="#E5F5FF"/>
<path d="M384.326 234.163C384.326 228.848 385.845 223.533 388.123 218.219C391.16 212.904 394.956 209.108 398.752 204.552C406.344 194.682 408.622 181.775 407.863 168.868C407.104 156.72 404.826 143.053 400.27 131.665C396.474 121.035 388.122 114.202 377.493 111.165C366.864 108.128 355.475 108.888 345.605 104.332C341.808 102.814 338.772 104.332 337.253 107.369C325.105 107.369 312.957 111.165 304.606 118.757C287.902 133.942 297.013 156.72 310.68 170.386C318.272 177.979 327.383 184.053 334.216 192.404C342.568 202.274 344.086 213.663 344.086 225.811C344.086 231.126 343.327 237.2 341.049 242.515C338.772 247.829 333.457 251.625 330.42 256.181C323.587 264.533 319.791 274.403 319.791 285.032C319.031 306.291 328.902 329.068 346.364 341.216C363.068 353.364 384.326 348.808 394.196 331.346C406.344 310.846 397.993 287.31 391.159 266.81C387.363 256.181 384.326 245.551 384.326 234.163Z" fill="#E5F5FF"/>
</svg>
