<svg width="78" height="80" viewBox="0 0 78 80" fill="none" xmlns="http://www.w3.org/2000/svg">
<path d="M70.9329 61.1953H65.1992H59.5015V64.2605L52.9023 67.2896H65.1992H70.9329L68.4807 64.2605L70.9329 61.1953Z" fill="#FFDC4F"/>
<path d="M13.6657 64.2605V61.1953H7.96808H2.23438L4.68652 64.2605L2.23438 67.2896H7.96808H19.4355L13.6657 64.2605Z" fill="#FFDC4F"/>
<path d="M52.9004 67.2913L64.8005 65.4161L59.4996 63L52.9004 67.2913Z" fill="#AA8F21"/>
<path d="M19.436 67.2913L8.36523 65.4161L13.6662 63L19.436 67.2913Z" fill="#AA8F21"/>
<path d="M36.8898 74.5726C52.8226 74.5726 65.7387 61.6566 65.7387 45.7238C65.7387 29.7911 52.8226 16.875 36.8898 16.875C20.9571 16.875 8.04102 29.7911 8.04102 45.7238C8.04102 61.6566 20.9571 74.5726 36.8898 74.5726Z" fill="#38433E"/>
<path d="M36.8888 73.1331C21.7792 73.1331 9.48242 60.8363 9.48242 45.7267C9.48242 30.6171 21.7792 18.3203 36.8888 18.3203C51.9984 18.3203 64.2952 30.6171 64.2952 45.7267C64.2952 60.8363 51.9984 73.1331 36.8888 73.1331ZM36.8888 19.6546C22.5365 19.6546 10.8527 31.3383 10.8527 45.6906C10.8527 60.0429 22.5365 71.7267 36.8888 71.7267C51.2411 71.7267 62.9249 60.0429 62.9249 45.6906C62.9609 31.3383 51.2771 19.6546 36.8888 19.6546Z" fill="white"/>
<path d="M36.8915 71.7674C51.2708 71.7674 62.9276 60.1107 62.9276 45.7314C62.9276 31.352 51.2708 19.6953 36.8915 19.6953C22.5122 19.6953 10.8555 31.352 10.8555 45.7314C10.8555 60.1107 22.5122 71.7674 36.8915 71.7674Z" fill="#BBEBFC"/>
<g opacity="0.1">
<path d="M36.8928 19.6562C28.8512 19.6562 21.639 23.2984 16.8789 29.0682C21.098 26.1112 26.2548 24.3442 31.8082 24.3442C46.1965 24.3442 57.8442 35.9919 57.8442 50.3802C57.8442 56.6909 55.5724 62.4967 51.822 67.0044C58.5294 62.2804 62.9288 54.4912 62.9288 45.6923C62.9288 31.304 51.2811 19.6562 36.8928 19.6562Z" fill="black"/>
</g>
<path d="M43.9942 33.0666C45.3286 33.0666 46.4103 31.9848 46.4103 30.6505C46.4103 29.3161 45.3286 28.2344 43.9942 28.2344C42.6598 28.2344 41.5781 29.3161 41.5781 30.6505C41.5781 31.9848 42.6598 33.0666 43.9942 33.0666Z" fill="#FFDC4F"/>
<g opacity="0.1">
<path d="M43.9936 28.2344C43.3084 28.2344 42.6593 28.5229 42.2266 28.9917C42.2987 28.9917 42.3708 28.9917 42.4429 28.9917C43.7772 28.9917 44.859 30.0735 44.859 31.4078C44.859 32.0568 44.6066 32.6338 44.2099 33.0305C45.436 32.9223 46.3736 31.8765 46.3736 30.6144C46.4096 29.3162 45.3278 28.2344 43.9936 28.2344Z" fill="black"/>
</g>
<path d="M60.2196 38.7334H60.0753V37.2188H60.2196C60.472 37.2188 60.6884 37.0025 60.6884 36.75C60.6884 36.4976 60.472 36.2812 60.2196 36.2812H43.4512C43.1988 36.2812 42.9824 36.4976 42.9824 36.75C42.9824 37.0025 43.1988 37.2188 43.4512 37.2188H43.5955V38.7334H43.4512C43.1988 38.7334 42.9824 38.9498 42.9824 39.2022C42.9824 39.4546 43.1988 39.671 43.4512 39.671H43.5955V51.8235H48.7522V44.8638C48.7522 43.241 50.0864 41.9068 51.7092 41.9068C53.3319 41.9068 54.6662 43.241 54.6662 44.8638V51.8235H60.0393V39.671H60.1835C60.436 39.671 60.6523 39.4546 60.6523 39.2022C60.6523 38.9498 60.472 38.7334 60.2196 38.7334Z" fill="#1F4E81"/>
<path d="M30.7222 44.9062H22.6445V65.1725H30.7222V44.9062Z" fill="#1F4E81"/>
<path d="M22.862 33.5084V32.2462H21.2032V30.912H20.3738L20.2295 27.4862C20.2295 27.4501 20.1574 27.4141 20.0492 27.4141C19.941 27.4141 19.8689 27.4501 19.8689 27.4862L19.7247 30.912H18.8592V32.2462H17.2004V33.5084H15.8301V36.5014V60.0854L16.0825 61.0951C17.1283 62.5014 18.3543 63.7996 19.6525 64.9536L23.8717 65.1699V33.5084H22.862Z" fill="#1F4E81"/>
<path d="M28.5605 43.2783V70.3601C31.0848 71.1895 33.8255 71.6222 36.6382 71.6222V43.2422H28.5605V43.2783Z" fill="#1F4E81"/>
<path d="M28.8497 47.928L25.9648 45.9808L25.6403 43.8171L25.5682 43.745L28.8136 41.5452L27.4073 39.7422L24.4503 42.4107L23.4766 41.2568L22.503 42.4107L19.546 39.7422L18.1035 41.5452L21.349 43.745L21.3129 43.8171L20.9884 45.9808L18.1035 47.892L19.582 49.7672L20.5557 48.9017L19.8705 53.4454H27.0827L26.3976 48.8296L27.4073 49.7311L28.8497 47.928Z" fill="#2765AE"/>
<path d="M48.0327 48.0391H39.9551V69.0626H48.0327V48.0391Z" fill="#2765AE"/>
<path d="M15.8654 36.6094H12.2233C11.1775 39.4582 10.5645 42.5234 10.5645 45.7328C10.5645 51.0698 12.1872 56.0823 14.9639 60.1933H15.8294V36.6094H15.8654Z" fill="#2765AE"/>
<path d="M62.855 43.3828H56.3279V49.0805H51.8203V67.0388C53.4791 65.8849 54.9937 64.5506 56.3279 63.0361C56.6525 62.6755 56.941 62.3148 57.2295 61.9542C60.7995 57.4827 62.9271 51.8572 62.9271 45.6907C62.9632 44.9334 62.9271 44.1762 62.855 43.3828Z" fill="#2765AE"/>
<path d="M32.7791 30.6475C32.7791 29.4935 31.8415 28.5559 30.6876 28.5559C30.4352 28.5559 30.1827 28.592 29.9303 28.7002C29.5336 28.4117 29.0288 28.1953 28.4879 28.1953C27.6945 28.1953 26.9733 28.592 26.5406 29.205C26.4684 29.205 26.3603 29.169 26.2521 29.169C25.4587 29.169 24.8457 29.8181 24.8457 30.5753L32.7791 30.6475Z" fill="#CDFFF2"/>
<path opacity="0.1" d="M30.6871 28.5703C30.4347 28.5703 30.2183 28.6064 30.002 28.6785C30.0741 28.6785 30.1101 28.6785 30.1823 28.6785C31.3002 28.6785 32.2017 29.544 32.2738 30.6619H32.7787C32.7787 29.5079 31.8411 28.5703 30.6871 28.5703Z" fill="black"/>
<path opacity="0.1" d="M27.6934 28.3519C27.7655 28.3519 27.8737 28.3519 27.9458 28.3519C28.4867 28.3519 28.9915 28.5322 29.3882 28.8567C29.5325 28.7846 29.7128 28.7486 29.8931 28.7486C29.4964 28.4601 28.9916 28.2798 28.4506 28.2798C28.1982 28.2437 27.9458 28.2798 27.6934 28.3519Z" fill="black"/>
<path d="M40.5312 26.3205C40.5312 25.3108 41.3606 24.4453 42.4064 24.4453C42.9113 24.4453 43.3801 24.6617 43.7046 24.9862C43.921 24.878 44.1734 24.8059 44.4258 24.8059C45.2552 24.8059 45.9404 25.4911 45.9404 26.3205H40.5312Z" fill="#CDFFF2"/>
<path opacity="0.1" d="M44.4264 24.8047C44.2101 24.8047 43.9937 24.8407 43.7773 24.9489C43.8134 24.9489 43.8495 24.9489 43.9216 24.9489C44.7149 24.9489 45.364 25.562 45.4361 26.3193H45.941C45.941 25.4899 45.2558 24.8047 44.4264 24.8047Z" fill="black"/>
<path opacity="0.1" d="M41.6484 24.5896C41.7206 24.5896 41.7927 24.5896 41.8648 24.5896C42.3697 24.5896 42.8385 24.8059 43.163 25.1305C43.3072 25.0583 43.4515 24.9862 43.6318 24.9502C43.3072 24.6256 42.8385 24.4453 42.3697 24.4453C42.1172 24.4453 41.8648 24.5174 41.6484 24.5896Z" fill="black"/>
<path d="M57.9131 33.8283C57.9131 32.8186 57.0837 31.9531 56.0379 31.9531C55.533 31.9531 55.0642 32.1695 54.7397 32.494C54.5233 32.3859 54.2709 32.3137 54.0185 32.3137C53.1891 32.3137 52.5039 32.9989 52.5039 33.8283H57.9131Z" fill="#CDFFF2"/>
<path opacity="0.1" d="M56.0738 31.9531C55.5689 31.9531 55.1001 32.1695 54.7756 32.494C54.5592 32.3859 54.3068 32.3137 54.0543 32.3137C53.5856 32.3137 53.1889 32.5301 52.9004 32.8547C53.1168 32.7465 53.3692 32.6743 53.6216 32.6743C53.874 32.6743 54.1265 32.7465 54.3428 32.8547C54.6674 32.5301 55.1362 32.3137 55.641 32.3137C56.5426 32.3137 57.2998 32.9628 57.4801 33.8283H57.9489C57.9129 32.7825 57.0835 31.9531 56.0738 31.9531Z" fill="black"/>
<path d="M42.9101 45.8685H31.3706L30.1445 44.5703H44.1723L42.9101 45.8685Z" fill="#727272"/>
<g opacity="0.1">
<path d="M30.1445 44.5703L30.7576 45.2194H39.881C40.2056 45.2194 40.3859 45.6161 40.1695 45.8685H42.9101L44.1362 44.5703H30.1445Z" fill="black"/>
</g>
<path d="M39.1249 10.4922H35.1582V12.4395H39.1249V10.4922Z" fill="#727272"/>
<g opacity="0.1">
<path d="M35.4467 10.8888V10.4922H35.1582V12.4395H39.1249H36.6006C35.9155 12.4395 35.4467 11.6101 35.4467 10.8888Z" fill="#DCDDD7"/>
</g>
<g opacity="0.1">
<path d="M35.1582 10.4922L36.817 10.5282C37.5022 10.5282 38.2595 11.6101 38.2595 12.3313V12.4395H39.161V10.4922H35.1582Z" fill="black"/>
</g>
<path d="M37.4693 9.70788L37.289 3.82993C37.289 3.79387 37.2168 3.75781 37.1087 3.75781C37.0365 3.75781 36.9284 3.79387 36.9284 3.82993L36.748 9.70788H37.4693Z" fill="#727272"/>
<g opacity="0.1">
<path d="M37.0711 4.15449L37.2514 9.70788H37.5038L37.3235 3.82993C37.3235 3.79387 37.2514 3.75781 37.1432 3.75781C37.0711 3.75781 36.9629 3.79387 36.9629 3.82993V4.08236C37.035 4.11842 37.0711 4.11842 37.0711 4.15449Z" fill="black"/>
</g>
<path d="M35.4453 10.523C35.4453 9.5854 36.2026 8.82812 37.1402 8.82812C38.0778 8.82812 38.835 9.5854 38.835 10.523H35.4453Z" fill="#848484"/>
<g opacity="0.1">
<path d="M37.3565 8.86719C37.2844 8.86719 37.2123 8.86719 37.1402 8.86719C36.2026 8.86719 35.4453 9.62446 35.4453 10.562H35.842C35.842 9.66052 36.4911 8.93931 37.3565 8.86719Z" fill="#DCDDD7"/>
</g>
<g opacity="0.1">
<path d="M37.1419 8.82812C37.0337 8.82812 36.8894 8.82813 36.7812 8.86419C37.5385 9.00843 38.1155 9.69358 38.1155 10.523H38.8007C38.8367 9.5854 38.0794 8.82812 37.1419 8.82812Z" fill="black"/>
</g>
<path d="M34.8 52.0979H30.0039L31.5906 45.8594H36.3867L34.8 52.0979Z" fill="#A5A5A5"/>
<path d="M39.4871 52.0979H44.2832L42.7326 45.8594H37.9004L39.4871 52.0979Z" fill="#A5A5A5"/>
<path d="M34.0437 51.1584L34.6928 47.0475L32.9258 46.8672L34.0437 51.1584Z" fill="#848484"/>
<path d="M32.6364 47.1562L31.4824 51.159L33.7903 51.4115L32.6364 47.1562Z" fill="#848484"/>
<path d="M40.4577 51.1584L39.8086 47.0475L41.5756 46.8672L40.4577 51.1584Z" fill="#848484"/>
<path d="M41.8288 47.1562L43.0188 51.159L40.7109 51.4115L41.8288 47.1562Z" fill="#848484"/>
<g opacity="0.1">
<path d="M41.0386 48.4918L41.9401 52.0979H44.2841L42.6974 45.8594H37.8652L38.0455 46.5806H38.5504C39.7404 46.5806 40.7501 47.3739 41.0386 48.4918Z" fill="black"/>
</g>
<path d="M49.7259 64.4757L44.9297 54.2344L39.773 54.3426L39.9894 54.7392H34.0754L34.2196 54.4147H29.5317L24.8438 63.6824H30.1087L30.3611 63.1054H30.8659C31.479 61.122 34.1114 59.6075 37.2848 59.6075C40.4582 59.6075 43.0906 61.086 43.7037 63.1054H44.1003L44.5691 64.4396H49.7259V64.4757Z" fill="#A5A5A5"/>
<path d="M32.2736 64.7634H23.5469L24.8811 63.1406H31.0476L32.2736 64.7634Z" fill="#848484"/>
<path d="M31.0118 60.3291L32.2739 56.3985L30.543 55.9297L31.0118 60.3291Z" fill="#848484"/>
<path d="M30.2192 56.1875L28.4883 59.9739L30.688 60.5869L30.2192 56.1875Z" fill="#848484"/>
<path d="M43.7046 60.3291L42.4785 56.3985L44.1734 55.9297L43.7046 60.3291Z" fill="#848484"/>
<path d="M44.4981 56.1875L46.229 59.9739L44.0293 60.5869L44.4981 56.1875Z" fill="#848484"/>
<path d="M34.9395 55.8984H36.8507V57.7376L34.9395 55.8984Z" fill="#848484"/>
<path d="M36.5284 58.136L33.6074 59.1818L34.6171 56.2969L36.5284 58.136Z" fill="#848484"/>
<path d="M38.3691 58.136L41.254 59.1818L40.2443 56.2969L38.3691 58.136Z" fill="#848484"/>
<path d="M39.919 55.8984H38.0078V57.7376L39.919 55.8984Z" fill="#848484"/>
<g opacity="0.1">
<path d="M44.8928 54.2344L42.0801 54.2704L46.8401 64.4757H49.725L44.8928 54.2344Z" fill="black"/>
</g>
<path d="M42.0469 64.7634H50.7736L49.4394 63.1406H43.2369L42.0469 64.7634Z" fill="#848484"/>
<g opacity="0.1">
<path d="M46.914 64.2225L47.3828 64.7994H50.7725L49.4383 63.1406H43.2358L42.9473 63.5373H45.5076C46.0485 63.5373 46.5534 63.7897 46.914 64.2225Z" fill="black"/>
</g>
<path d="M45.2536 54.8823H29.3147L28.4492 53.6562H46.1191L45.2536 54.8823Z" fill="#727272"/>
<g opacity="0.1">
<path d="M28.4492 53.6562L28.9541 54.3775H41.5754C41.8639 54.3775 42.0082 54.666 41.8639 54.9184H45.2897L46.1552 53.6562H28.4492Z" fill="black"/>
</g>
<path d="M46.8783 52.1094H27.4414V53.9845H46.8783V52.1094Z" fill="#848484"/>
<g opacity="0.1">
<path d="M27.4414 52.1094V52.9027H40.8922C41.5052 52.9027 41.974 53.4076 41.974 53.9845H46.8422V52.1094H27.4414Z" fill="black"/>
</g>
<path d="M45.0399 43.0547H29.2812V44.9299H45.0399V43.0547Z" fill="#848484"/>
<g opacity="0.1">
<path d="M29.2812 43.0547V43.6677H39.0538C39.775 43.6677 40.352 44.2447 40.352 44.9659H45.0399V43.0908H29.2812V43.0547Z" fill="black"/>
</g>
<path d="M37.1433 12.4297H39.1267C38.8382 22.635 39.8479 32.8402 42.1919 43.0094H37.1794H37.1433H32.1309C34.4748 32.8042 35.4845 22.5989 35.196 12.4297H37.1433Z" fill="#A5A5A5"/>
<path d="M36.6751 13.0078H35.8457V13.8011L36.6751 13.0078Z" fill="#848484"/>
<path d="M36.0254 14.0229H36.8548V13.2656L36.0254 14.0229Z" fill="#848484"/>
<path d="M38.5883 13.8372V13.0078H37.7949L38.5883 13.8372Z" fill="#848484"/>
<path d="M37.543 13.1875V14.0169H38.3363L37.543 13.1875Z" fill="#848484"/>
<path d="M38.3342 15.5703H37.4688V16.4718L38.3342 15.5703Z" fill="#848484"/>
<path d="M37.7949 16.5776H38.5161V15.8203L37.7949 16.5776Z" fill="#848484"/>
<path d="M36.8547 16.3997V15.5703H35.9531L36.8547 16.3997Z" fill="#848484"/>
<path d="M35.8457 15.8594V16.5806H36.603L35.8457 15.8594Z" fill="#848484"/>
<path d="M38.6212 19.6504L38.513 18.1719H37.6836L38.6212 19.6504Z" fill="#848484"/>
<path d="M37.5039 18.4297V19.9442H38.4415L37.5039 18.4297Z" fill="#848484"/>
<path d="M35.7012 19.6504L35.8094 18.1719H36.6388L35.7012 19.6504Z" fill="#848484"/>
<path d="M36.8545 18.4297L36.8184 19.9442H35.8809L36.8545 18.4297Z" fill="#848484"/>
<path d="M36.8207 23.3169L36.8567 21.5859H36.0273L36.8207 23.3169Z" fill="#848484"/>
<path d="M35.8094 21.875L35.7012 23.4977H36.5666L35.8094 21.875Z" fill="#848484"/>
<path d="M37.6122 23.3169L37.5762 21.5859H38.4056L37.6122 23.3169Z" fill="#848484"/>
<path d="M38.6215 21.875L38.7297 23.4977H37.8281L38.6215 21.875Z" fill="#848484"/>
<path d="M36.6774 25.0078H35.848L35.5234 26.8469L36.6774 25.0078Z" fill="#848484"/>
<path d="M35.668 27.1721H36.7859L36.858 25.2969L35.668 27.1721Z" fill="#848484"/>
<path d="M37.8281 25.0078H38.6575L38.9821 26.8469L37.8281 25.0078Z" fill="#848484"/>
<path d="M38.8024 27.1721H37.7206L37.6484 25.2969L38.8024 27.1721Z" fill="#848484"/>
<path d="M36.6045 30.8987L36.7127 28.5547H35.6309L36.6045 30.8987Z" fill="#848484"/>
<path d="M35.378 28.7734L34.9453 31.2256H36.3878L35.378 28.7734Z" fill="#848484"/>
<path d="M37.7918 30.8998L37.6836 28.6641H38.6933L37.7918 30.8998Z" fill="#848484"/>
<path d="M38.9483 28.8438L39.3449 31.2238H37.9746L38.9483 28.8438Z" fill="#848484"/>
<path d="M36.4928 32.5547H34.9422L34.3652 35.7641L36.4928 32.5547Z" fill="#848484"/>
<path d="M34.4746 36.1566H36.494L36.6383 32.875L34.4746 36.1566Z" fill="#848484"/>
<path d="M38.0078 32.5547H39.5584L40.1354 35.7641L38.0078 32.5547Z" fill="#848484"/>
<path d="M40.0278 36.1566H37.9724L37.8281 32.875L40.0278 36.1566Z" fill="#848484"/>
<path d="M35.9166 42.0533L36.0609 37.9062H34.2578L35.9166 42.0533Z" fill="#848484"/>
<path d="M34.0426 38.2266L33.3574 42.3375H35.6653L34.0426 38.2266Z" fill="#848484"/>
<path d="M38.5153 42.0533L38.3711 37.9062H40.1381L38.5153 42.0533Z" fill="#848484"/>
<path d="M40.3903 38.2266L41.0755 42.3375H38.7676L40.3903 38.2266Z" fill="#848484"/>
<g opacity="0.1">
<path d="M38.0078 42.7239C35.4474 42.7239 33.5001 40.416 33.9689 37.8918C35.5556 29.4174 36.2408 20.9431 36.0244 12.4688H35.1589C35.4474 22.674 34.4377 32.8793 32.0938 43.0485H37.1062H37.1423H42.1548C42.1187 42.9403 42.1187 42.8321 42.0827 42.7239H38.0078Z" fill="#DCDDD7"/>
</g>
<path d="M59.5362 58.5574C58.779 58.5214 57.9496 58.5574 57.1202 58.7017C54.9565 59.0983 53.1895 60.072 52.324 61.2259C52.1077 61.1178 51.8552 61.0456 51.6028 61.0096C50.3407 60.7932 49.1507 61.2981 48.4295 62.2717C47.9607 61.9111 47.4197 61.6226 46.7706 61.5144C45.3282 61.262 43.9218 61.839 43.1285 62.9569C42.5515 62.416 41.7942 62.0193 40.9648 61.8751C40.46 61.7669 39.9912 61.7669 39.5224 61.839C38.2242 62.0554 37.0702 62.8487 36.3851 64.0026C36.0245 63.7142 35.5917 63.4978 35.1229 63.4257C34.8345 63.3896 34.582 63.3535 34.2935 63.3896C33.6805 63.4617 33.0675 63.7502 32.6347 64.183C32.2741 62.8848 31.1923 61.8029 29.7498 61.5505C28.5959 61.3341 27.5141 61.6587 26.6847 62.3799C26.288 61.9111 25.711 61.5505 25.0619 61.4423C24.521 61.3341 24.0161 61.4063 23.5474 61.5866C23.4392 59.9638 22.2131 58.5214 20.5182 58.2329C19.6888 58.0886 18.8955 58.1968 18.1743 58.5574C17.6333 57.728 16.7679 57.0789 15.7221 56.8986C14.9288 56.7544 14.1715 56.8626 13.4863 57.1871C17.3088 65.0484 24.9537 70.71 34.005 71.7197C34.9787 71.8279 35.9523 71.9 36.926 71.9C37.8996 71.9 38.9093 71.8279 39.8469 71.7197C48.2852 70.6379 55.5335 65.6254 59.5362 58.5574Z" fill="#3BC525"/>
<g opacity="0.1">
<path d="M50.699 65.0577C50.4827 64.9495 50.2303 64.8774 49.9778 64.8413C48.7157 64.6249 47.5257 65.1298 46.8045 66.1034C46.3357 65.7428 45.7948 65.4543 45.1457 65.3462C43.7032 65.0937 42.2968 65.6707 41.5035 66.7886C40.9265 66.2477 40.1692 65.851 39.3398 65.7068C38.835 65.5986 38.3662 65.5986 37.8974 65.6707C36.5992 65.8871 35.4452 66.6804 34.7601 67.8344C34.3995 67.5459 33.9667 67.3295 33.4979 67.2574C33.2095 67.2213 32.957 67.1853 32.6685 67.2213C32.0555 67.2935 31.4425 67.5819 31.0097 68.0147C30.6491 66.7165 29.5673 65.6346 28.1248 65.3822C26.9709 65.1659 25.8891 65.4904 25.0597 66.2116C24.663 65.7428 24.086 65.3822 23.4369 65.274C22.896 65.1659 22.3912 65.238 21.9224 65.4183C21.8142 63.7955 20.5881 62.3531 18.8932 62.0646C18.136 61.9204 17.4147 62.0285 16.7656 62.281C17.1262 62.7137 17.4868 63.1464 17.8835 63.5431C22.6436 68.6277 29.4231 71.8371 36.9237 71.8371C44.9293 71.8371 52.1415 68.195 56.9016 62.4613C56.4688 62.4973 56 62.5334 55.5312 62.6055C53.3315 62.9301 51.5645 63.9037 50.699 65.0577Z" fill="black"/>
</g>
<path d="M3.78711 56.4641C5.30167 59.4571 6.8523 62.4502 8.36686 65.4433C26.0728 56.428 47.0603 56.428 64.7663 65.4433C66.2809 62.4502 67.8315 59.4571 69.3461 56.4641C48.7552 45.9703 24.378 45.9703 3.78711 56.4641Z" fill="#FFDC4F"/>
<path d="M26.8073 57V50.4545H29.0189C29.5324 50.4545 29.9521 50.5472 30.2781 50.7326C30.6063 50.9158 30.8492 51.1641 31.0068 51.4773C31.1645 51.7905 31.2433 52.1399 31.2433 52.5256C31.2433 52.9112 31.1645 53.2617 31.0068 53.5771C30.8513 53.8924 30.6105 54.1438 30.2845 54.3313C29.9585 54.5167 29.5409 54.6094 29.0317 54.6094H27.4465V53.9062H29.0061C29.3577 53.9062 29.64 53.8455 29.8531 53.7241C30.0661 53.6026 30.2206 53.4386 30.3165 53.2319C30.4145 53.0231 30.4635 52.7876 30.4635 52.5256C30.4635 52.2635 30.4145 52.0291 30.3165 51.8224C30.2206 51.6158 30.0651 51.4538 29.8499 51.3366C29.6347 51.2173 29.3492 51.1577 28.9933 51.1577H27.5999V57H26.8073ZM33.8625 57.1151C33.5514 57.1151 33.2691 57.0565 33.0155 56.9393C32.762 56.82 32.5606 56.6484 32.4115 56.4247C32.2623 56.1989 32.1878 55.9261 32.1878 55.6065C32.1878 55.3253 32.2432 55.0973 32.354 54.9226C32.4648 54.7457 32.6128 54.6072 32.7982 54.5071C32.9836 54.407 33.1881 54.3324 33.4118 54.2834C33.6377 54.2322 33.8646 54.1918 34.0926 54.1619C34.3909 54.1236 34.6327 54.0948 34.8181 54.0756C35.0056 54.0543 35.142 54.0192 35.2272 53.9702C35.3145 53.9212 35.3582 53.8359 35.3582 53.7145V53.6889C35.3582 53.3736 35.2719 53.1286 35.0993 52.9538C34.9289 52.7791 34.67 52.6918 34.3227 52.6918C33.9626 52.6918 33.6803 52.7706 33.4758 52.9283C33.2712 53.0859 33.1274 53.2543 33.0443 53.4332L32.3284 53.1776C32.4562 52.8793 32.6267 52.647 32.8398 52.4808C33.055 52.3125 33.2893 52.1953 33.5429 52.1293C33.7986 52.0611 34.05 52.027 34.2971 52.027C34.4548 52.027 34.6359 52.0462 34.8405 52.0845C35.0471 52.1207 35.2464 52.1964 35.4381 52.3114C35.632 52.4265 35.7929 52.6001 35.9207 52.8324C36.0486 53.0646 36.1125 53.3757 36.1125 53.7656V57H35.3582V56.3352H35.3199C35.2687 56.4418 35.1835 56.5558 35.0642 56.6772C34.9449 56.7987 34.7861 56.902 34.588 56.9872C34.3898 57.0724 34.148 57.1151 33.8625 57.1151ZM33.9775 56.4375C34.2758 56.4375 34.5273 56.3789 34.7318 56.2617C34.9385 56.1445 35.094 55.9933 35.1984 55.8079C35.305 55.6225 35.3582 55.4276 35.3582 55.223V54.5327C35.3263 54.571 35.2559 54.6062 35.1473 54.6381C35.0407 54.668 34.9172 54.6946 34.7765 54.718C34.6381 54.7393 34.5028 54.7585 34.3707 54.7756C34.2407 54.7905 34.1352 54.8033 34.0542 54.8139C33.8582 54.8395 33.675 54.881 33.5045 54.9386C33.3362 54.994 33.1998 55.0781 33.0954 55.1911C32.9932 55.3018 32.942 55.4531 32.942 55.6449C32.942 55.907 33.039 56.1051 33.2329 56.2393C33.4289 56.3714 33.6771 56.4375 33.9775 56.4375ZM37.4892 57V52.0909H38.2179V52.8324H38.269C38.3585 52.5895 38.5204 52.3924 38.7548 52.2411C38.9892 52.0898 39.2534 52.0142 39.5474 52.0142C39.6028 52.0142 39.6721 52.0153 39.7551 52.0174C39.8382 52.0195 39.9011 52.0227 39.9437 52.027V52.794C39.9181 52.7876 39.8596 52.7781 39.7679 52.7653C39.6784 52.7504 39.5836 52.7429 39.4835 52.7429C39.2449 52.7429 39.0318 52.793 38.8443 52.8931C38.6589 52.9911 38.5119 53.1275 38.4032 53.3022C38.2967 53.4748 38.2434 53.6719 38.2434 53.8935V57H37.4892ZM40.8378 57V52.0909H41.5921V57H40.8378ZM41.2213 51.2727C41.0743 51.2727 40.9475 51.2227 40.841 51.1225C40.7366 51.0224 40.6844 50.902 40.6844 50.7614C40.6844 50.6207 40.7366 50.5004 40.841 50.4002C40.9475 50.3001 41.0743 50.25 41.2213 50.25C41.3683 50.25 41.4941 50.3001 41.5985 50.4002C41.705 50.5004 41.7583 50.6207 41.7583 50.7614C41.7583 50.902 41.705 51.0224 41.5985 51.1225C41.4941 51.2227 41.3683 51.2727 41.2213 51.2727ZM46.4508 53.1903L45.7733 53.3821C45.7306 53.2692 45.6678 53.1594 45.5847 53.0529C45.5037 52.9442 45.3929 52.8548 45.2523 52.7844C45.1117 52.7141 44.9316 52.679 44.7122 52.679C44.4118 52.679 44.1614 52.7482 43.9611 52.8867C43.763 53.0231 43.6639 53.1967 43.6639 53.4077C43.6639 53.5952 43.7321 53.7433 43.8684 53.8519C44.0048 53.9606 44.2179 54.0511 44.5076 54.1236L45.2363 54.3026C45.6752 54.4091 46.0023 54.5721 46.2175 54.7915C46.4327 55.0089 46.5403 55.2891 46.5403 55.6321C46.5403 55.9134 46.4593 56.1648 46.2974 56.3864C46.1376 56.608 45.9139 56.7827 45.6262 56.9105C45.3386 57.0384 45.0041 57.1023 44.6227 57.1023C44.122 57.1023 43.7076 56.9936 43.3794 56.7763C43.0513 56.5589 42.8436 56.2415 42.7562 55.8239L43.4721 55.6449C43.5403 55.9091 43.6692 56.1072 43.8588 56.2393C44.0506 56.3714 44.301 56.4375 44.6099 56.4375C44.9615 56.4375 45.2406 56.3629 45.4473 56.2138C45.6561 56.0625 45.7605 55.8814 45.7605 55.6705C45.7605 55.5 45.7008 55.3572 45.5815 55.2422C45.4622 55.125 45.2789 55.0376 45.0318 54.9801L44.2136 54.7884C43.764 54.6818 43.4338 54.5167 43.2228 54.293C43.014 54.0671 42.9096 53.7848 42.9096 53.446C42.9096 53.169 42.9874 52.924 43.1429 52.7109C43.3006 52.4979 43.5147 52.3306 43.7853 52.2092C44.0581 52.0877 44.367 52.027 44.7122 52.027C45.198 52.027 45.5794 52.1335 45.8564 52.3466C46.1355 52.5597 46.3336 52.8409 46.4508 53.1903Z" fill="black"/>
</svg>
