<svg width="19" height="19" viewBox="0 0 19 19" fill="none" xmlns="http://www.w3.org/2000/svg">
<path d="M17.1663 1.83301L9.49967 9.49967M17.1663 1.83301V6.14551M17.1663 1.83301H12.8538M16.208 9.97884V14.0997C16.208 15.1731 16.208 15.7098 15.9991 16.1198C15.8153 16.4805 15.5221 16.7737 15.1615 16.9574C14.7515 17.1663 14.2148 17.1663 13.1413 17.1663H4.89967C3.82624 17.1663 3.28952 17.1663 2.87953 16.9574C2.51888 16.7737 2.22567 16.4805 2.04191 16.1198C1.83301 15.7098 1.83301 15.1731 1.83301 14.0997V5.85801C1.83301 4.78457 1.83301 4.24786 2.04191 3.83786C2.22567 3.47722 2.51888 3.184 2.87953 3.00025C3.28952 2.79134 3.82624 2.79134 4.89967 2.79134H9.02051" stroke="#1F1F23" stroke-width="2" stroke-linecap="round" stroke-linejoin="round"/>
</svg>
