<svg width="59" height="54" viewBox="0 0 59 54" fill="none" xmlns="http://www.w3.org/2000/svg">
<path d="M29 0C27.4077 0 26 0.61526 26 2V3C27.0205 2.72308 27.899 3 29 3C30.1012 3 30.9795 2.72308 32 3V2C32 0.615399 30.5923 0 29 0ZM29 5C25.0885 5 21.6148 7.6008 19 11C16.7369 13.9421 15.3547 17.1977 15 20H43C42.6453 17.1977 41.2633 13.9421 39 11C36.3852 7.6008 32.9115 5 29 5ZM18 16H23V18H18V16ZM27 16H31V18H27V16ZM36 16H40V18H36V16ZM12 23L11 25H47L46 23H12ZM13 27V31H15V27H13ZM20 27V31H23V27H20ZM28 27V31H31V27H28ZM36 27V31H38V27H36ZM44 27V31H46V27H44ZM6 34V36H52V34H6ZM8 39V47H11V39H8ZM15 39V47H17V39H15ZM21 39V47H24V39H21ZM28 39V47H31V39H28ZM35 39V47H37V39H35ZM41 39V47H44V39H41ZM48 39V47H50V39H48ZM0 49V54H59V49H0Z" fill="#134380"/>
</svg>
