<svg width="18" height="45" viewBox="0 0 18 45" fill="none" xmlns="http://www.w3.org/2000/svg">
<path d="M9.08504 4.55812e-06C8.35863 4.55812e-06 7.20431 -0.00799537 6.11338 1C5.01453 2.016 4.11379 3.832 3.14173 6C2.17495 8.15467 0.708934 10.0933 0.170075 13C-0.252561 15.288 0.265167 17.5253 0.170075 20H18C17.9139 17.5875 17.4439 15.3739 17.0094 13C16.4706 10.0933 15.9978 8.15467 15.0283 6C14.0563 3.832 12.165 2.01334 11.0661 1C9.97257 -0.0106621 9.81144 4.55812e-06 9.08504 4.55812e-06ZM0.170075 32C0.708934 34.9067 2.17495 36.8453 3.14173 39C4.11379 41.168 5.01717 42.9867 6.11338 44C7.20695 45.0107 8.36127 45 9.08504 45C9.81144 45 9.97521 45.008 11.0661 44C12.1676 42.984 14.0563 41.168 15.0283 39C15.9951 36.8453 16.4706 34.9067 17.0094 32C17.4347 29.712 17.9075 26.4747 18 24H0.170075C0.262526 26.4747 -0.255202 29.712 0.170075 32Z" fill="#51775D"/>
</svg>
