<svg width="64" height="64" viewBox="0 0 64 64" fill="none" xmlns="http://www.w3.org/2000/svg">
<path fill-rule="evenodd" clip-rule="evenodd" d="M5 29C5.50447 22.2926 8.06861 16.5743 13 12C17.9314 7.42566 24.2737 4.99989 31 5C28.7867 5 26.6267 5.51467 25 7C23.3867 8.47733 22.104 10.5627 21 13C19.8907 15.4533 19.584 17.888 19 21C18.524 23.5744 18.0885 26.3834 18 29H5ZM5 33H18C18.096 35.672 18.5333 38.504 19 41C19.5867 44.112 19.8907 46.5467 21 49C22.104 51.4373 23.3867 53.5227 25 55C26.6267 56.4853 28.7867 58 31 58C16.9467 58 6.02133 46.7947 5 33Z" fill="#51775D"/>
<path d="M31.085 9C30.3586 9 29.2043 8.992 28.1134 10C27.0145 11.016 26.1138 12.832 25.1417 15C24.175 17.1547 22.7089 19.0933 22.1701 22C21.7474 24.288 22.2652 26.5253 22.1701 29H40C39.9139 26.5875 39.4439 24.3739 39.0094 22C38.4706 19.0933 37.9978 17.1547 37.0283 15C36.0563 12.832 34.165 11.0133 33.0661 10C31.9726 8.98934 31.8114 9 31.085 9ZM22.1701 41C22.7089 43.9067 24.175 45.8453 25.1417 48C26.1138 50.168 27.0172 51.9867 28.1134 53C29.207 54.0107 30.3613 54 31.085 54C31.8114 54 31.9752 54.008 33.0661 53C34.1676 51.984 36.0563 50.168 37.0283 48C37.9951 45.8453 38.4706 43.9067 39.0094 41C39.4347 38.712 39.9075 35.4747 40 33H22.1701C22.2625 35.4747 21.7448 38.712 22.1701 41Z" fill="#51775D"/>
<path d="M32 5C34.216 5 35.3733 5.51467 37 7C38.6133 8.47733 39.8987 10.5627 41 13C42.112 15.4533 43.416 17.888 44 21C44.4667 23.496 44.904 26.328 45 29H58C57.4961 22.2924 54.9315 16.5745 50 12C45.0685 7.42554 38.7265 4.99927 32 5ZM44 41C43.416 44.112 42.112 46.5467 41 49C39.8987 51.4373 38.6133 53.5227 37 55C35.3733 56.4853 34.216 58 32 58C46.0533 58 56.9787 46.7947 58 33H45C44.9115 35.6166 44.4761 38.4256 44 41Z" fill="#51775D"/>
</svg>
