<svg width="24" height="24" viewBox="0 0 24 24" fill="none" xmlns="http://www.w3.org/2000/svg">
<rect width="24" height="24" rx="5" fill="#3256D5"/>
<rect width="24" height="24" rx="5" fill="#3256D5"/>
<path d="M10.3828 16.238C10.2219 16.3946 10.0973 16.4994 9.97001 16.576C9.34694 16.9508 8.57929 16.9508 7.95621 16.576C7.72661 16.4378 7.5059 16.2078 7.06449 15.7479C6.62307 15.2879 6.40236 15.0579 6.2698 14.8187C5.91007 14.1694 5.91007 13.3695 6.2698 12.7203C6.40236 12.481 6.62307 12.251 7.06449 11.7911L8.96311 9.81265C9.40453 9.35269 9.62524 9.1227 9.85484 8.98457C10.4779 8.60973 11.2456 8.60973 11.8686 8.98457C12.0982 9.1227 12.319 9.35269 12.7604 9.81265C13.2018 10.2726 13.4225 10.5026 13.5551 10.7419C13.9148 11.3911 13.9148 12.191 13.5551 12.8403C13.4816 12.9729 13.381 13.1027 13.2307 13.2704M11.3407 11.3009C11.1904 11.4686 11.0899 11.5984 11.0164 11.7311C10.6566 12.3803 10.6566 13.1802 11.0164 13.8295C11.1489 14.0687 11.3696 14.2987 11.8111 14.7587C12.2525 15.2186 12.4732 15.4486 12.7028 15.5868C13.3259 15.9616 14.0935 15.9616 14.7166 15.5868C14.9462 15.4486 15.1669 15.2186 15.6083 14.7587L17.5069 12.7803C17.9484 12.3203 18.1691 12.0903 18.3016 11.8511C18.6614 11.2018 18.6614 10.4019 18.3016 9.75265C18.1691 9.5134 17.9484 9.28341 17.5069 8.82345C17.0655 8.36348 16.8448 8.1335 16.6152 7.99537C15.9921 7.62052 15.2245 7.62052 14.6014 7.99537C14.4741 8.07195 14.3496 8.17675 14.1886 8.33332" stroke="#F9FAF6" stroke-width="1.5" stroke-linecap="round"/>
</svg>
