<svg width="24" height="25" viewBox="0 0 24 25" fill="none" xmlns="http://www.w3.org/2000/svg">
<rect y="0.5" width="24" height="24" rx="5" fill="#2C66BC"/>
<path d="M9.23885 17.3632V10.8801H7.08589V17.3632H9.23908H9.23885ZM8.16282 9.9951C8.91345 9.9951 9.38076 9.49727 9.38076 8.87513C9.36671 8.23881 8.91345 7.75488 8.1771 7.75488C7.44024 7.75488 6.95898 8.23881 6.95898 8.87507C6.95898 9.49721 7.42613 9.99504 8.14871 9.99504H8.16265L8.16282 9.9951ZM10.4305 17.3632H12.5833V13.7431C12.5833 13.5496 12.5974 13.3556 12.6543 13.2174C12.8098 12.8301 13.1641 12.4292 13.759 12.4292C14.5378 12.4292 14.8496 13.0237 14.8496 13.8953V17.3632H17.0023V13.646C17.0023 11.6547 15.9403 10.7281 14.5239 10.7281C13.3626 10.7281 12.8526 11.3778 12.5692 11.8202H12.5835V10.8803H10.4307C10.4588 11.4885 10.4305 17.3634 10.4305 17.3634L10.4305 17.3632Z" fill="white"/>
</svg>
