<svg width="24" height="25" viewBox="0 0 24 25" fill="none" xmlns="http://www.w3.org/2000/svg">
<g id="Icons">
<path id="Vector" d="M11.6508 16.1842V7.38418L9.40078 9.63418L8.90078 9.13418L12.0008 6.03418L15.1008 9.13418L14.6008 9.63418L12.3508 7.38418V16.1842H11.6508ZM6.80078 19.4342C6.36745 19.4342 6.00911 19.2925 5.72578 19.0092C5.44245 18.7258 5.30078 18.3675 5.30078 17.9342V15.6842H6.00078V17.9342C6.00078 18.1342 6.08411 18.3175 6.25078 18.4842C6.41745 18.6508 6.60078 18.7342 6.80078 18.7342H17.2008C17.4008 18.7342 17.5841 18.6508 17.7508 18.4842C17.9174 18.3175 18.0008 18.1342 18.0008 17.9342V15.6842H18.7008V17.9342C18.7008 18.3675 18.5591 18.7258 18.2758 19.0092C17.9924 19.2925 17.6341 19.4342 17.2008 19.4342H6.80078Z" fill="#FAFAFA"/>
</g>
</svg>
