<svg width="423" height="429" viewBox="0 0 423 429" fill="none" xmlns="http://www.w3.org/2000/svg">
<path d="M363.845 277.876C340.827 207.915 295.512 106.867 210.305 74.1978C185.05 64.434 155.782 61.347 129.833 66.6522C96.4473 73.3827 71.6281 96.4487 36.819 100.593C-0.180433 104.896 31.106 167.387 38.1858 184.436C58.6227 233.231 64.4849 283.188 79.7704 332.907C89.0057 363.124 107.121 388.907 142.064 400.861C171.067 410.731 202.931 408.83 230.721 400.622C265.108 390.619 292.479 369.479 322.047 352.456C336.088 344.301 354.72 338.759 363.987 325.88C374.67 311.312 369.118 293.71 363.845 277.876Z" fill="#CCEBFF"/>
<path d="M389.059 243.107C366.042 173.147 320.727 72.0994 235.52 39.4303C210.265 29.6665 180.998 26.5796 155.049 31.8847C121.664 38.6151 96.8443 61.6811 62.0355 65.8253C25.0363 70.1279 56.3227 132.62 63.4025 149.668C83.8392 198.463 89.7014 248.42 104.987 298.139C114.222 328.356 132.337 354.139 167.28 366.092C196.283 375.962 228.146 374.061 255.936 365.853C290.323 355.85 317.694 334.71 347.262 317.688C361.302 309.533 379.935 303.99 389.201 291.111C399.925 276.702 394.153 258.968 389.059 243.107Z" stroke="#0286C3" stroke-width="3" stroke-miterlimit="10"/>
</svg>
