<svg width="1199" height="851" viewBox="0 0 1199 851" fill="none" xmlns="http://www.w3.org/2000/svg">
<path d="M70.9557 104.845C132.514 48.939 207.091 22.3913 287.222 8.14598C369.735 -6.52732 450.756 1.34084 529.761 27.2309C610.992 53.8562 692.069 81.2115 772.002 111.444C864.072 146.27 950.515 192.498 1026.2 256.247C1080.57 302.05 1129.58 353.08 1165.8 415.194C1197.49 469.507 1203.73 528.56 1194.72 588.831C1187 640.519 1153.03 673.17 1105.52 692.668C1048.76 715.948 990.899 716.333 932.034 702.642C912.33 698.057 892.479 693.954 872.515 690.694C815.484 681.374 770.223 699.455 735.032 746.543C716.459 771.398 695.203 795.398 671.131 814.765C620.649 855.372 562.246 859.414 502.629 838.761C435.309 815.436 388.722 768.435 362.847 702.635C350.826 672.061 339.987 639.82 336.26 607.448C329.261 546.691 300.306 508.466 242.145 488.064C197.201 472.297 153.433 452.289 111.008 430.527C70.1255 409.557 38.4282 376.953 17.5573 335.539C-15.0966 270.752 -1.01018 183.167 50.0721 126.894C56.8587 119.403 63.9836 112.193 70.9557 104.845Z" fill="#CCEBFF"/>
</svg>
