<svg width="266" height="318" viewBox="0 0 266 318" fill="none" xmlns="http://www.w3.org/2000/svg">
<path fill-rule="evenodd" clip-rule="evenodd" d="M154.68 54.843C178.979 53.6189 201.532 68.7151 220.935 86.6573C240.042 104.325 257.971 126.517 263.14 155.135C268.102 182.602 261.134 212.388 247.785 235.288C236.264 255.051 213.146 255.471 196.719 269.078C181.166 281.961 173.214 308.7 154.68 312.411C135.482 316.255 113.366 306.86 101.3 288.184C89.7152 270.252 104.082 242.211 96.0099 221.595C85.6047 195.022 50.6101 185.988 49.7535 156.539C48.9388 128.531 74.321 110.539 92.2733 93.1392C110.974 75.0143 130.846 56.0438 154.68 54.843Z" fill="#E4F9EA"/>
<path fill-rule="evenodd" clip-rule="evenodd" d="M129.734 1.08501C159.54 -0.41026 187.205 18.0294 211.007 39.9454C234.445 61.5265 256.436 88.6333 262.778 123.589C268.864 157.14 260.317 193.523 243.942 221.495C229.81 245.634 201.451 246.147 181.301 262.768C162.223 278.505 152.469 311.165 129.734 315.698C106.184 320.394 79.0544 308.918 64.2541 286.106C50.0432 264.202 67.6665 229.95 57.7646 204.769C45.001 172.31 2.07425 161.276 1.02347 125.305C0.0240726 91.0928 31.1596 69.1162 53.1811 47.8629C76.1207 25.7237 100.497 2.55171 129.734 1.08501Z" stroke="#689576" stroke-width="2"/>
</svg>
