<svg width="1053" height="1104" viewBox="0 0 1053 1104" fill="none" xmlns="http://www.w3.org/2000/svg">
<path fill-rule="evenodd" clip-rule="evenodd" d="M248.799 700.624C176.229 621.012 150.412 502.194 177.715 397.986C202.137 304.772 305.676 268.7 378.498 205.593C453.507 140.591 504.605 31.8623 603.811 28.7377C707.678 25.4664 798.975 103.87 856.303 190.545C908.192 268.995 890.121 365.944 889.052 459.997C887.834 567.193 927.678 693.235 849.754 766.859C770.776 841.479 645.24 804.3 537.24 792.396C432.983 780.905 319.459 778.14 248.799 700.624Z" stroke="#A25F9D" stroke-width="4"/>
<path fill-rule="evenodd" clip-rule="evenodd" d="M203.8 768.624C131.229 689.012 105.413 570.194 132.715 465.986C157.137 372.772 260.676 336.7 333.498 273.593C408.507 208.591 459.605 99.8623 558.812 96.7377C662.678 93.4664 753.976 171.87 811.304 258.544C863.192 336.995 845.121 433.944 844.052 527.997C842.834 635.193 882.678 761.235 804.755 834.859C725.777 909.479 600.241 872.3 492.241 860.396C387.984 848.905 274.46 846.14 203.8 768.624Z" fill="#F9E4EE"/>
<path fill-rule="evenodd" clip-rule="evenodd" d="M248.8 700.624C176.229 621.012 150.413 502.194 177.715 397.986C202.137 304.772 305.676 268.7 378.498 205.593C453.507 140.591 504.605 31.8623 603.812 28.7377C707.678 25.4664 798.976 103.87 856.304 190.545C908.192 268.995 890.121 365.944 889.052 459.997C887.834 567.193 927.678 693.235 849.755 766.859C770.777 841.479 645.241 804.3 537.241 792.396C432.984 780.905 319.46 778.14 248.8 700.624Z" stroke="#A25F9D" stroke-width="4"/>
</svg>
