<svg width="644" height="580" viewBox="0 0 644 580" fill="none" xmlns="http://www.w3.org/2000/svg">
<path fill-rule="evenodd" clip-rule="evenodd" d="M328.305 38.0473C382.909 42.8754 441.494 36.5554 485.728 68.9571C529.896 101.311 538.555 160.4 562.552 209.635C591.651 269.337 650.449 321.74 640.979 387.486C631.235 455.134 573.33 507.552 514.613 542.451C459.132 575.427 391.81 584.783 328.305 573.328C271.398 563.064 234.492 513.181 185.14 483.022C129.554 449.053 34.1758 449.549 21.2237 385.668C7.79579 319.44 108.799 285.426 132.226 222.046C153.979 163.198 103.552 82.1264 149.287 39.2084C193.911 -2.66629 267.372 32.6594 328.305 38.0473Z" stroke="#FBB22E" stroke-width="4"/>
<path fill-rule="evenodd" clip-rule="evenodd" d="M308.305 19.0473C362.909 23.8754 421.494 17.5554 465.728 49.9571C509.896 82.3109 518.555 141.4 542.552 190.635C571.651 250.337 630.45 302.74 620.979 368.486C611.235 436.134 553.33 488.552 494.613 523.451C439.132 556.427 371.81 565.783 308.305 554.328C251.398 544.064 214.492 494.181 165.14 464.022C109.554 430.053 14.1758 430.549 1.22374 366.668C-12.2042 300.44 88.7989 266.426 112.226 203.046C133.979 144.198 83.5515 63.1264 129.287 20.2084C173.911 -21.6663 247.372 13.6594 308.305 19.0473Z" fill="#FFF5AD"/>
<path fill-rule="evenodd" clip-rule="evenodd" d="M328.305 38.0473C382.909 42.8754 441.494 36.5554 485.728 68.9571C529.896 101.311 538.555 160.4 562.552 209.635C591.651 269.337 650.449 321.74 640.979 387.486C631.235 455.134 573.33 507.552 514.613 542.451C459.132 575.427 391.81 584.783 328.305 573.328C271.398 563.064 234.492 513.181 185.14 483.022C129.554 449.053 34.1758 449.549 21.2237 385.668C7.79579 319.44 108.799 285.426 132.226 222.046C153.979 163.198 103.552 82.1264 149.287 39.2084C193.911 -2.66629 267.372 32.6594 328.305 38.0473Z" stroke="#FBB22E" stroke-width="4"/>
</svg>
