<svg width="24" height="25" viewBox="0 0 24 25" fill="none" xmlns="http://www.w3.org/2000/svg">
<g id="Icons">
<path id="Vector" d="M12.0008 19.9846L11.4508 19.4846C9.83411 18.0012 8.49661 16.7346 7.43828 15.6846C6.37995 14.6346 5.54661 13.7137 4.93828 12.9221C4.32995 12.1304 3.90495 11.4179 3.66328 10.7846C3.42161 10.1512 3.30078 9.5179 3.30078 8.88457C3.30078 7.70124 3.70495 6.7054 4.51328 5.89707C5.32161 5.08874 6.31745 4.68457 7.50078 4.68457C8.38411 4.68457 9.20911 4.92207 9.97578 5.39707C10.7424 5.87207 11.4174 6.5679 12.0008 7.48457C12.5841 6.5679 13.2591 5.87207 14.0258 5.39707C14.7924 4.92207 15.6174 4.68457 16.5008 4.68457C17.6841 4.68457 18.6799 5.08874 19.4883 5.89707C20.2966 6.7054 20.7008 7.70124 20.7008 8.88457C20.7008 9.5179 20.5799 10.1512 20.3383 10.7846C20.0966 11.4179 19.6716 12.1304 19.0633 12.9221C18.4549 13.7137 17.6258 14.6346 16.5758 15.6846C15.5258 16.7346 14.1841 18.0012 12.5508 19.4846L12.0008 19.9846ZM12.0008 19.0346C13.6008 17.5846 14.9174 16.3429 15.9508 15.3096C16.9841 14.2762 17.8008 13.3804 18.4008 12.6221C19.0008 11.8637 19.4174 11.1929 19.6508 10.6096C19.8841 10.0262 20.0008 9.45124 20.0008 8.88457C20.0008 7.88457 19.6674 7.05124 19.0008 6.38457C18.3341 5.7179 17.5008 5.38457 16.5008 5.38457C15.7008 5.38457 14.9633 5.61374 14.2883 6.07207C13.6133 6.5304 12.9674 7.25124 12.3508 8.23457H11.6508C11.0174 7.23457 10.3674 6.50957 9.70078 6.05957C9.03411 5.60957 8.30078 5.38457 7.50078 5.38457C6.51745 5.38457 5.68828 5.7179 5.01328 6.38457C4.33828 7.05124 4.00078 7.88457 4.00078 8.88457C4.00078 9.45124 4.11745 10.0262 4.35078 10.6096C4.58411 11.1929 5.00078 11.8637 5.60078 12.6221C6.20078 13.3804 7.01745 14.2721 8.05078 15.2971C9.08411 16.3221 10.4008 17.5679 12.0008 19.0346Z" fill="#FAFAFA"/>
</g>
</svg>
