<svg width="69" height="63" viewBox="0 0 69 63" fill="none" xmlns="http://www.w3.org/2000/svg">
<path d="M52.4547 10.501C58.617 15.3181 62.843 19.7804 65.6523 25.2614C69.8022 33.3568 69.3738 41.3906 64.8521 49.2464C62.0901 54.0452 58.1963 57.8359 52.8414 60.0475C50.492 61.0177 47.9225 61.6455 45.3838 62.0591C41.6213 62.672 38.117 61.5265 34.8821 59.8099C32.1695 58.3699 29.2409 57.5418 26.3334 56.5883C22.4338 55.3094 18.4688 54.0857 14.7943 52.3496C9.35054 49.7772 5.57261 45.5168 3.06618 40.3482C-1.47349 30.9873 -0.531545 21.9854 5.42001 13.4319C8.30936 9.27934 12.1107 5.98492 16.7727 3.63346C23.361 0.310314 30.2181 0.252592 37.147 2.54246C43.2213 4.54995 48.6345 7.69199 52.4547 10.501Z" fill="#F9DC5C" fill-opacity="0.5"/>
</svg>
