<svg width="1051" height="557" viewBox="0 0 1051 557" fill="none" xmlns="http://www.w3.org/2000/svg">
<path d="M485.468 502.199C367.398 466.629 276.614 431.365 194.963 384.332C74.3576 314.866 11.6833 238.832 1.83991 158.077C-4.17497 108.747 12.5407 67.1065 60.9535 37.9995C82.1942 25.2308 109.095 15.3299 137.424 7.48605C179.41 -4.13695 233.052 1.13867 288.154 12.1919C334.364 21.466 378.1 24.6634 422.632 29.0686C482.361 34.9788 542.442 40.2686 603.222 50.819C693.269 66.4528 776.725 100.522 851.932 145.097C988.142 225.826 1052.58 311.745 1050.4 401.278C1049.35 444.743 1029.59 481.583 991.047 510.921C936.585 552.38 851.094 563.627 744.819 552.962C651.65 543.612 557.161 522.587 485.468 502.199Z" fill="#F9E4EE"/>
</svg>
