<svg width="212" height="192" viewBox="0 0 212 192" fill="none" xmlns="http://www.w3.org/2000/svg">
<path d="M121.312 187.763C97.6958 192.043 78.7667 192.449 60.2507 187.231C32.9014 179.525 14.8006 160.962 5.25758 132.961C-0.572221 115.857 -1.77347 98.2353 3.65581 80.5527C6.03803 72.7953 9.66563 65.2565 13.7371 58.2591C19.7718 47.889 29.4415 41.9764 39.9227 37.957C48.7132 34.5877 56.4896 29.3646 64.5194 24.4656C75.2897 17.8954 86.0598 11.0474 97.4613 6.01514C114.353 -1.43904 131.915 -1.21014 149.092 4.05367C180.201 13.5861 199.566 35.4948 207.912 68.4511C211.963 84.4507 212.178 100.767 208.456 117.091C203.197 140.16 189.7 156.748 170.522 168.384C153.709 178.585 135.534 184.723 121.312 187.763Z" fill="#FFF5AD"/>
</svg>
