<svg width="226" height="300" viewBox="0 0 226 242" fill="none" xmlns="http://www.w3.org/2000/svg">
<g opacity="0.1">
<path d="M31.308 190.644C32.7621 189.429 33.9638 187.899 34.8375 186.218C36.0129 183.884 34.7424 180.822 32.026 180.467C25.8308 179.903 21.9472 173.461 18.4127 169.063C14.3733 164.036 10.2584 159.173 5.82886 154.563C1.77141 150.222 0.158304 160.186 -0.449881 162.583C-1.34658 166.038 -2.03505 169.686 -2.08092 173.234C-2.25299 181.58 0.832348 189.539 9.76033 193.439C16.2293 196.211 25.6113 195.463 31.308 190.644Z" fill="#FAFAFA"/>
<path d="M17.0988 172.128C24.6513 179.66 33.299 186.108 42.5942 191.367C70.675 206.935 103.923 212.585 134.4 200.112C196.702 174.396 223.91 158.242 210.687 126.597C197.464 94.953 148.037 116.866 122.737 127.156C97.4369 137.446 67.7728 145.139 92.263 112.471C105.832 94.0193 140.14 66.5534 146.64 59.1298C153.14 51.7062 181.481 19.5183 159.314 0.816391C137.19 -17.766 106.866 30.3621 104.523 36.5225C102.181 42.6829 70.2725 94.2471 46.4034 95.1832C27.1393 94.9625 41.1932 51.7546 49.2423 38.5993C57.2915 25.444 76.6421 -19.9908 39.1484 -4.79165C10.5417 6.85521 -9.93696 37.4986 -16.0876 66.7903C-24.2366 105.374 -10.1394 145.25 17.0988 172.128Z" fill="#0286C3"/>
<path d="M180.293 132.633C182.642 131.652 185.027 128.576 183.7 126.403C183.263 125.686 182.455 125.178 181.332 125.214C179.719 125.266 177.999 125.765 176.355 126.101C174.591 126.481 172.947 126.816 171.183 127.196C167.938 127.986 164.77 128.613 161.525 129.403C160.524 129.637 159.712 130.751 159.543 131.764C159.299 132.94 159.817 133.971 160.65 134.75C163.609 137.595 167.93 136.408 171.489 135.365C173.568 134.734 175.527 134.146 177.606 133.515C178.486 133.244 179.437 132.991 180.293 132.633Z" fill="#FAFAFA"/>
<path d="M158.127 161.349C151.169 160.93 143.692 163.147 137.318 165.772C135.847 166.315 134.563 167.748 134.282 169.291C134.195 169.773 134.23 170.286 134.413 170.782C134.622 171.344 134.943 171.76 135.335 172.045C136.54 172.925 138.32 172.859 139.723 172.352C139.733 172.348 139.743 172.345 139.753 172.341C146.007 169.761 152.238 168.954 158.682 167.254C161.523 166.477 161.158 161.452 158.127 161.349Z" fill="#FAFAFA"/>
<path d="M184.787 154.351C186.033 152.94 187.114 151.455 188.36 150.044C189.606 148.634 190.852 147.223 192.098 145.813C193.344 144.402 194.634 143.112 195.88 141.701C196.465 141.078 197.17 140.41 197.711 139.667C198.642 138.509 198.652 136.333 197.013 135.58C194.598 134.57 192.824 137.126 191.175 138.55C189.841 139.721 188.55 141.012 187.26 142.303C185.97 143.594 184.8 144.841 183.554 146.252C182.308 147.662 181.018 148.953 179.936 150.439C179.049 151.717 178.95 153.654 180.275 154.658C181.808 155.858 183.616 155.598 184.787 154.351Z" fill="#FAFAFA"/>
<path d="M106.278 163.512C111.119 160.456 116.737 158.536 121.475 155.373C122.139 154.93 122.909 154.603 123.446 154.013C125.209 152.077 123.151 147.999 119.889 148.846C116.689 149.756 113.515 151.471 110.492 152.858C107.589 154.202 104.522 155.47 101.796 157.291C97.6906 160.164 102.084 166.146 106.278 163.512Z" fill="#FAFAFA"/>
<path d="M104.404 185.248C107.023 183.873 105.412 180.259 103.13 179.608C99.9526 178.744 96.7133 178.446 93.5362 177.582C90.2394 176.762 87.0444 176.584 83.7247 177.538C78.9689 179.022 81.669 186.308 86.4247 184.824C92.3772 182.898 98.2953 188.589 104.404 185.248Z" fill="#FAFAFA"/>
<path d="M153.066 147.326C150.417 145.317 147.693 143.471 144.773 141.833C142.017 140.271 139.173 138.469 135.902 138.454C133.558 138.369 132.094 141.761 133.64 143.363C135.571 145.637 138.389 146.634 140.861 148.165C143.453 149.653 145.85 151.348 148.291 153.162C152.145 156.22 157.16 150.296 153.066 147.326Z" fill="#FAFAFA"/>
<path d="M79.6979 154.181C82.5307 151.913 80.2503 147.595 76.6913 148.637C70.5748 150.488 64.7502 153.86 58.6912 156.233C53.9043 158 56.7371 165.645 61.4355 163.638C67.57 161.102 74.6307 158.496 79.6979 154.181Z" fill="#FAFAFA"/>
<path d="M57.9751 174.151C51.8603 172.335 45.7012 170.399 39.2536 169.521C35.9699 169.103 34.501 173.583 37.4961 175.058C43.6503 178.081 50.1242 179.765 56.6112 181.851C61.4588 183.185 62.703 175.529 57.9751 174.151Z" fill="#FAFAFA"/>
<path d="M136.812 39.9449C137.824 37.5347 138.835 35.1246 139.802 32.595C140.738 30.3485 142.26 27.4784 141.853 24.9128C141.415 22.6303 139.24 21.5324 137.263 22.8054C135.046 24.1668 134.136 27.2184 133.036 29.3897C131.905 31.844 130.894 34.2542 129.718 36.5891C127.771 41.2458 134.82 44.4821 136.812 39.9449Z" fill="#FAFAFA"/>
<path d="M111.367 54.6388C112.782 52.2156 113.989 49.5976 115.076 47.0238C116.163 44.45 117.444 41.6684 117.636 38.8819C118.041 35.2021 113.477 33.8997 111.521 37.0658C110.182 39.3254 109.423 42.0497 108.248 44.3846C107.117 46.8389 105.821 49.218 104.646 51.5529C102.685 55.8071 108.99 58.5036 111.367 54.6388Z" fill="#FAFAFA"/>
<path d="M109.046 73.6848C113.887 69.8609 119.725 66.8911 124.269 62.6337C126.579 60.4231 123.412 57.383 120.93 58.0277C115.084 59.5069 109.463 64.162 104.817 67.7781C101.279 70.7135 105.509 76.6202 109.046 73.6848Z" fill="#FAFAFA"/>
<path d="M83.0239 95.2464C84.9403 90.8728 88.319 86.7739 88.8042 81.8423C89.1156 79.0117 85.5402 77.0728 83.5582 79.4339C81.8468 81.4236 80.968 84.192 79.7926 86.5269C78.573 88.7424 77.0254 90.8073 76.4173 93.2044C75.5337 97.061 81.4846 98.8019 83.0239 95.2464Z" fill="#FAFAFA"/>
<path d="M56.8951 129.736C62.4935 126.855 68.4771 124.646 73.9869 121.525C77.4755 119.559 74.2869 114.625 70.8475 115.624C65.1655 117.178 59.6114 120.179 54.372 122.928C50.2409 124.996 52.6442 131.849 56.8951 129.736Z" fill="#FAFAFA"/>
<path d="M39.663 129.854C44.2876 124.345 48.363 118.088 51.0515 111.393C52.2892 108.492 47.9874 105.327 46.1071 108.33C42.258 114.096 38.5728 119.937 34.2318 125.478C31.6023 129.028 36.7056 133.255 39.663 129.854Z" fill="#FAFAFA"/>
<path d="M48.1459 148.714C51.1869 146.641 48.5345 142.053 45.1394 143.171C41.5803 144.213 38.7475 146.481 35.7065 148.554C32.2311 150.923 28.5343 152.695 24.5851 154.153C20.2769 155.744 22.7114 162.313 27.0639 160.842C34.8869 158.09 41.4344 153.364 48.1459 148.714Z" fill="#FAFAFA"/>
<path d="M24.1724 37.4033C25.7249 34.2503 26.4577 30.7209 27.3987 27.3863C28.22 24.0958 30.0609 19.8859 29.3887 16.6036C28.9068 14.2016 26.0444 13.0858 24.333 15.0754C22.2756 17.6001 21.6756 21.4878 20.7658 24.5394C19.8248 27.874 18.7199 31.1333 17.4953 34.4368C15.8937 38.5585 22.1675 41.538 24.1724 37.4033Z" fill="#FAFAFA"/>
<path d="M18.9245 62.1501C22.072 59.6303 25.2196 57.1105 28.2032 54.5154C30.9163 52.2918 33.9573 50.2187 35.6294 47.0215C36.8491 44.806 34.2753 42.6331 32.1966 43.2647C28.7572 44.2628 26.2211 46.9643 23.4637 49.0685C20.5113 51.3805 17.5588 53.6925 14.6506 56.1239C10.9932 59.1035 15.1474 65.1739 18.9245 62.1501Z" fill="#FAFAFA"/>
<path d="M5.26538 70.4482C5.98664 62.8495 4.88653 55.1086 4.80122 47.5361C4.78481 44.5549 0.114268 43.6992 -1.00375 46.5561C-3.90536 54.1449 -1.60854 61.4441 -2.56915 69.1311C-3.05436 74.0627 4.78017 75.3797 5.26538 70.4482Z" fill="#FAFAFA"/>
<path d="M16.5466 99.4181C18.5154 96.6545 20.3646 93.9351 22.4974 91.2467C24.5548 88.722 26.8203 86.3921 28.3416 83.5221C29.9383 80.4886 26.0662 78.116 23.6104 79.5658C20.8399 81.2674 18.7072 83.9558 16.6498 86.4805C14.4727 89.0494 12.4596 91.6935 10.535 94.5766C7.79895 98.5739 13.6154 103.623 16.5466 99.4181Z" fill="#FAFAFA"/>
<path d="M15.6417 141.028C15.7349 140.929 15.9759 140.558 16.2186 140.162C16.6456 139.466 17.0891 138.774 17.6008 138.137C17.8096 137.877 18.0183 137.618 18.227 137.358C19.5041 135.665 20.409 133.701 21.1942 131.782C22.8401 127.78 24.3221 123.702 26.2516 119.731C27.5335 116.949 24.1269 113.998 21.5646 115.894C17.9383 118.591 16.5006 122.788 14.8105 126.67C14.0252 128.59 13.24 130.509 12.1269 132.278C10.8941 134.091 9.55969 135.262 8.90724 137.54C8.43676 139.207 9.71219 141.18 11.1876 141.858C11.4075 141.959 11.6312 142.078 11.858 142.162C13.1505 142.643 14.6776 142.132 15.6417 141.028Z" fill="#FAFAFA"/>
<path d="M124.806 190.748C127.337 189.135 129.868 187.521 132.266 185.55C134.979 183.326 132.868 177.995 129.127 179.648C126.343 180.947 123.573 182.649 120.878 184.187C118.183 185.725 115.324 187.188 113.133 189.354C110.478 192.1 114.088 196.334 117.319 195.141C119.996 194.289 122.394 192.317 124.806 190.748Z" fill="#FAFAFA"/>
</g>
</svg>