<svg width="812" height="696" viewBox="0 0 812 696" fill="none" xmlns="http://www.w3.org/2000/svg">
<path d="M-109.578 85.9184C-59.2812 40.2396 1.65308 18.5486 67.1244 6.90935C134.543 -5.07956 200.741 1.34913 265.293 22.5029C331.664 44.2573 397.908 66.6082 463.218 91.3096C538.445 119.765 609.074 157.536 670.91 209.622C715.339 247.046 755.377 288.741 784.976 339.491C810.866 383.868 815.965 432.118 808.607 481.363C802.292 523.595 774.544 550.273 735.718 566.204C689.349 585.225 642.07 585.54 593.974 574.353C577.874 570.607 561.655 567.255 545.343 564.591C498.745 556.976 461.764 571.749 433.012 610.223C417.836 630.531 400.469 650.14 380.801 665.964C339.554 699.142 291.835 702.445 243.125 685.57C188.12 666.512 150.056 628.11 128.915 574.347C119.093 549.367 110.236 523.024 107.192 496.574C101.473 446.932 77.815 415.7 30.2937 399.03C-6.42758 386.148 -42.1888 369.8 -76.8528 352.019C-110.256 334.885 -136.155 308.246 -153.207 274.408C-179.887 221.474 -168.378 149.912 -126.641 103.934C-121.096 97.8131 -115.274 91.9215 -109.578 85.9184Z" fill="#E4F9EA"/>
</svg>
