<svg width="426" height="403" viewBox="0 0 426 403" fill="none" xmlns="http://www.w3.org/2000/svg">
<path d="M-98.7901 83.426C-60.6377 50.3155 -19.4404 30.3335 23.0823 15.8438C66.8702 0.921049 107.148 -2.84263 144.201 2.39278C182.298 7.77834 220.227 13.5353 257.223 20.806C299.836 29.1826 338.193 43.661 368.936 67.715C391.025 84.9977 409.741 105.34 420.601 132.3C430.103 155.874 426.074 184.155 414.138 214.463C403.897 240.456 382.629 259.606 356.064 273.6C324.338 290.311 294.839 295.934 266.549 294.77C257.079 294.38 247.476 294.238 237.712 294.52C209.822 295.32 184.579 308.41 160.923 334.734C148.437 348.628 134.69 362.356 120.075 374.084C89.427 398.675 59.2076 406.137 31.3836 401.641C-0.035361 396.562 -18.0129 377.962 -23.1546 348.227C-25.5434 334.411 -27.1266 319.668 -25.0741 304.194C-21.2238 275.152 -31.298 259.186 -58.4118 254.675C-79.3634 251.189 -99.1996 245.52 -118.138 238.867C-136.388 232.456 -148.544 219.495 -154.114 201.211C-162.83 172.608 -144.975 128.471 -112.109 96.1657C-107.741 91.8664 -103.235 87.6724 -98.7901 83.426Z" fill="#FFEA8B" fill-opacity="0.25"/>
</svg>
