<svg width="664" height="726" viewBox="0 0 664 726" fill="none" xmlns="http://www.w3.org/2000/svg">
<g opacity="0.6">
<path d="M429.37 644.033C487.501 641.725 526.056 507.874 537.787 403.869C549.436 300.121 536.854 257.426 499.693 262.388C462.361 267.438 461.653 338.027 412.155 335.283C362.656 332.539 360.889 241.24 364.339 214.059C367.789 186.878 377.541 56.525 262.169 71.4572C146.798 86.3894 219.077 220.98 226.027 236.175C232.977 251.37 311.78 361.304 271.983 386.354C232.185 411.403 189.393 326.392 158.383 345.448C127.292 364.762 128.172 655.782 429.37 644.033Z" fill="#F9E4EE"/>
<path d="M141.788 318.53C139.764 316.76 137.063 315.768 134.118 315.546C128.921 315.181 123.872 317.973 121.711 322.524C121.213 323.64 120.887 324.669 120.732 325.61C119.901 327.328 119.591 329.21 119.714 331.088C119.731 331.941 119.918 332.708 120.196 333.644C120.76 335.943 121.755 338.237 123.608 340.094C126.701 343.473 131.662 345.037 136.23 344.214C137.438 344.029 138.726 343.587 139.754 343.063C141.386 342.446 143.099 341.571 144.632 340.358C151.868 334.295 149.319 323.309 141.788 318.53Z" fill="#A25F9D"/>
<path d="M134.977 368.917C133.869 369.698 132.931 370.392 132.345 371.337C112.338 386.933 120.847 420.282 132.264 438.578C143.761 456.618 170.495 480.45 193.698 469.254C218.1 457.447 204.966 417.411 195.547 399.603C185.77 381.117 157.691 354.74 134.977 368.917ZM182.614 410.081C187.026 419.244 200.159 454.757 182.202 455.737C167.44 456.594 152.088 440.307 145.385 428.866C138.502 417.087 131.356 396.18 141.412 384.371C141.925 384.109 142.529 384.017 142.952 383.585C158.16 374.531 177.036 398.713 182.614 410.081Z" fill="#A25F9D"/>
<path d="M281.593 283.924C274.928 274.613 263.656 268.514 251.855 270.873C251.252 270.965 250.738 271.227 250.134 271.32C248.838 271.335 247.541 271.351 246.171 272.05C233.915 277.658 227.598 290.794 223.074 302.798C218.225 315.831 218.392 328.891 223.484 341.806C227.858 353.365 235.013 365.658 247.207 370.21C259.401 374.761 271.853 370.345 278.383 359.256C285.084 348.079 287.046 333.287 288.616 320.635C290.359 307.894 289.409 294.588 281.593 283.924ZM272.407 305.204C274.221 318.5 271.029 336.72 265.209 348.741C254.906 370.375 238.203 338.389 236.178 327.571C233.761 314.368 239.107 300.219 249.406 291.731C261.751 281.768 270.683 292.078 272.407 305.204Z" fill="#A25F9D"/>
<path d="M334.952 385.991C329.527 387.25 325.808 391.734 325.132 397.037C324.513 400.801 325.705 404.288 328.006 406.994C328.096 407.163 328.276 407.503 328.365 407.672C334.274 418.021 349.415 413.743 352.153 403.293C354.639 393.187 345.54 383.389 334.952 385.991Z" fill="#A25F9D"/>
<path d="M303.312 423.898C292.965 416.255 270.449 409.438 257.783 415.902C255.802 416.267 253.92 417.228 252.485 419.037C235.976 441.248 255.579 467.213 270.517 484.36C278.035 493.231 287.803 502.246 299.688 504.581C311.834 506.997 320.669 499.042 324.612 488.414C332.635 465.365 323.213 438.511 303.312 423.898ZM308.796 483.993C302.263 499.174 282.595 474.318 277.547 468.063C270.82 459.866 262.405 449.298 262.37 438.547C263.641 437.252 264.562 435.705 264.692 433.485C266.229 419.131 296.509 438.57 300.48 442.79C310.02 453.429 314.499 470.528 308.796 483.993Z" fill="#A25F9D"/>
<path d="M243.723 505.982C242.246 505.657 240.859 505.503 239.39 505.606C233.4 504.566 227.126 506.69 223.684 512.112C219.483 518.567 220.122 529.236 227.557 533.419C229.744 534.674 232.518 534.983 234.835 534.016C235.358 534.181 235.97 534.515 236.492 534.68C243.885 536.728 250.951 530.751 252.458 523.73C255.688 516.261 251.63 507.767 243.723 505.982Z" fill="#A25F9D"/>
<path d="M231.688 598.514C227.03 599.167 223.123 602.885 221.737 607.256C221.656 607.514 221.493 608.028 221.501 608.455C221.419 608.712 221.338 608.969 221.256 609.226C218.982 616.853 224.948 625.664 233.172 625.994C240.792 626.417 247.847 620.014 247.96 612.412C247.974 604.214 240.14 597.219 231.688 598.514Z" fill="#A25F9D"/>
<path d="M370.617 528.127C367.932 523.462 362.939 520.191 357.147 520.345C348.762 520.529 345.174 527.317 345.82 533.884C345.16 535.514 344.76 537.227 344.712 539.191C344.607 542.693 346.753 546.339 349.731 548.268C350.262 548.859 350.963 549.364 351.665 549.868C355.606 552.383 359.758 552.419 363.534 550.923C369.758 550.764 375.647 546.681 375.767 539.507C375.759 539.081 375.661 538.484 375.653 538.057C375.578 534.216 373.522 530.739 370.617 528.127Z" fill="#A25F9D"/>
<path d="M404.485 594.777C401.451 594.386 398.694 594.931 396.467 596.067C394.232 596.777 392.185 598.253 390.839 600.232C388.23 603.935 388.402 608.373 390.035 612.281C390.394 612.96 390.582 613.726 391.022 614.148C391.839 616.102 392.826 617.969 394.238 619.404C396.18 621.43 398.627 622.768 401.311 622.907C402.184 623.323 403.138 623.483 403.922 623.73C408.784 624.697 412.813 622.856 414.909 619.416C417.282 616.912 418.692 613.821 418.969 610.232C419.334 602.287 412.374 595.709 404.485 594.777Z" fill="#A25F9D"/>
<path d="M490.851 442.515C490.41 442.093 490.06 441.841 489.709 441.589C489.431 440.653 488.811 439.891 487.929 439.048C482.128 434.249 474.019 435.369 470.332 441.561C464.777 445.043 461.1 451.662 462.888 459.155C464.775 467.246 472.584 472.96 481.036 471.665C483.018 471.3 484.992 470.508 486.615 469.464C490.76 469.074 494.692 466.636 496.502 461.833C498.792 455.059 496.221 447.319 490.851 442.515Z" fill="#A25F9D"/>
<path d="M483.56 336.816C480.689 335.911 477.573 335.777 474.662 337.262C469.181 340.059 468.025 347.329 470.709 351.993C470.718 352.42 470.987 352.929 471.167 353.268C471.045 355.916 471.878 358.724 473.999 361.089C478.16 366.077 486.218 366.921 491.061 362.51C495.905 358.098 496.71 350.576 494.091 344.802C491.937 340.73 488.07 337.531 483.56 336.816Z" fill="#A25F9D"/>
<path d="M295.592 544.016C292.756 544.817 291.151 546.713 290.239 548.686C279.126 559.311 281.382 586.586 283.952 598.841C287.387 615.607 300.868 655.888 325.021 649.375C335.68 646.519 339.661 633.504 341.81 624.008C344.603 612.031 344.616 599.319 341.19 587.5C336.468 571.176 317.667 537.271 295.592 544.016ZM324.199 589.066C327.771 599.518 329.935 617.579 323.475 627.552C317.773 636.492 312.661 626.827 309.261 620.809C305.861 614.792 303.236 608.595 301.466 601.961C299.883 596.093 294.016 565.278 302.042 560.32C306.989 561.456 312.133 568.306 314.611 571.348C318.687 576.59 321.916 582.694 324.199 589.066Z" fill="#A25F9D"/>
<path d="M404.902 431.11C381.227 439.75 388.537 478.221 393.757 497.95C397.761 512.916 417.876 570.259 443.113 553.071C453.345 546.126 455.492 527.589 456.483 516.317C457.531 503.509 456.321 490.131 452.456 477.893C448.126 463.954 425.692 416.192 404.902 431.11ZM437.401 485.577C441.512 501.566 441.32 518.459 436.012 534.303C434.294 539.271 433.43 539.281 429.901 535.484C426.633 531.769 423.789 527.623 421.286 523.302C416.192 514.49 412.637 504.893 409.937 494.858C406.871 483.72 398.317 456.865 409.103 447.268C410.569 447.166 412.028 446.637 413.388 445.512C415.604 443.95 427.797 462.488 428.604 464.014C432.452 470.878 435.354 478.009 437.401 485.577Z" fill="#A25F9D"/>
<path d="M418.638 291.072C415.238 289.576 411.422 288.938 407.801 289.493C398.922 290.793 392.319 298.041 387.534 305.438C376.53 322.041 370.517 341.915 370.473 361.974C370.533 374.008 372.673 386.274 378.498 396.874C385.57 409.423 405.977 427.448 420.798 416.007C424.801 412.887 427.482 408.502 429.813 403.865C443.057 377.931 446.352 347.165 438.631 319.004C436.583 311.431 433.588 304.126 428.548 298.296C425.807 295.17 422.3 292.651 418.638 291.072ZM423.638 326.009C425.859 338.018 426.212 351.841 426.091 354.489C425.653 363.115 419.564 405.864 407.038 401.915C390.859 396.814 385.872 375.875 387.059 361.266C387.749 352.295 402.39 300.226 416.286 308C421.44 310.756 422.764 321.069 423.638 326.009Z" fill="#A25F9D"/>
</g>
</svg>
