<svg width="626" height="664" viewBox="0 0 626 664" fill="none" xmlns="http://www.w3.org/2000/svg">
<path d="M52.6082 309.812C93.8171 242.59 141.844 191.185 192.789 146.366C245.25 100.211 295.735 71.1359 344.124 56.0708C393.877 40.5849 443.499 25.6981 492.271 13.4005C548.448 -0.761282 600.569 -4.19047 645.128 9.7823C677.144 19.8216 705.546 35.9818 725.419 65.7151C742.803 91.7099 743.999 132.095 735.57 179.919C728.337 220.936 705.52 259.34 674.799 293.978C638.11 335.34 601.778 360.484 565.465 375.792C553.311 380.915 541.041 386.453 528.663 392.653C493.3 410.361 464.062 442.995 439.807 492.457C427.006 518.563 412.56 545.199 396.56 569.666C363.008 620.971 326.168 649.014 289.705 659.568C248.53 671.483 221.459 657.224 208.252 620.354C202.116 603.222 196.799 584.366 195.952 562.359C194.359 521.057 177.948 505.622 142.387 515.733C114.908 523.545 88.3613 527.76 62.7385 530.119C38.0475 532.391 19.657 522.233 8.46687 500.998C-9.04118 467.781 3.83475 397.853 38.4861 334.865C43.0904 326.486 47.894 318.166 52.6082 309.812Z" fill="#F9E4EE"/>
</svg>
