<svg width="209" height="300" viewBox="0 0 209 288" fill="none" xmlns="http://www.w3.org/2000/svg">
<g opacity="0.2">
<path d="M87.8737 -33.0705C87.6577 -33.9344 87.4416 -34.5824 87.2256 -35.2303C85.9298 -43.0054 82.0423 -48.1889 73.6193 -45.3812C65.8441 -42.7895 61.9564 -30.0469 60.0126 -23.1356C58.2848 -16.8723 57.421 -8.88117 59.7967 -2.40187C59.5807 0.621799 59.5807 3.86143 60.0126 7.10108C60.6606 13.3644 67.3557 15.9561 72.3232 12.9324C75.1309 11.4206 77.2909 9.47681 79.0187 7.53303C89.8175 1.91764 89.1695 -24.2155 87.8737 -33.0705Z" fill="#A25F9D"/>
<path d="M111.63 33.6719C111.414 32.3761 110.766 30.8642 109.903 29.7843C107.311 22.8731 99.3197 21.7932 92.6244 25.8967C80.9617 33.2399 61.524 64.1246 81.1778 72.7637C90.4648 76.8672 99.7517 70.6039 105.151 63.2607C111.414 55.0536 113.79 44.0388 111.63 33.6719Z" fill="#A25F9D"/>
<path d="M154.828 83.5618C155.692 81.186 156.34 78.5943 156.556 76.0026C156.772 75.5706 156.988 75.1387 156.988 74.7067C157.636 71.899 157.42 70.1712 156.556 67.3635C156.556 67.1475 156.34 67.1475 156.34 66.9315C156.34 66.4996 156.34 65.8517 156.34 65.4197C156.124 61.5321 153.1 58.9404 149.645 58.5085C146.837 57.2126 143.381 57.6446 141.005 60.4522C135.606 66.7156 122.215 89.1771 127.183 100.192C128.263 103.648 131.718 105.591 134.958 105.807C135.174 105.807 135.174 105.807 135.39 105.807C146.837 107.967 152.452 95.6564 154.828 83.5618Z" fill="#A25F9D"/>
<path d="M31.504 80.9646C31.072 79.2368 29.7762 77.941 28.2643 77.0771C28.0483 76.4291 27.8322 75.7812 27.8322 75.3492C27.1843 72.9735 25.4565 71.4617 23.5127 70.8137C22.0008 69.0859 20.057 68.006 17.2493 68.006C9.90611 67.79 5.80277 76.2132 3.42703 83.5564C1.91519 86.58 1.05108 90.2516 1.05108 93.7072C0.18717 101.05 1.69922 108.826 8.82644 112.497C15.9537 116.385 22.8648 113.145 26.5364 107.098C28.0482 105.802 29.5601 104.506 30.64 102.562C34.9595 95.651 33.4478 88.0918 31.504 80.9646Z" fill="#A25F9D"/>
<path d="M93.2734 132.798C92.6254 128.911 91.1135 125.239 88.0899 122.647C79.2348 114.872 67.1401 124.591 61.3087 131.718C55.4774 138.845 49.2141 150.724 55.9093 159.363C58.0691 162.171 60.8767 163.467 63.6844 163.683C64.5483 164.547 65.6284 165.411 67.1403 166.059C77.0752 170.378 86.578 158.715 90.2496 150.94C91.1135 148.996 91.9774 146.621 92.6253 144.245C96.081 141.653 97.5929 136.47 93.2734 132.798Z" fill="#A25F9D"/>
<path d="M17.4663 191.113C19.842 183.986 19.41 166.924 11.4189 163.469C9.69104 158.501 3.85962 156.989 -0.243931 159.581C-10.6108 166.06 -16.0102 180.531 -11.2587 191.977C-10.6108 193.705 -9.53076 195.217 -8.45088 196.513C-7.58697 198.889 -5.64334 200.184 -3.48358 200.832C-1.32381 201.912 1.05203 202.776 3.64375 202.56C10.555 202.56 15.0906 197.377 17.4663 191.113Z" fill="#A25F9D"/>
<path d="M80.9638 229.124C82.6916 225.669 83.5556 221.997 82.9076 218.973V218.758C83.5556 213.79 81.8278 209.255 78.5881 206.663C77.2923 204.719 75.1326 203.423 71.677 203.207C61.5261 202.127 53.1031 215.95 49.8634 223.941C47.9196 228.476 46.4077 233.228 48.9994 237.979C51.5912 242.731 56.9906 244.027 61.7421 241.867C66.0616 241.651 70.8131 239.923 73.8367 237.763C74.0527 237.547 74.2685 237.547 74.4845 237.331C77.2922 235.172 79.452 232.58 80.9638 229.124Z" fill="#A25F9D"/>
<path d="M208.177 11.4211C208.177 11.2051 208.393 10.9891 208.393 10.7731C210.337 2.78199 207.745 -7.80085 199.106 -10.6085C190.035 -13.6322 181.612 -5.20913 176.429 1.27017C171.245 7.74946 166.062 16.3885 170.165 24.5956C171.461 27.1874 173.405 29.1311 175.781 30.643C179.452 35.3945 187.227 35.1785 192.843 31.9388C193.059 31.7228 193.275 31.7229 193.491 31.5069C201.266 28.2672 211.201 20.4921 208.177 11.4211Z" fill="#A25F9D"/>
<path d="M145.755 163.688C145.755 162.825 145.971 161.961 145.971 161.097C145.971 157.425 142.731 154.617 139.276 153.969C138.196 153.322 137.116 152.674 135.82 152.026C119.19 145.762 97.3761 175.135 109.903 188.526C113.358 192.197 117.678 193.709 121.997 193.493C123.941 194.357 125.885 194.789 128.477 194.573C142.083 194.141 149.21 176.431 145.755 163.688Z" fill="#A25F9D"/>
<path d="M28.0478 272.324C29.1277 269.732 29.5598 266.708 29.5598 263.901C29.3438 259.149 27.184 253.966 23.0805 251.374C20.2728 244.463 14.2255 239.063 5.80238 241.007C-5.4284 243.383 -12.9876 255.477 -11.4757 266.492C-10.1799 275.995 -2.40473 283.338 6.88226 284.85C7.53019 285.282 8.17812 285.714 9.04203 286.146C14.8734 288.954 21.5686 287.01 25.4562 281.827C27.184 279.019 28.0478 275.779 28.0478 272.324Z" fill="#A25F9D"/>
</g>
</svg>
