<svg width="333" height="300" viewBox="0 0 333 352" fill="none" xmlns="http://www.w3.org/2000/svg">
<path opacity="0.3" d="M44.961 -22.4699C63.007 -28.9638 82.1684 -32.8383 101.309 -32.7746C118.164 -32.6135 139.304 -30.9093 149.257 -15.2537C170.23 17.5335 143.328 61.4257 221.585 53.922C299.842 46.4184 298.48 68.2341 303.109 93.701C307.739 119.168 300.492 171.887 235.69 161.954C206.247 159.787 184.386 180.954 180.544 206.044C177.68 224.269 172.805 261.561 159.739 272.643C138.326 290.716 108.024 301.512 79.8931 299.211C34.1396 295.652 -35.186 248.734 -17.6123 195.027C-13.323 181.918 -4.70417 170.649 5.27994 161.235C25.2505 142.831 63.4181 129.959 41.1075 92.6484C29.6965 73.6979 13.9746 56.2956 6.997 34.9917C-2.86893 4.42978 18.7585 -13.0092 44.961 -22.4699Z" fill="#FDC76B"/>
<path opacity="0.3" d="M62.5365 -24.4672C62.5365 -24.4672 122.114 -48.0864 142.734 -2.59332C163.312 43.027 230.933 26.6894 247.712 28.3753C264.49 30.0613 318.939 36.3245 308.554 103.374C298.168 170.423 265.884 175.216 260.083 175.291C254.282 175.365 199.381 171.772 185.742 201.829C172.103 231.885 169.444 310.198 98.7382 281.708C27.8632 253.304 -9.11618 243.599 -9.87445 213.622C-10.6327 183.645 13.4876 180.547 48.9396 143.68C84.519 106.854 65.784 80.5758 54.2344 67.2158C42.6432 53.983 -4.14967 0.207476 62.5365 -24.4672Z" fill="#FDC76B" stroke="white" stroke-opacity="0.5" stroke-miterlimit="10" stroke-linecap="round" stroke-linejoin="round"/>
</svg>
