<svg width="304" height="322" viewBox="0 0 304 322" fill="none" xmlns="http://www.w3.org/2000/svg">
<g opacity="0.1">
<path d="M26.035 247.754C28.1114 246.015 29.8273 243.826 31.075 241.422C32.7535 238.081 30.9392 233.702 27.0602 233.194C18.2137 232.386 12.668 223.17 7.6208 216.877C1.85261 209.686 -4.02326 202.728 -10.3486 196.132C-16.1425 189.921 -18.446 204.178 -19.3145 207.607C-20.5949 212.549 -21.5781 217.769 -21.6436 222.845C-21.8893 234.786 -17.4835 246.172 -4.73456 251.753C4.50292 255.718 17.9002 254.649 26.035 247.754Z" fill="#FAFAFA"/>
<path d="M5.74365 221.265C16.5286 232.04 28.8772 241.266 42.1506 248.789C82.2491 271.063 129.726 279.146 173.247 261.301C262.213 224.51 301.065 201.397 282.183 156.123C263.3 110.849 192.72 142.2 156.592 156.922C120.465 171.645 78.1049 182.65 113.076 135.912C132.452 109.513 181.444 70.2172 190.725 59.5962C200.007 48.9752 240.477 2.92349 208.823 -23.8335C177.231 -50.4196 133.929 18.4379 130.583 27.2517C127.238 36.0654 81.6743 109.839 47.5899 111.178C20.0812 110.862 40.1498 49.0444 51.6438 30.2229C63.1378 11.4015 90.77 -53.6026 37.23 -31.857C-3.61972 -15.1937 -32.8626 28.6481 -41.6456 70.5561C-53.2821 125.758 -33.1518 182.81 5.74365 221.265Z" fill="#0286C3"/>
<path d="M242.558 160.869C245.489 158.814 244.295 154.01 240.264 154.141C237.96 154.216 235.504 154.93 233.156 155.41C230.637 155.953 228.29 156.433 225.771 156.976C221.138 158.107 216.613 159.004 211.98 160.135C210.55 160.469 209.391 162.063 209.15 163.513C208.801 165.196 209.541 166.67 210.73 167.785C214.955 171.856 221.126 170.156 226.208 168.665C229.177 167.761 231.974 166.921 234.943 166.017C238.082 165.05 241.86 164.236 242.558 160.869Z" fill="#FAFAFA"/>
<path d="M207.129 205.84C197.194 205.241 186.517 208.413 177.415 212.168C176.219 212.61 175.383 213.502 174.952 214.438C173.37 215.412 172.572 217.456 173.267 219.336C174.025 221.386 175.835 222.077 177.67 221.787C178.544 222.047 179.695 222.009 180.892 221.567C189.822 217.875 198.72 216.721 207.923 214.288C211.979 213.176 211.457 205.987 207.129 205.84Z" fill="#FAFAFA"/>
<path d="M245.198 195.83C246.977 193.812 248.522 191.687 250.301 189.669C252.08 187.651 253.859 185.633 255.639 183.615C257.418 181.597 259.26 179.75 261.039 177.732C261.875 176.84 262.881 175.885 263.654 174.822C264.984 173.165 264.998 170.052 262.657 168.975C259.208 167.53 256.676 171.187 254.321 173.224C252.415 174.9 250.573 176.747 248.73 178.594C246.888 180.441 245.217 182.225 243.437 184.243C241.658 186.261 239.816 188.108 238.271 190.233C237.005 192.062 236.864 194.833 238.756 196.271C240.944 197.986 243.526 197.614 245.198 195.83Z" fill="#FAFAFA"/>
<path d="M133.091 208.937C140.49 204.258 149.161 201.439 156.201 196.31C160.922 194.369 157.844 186.571 152.528 187.955C147.958 189.257 143.426 191.71 139.109 193.695C134.963 195.617 130.583 197.431 126.69 200.037C120.829 204.148 127.103 212.706 133.091 208.937Z" fill="#FAFAFA"/>
<path d="M130.412 240.037C134.152 238.07 131.851 232.899 128.593 231.967C124.056 230.731 119.43 230.305 114.893 229.069C110.186 227.897 105.623 227.641 100.883 229.006C94.0915 231.129 97.9471 241.554 104.738 239.43C113.238 236.675 121.689 244.817 130.412 240.037Z" fill="#FAFAFA"/>
<path d="M199.9 185.779C196.117 182.904 192.227 180.263 188.058 177.92C184.122 175.684 180.061 173.107 175.391 173.086C172.043 172.964 169.953 177.817 172.16 180.109C174.918 183.363 178.942 184.788 182.472 186.98C186.173 189.107 189.596 191.533 193.081 194.129C198.585 198.504 205.746 190.027 199.9 185.779Z" fill="#FAFAFA"/>
<path d="M95.1334 195.587C99.1786 192.343 95.9222 186.165 90.84 187.656C82.1059 190.304 73.7885 195.129 65.1363 198.523C58.3007 201.051 62.346 211.988 69.0552 209.118C77.8151 205.49 87.8976 201.761 95.1334 195.587Z" fill="#FAFAFA"/>
<path d="M64.1162 224.155C55.3844 221.557 46.5894 218.787 37.3823 217.53C32.6934 216.934 30.5958 223.343 34.8728 225.452C43.6608 229.778 52.9053 232.187 62.1685 235.172C69.0908 237.08 70.8676 226.126 64.1162 224.155Z" fill="#FAFAFA"/>
<path d="M176.692 32.151C178.136 28.7027 179.58 25.2545 180.961 21.6354C182.298 18.4212 184.47 14.3151 183.89 10.6445C183.265 7.37881 180.158 5.80806 177.335 7.62935C174.17 9.57706 172.871 13.943 171.3 17.0495C169.685 20.5609 168.241 24.0092 166.562 27.3498C163.781 34.0122 173.847 38.6425 176.692 32.151Z" fill="#FAFAFA"/>
<path d="M140.359 53.1668C142.379 49.6998 144.102 45.9542 145.654 42.2718C147.206 38.5895 149.036 34.6099 149.31 30.6232C149.888 25.3584 143.371 23.495 140.578 28.0248C138.666 31.2577 137.582 35.1554 135.904 38.4959C134.288 42.0074 132.439 45.4112 130.761 48.7517C127.961 54.8383 136.964 58.6961 140.359 53.1668Z" fill="#FAFAFA"/>
<path d="M137.042 80.4232C143.955 74.9523 152.291 70.7034 158.78 64.6121C162.079 61.4495 157.556 57.1 154.012 58.0224C145.664 60.1387 137.637 66.7988 131.003 71.9723C125.951 76.1721 131.991 84.6229 137.042 80.4232Z" fill="#FAFAFA"/>
<path d="M99.8826 111.268C102.619 105.011 107.444 99.1463 108.137 92.0906C108.581 88.0408 103.476 85.2669 100.646 88.6449C98.2016 91.4915 96.9468 95.4524 95.2684 98.7929C93.5267 101.963 91.3169 104.917 90.4484 108.346C89.1867 113.864 97.6844 116.355 99.8826 111.268Z" fill="#FAFAFA"/>
<path d="M62.5715 160.614C70.5658 156.492 79.1103 153.332 86.9782 148.867C91.9598 146.053 87.4065 138.995 82.4952 140.423C74.3814 142.647 66.4503 146.941 58.9686 150.874C53.0694 153.833 56.5014 163.637 62.5715 160.614Z" fill="#FAFAFA"/>
<path d="M37.9619 160.783C44.5657 152.901 50.3853 143.949 54.2244 134.37C55.9918 130.219 49.849 125.692 47.164 129.987C41.6675 138.237 36.4051 146.594 30.2063 154.521C26.4514 159.601 33.7389 165.647 37.9619 160.783Z" fill="#FAFAFA"/>
<path d="M50.0787 187.767C54.4212 184.801 50.6335 178.237 45.7854 179.836C40.7032 181.328 36.658 184.572 32.3155 187.538C27.3527 190.928 22.0738 193.463 16.4345 195.549C10.2824 197.825 13.7588 207.223 19.9741 205.119C31.1451 201.181 40.4948 194.42 50.0787 187.767Z" fill="#FAFAFA"/>
<path d="M15.8456 28.5102C18.0624 23.9992 19.1089 18.9497 20.4525 14.1788C21.6253 9.4711 24.2541 3.44787 23.2943 -1.2481C22.606 -4.68463 18.5187 -6.28114 16.0748 -3.43451C13.1369 0.177619 12.2801 5.73976 10.9809 10.1057C9.63725 14.8766 8.0595 19.5397 6.31083 24.2661C4.02375 30.163 12.9826 34.4259 15.8456 28.5102Z" fill="#FAFAFA"/>
<path d="M8.3494 63.9157C12.844 60.3106 17.3386 56.7055 21.5991 52.9927C25.4734 49.8113 29.8159 46.8453 32.2036 42.271C33.9453 39.1013 30.2699 35.9925 27.3016 36.8962C22.3903 38.3242 18.7688 42.1892 14.8313 45.1997C10.6153 48.5075 6.3993 51.8153 2.24646 55.294C-2.9762 59.5569 2.95585 68.2418 8.3494 63.9157Z" fill="#FAFAFA"/>
<path d="M-11.1523 75.7885C-10.1223 64.917 -11.6933 53.842 -11.8151 43.008C-11.8385 38.7427 -18.5079 37.5185 -20.1044 41.6058C-24.2479 52.4632 -20.9681 62.9063 -22.3398 73.9041C-23.0327 80.9598 -11.8452 82.8441 -11.1523 75.7885Z" fill="#FAFAFA"/>
<path d="M4.95441 117.236C7.76588 113.282 10.4065 109.391 13.4521 105.545C16.39 101.933 19.6251 98.5992 21.7975 94.4931C24.0775 90.1529 18.5482 86.7585 15.0415 88.8327C11.0853 91.2673 8.0397 95.1135 5.10181 98.7257C1.99304 102.401 -0.88166 106.184 -3.62992 110.309C-7.53695 116.028 0.768814 123.252 4.95441 117.236Z" fill="#FAFAFA"/>
<path d="M3.66384 176.772C3.94242 176.474 5.14572 174.475 5.36108 174.007C6.02591 173.178 6.69072 172.35 7.35555 171.521C9.17914 169.098 10.4714 166.289 11.5927 163.543C13.9429 157.817 16.0591 151.983 18.8144 146.302C20.645 142.322 15.7804 138.099 12.1215 140.812C6.94333 144.67 4.8903 150.675 2.47681 156.23C1.35551 158.976 0.234221 161.722 -1.35527 164.252C-3.11566 166.846 -5.02117 168.522 -5.95285 171.781C-6.62469 174.166 -4.80341 176.989 -2.69653 177.959C-2.46244 178.066 -2.29152 178.003 -2.22831 178.174C-0.292323 179.206 2.1633 178.492 3.66384 176.772Z" fill="#FAFAFA"/>
<path d="M159.55 247.905C163.164 245.597 166.778 243.288 170.203 240.468C174.078 237.286 171.062 229.659 165.72 232.024C161.745 233.882 157.789 236.317 153.941 238.518C150.092 240.718 146.009 242.811 142.882 245.911C139.09 249.839 144.244 255.897 148.858 254.19C152.681 252.971 156.106 250.15 159.55 247.905Z" fill="#FAFAFA"/>
</g>
</svg>
