<svg width="1188" height="496" viewBox="0 0 1188 496" fill="none" xmlns="http://www.w3.org/2000/svg">
<path d="M-831.415 382.548C-830.178 334.091 -775.367 290.629 -697.99 249.216C-618.316 206.57 -511.247 172.941 -383.259 146.892C-251.655 120.111 -119.292 93.6697 15.4286 68.809C170.609 40.1752 333.821 18.2994 506.847 7.76256C631.164 0.191853 755.822 -3.02041 879.55 3.63255C987.754 9.44501 1071.66 28.4888 1138.92 54.8596C1196.59 77.478 1198.25 104.88 1166.67 133.529C1128.94 167.742 1060.25 193.982 972.131 215.463C942.634 222.653 913.585 230.088 885.492 237.885C805.229 260.157 774.513 287.263 793.392 320.564C803.358 338.141 809.01 356.611 805.296 374.636C797.498 412.435 732.894 440.272 634.868 459.515C524.171 481.244 407.618 484.858 291.496 472.172C237.542 466.277 182.842 459.231 136.479 448.93C49.4561 429.597 -34.6516 428.508 -130.613 447.187C-204.766 461.621 -283.004 473.956 -361.908 485.035C-437.942 495.711 -518.053 497.939 -596.623 492.023C-719.54 482.769 -816.079 443.997 -827.843 400.128C-829.426 394.295 -830.241 388.412 -831.415 382.548Z" fill="#CCEBFF"/>
</svg>
