<svg width="768" height="688" viewBox="0 0 768 688" fill="none" xmlns="http://www.w3.org/2000/svg">
<path d="M-1158.3 525.311C-1157.55 456.951 -1104.54 396.147 -1029.51 338.448C-952.255 279.031 -848.212 232.597 -723.708 197.057C-595.686 160.517 -466.921 124.465 -335.843 90.6656C-184.858 51.7361 -25.9816 22.4182 142.569 9.1925C263.671 -0.31014 385.146 -3.65987 505.808 6.9012C611.331 16.1291 693.298 43.7956 759.103 81.6423C815.53 114.104 817.406 152.784 786.896 192.907C750.449 240.823 683.74 277.196 598.057 306.669C569.375 316.534 541.131 326.748 513.822 337.483C435.8 368.147 406.118 406.102 424.836 453.268C434.717 478.163 440.4 504.278 436.952 529.676C429.71 582.935 367.003 621.6 271.639 647.822C163.948 677.43 50.3763 681.424 -62.9299 662.422C-115.576 653.593 -168.959 643.133 -214.247 628.158C-299.253 600.054 -381.244 597.719 -474.601 623.165C-546.743 642.827 -622.885 659.488 -699.689 674.372C-773.699 688.715 -851.762 691.098 -928.402 682.005C-1048.3 667.783 -1142.76 612.159 -1154.65 550.15C-1156.24 541.904 -1157.09 533.597 -1158.3 525.311Z" fill="#CCEBFF"/>
</svg>
