<svg width="112" height="167" viewBox="0 0 112 167" fill="none" xmlns="http://www.w3.org/2000/svg">
<path d="M77.1383 162.557C77.6913 163.523 76.4765 164.597 75.4462 163.982C59.3416 154.678 -4.25189 112.926 13.9459 40.775C19.5235 18.851 42.2908 2.32559 67.0836 5.43622C81.2695 7.18701 99.1421 15.3762 105.691 27.7606C112.609 40.7888 106.219 54.0735 94.2662 62.0226C79.5907 71.7867 58.4512 81.4483 56.0626 100.3C53.1748 121.713 66.1325 143.751 77.1383 162.557Z" fill="#CCEBFF"/>
<path d="M66.8765 15.3689C70.021 20.7421 74.0983 25.6137 78.4251 30.2107C81.8627 33.9059 86.6994 37.8544 87.5772 42.8795C87.8264 44.6168 86.0367 45.9302 84.2364 45.3312C78.521 43.3991 74.8233 38.0661 71.5702 33.6869C67.6448 28.4296 63.3397 23.6337 59.9999 18.038C57.6795 14.1631 64.5669 11.3946 66.8765 15.3689Z" fill="#0286C3" fill-opacity="0.5"/>
<path d="M45.8107 35.4047C47.4813 33.1729 50.5942 31.8028 52.8823 33.9641C57.2743 37.9646 61.1781 42.4149 64.724 47.1278C67.8796 51.3957 70.547 56.1132 74.7872 59.4936C79.331 63.1084 69.547 72.3004 66.0988 66.6928C62.8241 61.5065 59.3216 56.396 55.4612 51.5481C53.4334 49.0129 51.3948 46.5771 49.1392 44.1176C46.7969 41.4475 43.1097 39.0328 45.8107 35.4047Z" fill="#0286C3" fill-opacity="0.5"/>
<path d="M24.7706 42.1614C26.4952 41.4444 28.5992 41.2719 29.8681 41.7123C31.8853 42.335 33.1215 44.0796 34.2601 45.7129C38.5975 52.2224 42.9349 58.7319 47.2723 65.2413C48.4976 67.0853 49.7663 69.5376 48.6814 71.431C47.2278 73.6864 43.562 73.0848 41.6208 71.7662C37.9554 69.1528 35.8845 63.9974 33.0759 60.5721C29.7794 56.5906 26.2333 52.8837 23.1754 48.727C22.6116 47.8607 21.9392 46.9825 21.8201 46.0641C21.5817 44.2274 23.1654 42.7908 24.7706 42.1614Z" fill="#0286C3" fill-opacity="0.5"/>
<path d="M27.4768 73.6421C29.7001 74.388 31.9449 75.9409 33.0511 76.8665C36.3478 79.8421 38.5598 83.7051 41.2599 87.1185C43.7539 90.4088 47.2458 93.6069 48.4709 97.4627C49.6309 100.909 45.0754 103.429 42.1908 100.7C38.4061 97.168 35.1421 92.8883 31.748 88.7956C30.0021 86.6935 28.2454 84.6909 26.3693 82.7759C24.6885 81.0834 22.346 79.4191 21.8366 77.0498C21.273 74.1716 24.7221 72.7377 27.4768 73.6421Z" fill="#0286C3" fill-opacity="0.5"/>
<path d="M28.0906 107.201C28.8717 106.079 30.1732 105.215 31.7025 105.282C34.967 105.538 38.5018 112.362 40.1283 114.551C43.1212 118.298 46.3311 122.069 49.5626 125.641C51.5254 127.767 56.3079 131.207 55.9712 134.288C55.5479 137.159 51.5999 138.136 49.4094 136.087C45.1367 131.998 41.0918 127.834 37.188 123.384C35.2361 121.159 33.295 118.835 31.4624 116.522C30.0202 114.654 27.6886 112.891 27.1791 110.521C26.9515 109.591 27.3204 108.223 28.0906 107.201Z" fill="#0286C3" fill-opacity="0.5"/>
<path d="M87.1348 21.8108C90.3016 22.9615 92.7848 26.3512 95.0621 28.6119C97.437 30.9838 100.137 33.3912 101.677 36.3761C103.217 39.3609 98.5309 42.0681 96.3079 39.3104C94.1716 36.7634 92.0245 34.3158 89.6496 31.9438C87.4917 29.5956 84.6721 27.2757 83.794 24.2626C83.2085 22.5891 85.4429 21.2237 87.1348 21.8108Z" fill="#0286C3" fill-opacity="0.5"/>
<path d="M48.8614 17.5286C54.2296 20.6298 58.936 25.7713 62.5903 30.496C64.3254 32.6975 61.4725 35.7055 59.0325 33.93C54.0548 30.2678 50.7693 25.181 45.3035 21.9685C42.0175 19.8994 45.5537 15.6583 48.8614 17.5286Z" fill="#0286C3" fill-opacity="0.5"/>
<path d="M52.0339 55.8005C54.2462 57.6516 55.7534 59.9288 57.2607 62.2059C58.7679 64.483 60.85 66.5212 60.8822 69.2408C60.9253 70.855 58.6042 72.0098 57.0317 71.335C54.418 70.1442 53.2796 67.5049 51.7723 65.2278C50.2651 62.9507 48.6494 60.6617 47.8363 58.058C47.2835 56.0863 50.3205 54.4062 52.0339 55.8005Z" fill="#0286C3" fill-opacity="0.5"/>
<path d="M20.7001 57.3083C23.8993 59.1666 27.3479 61.7564 29.3323 64.6893C30.0913 65.7781 30.1779 66.9947 29.2017 67.894C28.3448 68.7058 26.783 68.9376 25.7745 68.1232C22.8247 65.9903 20.2221 63.6941 17.1421 61.7481C13.8562 59.6791 17.4033 55.3386 20.7001 57.3083Z" fill="#0286C3" fill-opacity="0.5"/>
<path d="M33.0467 26.6664C36.2893 29.1331 39.9872 32.4543 41.4509 36.135C42.47 38.8618 38.9232 41.1904 36.6676 38.7309C35.4964 37.3959 34.4554 35.8738 33.2734 34.6382C32.0914 33.4025 30.7901 32.2544 29.3694 31.1939C26.2245 28.8385 29.7933 24.2992 33.0467 26.6664Z" fill="#0286C3" fill-opacity="0.5"/>
<path d="M78.4434 49.1309C79.7559 48.1677 81.2417 48.6318 82.2394 49.5455C84.5384 51.6073 86.7289 53.6573 88.67 55.9818C91.2834 59.1846 86.0444 62.9379 83.5395 59.747C81.5984 57.4225 79.896 54.9228 78.0634 52.6102C77.185 51.6089 77.2503 50.0065 78.4434 49.1309Z" fill="#0286C3" fill-opacity="0.5"/>
<path d="M46.2832 76.3007C48.1811 77.011 49.8078 78.1946 51.3152 79.4658C52.8226 80.737 54.5469 82.0319 55.6963 83.5658C57.7133 86.2004 54.2096 90.1433 51.2816 87.8115C49.7633 86.6397 48.4946 85.1934 47.1065 83.8346C45.816 82.5871 44.2978 81.4153 43.2568 79.8933C42.0315 78.0493 43.6479 75.3087 46.2832 76.3007Z" fill="#0286C3" fill-opacity="0.5"/>
<path d="M22.9099 86.3194C26.9549 89.4773 30.7503 93.9157 32.5501 98.5385C33.5909 101.066 30.1742 103.208 28.1139 100.971C25.0775 97.6216 23.0933 93.6829 19.3519 90.7593C16.4239 88.4276 19.9819 83.9877 22.9099 86.3194Z" fill="#0286C3" fill-opacity="0.5"/>
<path d="M46.8867 107.947C49.4894 110.243 51.5822 113.188 53.7076 115.834C56.2234 118.926 51.4508 122.428 48.6964 119.512C46.3541 116.842 43.6214 113.727 42.3312 110.467C41.2036 107.729 44.6853 105.996 46.8867 107.947Z" fill="#0286C3" fill-opacity="0.5"/>
<path d="M58.1945 141.074C59.9947 142.679 61.7948 144.284 63.4757 145.977C65.1565 147.669 67.1736 149.298 68.1603 151.317C69.212 153.746 66.4028 155.35 64.2229 154.207C62.2492 153.186 60.7202 151.108 59.2454 149.538C57.673 147.858 56.1006 146.177 54.6475 144.409C52.8908 142.406 55.8846 139.112 58.1945 141.074Z" fill="#0286C3" fill-opacity="0.5"/>
</svg>
