<svg width="382" height="405" viewBox="0 0 382 405" fill="none" xmlns="http://www.w3.org/2000/svg">
<g clip-path="url(#clip0_4647_56960)">
<path opacity="0.3" d="M17.178 -38.4699C36.3249 -46.3755 56.6554 -51.0923 76.964 -51.0147C94.847 -50.8186 117.277 -48.7439 127.837 -29.6849C150.09 10.2303 121.547 63.6646 204.578 54.5296C287.609 45.3947 286.164 71.9532 291.076 102.957C295.987 133.96 288.299 198.14 219.543 186.048C188.304 183.41 165.109 209.178 161.033 239.723C157.994 261.91 152.821 307.309 138.958 320.8C116.24 342.802 84.0881 355.945 54.2413 353.144C5.69638 348.812 -67.8587 291.694 -49.2128 226.31C-44.6618 210.352 -35.5172 196.633 -24.9239 185.173C-3.735 162.768 36.7612 147.097 13.0894 101.675C0.982225 78.6048 -15.6988 57.4193 -23.1021 31.4838C-33.57 -5.72219 -10.6231 -26.9523 17.178 -38.4699Z" fill="#689576"/>
<path opacity="0.3" d="M35.8246 -40.9046C35.8246 -40.9046 99.0372 -69.6586 120.915 -14.2753C142.748 41.2629 214.495 21.3734 232.297 23.4259C250.099 25.4783 307.87 33.1032 296.851 114.729C285.831 196.354 251.578 202.19 245.423 202.281C239.268 202.371 181.018 197.997 166.547 234.588C152.076 271.178 149.255 366.516 74.2349 331.833C-0.964056 297.253 -40.1996 285.439 -41.0041 248.945C-41.8086 212.451 -16.2168 208.68 21.3982 163.798C59.1482 118.966 39.2702 86.9747 27.016 70.7102C14.7177 54.6007 -34.93 -10.8657 35.8246 -40.9046Z" fill="#E4F9EA" stroke="white" stroke-opacity="0.5" stroke-miterlimit="10" stroke-linecap="round" stroke-linejoin="round"/>
</g>
<defs>
<clipPath id="clip0_4647_56960">
<rect width="382" height="405" rx="16" fill="white"/>
</clipPath>
</defs>
</svg>
