<svg width="471" height="636" viewBox="0 0 471 636" fill="none" xmlns="http://www.w3.org/2000/svg">
<g opacity="0.6">
<path d="M376.179 563.933C427.145 561.91 460.947 444.558 471.232 353.374C481.445 262.416 470.414 224.984 437.834 229.334C405.104 233.761 404.483 295.649 361.086 293.243C317.69 290.837 316.14 210.792 319.165 186.962C322.19 163.132 330.739 48.8474 229.59 61.9389C128.44 75.0304 191.809 193.03 197.902 206.352C203.996 219.674 273.085 316.056 238.193 338.018C203.302 359.98 165.784 285.448 138.597 302.155C111.339 319.088 112.11 574.234 376.179 563.933Z" fill="#F9E4EE"/>
<path d="M124.046 278.558C122.272 277.007 119.904 276.137 117.322 275.943C112.765 275.622 108.338 278.07 106.444 282.061C106.008 283.039 105.722 283.941 105.586 284.766C104.857 286.272 104.586 287.922 104.693 289.568C104.708 290.317 104.872 290.989 105.116 291.809C105.61 293.825 106.483 295.836 108.107 297.464C110.819 300.427 115.168 301.798 119.174 301.077C120.232 300.915 121.362 300.527 122.263 300.067C123.694 299.526 125.196 298.76 126.54 297.696C132.883 292.38 130.649 282.748 124.046 278.558Z" fill="#A25F9D"/>
<path d="M118.076 322.729C117.104 323.414 116.283 324.022 115.768 324.851C98.2274 338.524 105.688 367.762 115.697 383.803C125.778 399.619 149.216 420.514 169.559 410.698C190.952 400.345 179.438 365.245 171.18 349.633C162.608 333.425 137.99 310.3 118.076 322.729ZM159.841 358.819C163.709 366.853 175.223 397.988 159.48 398.847C146.538 399.598 133.078 385.318 127.201 375.288C121.167 364.961 114.902 346.631 123.718 336.278C124.168 336.048 124.697 335.967 125.068 335.589C138.402 327.651 154.951 348.852 159.841 358.819Z" fill="#A25F9D"/>
<path d="M246.618 248.22C240.775 240.056 230.892 234.709 220.546 236.777C220.017 236.858 219.566 237.088 219.037 237.169C217.9 237.183 216.764 237.196 215.563 237.809C204.817 242.726 199.279 254.243 195.313 264.768C191.061 276.194 191.207 287.643 195.672 298.967C199.507 309.1 205.78 319.879 216.471 323.869C227.161 327.859 238.079 323.988 243.803 314.266C249.678 304.466 251.398 291.498 252.776 280.405C254.303 269.235 253.471 257.569 246.618 248.22ZM238.565 266.876C240.155 278.533 237.356 294.508 232.254 305.046C223.221 324.014 208.577 295.97 206.801 286.486C204.682 274.91 209.37 262.506 218.398 255.065C229.222 246.33 237.053 255.368 238.565 266.876Z" fill="#A25F9D"/>
<path d="M293.4 337.698C288.644 338.803 285.383 342.734 284.791 347.383C284.248 350.683 285.293 353.74 287.31 356.112C287.389 356.261 287.547 356.559 287.625 356.707C292.806 365.78 306.08 362.03 308.481 352.868C310.66 344.008 302.683 335.418 293.4 337.698Z" fill="#A25F9D"/>
<path d="M265.66 370.934C256.589 364.233 236.848 358.256 225.744 363.924C224.007 364.243 222.357 365.086 221.099 366.672C206.625 386.145 223.811 408.91 236.908 423.942C243.499 431.72 252.063 439.624 262.483 441.671C273.132 443.789 280.877 436.815 284.334 427.497C291.369 407.289 283.108 383.745 265.66 370.934ZM270.468 423.621C264.74 436.931 247.497 415.139 243.072 409.655C237.174 402.468 229.796 393.203 229.765 383.777C230.88 382.641 231.687 381.285 231.801 379.339C233.148 366.754 259.696 383.797 263.177 387.497C271.541 396.825 275.468 411.816 270.468 423.621Z" fill="#A25F9D"/>
<path d="M213.416 442.9C212.121 442.616 210.905 442.481 209.617 442.571C204.366 441.659 198.865 443.521 195.847 448.275C192.164 453.934 192.724 463.288 199.243 466.955C201.16 468.056 203.593 468.327 205.624 467.479C206.082 467.624 206.619 467.917 207.077 468.061C213.559 469.857 219.753 464.617 221.075 458.461C223.906 451.912 220.349 444.466 213.416 442.9Z" fill="#A25F9D"/>
<path d="M202.864 524.022C198.78 524.594 195.355 527.854 194.14 531.686C194.069 531.912 193.926 532.363 193.933 532.737C193.861 532.963 193.79 533.188 193.718 533.413C191.724 540.1 196.955 547.825 204.165 548.114C210.846 548.485 217.032 542.871 217.13 536.207C217.143 529.019 210.274 522.886 202.864 524.022Z" fill="#A25F9D"/>
<path d="M324.667 462.314C322.313 458.224 317.936 455.357 312.858 455.491C305.506 455.653 302.36 461.604 302.927 467.362C302.348 468.791 301.998 470.292 301.955 472.014C301.863 475.085 303.745 478.281 306.356 479.972C306.821 480.491 307.436 480.933 308.051 481.375C311.506 483.58 315.146 483.612 318.457 482.3C323.914 482.161 329.077 478.581 329.182 472.292C329.175 471.918 329.089 471.395 329.082 471.02C329.017 467.653 327.214 464.604 324.667 462.314Z" fill="#A25F9D"/>
<path d="M354.363 520.746C351.702 520.403 349.285 520.881 347.333 521.877C345.373 522.499 343.579 523.793 342.399 525.528C340.111 528.774 340.262 532.665 341.694 536.092C342.008 536.687 342.173 537.359 342.559 537.729C343.275 539.442 344.141 541.079 345.378 542.337C347.081 544.113 349.227 545.286 351.58 545.408C352.345 545.773 353.182 545.913 353.869 546.129C358.131 546.977 361.664 545.363 363.501 542.347C365.582 540.152 366.818 537.442 367.061 534.295C367.381 527.329 361.279 521.562 354.363 520.746Z" fill="#A25F9D"/>
<path d="M430.082 387.254C429.696 386.884 429.388 386.663 429.08 386.442C428.837 385.622 428.293 384.954 427.52 384.215C422.434 380.007 415.324 380.989 412.093 386.418C407.222 389.47 403.998 395.273 405.566 401.843C407.22 408.936 414.066 413.947 421.476 412.811C423.214 412.491 424.945 411.797 426.368 410.882C430.002 410.539 433.449 408.402 435.036 404.191C437.044 398.252 434.789 391.466 430.082 387.254Z" fill="#A25F9D"/>
<path d="M423.69 294.591C421.173 293.798 418.441 293.68 415.889 294.983C411.084 297.435 410.07 303.809 412.424 307.898C412.431 308.272 412.667 308.718 412.825 309.016C412.718 311.337 413.448 313.799 415.308 315.872C418.956 320.245 426.021 320.985 430.267 317.118C434.514 313.25 435.22 306.656 432.923 301.593C431.034 298.023 427.644 295.218 423.69 294.591Z" fill="#A25F9D"/>
<path d="M258.891 476.246C256.405 476.948 254.998 478.611 254.198 480.34C244.455 489.656 246.433 513.568 248.686 524.312C251.698 539.012 263.517 574.327 284.692 568.617C294.037 566.113 297.528 554.702 299.412 546.378C301.86 535.877 301.871 524.732 298.868 514.37C294.728 500.058 278.244 470.333 258.891 476.246ZM283.972 515.743C287.103 524.906 289.001 540.741 283.337 549.485C278.338 557.323 273.856 548.849 270.875 543.573C267.894 538.297 265.592 532.864 264.041 527.048C262.653 521.904 257.509 494.887 264.546 490.541C268.883 491.536 273.393 497.542 275.566 500.209C279.139 504.804 281.97 510.156 283.972 515.743Z" fill="#A25F9D"/>
<path d="M354.727 377.259C333.97 384.834 340.379 418.563 344.955 435.86C348.465 448.981 366.101 499.256 388.227 484.186C397.198 478.097 399.079 461.846 399.949 451.963C400.867 440.734 399.807 429.005 396.418 418.275C392.622 406.054 372.953 364.18 354.727 377.259ZM383.219 425.012C386.823 439.03 386.655 453.84 382.001 467.731C380.495 472.087 379.738 472.096 376.644 468.767C373.778 465.51 371.285 461.875 369.091 458.086C364.624 450.361 361.507 441.947 359.141 433.15C356.452 423.384 348.953 399.839 358.409 391.426C359.695 391.336 360.973 390.872 362.166 389.886C364.109 388.517 374.799 404.769 375.507 406.107C378.88 412.125 381.424 418.377 383.219 425.012Z" fill="#A25F9D"/>
<path d="M366.77 254.478C363.788 253.166 360.442 252.607 357.268 253.093C349.483 254.233 343.694 260.587 339.5 267.072C329.852 281.629 324.58 299.052 324.542 316.639C324.595 327.19 326.47 337.944 331.577 347.237C337.778 358.24 355.669 374.043 368.663 364.011C372.173 361.276 374.524 357.431 376.567 353.366C388.179 330.63 391.067 303.656 384.298 278.966C382.502 272.327 379.877 265.922 375.457 260.811C373.055 258.07 369.98 255.861 366.77 254.478ZM371.153 285.107C373.1 295.636 373.41 307.755 373.304 310.076C372.919 317.639 367.581 355.119 356.6 351.656C342.415 347.184 338.042 328.827 339.083 316.018C339.689 308.153 352.524 262.503 364.707 269.319C369.226 271.735 370.387 280.776 371.153 285.107Z" fill="#A25F9D"/>
</g>
</svg>
