<svg width="669" height="685" viewBox="0 0 669 685" fill="none" xmlns="http://www.w3.org/2000/svg">
<path fill-rule="evenodd" clip-rule="evenodd" d="M642.384 328.453C646.412 429.933 665.523 544.837 594.724 617.634C523.617 690.748 406.627 690.649 305.956 674.373C220.894 660.621 163.856 593.45 98.4053 537.393C23.9232 473.602 -82.0618 428.088 -95.1031 330.88C-108.901 228.035 -50.2994 120.732 34.4842 60.9342C110.851 7.07242 210.457 49.6301 303.9 49.462C397.077 49.2943 500.679 0.696451 572.587 59.9659C646.756 121.099 638.571 232.398 642.384 328.453Z" fill="#F9E4EE" fill-opacity="0.5"/>
<path fill-rule="evenodd" clip-rule="evenodd" d="M662.384 298.453C666.412 399.933 685.523 514.837 614.724 587.634C543.617 660.748 426.627 660.649 325.956 644.373C240.894 630.621 183.856 563.45 118.405 507.393C43.9232 443.602 -62.0618 398.088 -75.1031 300.88C-88.9006 198.035 -30.2994 90.7322 54.4842 30.9342C130.851 -22.9276 230.457 19.6301 323.9 19.462C417.077 19.2943 520.679 -29.3035 592.587 29.9659C666.756 91.0993 658.571 202.398 662.384 298.453Z" stroke="#A25F9D"/>
</svg>
