<svg width="1536" height="1113" viewBox="0 0 1536 1113" fill="none" xmlns="http://www.w3.org/2000/svg">
<path d="M1531.44 1098.32C1377.27 1122.95 1227.96 1112.05 1080.53 1086.22C928.71 1059.62 799.901 1011.48 690.872 946.505C578.775 879.697 467.602 812.245 360.965 742.517C238.14 662.197 135.131 573.403 66.1222 472.64C16.5396 400.243 -19.2692 325.353 -23.5522 245.865C-27.3162 176.354 15.9366 114.833 85.883 59.7039C145.88 12.4277 232.576 -2.94877 330.06 1.44001C446.479 6.68717 543.936 35.1357 630.265 78.0068C659.162 92.3582 688.743 106.307 719.279 119.478C806.508 157.112 898.914 161.777 1000.81 132.732C1054.59 117.401 1112.1 104.252 1170.11 97.0887C1291.77 82.074 1393.46 107.173 1474.72 157.305C1566.48 213.917 1601.9 283.618 1585.45 361.595C1577.81 397.826 1566.67 435.117 1543.47 468.994C1499.94 532.579 1513.76 584.814 1592.8 633.973C1653.88 671.96 1709.13 713.557 1760.52 756.22C1810.05 797.331 1833.58 845.373 1830.93 896.736C1826.79 977.088 1723.47 1056.7 1586.54 1086.91C1568.34 1090.94 1549.82 1094.53 1531.44 1098.32Z" fill="#FFEA8B" fill-opacity="0.5"/>
</svg>
