<svg width="1024" height="815" viewBox="0 0 1024 815" fill="none" xmlns="http://www.w3.org/2000/svg">
<path d="M1182.2 787.507C1065.5 817.669 951.087 819.348 837.509 809.066C720.55 798.481 620.297 769.231 534.47 725.288C446.228 680.101 358.665 634.34 274.474 586.462C177.502 531.312 95.3185 468.079 38.6105 393.015C-2.13391 339.082 -32.4636 282.223 -38.9113 219.544C-44.5639 164.733 -14.006 113.005 37.1843 64.4972C81.0933 22.8983 146.66 4.72808 221.251 1.472C310.331 -2.4118 385.864 13.3955 453.479 41.3978C476.111 50.772 499.25 59.78 523.087 68.1059C591.18 91.8967 661.906 89.2103 738.528 59.1615C778.97 43.3004 822.343 28.9112 866.344 19.2288C958.615 -1.06965 1037.24 11.7917 1101.28 45.8965C1173.58 84.4109 1203.41 137.186 1193.98 200.099C1189.59 229.331 1182.58 259.646 1166.22 288.087C1135.53 341.469 1148.17 381.899 1210.47 415.386C1258.62 441.263 1302.46 470.402 1343.4 500.652C1382.85 529.802 1402.73 566.239 1402.76 607.115C1402.81 671.061 1327.12 741.273 1223.81 774.665C1210.07 779.115 1196.08 783.232 1182.2 787.507Z" fill="#FFEA8B" fill-opacity="0.5"/>
</svg>
