<svg width="428" height="887" viewBox="0 0 428 887" fill="none" xmlns="http://www.w3.org/2000/svg">
<path d="M880.221 855.494C749.594 889.288 621.887 891.898 495.263 881.411C364.87 870.616 253.359 839.282 158.137 791.772C60.234 742.917 -36.9026 693.428 -130.25 641.601C-237.767 581.901 -328.677 513.256 -391.005 431.491C-435.787 372.744 -468.909 310.725 -475.303 242.175C-480.911 182.231 -446.146 125.416 -388.397 71.9861C-338.862 26.166 -265.456 5.83912 -182.169 1.77279C-82.7043 -3.0782 1.39041 13.7112 76.4918 43.8997C101.63 54.0058 127.338 63.7076 153.834 72.6584C229.523 98.2347 308.489 94.8179 394.385 61.4171C439.722 43.7868 488.311 27.7473 537.54 16.8547C640.776 -5.9813 728.364 7.56327 799.391 44.4542C879.593 86.115 912.204 143.668 900.872 212.582C895.605 244.602 887.388 277.823 868.774 309.059C833.844 367.685 847.428 411.844 916.533 448.07C969.932 476.064 1018.48 507.657 1063.79 540.486C1107.44 572.12 1129.17 611.86 1128.68 656.593C1127.92 726.572 1042.55 803.92 926.823 841.16C911.437 846.121 895.769 850.721 880.221 855.494Z" fill="#FFEA8B" fill-opacity="0.5"/>
</svg>
