<svg width="1280" height="861" viewBox="0 0 1280 861" fill="none" xmlns="http://www.w3.org/2000/svg">
<path d="M1170.98 847.321C1052.86 868.373 938.853 861.519 826.447 842.936C710.695 823.804 612.779 787.516 530.172 737.816C445.24 686.712 361.022 635.092 280.297 581.636C187.318 520.06 109.583 451.618 57.9718 373.407C20.8897 317.213 -5.63557 258.91 -8.01042 196.646C-10.1014 142.197 23.657 93.4797 77.7476 49.471C124.144 11.7312 190.589 -1.30345 265.056 1.03442C353.987 3.83102 428.162 25.0303 493.667 57.6617C515.593 68.5853 538.047 79.1856 561.24 89.1655C627.493 117.681 698.075 120.293 776.293 96.3714C817.577 83.7444 861.683 72.7862 906.112 66.5144C999.279 53.3679 1076.73 71.8935 1138.27 110.274C1207.77 153.616 1234.06 207.856 1220.61 269.17C1214.36 297.659 1205.42 327.019 1187.3 353.839C1153.31 404.177 1163.28 444.969 1223.14 482.612C1269.4 511.7 1311.16 543.684 1349.97 576.548C1387.36 608.216 1404.81 645.611 1402.2 685.906C1398.12 748.943 1318.24 812.525 1213.24 837.757C1199.28 841.121 1185.08 844.139 1170.98 847.321Z" fill="#FFEA8B" fill-opacity="0.5"/>
</svg>
