<svg width="108" height="84" viewBox="0 0 108 84" fill="none" xmlns="http://www.w3.org/2000/svg">
<path d="M80.3142 77.8307C69.9595 81.9886 60.9938 84.0965 50.9873 83.8843C36.2073 83.5716 23.4608 77.9129 12.7299 67.5536C6.17463 61.2256 1.71969 54.2131 0.423091 46.495C-0.145557 43.109 -0.0703154 39.6837 0.336485 36.432C0.939732 31.613 4.26341 28.2258 8.39217 25.522C11.8553 23.2551 14.4252 20.3415 17.1876 17.5332C20.8929 13.7668 24.537 9.88785 28.883 6.6794C35.3221 1.92649 43.7736 0.216074 53.1495 0.584123C70.1303 1.2503 84.2179 8.13424 95.4675 20.6232C100.929 26.6864 104.624 33.2717 106.439 40.2644C109.003 50.1464 106.199 58.2495 99.5873 64.9306C93.7909 70.7879 86.4481 75.1394 80.3142 77.8307Z" fill="#FFEA8B" fill-opacity="0.5"/>
</svg>
