<svg width="768" height="818" viewBox="0 0 768 818" fill="none" xmlns="http://www.w3.org/2000/svg">
<path d="M1127.53 783.094C996.954 816.984 870.43 821.918 745.468 814.694C616.786 807.258 507.564 780.418 415.071 738.266C319.974 694.921 225.66 650.974 135.185 604.785C30.9751 551.579 -56.4601 489.757 -115.11 415.215C-157.249 361.656 -187.723 304.836 -191.493 241.438C-194.807 185.998 -158.27 132.664 -99.1044 82.0137C-48.3554 38.577 25.073 18.2945 107.676 12.8858C206.324 6.43127 288.948 20.3334 362.169 46.8296C386.678 55.6996 411.766 64.1838 437.662 71.9565C511.636 94.167 589.938 89.4453 676.22 56.8013C721.76 39.5705 770.46 23.7498 819.602 12.6861C922.655 -10.5092 1008.86 0.317208 1077.8 33.1047C1155.64 70.1316 1185.77 122.823 1171.98 186.908C1165.57 216.684 1156.2 247.632 1136.6 276.944C1099.83 331.96 1111.63 372.615 1178.69 404.824C1230.51 429.714 1277.39 458.035 1321.02 487.564C1363.06 516.019 1383.08 552.418 1380.92 593.881C1377.56 658.745 1290.16 732.104 1174.2 768.893C1158.78 773.794 1143.1 778.366 1127.53 783.094Z" fill="#FFEA8B" fill-opacity="0.5"/>
</svg>
