<svg width="375" height="340" viewBox="0 0 375 340" fill="none" xmlns="http://www.w3.org/2000/svg">
<g opacity="0.2">
<path d="M170.014 18.9304C169.65 18.0665 169.286 17.4186 168.922 16.7707C166.738 8.99553 160.186 3.81206 145.989 6.61976C132.885 9.21148 126.333 21.9541 123.057 28.8653C120.145 35.1287 118.689 43.1198 122.693 49.5991C122.329 52.6228 122.329 55.8624 123.057 59.1021C124.149 65.3654 135.433 67.9571 143.805 64.9334C148.537 63.4216 152.178 61.4778 155.09 59.534C173.29 53.9186 172.198 27.7855 170.014 18.9304Z" fill="#FBB22E"/>
<path d="M294.87 9.86063C292.322 -2.66601 272.302 -2.45 261.382 5.97308C250.461 14.6121 233.717 30.1625 239.905 41.6092C243.909 48.9524 254.101 50.4642 263.566 48.5205C269.754 47.8725 275.578 45.7128 279.946 42.6891C291.594 34.05 297.054 20.4435 294.87 9.86063Z" fill="#FBB22E"/>
<path d="M210.053 85.6729C209.689 84.377 208.597 82.8652 207.141 81.7853C202.773 74.8741 189.305 73.7942 178.021 77.8977C158.364 85.2409 125.603 116.126 158.728 124.765C174.381 128.868 190.033 122.605 199.133 115.262C209.689 107.055 213.694 96.0398 210.053 85.6729Z" fill="#FBB22E"/>
<path d="M282.859 135.564C284.315 133.188 285.407 130.596 285.771 128.005C286.135 127.573 286.499 127.141 286.499 126.709C287.591 123.901 287.227 122.173 285.771 119.365C285.771 119.149 285.407 119.149 285.407 118.933C285.407 118.502 285.407 117.854 285.407 117.422C285.043 113.534 279.947 110.942 274.123 110.51C269.391 109.215 263.566 109.647 259.562 112.454C250.462 118.718 227.893 141.179 236.266 152.194C238.086 155.649 243.91 157.593 249.37 157.809C249.734 157.809 249.734 157.809 250.098 157.809C269.391 159.969 278.855 147.658 282.859 135.564Z" fill="#FBB22E"/>
<path d="M75.0073 132.963C74.2793 131.235 72.0952 129.939 69.5472 129.075C69.1832 128.427 68.8189 127.779 68.8189 127.347C67.7269 124.972 64.8148 123.46 61.5387 122.812C58.9906 121.084 55.7145 120.004 50.9824 120.004C38.606 119.788 31.6902 128.211 27.6861 135.554C25.1381 138.578 23.6817 142.25 23.6817 145.705C22.2256 153.048 24.7741 160.824 36.7864 164.495C48.7987 168.383 60.4468 165.143 66.6349 159.096C69.183 157.8 71.7311 156.504 73.5512 154.56C80.8314 147.649 78.2834 140.09 75.0073 132.963Z" fill="#FBB22E"/>
<path d="M179.114 184.798C178.022 180.911 175.474 177.239 170.377 174.647C155.453 166.872 135.068 176.591 125.24 183.718C115.412 190.845 104.856 202.724 116.14 211.363C119.78 214.171 124.512 215.467 129.244 215.683C130.7 216.547 132.521 217.411 135.069 218.059C151.813 222.378 167.829 210.715 174.018 202.94C175.474 200.996 176.93 198.621 178.022 196.245C183.846 193.653 186.394 188.47 179.114 184.798Z" fill="#FBB22E"/>
<path d="M51.3482 243.113C55.3523 235.986 54.6241 218.924 41.1558 215.469C38.2437 210.501 28.4154 208.989 21.4992 211.581C4.02677 218.06 -5.07336 232.531 2.93484 243.977C4.02686 245.705 5.84709 247.217 7.66713 248.513C9.12317 250.889 12.399 252.184 16.0391 252.832C19.6792 253.912 23.6834 254.776 28.0515 254.56C39.6998 254.56 47.3441 249.377 51.3482 243.113Z" fill="#FBB22E"/>
<path d="M167.495 278.696C170.407 275.24 171.863 271.568 170.771 268.545V268.329C171.863 263.361 168.951 258.826 163.491 256.234C161.307 254.29 157.667 252.994 151.843 252.778C134.734 251.699 120.538 265.521 115.078 273.512C111.802 278.048 109.254 282.799 113.622 287.551C117.99 292.302 127.09 293.598 135.099 291.438C142.379 291.222 150.387 289.494 155.483 287.335C155.847 287.119 156.211 287.119 156.575 286.903C161.307 284.743 164.947 282.151 167.495 278.696Z" fill="#FBB22E"/>
<path d="M372.774 63.4215C372.774 63.2056 373.138 62.9896 373.138 62.7736C376.414 54.7825 372.046 44.1996 357.485 41.3919C342.197 38.3683 328.001 46.7914 319.264 53.2707C310.528 59.7499 301.792 68.389 308.708 76.5961C310.892 79.1878 314.168 81.1316 318.172 82.6435C324.36 87.395 337.465 87.179 346.929 83.9393C347.293 83.7233 347.657 83.7233 348.021 83.5074C361.126 80.2677 377.87 72.4926 372.774 63.4215Z" fill="#FBB22E"/>
<path d="M267.567 215.687C267.567 214.824 267.931 213.96 267.931 213.096C267.931 209.424 262.471 206.616 256.647 205.968C254.827 205.321 253.007 204.673 250.823 204.025C222.794 197.761 186.029 227.134 207.142 240.525C212.966 244.196 220.246 245.708 227.526 245.492C230.802 246.356 234.078 246.788 238.446 246.572C261.379 246.14 273.391 228.43 267.567 215.687Z" fill="#FBB22E"/>
<path d="M69.1825 324.323C71.0025 321.731 71.7308 318.707 71.7308 315.9C71.3668 311.148 67.7267 305.965 60.8105 303.373C56.0784 296.462 45.8862 291.062 31.6898 293.006C12.7614 295.382 0.0210347 307.476 2.5691 318.491C4.75315 327.994 17.8575 335.337 33.5099 336.849C34.6019 337.281 35.6939 337.713 37.15 338.145C46.9782 340.953 58.2624 339.009 64.8145 333.826C67.7266 331.018 69.1825 327.778 69.1825 324.323Z" fill="#FBB22E"/>
</g>
</svg>
