<svg width="941" height="668" viewBox="0 0 941 668" fill="none" xmlns="http://www.w3.org/2000/svg">
<path d="M56.3238 82.4609C104.607 38.6108 163.102 17.7881 225.952 6.61481C290.671 -4.89414 354.22 1.27719 416.187 21.5841C479.901 42.4676 543.494 63.9237 606.189 87.6363C678.404 114.952 746.206 151.211 805.566 201.213C848.217 237.138 886.652 277.164 915.066 325.882C939.92 368.483 944.815 414.801 937.751 462.074C931.688 502.616 905.052 528.226 867.78 543.519C823.267 561.779 777.881 562.081 731.71 551.342C716.255 547.746 700.685 544.528 685.026 541.971C640.294 534.66 604.793 548.842 577.192 585.776C562.624 605.271 545.952 624.095 527.071 639.286C487.476 671.136 441.667 674.307 394.906 658.107C342.104 639.812 305.563 602.947 285.269 551.336C275.84 527.356 267.338 502.068 264.415 476.677C258.926 429.022 236.215 399.041 190.596 383.038C155.345 370.671 121.015 354.978 87.7386 337.909C55.6726 321.461 30.8108 295.888 14.4407 263.405C-11.1713 212.59 -0.122604 143.893 39.9438 99.7551C45.2668 93.8795 50.8552 88.2237 56.3238 82.4609Z" fill="#CCF3FF"/>
</svg>
