<svg width="422" height="298" viewBox="0 0 422 298" fill="none" xmlns="http://www.w3.org/2000/svg">
<path d="M215.895 294.237C164.072 286.567 124.134 275.776 88.0406 256.598C34.727 228.274 6.567 188.858 1.36068 140.113C-1.8205 110.336 4.98485 82.5567 25.7367 58.6818C34.8414 48.208 46.4439 38.8209 58.6913 30.5327C76.8434 18.2501 100.264 15.0034 124.386 15.1526C144.616 15.2805 163.699 11.9507 183.143 9.27129C209.221 5.67849 235.447 1.6592 262.036 0.808407C301.428 -0.450037 338.161 10.4918 371.42 28.9318C431.658 62.3272 460.698 107.642 460.77 163.274C460.805 190.283 452.619 215.463 436.169 238.282C412.924 270.53 375.821 287.859 329.418 294.159C288.737 299.683 247.349 298.146 215.895 294.237Z" fill="#134380"/>
</svg>
