<svg width="669" height="557" viewBox="0 0 669 557" fill="none" xmlns="http://www.w3.org/2000/svg">
<path d="M344.273 557C268.613 556.758 209.291 547.605 153.72 522.016C71.6359 484.225 23.1954 419.331 5.62039 331.161C-5.1167 277.302 -1.16587 224.443 23.5289 175.031C34.3637 153.354 48.9942 133.005 64.7749 114.504C88.1642 87.0852 120.962 74.8602 155.468 68.6873C184.407 63.5153 210.988 52.297 238.219 42.1775C274.744 28.6063 311.389 14.2122 349.213 5.54251C405.251 -7.29813 460.023 2.98815 511.391 27.9791C604.425 73.2378 655.349 148.734 667.018 250.93C672.683 300.544 666.219 348.995 647.453 395.318C620.936 460.781 571.512 502.537 506.502 526.515C449.51 547.536 390.039 555.775 344.273 557Z" fill="#134380"/>
</svg>
