<svg width="209" height="71" viewBox="0 0 209 71" fill="none" xmlns="http://www.w3.org/2000/svg">
<path fill-rule="evenodd" clip-rule="evenodd" d="M185.882 45.756C185.51 49.3548 179.692 52.5821 173.136 55.8584C151.606 66.6053 117.452 71.9898 83.265 67.876C30.2471 61.4694 -5.55145 40.7225 9.07831 21.8194C12.3013 17.6342 15.0179 12.0774 31.7788 7.02355C47.363 2.32279 66.1879 1.22523 83.7177 1.74106C101.69 2.25803 118.346 4.45096 129.085 6.36475C175.944 14.7384 219.362 34.8569 198.65 57.0354C198.253 57.4895 199.013 57.8667 200.349 57.9001C201.686 57.9336 203.096 57.6259 203.495 57.2023C224.811 34.3727 180.444 13.584 132.22 4.96507C118.829 2.58589 96.5532 -0.211025 73.7171 0.0837839C58.1099 0.295587 42.2499 1.92925 28.6299 6.01079C10.7752 11.3817 7.60167 17.3049 4.16842 21.7485C-10.9426 41.2639 25.9102 62.7347 80.6658 69.3314C117.412 73.764 154.16 68.0243 177.301 56.4678C184.416 52.9405 190.533 49.4182 190.935 45.512C190.979 45.0814 189.882 44.7878 188.489 44.8803C187.094 44.9424 185.927 45.3559 185.882 45.756Z" fill="#FBB22E"/>
</svg>
