<svg width="56" height="56" viewBox="0 0 56 56" fill="none" xmlns="http://www.w3.org/2000/svg">
<rect width="56" height="56" rx="8" fill="#0286C3"/>
<path d="M34.9974 4.66406H20.9974C19.7087 4.66406 18.6641 5.70873 18.6641 6.9974V11.6641C18.6641 12.9527 19.7087 13.9974 20.9974 13.9974H34.9974C36.2861 13.9974 37.3307 12.9527 37.3307 11.6641V6.9974C37.3307 5.70873 36.2861 4.66406 34.9974 4.66406Z" stroke="#F9F9F9" stroke-width="2" stroke-linecap="round" stroke-linejoin="round"/>
<path d="M24.3159 29.4196C24.771 28.9646 25.3112 28.6036 25.9057 28.3574C26.5002 28.1111 27.1374 27.9844 27.7809 27.9844C28.4244 27.9844 29.0617 28.1111 29.6562 28.3574C30.2507 28.6036 30.7909 28.9646 31.2459 29.4196C31.701 29.8747 32.0619 30.4149 32.3082 31.0094C32.5544 31.6039 32.6812 32.2411 32.6812 32.8846C32.6812 33.5281 32.5544 34.1653 32.3082 34.7599C32.0619 35.3544 31.701 35.8946 31.2459 36.3496L18.5526 48.9963L9.33594 51.3296L11.6459 42.113L24.3159 29.4196Z" stroke="#F9F9F9" stroke-width="2" stroke-linecap="round" stroke-linejoin="round"/>
<path d="M37.3307 9.33594H41.9974C43.2351 9.33594 44.4221 9.8276 45.2972 10.7028C46.1724 11.5779 46.6641 12.7649 46.6641 14.0026V46.6693C46.6641 47.9069 46.1724 49.0939 45.2972 49.9691C44.4221 50.8443 43.2351 51.3359 41.9974 51.3359H29.1641" stroke="#F9F9F9" stroke-width="2" stroke-linecap="round" stroke-linejoin="round"/>
<path d="M9.33594 31.5026V14.0026C9.33594 12.7649 9.8276 11.5779 10.7028 10.7028C11.5779 9.8276 12.7649 9.33594 14.0026 9.33594H18.6693" stroke="#F9F9F9" stroke-width="2" stroke-linecap="round" stroke-linejoin="round"/>
</svg>
