<svg width="611" height="438" viewBox="0 0 611 438" fill="none" xmlns="http://www.w3.org/2000/svg">
<path d="M569.153 290.41C535.769 332.744 496.526 362.584 454.778 387.209C411.788 412.568 370.226 425.868 330.23 429.348C289.106 432.924 248.084 436.086 207.736 437.504C161.261 439.136 118.021 433.621 80.8436 416.671C54.1318 404.492 30.3445 388.437 13.4712 363.867C-1.28901 342.384 -2.78468 312.969 3.61925 279.645C9.11445 251.066 27.5845 226.769 52.6644 206.411C82.6169 182.101 112.476 169.475 142.44 163.966C152.47 162.123 162.589 159.997 172.792 157.409C201.938 150.017 225.811 130.881 245.337 98.8012C255.643 81.8686 267.307 64.8051 280.289 49.55C307.513 17.5621 337.757 2.91604 367.905 0.871377C401.949 -1.43587 424.608 13.0391 436.034 41.7527C441.343 55.0943 445.993 69.5585 446.971 85.6176C448.808 115.758 462.628 129.448 492.034 127.585C514.756 126.146 536.748 127.168 557.997 129.392C578.473 131.536 593.871 141.71 603.428 158.797C618.381 185.527 608.56 234.167 580.569 274.442C576.849 279.801 572.964 285.086 569.153 290.41Z" fill="#FFE0CC"/>
</svg>
