<svg width="24" height="24" viewBox="0 0 24 24" fill="none" xmlns="http://www.w3.org/2000/svg">
<g id="Apple">
<rect width="24" height="24" rx="12" fill="black"/>
<path id="Vector" d="M18.3218 15.7567C18.0848 16.3018 17.8043 16.8035 17.4793 17.2647C17.0362 17.8935 16.6735 18.3287 16.3939 18.5704C15.9606 18.9672 15.4963 19.1703 14.9991 19.1819C14.6421 19.1819 14.2117 19.0808 13.7106 18.8757C13.2079 18.6715 12.7459 18.5704 12.3235 18.5704C11.8804 18.5704 11.4053 18.6715 10.8971 18.8757C10.388 19.0808 9.978 19.1877 9.6645 19.1983C9.18771 19.2185 8.71246 19.0095 8.23809 18.5704C7.93532 18.3076 7.55662 17.8569 7.10295 17.2185C6.61619 16.5367 6.21601 15.7462 5.90251 14.8448C5.56675 13.8713 5.39844 12.9286 5.39844 12.0159C5.39844 10.9705 5.62537 10.0688 6.07991 9.31318C6.43714 8.70624 6.91238 8.22747 7.50719 7.876C8.10199 7.52453 8.74468 7.34542 9.43679 7.33396C9.81549 7.33396 10.3121 7.45058 10.9293 7.67975C11.5447 7.9097 11.9398 8.02631 12.1131 8.02631C12.2426 8.02631 12.6816 7.88996 13.4257 7.61813C14.1294 7.36603 14.7234 7.26165 15.2099 7.30277C16.5284 7.40869 17.5189 7.92607 18.1777 8.85819C16.9985 9.56942 16.4152 10.5656 16.4268 11.8435C16.4375 12.8389 16.8002 13.6672 17.5131 14.3249C17.8362 14.6301 18.197 14.866 18.5984 15.0336C18.5114 15.2849 18.4195 15.5256 18.3218 15.7567ZM15.298 3.9117C15.298 4.69188 15.0116 5.42033 14.4409 6.09457C13.7522 6.89612 12.9191 7.35929 12.0158 7.2862C12.0042 7.19261 11.9976 7.0941 11.9976 6.99058C11.9976 6.24161 12.3251 5.44007 12.9067 4.78469C13.1971 4.45287 13.5665 4.17696 14.0143 3.95686C14.4612 3.74005 14.8839 3.62014 15.2815 3.59961C15.2931 3.70391 15.298 3.80821 15.298 3.91169V3.9117Z" fill="white"/>
</g>
</svg>
