<svg width="20" height="18" viewBox="0 0 20 18" fill="none" xmlns="http://www.w3.org/2000/svg">
<path d="M13.2504 9.44687L12.6504 8.84687C12.8004 7.94687 12.5462 7.18437 11.8879 6.55937C11.2296 5.93437 10.4837 5.69687 9.65039 5.84687L9.05039 5.24687C9.18372 5.19687 9.32539 5.15937 9.47539 5.13437C9.62539 5.10937 9.80039 5.09687 10.0004 5.09687C10.9504 5.09687 11.7546 5.42604 12.4129 6.08437C13.0712 6.74271 13.4004 7.54687 13.4004 8.49687C13.4004 8.69687 13.3879 8.88021 13.3629 9.04687C13.3379 9.21354 13.3004 9.34687 13.2504 9.44687ZM16.4004 12.4969L15.8504 12.0469C16.4837 11.5635 17.0462 11.0344 17.5379 10.4594C18.0296 9.88437 18.4504 9.23021 18.8004 8.49687C17.9671 6.81354 16.7712 5.47604 15.2129 4.48437C13.6546 3.49271 11.9171 2.99687 10.0004 2.99687C9.51706 2.99687 9.04206 3.03021 8.57539 3.09687C8.10872 3.16354 7.65039 3.26354 7.20039 3.39687L6.65039 2.84687C7.20039 2.64687 7.75872 2.50521 8.32539 2.42187C8.89206 2.33854 9.45039 2.29687 10.0004 2.29687C12.0671 2.29687 13.9754 2.86354 15.7254 3.99687C17.4754 5.13021 18.7671 6.63021 19.6004 8.49687C19.2504 9.24687 18.8129 9.95521 18.2879 10.6219C17.7629 11.2885 17.1337 11.9135 16.4004 12.4969ZM17.7004 17.6969L13.9004 13.8969C13.5004 14.0969 12.9629 14.2802 12.2879 14.4469C11.6129 14.6135 10.8504 14.6969 10.0004 14.6969C7.91706 14.6969 6.00872 14.1302 4.27539 12.9969C2.54206 11.8635 1.25039 10.3635 0.400391 8.49687C0.800391 7.61354 1.33372 6.78437 2.00039 6.00937C2.66706 5.23437 3.36706 4.59687 4.10039 4.09687L1.30039 1.29687L1.80039 0.796875L18.2004 17.1969L17.7004 17.6969ZM4.60039 4.59687C4.00039 4.99687 3.37122 5.55104 2.71289 6.25937C2.05456 6.96771 1.55039 7.71354 1.20039 8.49687C2.03372 10.1802 3.22956 11.5177 4.78789 12.5094C6.34622 13.501 8.08372 13.9969 10.0004 13.9969C10.6504 13.9969 11.3087 13.9302 11.9754 13.7969C12.6421 13.6635 13.1171 13.5302 13.4004 13.3969L11.5504 11.5469C11.4004 11.6469 11.1671 11.7302 10.8504 11.7969C10.5337 11.8635 10.2504 11.8969 10.0004 11.8969C9.05039 11.8969 8.24622 11.5677 7.58789 10.9094C6.92956 10.251 6.60039 9.44687 6.60039 8.49687C6.60039 8.26354 6.63372 7.99271 6.70039 7.68437C6.76706 7.37604 6.85039 7.13021 6.95039 6.94687L4.60039 4.59687Z" fill="black"/>
</svg>
