<svg width="24" height="24" viewBox="0 0 24 24" fill="none" xmlns="http://www.w3.org/2000/svg">
<path d="M12.0063 15.8969C12.9523 15.8969 13.7546 15.5658 14.4129 14.9035C15.0712 14.2412 15.4004 13.4371 15.4004 12.491C15.4004 11.5449 15.0693 10.7427 14.407 10.0844C13.7447 9.42604 12.9406 9.09687 11.9945 9.09687C11.0484 9.09687 10.2462 9.428 9.58789 10.0902C8.92956 10.7525 8.60039 11.5567 8.60039 12.5027C8.60039 13.4488 8.93152 14.251 9.59377 14.9094C10.256 15.5677 11.0602 15.8969 12.0063 15.8969ZM12.0004 15.1969C11.2504 15.1969 10.6129 14.9344 10.0879 14.4094C9.56289 13.8844 9.30039 13.2469 9.30039 12.4969C9.30039 11.7469 9.56289 11.1094 10.0879 10.5844C10.6129 10.0594 11.2504 9.79688 12.0004 9.79688C12.7504 9.79688 13.3879 10.0594 13.9129 10.5844C14.4379 11.1094 14.7004 11.7469 14.7004 12.4969C14.7004 13.2469 14.4379 13.8844 13.9129 14.4094C13.3879 14.9344 12.7504 15.1969 12.0004 15.1969ZM12.004 18.6969C9.91825 18.6969 8.01706 18.1344 6.30039 17.0094C4.58372 15.8844 3.28372 14.3802 2.40039 12.4969C3.28372 10.6135 4.58253 9.10938 6.29682 7.98438C8.0111 6.85938 9.9111 6.29688 11.9968 6.29688C14.0825 6.29688 15.9837 6.85938 17.7004 7.98438C19.4171 9.10938 20.7171 10.6135 21.6004 12.4969C20.7171 14.3802 19.4182 15.8844 17.704 17.0094C15.9897 18.1344 14.0897 18.6969 12.004 18.6969ZM12.0004 17.9969C13.8837 17.9969 15.6129 17.501 17.1879 16.5094C18.7629 15.5177 19.9671 14.1802 20.8004 12.4969C19.9671 10.8135 18.7629 9.47604 17.1879 8.48438C15.6129 7.49271 13.8837 6.99687 12.0004 6.99687C10.1171 6.99687 8.38789 7.49271 6.81289 8.48438C5.23789 9.47604 4.03372 10.8135 3.20039 12.4969C4.03372 14.1802 5.23789 15.5177 6.81289 16.5094C8.38789 17.501 10.1171 17.9969 12.0004 17.9969Z" fill="black"/>
</svg>
